<!DOCTYPE svg PUBLIC "-//W3C//DTD SVG 1.1//EN" "http://www.w3.org/Graphics/SVG/1.1/DTD/svg11.dtd">
<!-- Uploaded to: SVG Repo, www.svgrepo.com, Transformed by: SVG Repo Mixer Tools -->
<svg fill="#ffffff" width="800px" height="800px" viewBox="0 0 24 24" xmlns="http://www.w3.org/2000/svg">
<g id="SVGRepo_bgCarrier" stroke-width="0"/>
<g id="SVGRepo_tracerCarrier" stroke-linecap="round" stroke-linejoin="round"/>
<g id="SVGRepo_iconCarrier">
<path d="m0 12c0-6.627 5.373-12 12-12s12 5.373 12 12-5.373 12-12 12c-6.624-.008-11.992-5.376-12-11.999zm2.4 0c0 5.302 4.298 9.6 9.6 9.6s9.6-4.298 9.6-9.6-4.298-9.6-9.6-9.6c-5.299.006-9.594 4.301-9.6 9.599v.001zm4 0c0-3.093 2.507-5.6 5.6-5.6s5.6 2.507 5.6 5.6-2.507 5.6-5.6 5.6c-3.093 0-5.6-2.507-5.6-5.6z"/>
</g>
</svg>