<?xml version="1.0" encoding="UTF-8" standalone="no"?><!DOCTYPE svg PUBLIC "-//W3C//DTD SVG 1.1//EN" "http://www.w3.org/Graphics/SVG/1.1/DTD/svg11.dtd"><svg width="100%" height="100%" viewBox="0 0 800 800" version="1.1" xmlns="http://www.w3.org/2000/svg" xmlns:xlink="http://www.w3.org/1999/xlink" xml:space="preserve" xmlns:serif="http://www.serif.com/" style="fill-rule:evenodd;clip-rule:evenodd;stroke-linejoin:round;stroke-miterlimit:2;"><g id="MIDI_icon"><g id="Page-1"><circle cx="400" cy="400" r="362" style="fill:#eff7ff;"/></g><rect x="205" y="400" width="4" height="290"/><path d="M214,400l0,290c-0,2.761 -2.239,5 -5,5l-4,0c-2.761,-0 -5,-2.239 -5,-5l0,-290c0,-2.761 2.239,-5 5,-5l4,-0c2.761,0 5,2.239 5,5Zm-5,0l-4,0l0,290l4,0l0,-290Z"/><rect x="80" y="400" width="4" height="119"/><path d="M89,400l0,119c0,2.761 -2.239,5 -5,5l-4,0c-2.761,0 -5,-2.239 -5,-5l0,-119c0,-2.761 2.239,-5 5,-5l4,0c2.761,0 5,2.239 5,5Zm-5,0l-4,0l0,119l4,0l0,-119Z"/><rect x="332" y="400" width="4" height="335"/><path d="M341,400l0,335c0,2.761 -2.239,5 -5,5l-4,-0c-2.761,-0 -5,-2.239 -5,-5l0,-335c0,-2.761 2.239,-5 5,-5l4,0c2.761,0 5,2.239 5,5Zm-5,0l-4,0l0,335l4,0l0,-335Z"/><rect x="586" y="400" width="4" height="293"/><path d="M595,400l0,293c0,2.761 -2.239,5 -5,5l-4,-0c-2.761,-0 -5,-2.239 -5,-5l0,-293c-0,-2.761 2.239,-5 5,-5l4,-0c2.761,0 5,2.239 5,5Zm-5,-0l-4,-0l0,293l4,-0l0,-293Z"/><rect x="712" y="400" width="4" height="153"/><path d="M721,400l0,153c0,2.761 -2.239,5 -5,5l-4,0c-2.761,-0 -5,-2.239 -5,-5l0,-153c0,-2.761 2.239,-5 5,-5l4,0c2.761,0 5,2.239 5,5Zm-5,0l-4,0l0,153l4,0l0,-153Z"/><rect x="459" y="58" width="4" height="674"/><path d="M468,58l0,674c-0,2.761 -2.239,5 -5,5l-4,0c-2.761,-0 -5,-2.239 -5,-5l0,-674c-0,-2.761 2.239,-5 5,-5l4,0c2.761,0 5,2.239 5,5Zm-5,0l-4,0l0,674l4,0l0,-674Z"/><rect x="62.829" y="200.201" width="67.775" height="234.483" style="fill:#000c16;"/><rect x="158.541" y="93.201" width="99.775" height="341.483" style="fill:#000c16;"/><rect x="283.592" y="58.201" width="99.775" height="376.483" style="fill:#000c16;"/><rect x="537.685" y="91.201" width="99.775" height="343.483" style="fill:#000c16;"/><rect x="665.396" y="194.201" width="69.775" height="240.483" style="fill:#000c16;"/><g id="Page-11" serif:id="Page-1"><path d="M400,1c220.214,0 399,178.786 399,399c0,220.214 -178.786,399 -399,399c-220.214,0 -399,-178.786 -399,-399c0,-220.214 178.786,-399 399,-399Zm0,67c-183.236,0 -332,148.764 -332,332c0,183.236 148.764,332 332,332c183.236,0 332,-148.764 332,-332c0,-183.236 -148.764,-332 -332,-332Z" style="fill:#004ec6;"/></g></g></svg>