<?xml version="1.0" encoding="UTF-8" standalone="no"?><!DOCTYPE svg PUBLIC "-//W3C//DTD SVG 1.1//EN" "http://www.w3.org/Graphics/SVG/1.1/DTD/svg11.dtd"><svg width="100%" height="100%" viewBox="0 0 800 800" version="1.1" xmlns="http://www.w3.org/2000/svg" xmlns:xlink="http://www.w3.org/1999/xlink" xml:space="preserve" xmlns:serif="http://www.serif.com/" style="fill-rule:evenodd;clip-rule:evenodd;stroke-linejoin:round;stroke-miterlimit:2;"><g id="DSP_icon"><g id="Page-1"><circle cx="400" cy="400" r="400" style="fill:#7800ff;"/></g><g id="Page-11" serif:id="Page-1"><circle cx="400" cy="400" r="332" style="fill:#5c00c5;"/></g><path d="M152,366.749l0,66.502c0,15.867 -12.882,28.749 -28.749,28.749l-3.502,-0c-15.867,-0 -28.749,-12.882 -28.749,-28.749l0,-66.502c0,-15.867 12.882,-28.749 28.749,-28.749l3.502,0c15.867,0 28.749,12.882 28.749,28.749Z" style="fill:#dba0ff;"/><path d="M245,273.749l0,252.502c0,15.867 -12.882,28.749 -28.749,28.749l-3.502,0c-15.867,0 -28.749,-12.882 -28.749,-28.749l0,-252.502c0,-15.867 12.882,-28.749 28.749,-28.749l3.502,0c15.867,0 28.749,12.882 28.749,28.749Z" style="fill:#dba0ff;"/><path d="M337,119.749l0,560.502c0,15.867 -12.882,28.749 -28.749,28.749l-3.502,-0c-15.867,-0 -28.749,-12.882 -28.749,-28.749l0,-560.502c0,-15.867 12.882,-28.749 28.749,-28.749l3.502,-0c15.867,-0 28.749,12.882 28.749,28.749Z" style="fill:#dba0ff;"/><path d="M430,211.749l0,376.502c0,15.867 -12.882,28.749 -28.749,28.749l-3.502,0c-15.867,0 -28.749,-12.882 -28.749,-28.749l0,-376.502c0,-15.867 12.882,-28.749 28.749,-28.749l3.502,-0c15.867,-0 28.749,12.882 28.749,28.749Z" style="fill:#dba0ff;"/><path d="M523,304.749l0,190.502c0,15.867 -12.882,28.749 -28.749,28.749l-3.502,-0c-15.867,-0 -28.749,-12.882 -28.749,-28.749l0,-190.502c0,-15.867 12.882,-28.749 28.749,-28.749l3.502,-0c15.867,-0 28.749,12.882 28.749,28.749Z" style="fill:#dba0ff;"/><path d="M616,273.749l0,252.502c0,15.867 -12.882,28.749 -28.749,28.749l-3.502,-0c-15.867,-0 -28.749,-12.882 -28.749,-28.749l0,-252.502c0,-15.867 12.882,-28.749 28.749,-28.749l3.502,-0c15.867,-0 28.749,12.882 28.749,28.749Z" style="fill:#dba0ff;"/><path d="M709,367.749l0,64.502c0,15.867 -12.882,28.749 -28.749,28.749l-3.502,-0c-15.867,-0 -28.749,-12.882 -28.749,-28.749l0,-64.502c0,-15.867 12.882,-28.749 28.749,-28.749l3.502,-0c15.867,-0 28.749,12.882 28.749,28.749Z" style="fill:#dba0ff;"/></g></svg>