<?xml version="1.0" encoding="UTF-8" standalone="no"?><!DOCTYPE svg PUBLIC "-//W3C//DTD SVG 1.1//EN" "http://www.w3.org/Graphics/SVG/1.1/DTD/svg11.dtd"><svg width="100%" height="100%" viewBox="0 0 2048 2048" version="1.1" xmlns="http://www.w3.org/2000/svg" xmlns:xlink="http://www.w3.org/1999/xlink" xml:space="preserve" xmlns:serif="http://www.serif.com/" style="fill-rule:evenodd;clip-rule:evenodd;stroke-linejoin:round;stroke-miterlimit:2;"><path d="M980,151.344l0,1742.31c0,42.688 -43.785,77.344 -97.715,77.344c-53.93,-0 -97.715,-34.656 -97.715,-77.344l0,-1742.31c0,-42.688 43.785,-77.344 97.715,-77.344c53.93,-0 97.715,34.656 97.715,77.344Z" style="fill:#fff;"/><path d="M1863,1022c0,45.257 -36.743,82 -82,82l-675,0c-45.257,0 -82,-36.743 -82,-82c0,-45.257 36.743,-82 82,-82l675,0c45.257,0 82,36.743 82,82Z" style="fill:#fff;"/><path d="M1838.5,1081c-32.002,32.001 -83.964,32.001 -115.966,0l-397.125,-397.126c-32.002,-32.001 -32.002,-83.964 0,-115.965c32.001,-32.002 83.964,-32.002 115.965,0l397.126,397.125c32.001,32.002 32.001,83.964 0,115.966Z" style="fill:#fff;"/><path d="M1838.5,965.001c32.001,32.002 32.001,83.964 0,115.966l-397.126,397.125c-32.001,32.002 -83.964,32.002 -115.965,-0c-32.002,-32.001 -32.002,-83.964 0,-115.965l397.125,-397.126c32.002,-32.001 83.964,-32.001 115.966,-0Z" style="fill:#fff;"/><path d="M2048,512l0,1024c0,282.58 -229.42,512 -512,512l-1024,-0c-282.58,-0 -512,-229.42 -512,-512l0,-1024c0,-282.58 229.42,-512 512,-512l1024,0c282.58,0 512,229.42 512,512Zm-150,0c0,-199.793 -162.207,-362 -362,-362l-1024,0c-199.793,0 -362,162.207 -362,362l0,1024c0,199.793 162.207,362 362,362l1024,-0c199.793,-0 362,-162.207 362,-362l0,-1024Z" style="fill:#fff;"/></svg>