<?xml version="1.0" encoding="UTF-8" standalone="no"?><!DOCTYPE svg PUBLIC "-//W3C//DTD SVG 1.1//EN" "http://www.w3.org/Graphics/SVG/1.1/DTD/svg11.dtd"><svg width="100%" height="100%" viewBox="0 0 2048 2048" version="1.1" xmlns="http://www.w3.org/2000/svg" xmlns:xlink="http://www.w3.org/1999/xlink" xml:space="preserve" xmlns:serif="http://www.serif.com/" style="fill-rule:evenodd;clip-rule:evenodd;stroke-linecap:round;stroke-linejoin:round;stroke-miterlimit:1.5;"><path d="M515.801,409.432l1122.77,1122.77c27.508,27.508 26.01,73.672 -3.343,103.026c-29.354,29.353 -75.518,30.851 -103.026,3.343l-1122.77,-1122.77c-27.508,-27.508 -26.01,-73.672 3.343,-103.026c29.354,-29.353 75.518,-30.851 103.026,-3.343Z" style="fill:#ff7b7b;"/><path d="M1633.5,1024c0,45.257 -36.743,82 -82,82l-1055,0c-45.257,0 -82,-36.743 -82,-82c0,-45.257 36.743,-82 82,-82l1055,0c45.257,0 82,36.743 82,82Z" style="fill:#fff;"/><path d="M1609,1083c-32.002,32.001 -83.964,32.001 -115.966,-0l-480.125,-480.126c-32.002,-32.001 -32.002,-83.964 -0,-115.965c32.001,-32.002 83.964,-32.002 115.965,-0l480.126,480.125c32.001,32.002 32.001,83.964 -0,115.966Z" style="fill:#fff;"/><path d="M1609,967.001c32.001,32.002 32.001,83.964 -0,115.966l-480.126,480.125c-32.001,32.002 -83.964,32.002 -115.965,0c-32.002,-32.001 -32.002,-83.964 -0,-115.965l480.125,-480.126c32.002,-32.001 83.964,-32.001 115.966,0Z" style="fill:#fff;"/><circle cx="1024" cy="1024" r="840" style="fill:none;stroke:#ff7b7b;stroke-width:120px;"/></svg>