<?xml version="1.0" encoding="UTF-8" standalone="no"?><!DOCTYPE svg PUBLIC "-//W3C//DTD SVG 1.1//EN" "http://www.w3.org/Graphics/SVG/1.1/DTD/svg11.dtd"><svg width="100%" height="100%" viewBox="0 0 2048 2048" version="1.1" xmlns="http://www.w3.org/2000/svg" xmlns:xlink="http://www.w3.org/1999/xlink" xml:space="preserve" xmlns:serif="http://www.serif.com/" style="fill-rule:evenodd;clip-rule:evenodd;stroke-linejoin:round;stroke-miterlimit:2;"><path d="M1633.5,1024c0,45.257 -36.743,82 -82,82l-1055,0c-45.257,0 -82,-36.743 -82,-82c0,-45.257 36.743,-82 82,-82l1055,0c45.257,0 82,36.743 82,82Z" style="fill:#fff;"/><path d="M367,126l0,1798l-254.209,-254.209l-0,-1281.79l254.209,-262Z" style="fill:#fff;"/><path d="M1609,1083c-32.002,32.001 -83.964,32.001 -115.966,0l-480.125,-480.126c-32.002,-32.001 -32.002,-83.964 0,-115.965c32.001,-32.002 83.964,-32.002 115.965,0l480.126,480.125c32.001,32.002 32.001,83.964 0,115.966Z" style="fill:#fff;"/><path d="M1609,967.001c32.001,32.002 32.001,83.964 0,115.966l-480.126,480.125c-32.001,32.002 -83.964,32.002 -115.965,-0c-32.002,-32.001 -32.002,-83.964 0,-115.965l480.125,-480.126c32.002,-32.001 83.964,-32.001 115.966,-0Z" style="fill:#fff;"/><path d="M2048,512l0,1024c0,282.58 -229.42,512 -512,512l-1024,-0c-282.58,-0 -512,-229.42 -512,-512l0,-1024c0,-282.58 229.42,-512 512,-512l1024,0c282.58,0 512,229.42 512,512Zm-150,0c0,-199.793 -162.207,-362 -362,-362l-1024,0c-199.793,0 -362,162.207 -362,362l0,1024c0,199.793 162.207,362 362,362l1024,-0c199.793,-0 362,-162.207 362,-362l0,-1024Z" style="fill:#fff;"/></svg>