<?xml version="1.0" encoding="UTF-8" standalone="no"?><!DOCTYPE svg PUBLIC "-//W3C//DTD SVG 1.1//EN" "http://www.w3.org/Graphics/SVG/1.1/DTD/svg11.dtd"><svg width="100%" height="100%" viewBox="0 0 800 800" version="1.1" xmlns="http://www.w3.org/2000/svg" xmlns:xlink="http://www.w3.org/1999/xlink" xml:space="preserve" xmlns:serif="http://www.serif.com/" style="fill-rule:evenodd;clip-rule:evenodd;stroke-linejoin:round;stroke-miterlimit:2;"><g id="SVGRepo_iconCarrier"><path id="rect4162" d="M26.803,26.77l0,233.268l46.654,0l-0,-186.615l653.153,-0l0,186.615l46.654,0l-0,-233.268l-746.461,0Zm0,513.192l0,233.268l746.461,-0l-0,-233.268l-46.654,-0l0,186.615l-653.153,0l-0,-186.615l-46.654,-0Z" style="fill:#fff;"/><path id="path4170" d="M801,401.061l-150.046,-163.925l0,327.848l150.046,-163.923" style="fill:#fff;"/><path id="path4170-3" d="M0,400.159l150.046,-163.925l-0,327.849l-150.046,-163.924" style="fill:#fff;"/><rect id="rect4187" x="114.276" y="368.262" width="586.003" height="65.57" style="fill:#fff;"/><circle cx="398.634" cy="399.533" r="189.825" style="fill:#fff;"/><rect x="364.12" y="246.808" width="69.028" height="305.451"/><rect x="245.908" y="365.019" width="305.451" height="69.029"/></g></svg>