<?xml version="1.0" encoding="UTF-8" standalone="no"?><!DOCTYPE svg PUBLIC "-//W3C//DTD SVG 1.1//EN" "http://www.w3.org/Graphics/SVG/1.1/DTD/svg11.dtd"><svg width="100%" height="100%" viewBox="0 0 800 800" version="1.1" xmlns="http://www.w3.org/2000/svg" xmlns:xlink="http://www.w3.org/1999/xlink" xml:space="preserve" xmlns:serif="http://www.serif.com/" style="fill-rule:evenodd;clip-rule:evenodd;stroke-linejoin:round;stroke-miterlimit:2;"><g id="SVGRepo_iconCarrier"><path id="rect4162" d="M27.736,773.23l232.977,0l0,-46.595l-186.382,-0l-0,-652.338l186.382,0l0,-46.596l-232.977,0l0,745.529Zm512.551,0l232.977,0l-0,-745.529l-232.977,0l-0,46.596l186.382,0l0,652.338l-186.382,-0l-0,46.595Z" style="fill:#fff;"/><path id="path4170" d="M398.972,800.033l163.925,-150.046l-327.848,0l163.923,150.046" style="fill:#fff;"/><path id="path4170-3" d="M399.874,-0.967l163.925,150.046l-327.849,-0l163.924,-150.046" style="fill:#fff;"/><path id="rect4187" d="M431.771,699.312l-65.57,0l0,-586.003l65.57,0l-0,586.003Z" style="fill:#fff;"/><path d="M590.325,397.667c0,104.767 -85.058,189.825 -189.825,189.825c-104.767,0 -189.825,-85.058 -189.825,-189.825c-0,-104.767 85.058,-189.825 189.825,-189.825c104.767,-0 189.825,85.058 189.825,189.825Z" style="fill:#fff;"/><path d="M553.225,432.181l-305.451,0l-0,-69.028l305.451,0l-0,69.028Z"/></g></svg>