<svg width="100%" height="100%" viewBox="0 0 800 800" xmlns="http://www.w3.org/2000/svg">
  <g>
    <path d="M400,146.677l-109.909,146.545c-10.644,14.193 -27.35,22.545 -45.091,22.545l-70.454,0c-15.564,0 -28.182,12.618 -28.182,28.182l0,112.727c0,15.565 12.618,28.182 28.182,28.182l70.273,0c17.945,0 34.817,8.545 45.436,23.01l109.745,149.502l0,-510.693Z"
      style="fill:none;stroke:#fff;stroke-width:50px;stroke-linecap:round;stroke-linejoin:round;"/>
    <path d="M518.749,179.775c-2.939,-17.189 10.247,-33.098 27.686,-33.098c13.172,0 24.482,9.243 26.781,22.214c7.829,44.111 24.056,145.88 24.056,231.422c0,85.54 -16.227,187.31 -24.056,231.423c-2.299,12.969 -13.609,22.212 -26.781,22.212c-17.439,0 -30.625,-15.908 -27.686,-33.096c8.277,-48.425 22.16,-141.422 22.16,-220.539c0,-79.117 -13.883,-172.115 -22.16,-220.538Z"
      style="fill:#fff;"/>
    <path d="M665.19,203.04c-19.034,0 -32.967,19.558 -28.559,38.073c7.868,33.062 17.005,86.995 17.005,159.2c0,72.204 -9.137,126.138 -17.005,159.198c-4.408,18.516 9.525,38.074 28.559,38.074c10.191,0 19.372,-5.794 22.549,-15.475c8.265,-25.194 22.26,-82.505 22.26,-181.797c0,-99.293 -13.995,-156.605 -22.26,-181.797c-3.177,-9.683 -12.358,-15.476 -22.549,-15.476Z"
      style="fill:#fff;"/>
  </g>
</svg>