<svg width="100%" height="100%" viewBox="0 0 800 800" xmlns="http://www.w3.org/2000/svg">
  <g>
    <path d="M400,146.677l-109.909,146.545c-10.644,14.193 -27.35,22.545 -45.091,22.545l-70.454,0c-15.564,0 -28.182,12.618 -28.182,28.182l0,112.727c0,15.565 12.618,28.182 28.182,28.182l70.273,0c17.945,0 34.817,8.545 45.436,23.01l109.745,149.502l0,-510.693Z"
      style="fill:none;stroke:#fff;stroke-width:50px;stroke-linecap:round;stroke-linejoin:round;"/>
    <path d="M661.89,303.676c11.005,-11.006 28.85,-11.006 39.855,0c11.005,11.005 11.005,28.849 0,39.855l-54.864,54.862l54.864,54.865c11.005,11.005 11.005,28.849 0,39.854c-11.005,11.005 -28.85,11.005 -39.855,0l-54.864,-54.864l-54.861,54.864c-11.008,11.005 -28.85,11.005 -39.855,0c-11.008,-11.007 -11.008,-28.849 0,-39.854l54.861,-54.865l-54.861,-54.862c-11.008,-11.006 -11.008,-28.849 0,-39.855c11.005,-11.006 28.847,-11.006 39.855,0l54.861,54.863l54.864,-54.863Z"
      style="fill:#fff;"/>
  </g>
</svg>