<?xml version="1.0" encoding="UTF-8" standalone="no"?><!DOCTYPE svg PUBLIC "-//W3C//DTD SVG 1.1//EN" "http://www.w3.org/Graphics/SVG/1.1/DTD/svg11.dtd"><svg width="100%" height="100%" viewBox="0 0 217 216" version="1.1" xmlns="http://www.w3.org/2000/svg" xmlns:xlink="http://www.w3.org/1999/xlink" xml:space="preserve" xmlns:serif="http://www.serif.com/" style="fill-rule:evenodd;clip-rule:evenodd;stroke-linejoin:round;stroke-miterlimit:2;"><g><g><g><path d="M108.606,162.614c2.787,-4.177 8.443,-4.805 12.442,-7.425c14.769,-9.665 25.231,-29.344 13.8,-46.727c-3.809,-5.812 -8.745,-11.668 -13.676,-16.561c-15.386,-15.316 -33.863,-23.39 -51.863,-11.019c-4.378,3.02 -8.496,6.949 -11.424,11.399c-2.967,4.492 -3.61,10.855 -8.08,14.201c-10.089,7.533 -25.708,4.902 -35.303,14.503c-20.404,20.403 -19.126,54.77 2.879,76.775c21.995,21.984 56.365,23.282 76.77,2.868c10.261,-10.26 6.975,-26.799 14.455,-38.014Z" style="fill:#884e1a;fill-rule:nonzero;"/><path d="M92.69,199.113c-3.048,3.053 -6.393,5.618 -9.949,7.728c-9.774,5.812 -21.149,8.065 -32.324,6.798c-11.934,-1.331 -23.646,-6.679 -32.944,-15.976c-21.177,-21.162 -21.821,-54.845 -1.45,-75.216c9.579,-9.569 24.841,-7.274 34.874,-14.84c4.443,-3.356 5.196,-9.61 8.173,-14.061c2.955,-4.437 7.046,-8.355 11.409,-11.387c9.99,-6.97 20.019,-7.663 29.489,-4.34l0.011,-0.011c6.436,2.273 12.615,6.344 18.374,11.582c0.931,0.855 1.862,1.742 2.776,2.631c2.253,2.251 4.498,4.686 6.63,7.252c1.105,1.331 2.17,2.684 3.198,4.037c1.165,1.548 2.257,3.138 3.28,4.697c7.377,11.42 4.904,24.029 -2.036,34.01c-0.404,0.584 -0.816,1.146 -1.244,1.701c-3.111,4.056 -6.932,7.608 -11.089,10.356l-0.189,0.13c-0.427,0.271 -0.866,0.531 -1.326,0.758c-1.884,0.975 -3.956,1.721 -5.878,2.674c-1.931,0.952 -3.701,2.11 -4.936,3.939c-3.658,5.413 -4.854,11.994 -6.277,18.52c-1.516,6.917 -3.302,13.747 -8.572,19.018Z" style="fill:#dd995e;fill-rule:nonzero;"/><path d="M112.475,157.636c10.156,-23.838 13.762,-44.668 15.052,-56.153l1.104,-1.146c0.796,0.986 1.571,1.979 2.326,2.973c1.165,1.548 2.257,3.138 3.28,4.697c3.126,4.84 4.484,9.894 4.481,14.871c-0.003,6.765 -2.518,13.388 -6.517,19.139c-0.404,0.584 -0.816,1.146 -1.244,1.701c-3.111,4.056 -6.932,7.608 -11.089,10.356l-0.189,0.13c-0.427,0.271 -0.866,0.531 -1.326,0.758c-1.884,0.975 -3.956,1.721 -5.878,2.674Z" style="fill:#e7a649;fill-rule:nonzero;"/><path d="M189.825,5.363l3.073,3.086l1.169,-1.17l-3.074,-3.074l-1.168,1.158Z" style="fill:#4d2500;fill-rule:nonzero;"/><path d="M190.864,5.255c-0.348,0.336 -1.018,0.574 -1.754,0.596c-0.855,0.021 -1.803,-0.239 -2.469,-0.91c-1.25,-1.244 -1.374,-3.128 -0.291,-4.211c0.508,-0.508 1.19,-0.768 1.905,-0.725c0.812,0.011 1.65,0.358 2.31,1.007c1.245,1.255 1.045,3.475 0.299,4.243Z" style="fill:#e2b98c;fill-rule:nonzero;"/><path d="M189.013,5.852c-0.829,-0 -1.731,-0.265 -2.372,-0.911c-0.684,-0.681 -1.03,-1.552 -1.027,-2.38c0.002,-0.685 0.245,-1.34 0.736,-1.831c0.471,-0.472 1.093,-0.729 1.751,-0.729c0.051,-0 0.102,0.001 0.154,0.004c-0.661,1.137 -1.289,3.258 0.855,5.846c-0.032,0.001 -0.064,0.001 -0.097,0.001Z" style="fill:#ebc592;fill-rule:nonzero;"/><path d="M185.473,9.726l3.075,3.073l1.157,-1.158l-3.064,-3.073l-1.168,1.158Z" style="fill:#4d2500;fill-rule:nonzero;"/><path d="M186.506,9.595c-0.345,0.357 -1.017,0.585 -1.758,0.606c-0.855,0.022 -1.797,-0.238 -2.468,-0.898c-1.25,-1.245 -1.369,-3.138 -0.293,-4.21c0.519,-0.519 1.202,-0.769 1.906,-0.736c0.816,0.01 1.656,0.357 2.316,1.006c1.251,1.267 1.044,3.486 0.297,4.232Z" style="fill:#e2b98c;fill-rule:nonzero;"/><path d="M184.649,10.203c-0.828,-0 -1.724,-0.265 -2.369,-0.9c-0.684,-0.681 -1.029,-1.556 -1.026,-2.384c0.003,-0.686 0.245,-1.34 0.733,-1.826c0.489,-0.489 1.122,-0.739 1.782,-0.739c0.041,-0 0.083,0.001 0.124,0.003c-0.655,1.146 -1.277,3.268 0.855,5.844c-0.033,0.001 -0.066,0.002 -0.099,0.002Z" style="fill:#ebc592;fill-rule:nonzero;"/><path d="M180.938,14.261l3.074,3.063l1.18,-1.169l-3.08,-3.064l-1.174,1.17Z" style="fill:#4d2500;fill-rule:nonzero;"/><path d="M181.977,14.13c-0.347,0.336 -1.018,0.585 -1.754,0.596c-0.849,0.022 -1.808,-0.227 -2.468,-0.898c-1.245,-1.245 -1.374,-3.139 -0.298,-4.221c0.52,-0.498 1.197,-0.749 1.917,-0.715c0.806,0.011 1.644,0.357 2.3,1.006c1.255,1.255 1.055,3.486 0.303,4.232Z" style="fill:#e2b98c;fill-rule:nonzero;"/><path d="M180.121,14.727c-0.824,-0 -1.732,-0.254 -2.366,-0.899c-0.681,-0.681 -1.028,-1.556 -1.027,-2.386c0.002,-0.688 0.242,-1.345 0.729,-1.835c0.49,-0.469 1.118,-0.718 1.79,-0.718c0.042,-0 0.084,0.001 0.127,0.003c-0.672,1.136 -1.294,3.258 0.849,5.834c-0.034,0.001 -0.068,0.001 -0.102,0.001Z" style="fill:#ebc592;fill-rule:nonzero;"/><path d="M210.829,27.033l-3.075,-3.075l1.174,-1.168l3.074,3.084l-1.173,1.159Z" style="fill:#4d2500;fill-rule:nonzero;"/><path d="M210.958,26.005c-0.346,0.346 -0.569,1.006 -0.59,1.753c-0.028,0.867 0.227,1.797 0.888,2.468c1.25,1.244 3.139,1.375 4.221,0.303c0.52,-0.529 0.758,-1.202 0.724,-1.904c-0.009,-0.823 -0.351,-1.657 -1.022,-2.329c-1.239,-1.244 -3.469,-1.039 -4.221,-0.291Z" style="fill:#e2b98c;fill-rule:nonzero;"/><path d="M213.643,31.254c-0.829,-0 -1.703,-0.348 -2.387,-1.028c-0.63,-0.64 -0.891,-1.515 -0.89,-2.346c0,-0.041 0.001,-0.081 0.002,-0.122c1.341,1.121 2.564,1.487 3.588,1.487c0.935,-0 1.704,-0.305 2.245,-0.62c0.003,0.043 0.004,0.087 0.003,0.131c0,0.655 -0.24,1.277 -0.727,1.773c-0.491,0.486 -1.147,0.725 -1.834,0.725Z" style="fill:#ebc592;fill-rule:nonzero;"/><path d="M206.471,31.395l-3.079,-3.085l1.175,-1.158l3.074,3.074l-1.17,1.169Z" style="fill:#4d2500;fill-rule:nonzero;"/><path d="M206.602,30.367c-0.348,0.346 -0.586,1.006 -0.595,1.753c-0.028,0.856 0.226,1.797 0.898,2.457c1.244,1.266 3.138,1.376 4.205,0.303c0.524,-0.509 0.763,-1.19 0.73,-1.904c-0.005,-0.823 -0.351,-1.657 -1.012,-2.317c-1.25,-1.255 -3.48,-1.05 -4.226,-0.292Z" style="fill:#e2b98c;fill-rule:nonzero;"/><path d="M209.275,35.612c-0.824,-0 -1.693,-0.346 -2.37,-1.035c-0.64,-0.629 -0.902,-1.513 -0.9,-2.336c0,-0.04 0,-0.08 0.002,-0.121c1.341,1.117 2.559,1.481 3.579,1.481c0.939,-0 1.71,-0.309 2.254,-0.625c0.002,0.045 0.003,0.089 0.003,0.133c-0.001,0.665 -0.241,1.294 -0.733,1.771c-0.486,0.489 -1.145,0.732 -1.835,0.732Z" style="fill:#ebc592;fill-rule:nonzero;"/><path d="M201.947,35.93l-3.073,-3.085l1.168,-1.158l3.074,3.063l-1.169,1.18Z" style="fill:#4d2500;fill-rule:nonzero;"/><path d="M202.071,34.891c-0.346,0.347 -0.573,1.017 -0.595,1.754c-0.021,0.854 0.228,1.808 0.899,2.467c1.249,1.256 3.133,1.375 4.215,0.303c0.514,-0.519 0.758,-1.201 0.726,-1.916c-0.005,-0.822 -0.352,-1.656 -1.022,-2.316c-1.235,-1.244 -3.475,-1.039 -4.223,-0.292Z" style="fill:#e2b98c;fill-rule:nonzero;"/><path d="M204.752,40.144c-0.826,-0 -1.696,-0.347 -2.377,-1.032c-0.645,-0.634 -0.9,-1.539 -0.9,-2.366c0,-0.034 0,-0.068 0.001,-0.101c1.336,1.114 2.554,1.476 3.575,1.476c0.943,-0 1.719,-0.309 2.265,-0.622c0.002,0.045 0.003,0.09 0.003,0.134c-0.002,0.666 -0.247,1.295 -0.729,1.782c-0.492,0.488 -1.15,0.729 -1.838,0.729Z" style="fill:#ebc592;fill-rule:nonzero;"/><path d="M194.916,31.038c-0.465,0.476 -1.298,0.411 -2.066,-0.065c-0.18,-0.282 -0.303,-0.585 -0.353,-0.877c-0.096,-0.454 0,-0.899 0.292,-1.19l12.426,-12.426c0.466,-0.477 1.311,-0.422 2.069,0.064c0.177,0.281 0.297,0.584 0.367,0.866c0.043,0.292 0.033,0.574 -0.059,0.801c-0.048,0.164 -0.131,0.292 -0.244,0.4l-12.432,12.427Zm-6.802,-6.787c-0.455,0.465 -1.305,0.401 -2.057,-0.064c-0.195,-0.304 -0.303,-0.608 -0.357,-0.877c-0.08,-0.379 -0.049,-0.737 0.131,-1.018l0,-0.011l0.15,-0.184l12.427,-12.415c0.475,-0.475 1.32,-0.423 2.078,0.054c0.151,0.26 0.27,0.519 0.325,0.769l0.027,0.108c0.092,0.455 0,0.909 -0.282,1.201l-12.442,12.437Zm24.587,-1.97c0.622,-0.93 1.233,-1.938 1.829,-3.031c0.033,-0.053 -0.606,-0.616 -1.088,-1.028l0,-0.011c-0.26,-0.206 -0.465,-0.389 -0.508,-0.421c-0.542,-0.553 -1.078,-1.159 -1.332,-1.872c-0.644,-1.766 1.109,-3.184 1.19,-4.883c0.005,-0.184 0.005,-0.358 -0.01,-0.53c-0.071,-1.494 -0.742,-2.912 -1.748,-4.07c-1.018,-1.223 -2.414,-2.142 -3.87,-2.555c-1.634,-0.443 -2.939,-0.119 -4.384,0.66c-1.445,0.779 -2.262,0.715 -3.377,-0.432c-0.714,-0.714 -1.455,-1.441 -2.176,-2.155c-2.581,1.408 -4.751,2.923 -6.592,4.482c-1.568,1.331 -2.888,2.706 -4.004,4.07c-2.187,2.684 -3.556,5.357 -4.406,7.706c-0.541,1.516 -0.882,2.911 -1.082,4.081c-0.4,2.424 -0.266,3.961 -0.266,3.961l9.358,9.342c0,-0 12.902,1.201 22.466,-13.314Z" style="fill:#dd995e;fill-rule:nonzero;"/><path d="M185.7,23.31c0.054,0.269 0.162,0.573 0.357,0.877c-0.195,-0.119 -0.379,-0.282 -0.551,-0.455c-0.433,-0.434 -0.71,-0.932 -0.797,-1.408c-0.085,-0.466 0.006,-0.909 0.298,-1.202l12.427,-12.426c0.59,-0.583 1.748,-0.357 2.614,0.499c0.167,0.162 0.319,0.357 0.438,0.541c-0.758,-0.477 -1.603,-0.529 -2.078,-0.054l-12.427,12.415c-0.291,0.293 -0.384,0.737 -0.281,1.213Z" style="fill:#987542;fill-rule:nonzero;"/><path d="M192.497,30.096c0.05,0.292 0.173,0.595 0.353,0.877c-0.189,-0.119 -0.374,-0.26 -0.547,-0.433c-0.428,-0.444 -0.704,-0.942 -0.796,-1.408c-0.075,-0.475 0,-0.92 0.298,-1.212l12.42,-12.436c0.59,-0.574 1.754,-0.347 2.614,0.508c0.173,0.185 0.325,0.369 0.445,0.552c-0.758,-0.486 -1.603,-0.541 -2.069,-0.064l-12.426,12.426c-0.292,0.291 -0.388,0.736 -0.292,1.19Z" style="fill:#987542;fill-rule:nonzero;"/><path d="M100.342,145.837c-8.427,8.444 -22.114,8.444 -30.546,-0c-8.448,-8.431 -8.448,-22.124 0,-30.556c8.432,-8.443 22.119,-8.443 30.546,-0c8.453,8.432 8.453,22.125 0,30.556Z" style="fill:#884e1a;fill-rule:nonzero;"/><path d="M96.824,142.309c-1.894,1.905 -4.146,3.236 -6.521,4.026c-1.841,0.606 -3.761,0.888 -5.694,0.848c-4.103,-0.111 -8.167,-1.746 -11.284,-4.874c-4.612,-4.601 -5.947,-11.203 -4.027,-16.983c0.779,-2.381 2.132,-4.622 4.027,-6.527c6.489,-6.495 17.016,-6.495 23.499,-0c3.485,3.474 5.098,8.129 4.833,12.697l0,0.032c-0.222,3.919 -1.829,7.782 -4.833,10.781Z" style="fill:#4d2500;fill-rule:nonzero;"/><path d="M96.824,142.309c-1.894,1.905 -4.146,3.236 -6.521,4.026c-1.841,0.606 -3.761,0.888 -5.694,0.848c-3.317,-0.555 -6.468,-2.092 -9.022,-4.647c-4.6,-4.611 -5.936,-11.213 -4.015,-16.983c0.747,-1.634 1.791,-3.149 3.139,-4.481c6.159,-6.171 16.159,-6.171 22.34,0.011c2.891,2.879 4.422,6.613 4.606,10.413l0,0.032c-0.222,3.919 -1.829,7.782 -4.833,10.781Z" style="fill:#be9254;fill-rule:nonzero;"/><path d="M97.539,131.943c-0.093,-0 -0.179,-0.041 -0.244,-0.106l-13.508,-13.519l97.005,-92.178l9.606,9.135l-92.61,96.556c-0.065,0.071 -0.153,0.112 -0.244,0.112l-0.005,-0Z" style="fill:#4d2500;fill-rule:nonzero;"/><path d="M181.03,25.701c-0.174,-0 -0.342,0.066 -0.477,0.19l-97.001,91.68c-0.134,0.124 -0.216,0.307 -0.216,0.492c0,0.189 0.072,0.368 0.201,0.498l13.508,13.518c0.136,0.131 0.309,0.207 0.494,0.207l0.005,-0c0.189,-0 0.362,-0.076 0.492,-0.211l92.617,-96.074c0.264,-0.277 0.259,-0.704 -0.006,-0.968l-9.125,-9.125c-0.14,-0.141 -0.314,-0.207 -0.492,-0.207Zm0,0.693l9.125,9.125l-92.616,96.074l-13.509,-13.52l97,-91.679Z" style="fill:#c2c4c6;fill-rule:nonzero;"/><path d="M102.103,126.889l-13.308,-13.325c-0.136,-0.136 -0.355,-0.136 -0.491,-0c-0.135,0.135 -0.135,0.354 0,0.49l13.308,13.325c0.136,0.136 0.355,0.136 0.491,-0c0.135,-0.135 0.135,-0.354 0,-0.49Z" style="fill:#c2c4c6;fill-rule:nonzero;"/><path d="M107.179,121.617l-13.076,-13.076c-0.136,-0.135 -0.355,-0.135 -0.49,-0c-0.136,0.136 -0.136,0.355 0,0.49l13.076,13.077c0.136,0.135 0.355,0.135 0.49,-0c0.135,-0.135 0.135,-0.355 0,-0.491Z" style="fill:#c2c4c6;fill-rule:nonzero;"/><path d="M107.179,121.617l-13.076,-13.076c-0.136,-0.135 -0.355,-0.135 -0.49,-0c-0.136,0.136 -0.136,0.355 0,0.49l13.076,13.077c0.136,0.135 0.355,0.135 0.49,-0c0.135,-0.135 0.135,-0.355 0,-0.491Z" style="fill:#c2c4c6;fill-rule:nonzero;"/><path d="M112.249,116.346l-12.826,-12.826c-0.135,-0.135 -0.354,-0.135 -0.49,-0c-0.135,0.135 -0.135,0.355 0,0.49l12.826,12.826c0.136,0.136 0.355,0.136 0.49,-0c0.136,-0.135 0.136,-0.355 0,-0.49Z" style="fill:#c2c4c6;fill-rule:nonzero;"/><path d="M116.899,111.53l-12.605,-12.621c-0.135,-0.136 -0.354,-0.136 -0.49,-0.001c-0.135,0.135 -0.136,0.355 0,0.491l12.604,12.621c0.136,0.135 0.355,0.135 0.491,-0c0.135,-0.135 0.136,-0.355 0,-0.49Z" style="fill:#c2c4c6;fill-rule:nonzero;"/><path d="M122.175,106.052l-12.355,-12.35c-0.136,-0.136 -0.355,-0.136 -0.49,-0c-0.136,0.135 -0.136,0.354 0,0.489l12.355,12.351c0.136,0.135 0.355,0.135 0.49,-0c0.135,-0.135 0.135,-0.354 0,-0.49Z" style="fill:#c2c4c6;fill-rule:nonzero;"/><path d="M127.344,100.684l-12.112,-12.113c-0.135,-0.136 -0.355,-0.136 -0.49,-0c-0.135,0.135 -0.135,0.354 0,0.49l12.111,12.113c0.135,0.135 0.355,0.135 0.49,-0c0.136,-0.135 0.136,-0.355 0.001,-0.49Z" style="fill:#c2c4c6;fill-rule:nonzero;"/><path d="M132.81,95.022l-11.842,-11.851c-0.135,-0.136 -0.354,-0.136 -0.49,-0.001c-0.135,0.135 -0.136,0.355 0,0.491l11.842,11.851c0.135,0.135 0.354,0.135 0.49,-0c0.136,-0.135 0.136,-0.355 0,-0.49Z" style="fill:#c2c4c6;fill-rule:nonzero;"/><path d="M138.85,88.755l-11.577,-11.571c-0.136,-0.136 -0.355,-0.136 -0.49,-0c-0.136,0.136 -0.136,0.355 0,0.49l11.577,11.572c0.135,0.135 0.355,0.135 0.49,-0.001c0.135,-0.135 0.135,-0.354 0,-0.49Z" style="fill:#c2c4c6;fill-rule:nonzero;"/><path d="M144.083,83.311l-11.311,-11.311c-0.135,-0.135 -0.355,-0.135 -0.49,-0c-0.136,0.136 -0.136,0.355 0,0.491l11.311,11.31c0.136,0.136 0.355,0.136 0.49,-0c0.136,-0.136 0.136,-0.355 0,-0.49Z" style="fill:#c2c4c6;fill-rule:nonzero;"/><path d="M150.681,76.481l-11.014,-11.008c-0.135,-0.135 -0.355,-0.135 -0.49,-0c-0.135,0.135 -0.135,0.355 0.001,0.49l11.013,11.008c0.135,0.135 0.355,0.135 0.49,-0c0.136,-0.135 0.136,-0.355 0,-0.49Z" style="fill:#c2c4c6;fill-rule:nonzero;"/><path d="M156.72,70.225l-10.726,-10.727c-0.136,-0.135 -0.355,-0.135 -0.491,-0c-0.135,0.136 -0.135,0.355 0,0.491l10.727,10.726c0.135,0.135 0.355,0.135 0.49,-0c0.136,-0.135 0.136,-0.355 0,-0.49Z" style="fill:#c2c4c6;fill-rule:nonzero;"/><path d="M163.755,62.907l-10.39,-10.379c-0.136,-0.136 -0.355,-0.136 -0.491,-0c-0.135,0.135 -0.135,0.355 0.001,0.49l10.39,10.38c0.136,0.135 0.355,0.135 0.491,-0.001c0.135,-0.135 0.135,-0.354 -0.001,-0.49Z" style="fill:#c2c4c6;fill-rule:nonzero;"/><path d="M171.619,54.768l-10.028,-10.023c-0.135,-0.136 -0.355,-0.136 -0.49,-0c-0.135,0.135 -0.135,0.354 0,0.49l10.028,10.023c0.136,0.135 0.355,0.135 0.49,-0c0.136,-0.135 0.136,-0.355 0,-0.49Z" style="fill:#c2c4c6;fill-rule:nonzero;"/><path d="M178.986,47.104l-9.666,-9.665c-0.136,-0.135 -0.355,-0.135 -0.49,-0c-0.136,0.135 -0.136,0.355 0,0.49l9.666,9.665c0.135,0.135 0.354,0.135 0.49,-0c0.136,-0.135 0.135,-0.355 0,-0.49Z" style="fill:#c2c4c6;fill-rule:nonzero;"/><path d="M198.526,13.785l-2.846,-2.837l1.18,-1.17l2.847,2.837l-1.181,1.17Z" style="fill:#4d2500;fill-rule:nonzero;"/><path d="M194.316,18.005l-2.847,-2.845l1.169,-1.17l2.847,2.835l-1.169,1.18Z" style="fill:#4d2500;fill-rule:nonzero;"/><path d="M189.5,22.812l-2.837,-2.836l1.164,-1.17l2.841,2.836l-1.168,1.17Z" style="fill:#4d2500;fill-rule:nonzero;"/><path d="M205.059,20.884l-2.836,-2.824l1.169,-1.169l2.841,2.836l-1.174,1.157Z" style="fill:#4d2500;fill-rule:nonzero;"/><path d="M200.848,25.107l-2.847,-2.848l1.175,-1.158l2.847,2.826l-1.175,1.18Z" style="fill:#4d2500;fill-rule:nonzero;"/><path d="M196.038,29.934l-2.848,-2.858l1.17,-1.159l2.846,2.836l-1.168,1.181Z" style="fill:#4d2500;fill-rule:nonzero;"/><path d="M50.417,213.639c-11.934,-1.331 -23.646,-6.679 -32.944,-15.976c-10.837,-10.829 -16.297,-24.937 -16.315,-38.862c-0.018,-13.287 4.918,-26.407 14.865,-36.354c9.579,-9.569 24.841,-7.274 34.874,-14.84c4.443,-3.356 5.196,-9.61 8.173,-14.061c2.955,-4.437 7.046,-8.355 11.409,-11.387c6.251,-4.361 12.517,-6.265 18.652,-6.265c3.67,-0 7.292,0.682 10.837,1.925c-1.472,0.931 -117.565,73.268 -49.551,135.82Z" style="fill:#d08149;fill-rule:nonzero;"/><path d="M57.241,193.225l-35.14,-35.146l1.341,-1.006l7.28,-5.412l32.753,32.743l-5.255,7.435l-0.979,1.386Z" style="fill:#200000;fill-rule:nonzero;"/><path d="M58.22,191.839l-34.778,-34.766l7.28,-5.412l32.753,32.743l-5.255,7.435Z" style="fill:#4d2500;fill-rule:nonzero;"/><path d="M38.021,162.08l15.332,15.338c0.135,0.136 0.355,0.136 0.49,-0c0.136,-0.135 0.136,-0.355 0,-0.49l-15.332,-15.338c-0.135,-0.135 -0.355,-0.135 -0.49,-0c-0.135,0.135 -0.135,0.355 0,0.49Z" style="fill:#c2c4c6;fill-rule:nonzero;"/><path d="M97.539,131.593l-4.422,-4.437l4.138,-4.139l4.352,4.356l-4.068,4.22Zm4.549,-4.719l-4.342,-4.348l4.681,-4.681l4.259,4.26l-4.598,4.769Zm5.079,-5.269l-4.25,-4.25l4.68,-4.681l4.162,4.162c0.001,0.001 0.002,0.002 0.003,0.003l-4.595,4.766Zm5.076,-5.265l-4.156,-4.156l4.245,-4.245l4.076,4.081l-4.165,4.32Zm4.646,-4.82l-4.066,-4.072l4.883,-4.883l3.979,3.977c0.001,0.001 0.001,0.001 0.002,0.002l-4.798,4.976Z" style="fill:#3c0c00;fill-rule:nonzero;"/><path d="M97.539,131.593l4.068,-4.22l-4.068,4.22Zm4.549,-4.719l4.598,-4.769l-4.598,4.769Zm5.079,-5.269l4.595,-4.766l-4.595,4.766Zm5.076,-5.265l4.165,-4.32l-4.165,4.32Zm4.646,-4.82l4.798,-4.976l-4.798,4.976Z" style="fill:#84674f;fill-rule:nonzero;"/><path d="M101.607,127.373l-4.352,-4.356l0.491,-0.491l4.342,4.348l-0.481,0.499Z" style="fill:#84674f;fill-rule:nonzero;"/><path d="M106.686,122.105l-4.259,-4.26l0.49,-0.49l4.25,4.25l-0.481,0.5Z" style="fill:#84674f;fill-rule:nonzero;"/><path d="M111.762,116.839c-0.001,-0.001 -0.002,-0.002 -0.003,-0.003l-4.162,-4.162l0.49,-0.49l4.156,4.156l-0.481,0.499Z" style="fill:#84674f;fill-rule:nonzero;"/><path d="M116.408,112.02l-4.076,-4.081l0.491,-0.491l4.066,4.072l-0.481,0.5Z" style="fill:#84674f;fill-rule:nonzero;"/><path d="M122.168,106.045l-3.972,-3.97l4.779,-4.78l3.878,3.879c0.002,0.002 0.003,0.003 0.005,0.005l-4.69,4.866Z" style="fill:#3c0c00;fill-rule:nonzero;"/><path d="M127.339,100.68l-3.874,-3.875l5.075,-5.075l3.78,3.782l0.001,0.001l-4.982,5.167Z" style="fill:#3c0c00;fill-rule:nonzero;"/><path d="M132.802,95.013l-3.771,-3.774l5.66,-5.66l3.669,3.667c0,-0 0.001,-0 0.001,0.001l-5.559,5.766Z" style="fill:#3c0c00;fill-rule:nonzero;"/><path d="M138.842,88.747l-3.661,-3.659l4.85,-4.849l3.562,3.562c0.003,0.003 0.006,0.006 0.009,0.009l-4.76,4.937Z" style="fill:#3c0c00;fill-rule:nonzero;"/><path d="M144.083,83.311l-3.562,-3.563l6.223,-6.223l3.447,3.446c0.001,0.001 0.001,0.001 0.002,0.002l-6.11,6.338Z" style="fill:#3c0c00;fill-rule:nonzero;"/><path d="M144.083,83.311l6.11,-6.338l-6.11,6.338Z" style="fill:#84674f;fill-rule:nonzero;"/><path d="M150.674,76.474l-3.44,-3.439l5.658,-5.658l3.336,3.336l-5.554,5.761Z" style="fill:#3c0c00;fill-rule:nonzero;"/><path d="M156.709,70.214l-3.327,-3.327l6.684,-6.685l3.199,3.196c0.002,0.002 0.005,0.005 0.007,0.007l-6.563,6.809Z" style="fill:#3c0c00;fill-rule:nonzero;"/><path d="M163.754,62.906l-3.198,-3.194l7.513,-7.513l3.059,3.057l-7.374,7.65Z" style="fill:#3c0c00;fill-rule:nonzero;"/><path d="M171.609,54.757l-3.05,-3.048l7.025,-7.026l2.912,2.911c0.003,0.003 0.006,0.006 0.009,0.009l-6.896,7.154Z" style="fill:#3c0c00;fill-rule:nonzero;"/><path d="M178.986,47.105l0,-0.001l-2.912,-2.911l11.38,-11.38l2.701,2.706l-11.169,11.586Z" style="fill:#3c0c00;fill-rule:nonzero;"/><path d="M178.986,47.105l11.169,-11.586l-11.169,11.586Zm11.169,-11.586l-2.704,-2.704l0.003,-0.002l2.701,2.706Z" style="fill:#84674f;fill-rule:nonzero;"/><path d="M121.687,106.544c-0.001,-0.001 -0.001,-0.001 -0.002,-0.002l-3.979,-3.977l0.49,-0.49l3.972,3.97l-0.481,0.499Z" style="fill:#84674f;fill-rule:nonzero;"/><path d="M126.858,101.179c-0.002,-0.002 -0.003,-0.003 -0.005,-0.005l-3.878,-3.879l0.49,-0.49l3.874,3.875l-0.481,0.499Z" style="fill:#84674f;fill-rule:nonzero;"/><path d="M132.321,95.513l-0.001,-0.001l-3.78,-3.782l0.491,-0.491l3.771,3.774l-0.481,0.5Z" style="fill:#84674f;fill-rule:nonzero;"/><path d="M138.361,89.247c0,-0.001 -0.001,-0.001 -0.001,-0.001l-3.669,-3.667l0.49,-0.491l3.661,3.659l-0.481,0.5Z" style="fill:#84674f;fill-rule:nonzero;"/><path d="M143.602,83.81c-0.003,-0.003 -0.006,-0.006 -0.009,-0.009l-3.562,-3.562l0.49,-0.491l3.562,3.563l-0.481,0.499Z" style="fill:#84674f;fill-rule:nonzero;"/><path d="M150.193,76.973c-0.001,-0.001 -0.001,-0.001 -0.002,-0.002l-3.447,-3.446l0.49,-0.49l3.44,3.439l-0.481,0.499Z" style="fill:#84674f;fill-rule:nonzero;"/><path d="M156.228,70.713l-3.336,-3.336l0.49,-0.49l3.327,3.327l-0.481,0.499Z" style="fill:#84674f;fill-rule:nonzero;"/><path d="M163.272,63.405c-0.002,-0.002 -0.005,-0.005 -0.007,-0.007l-3.199,-3.196l0.49,-0.49l3.198,3.194l-0.482,0.499Z" style="fill:#84674f;fill-rule:nonzero;"/><path d="M171.128,55.256l-3.059,-3.057l0.49,-0.49l3.05,3.048l-0.481,0.499Z" style="fill:#84674f;fill-rule:nonzero;"/><path d="M178.505,47.603c-0.003,-0.003 -0.006,-0.006 -0.009,-0.009l-2.912,-2.911l0.49,-0.49l2.912,2.911l0,0.001l-0.481,0.498Z" style="fill:#84674f;fill-rule:nonzero;"/><path d="M189.482,34.859l-138.326,139.87l0.37,0.365l138.325,-139.869" style="fill:#fff;fill-rule:nonzero;"/><path d="M187.81,33.181l-138.342,139.285l0.369,0.366l138.342,-139.284" style="fill:#fff;fill-rule:nonzero;"/><path d="M186.241,31.622l-139.104,139.1l0.368,0.367l139.104,-139.099" style="fill:#fff;fill-rule:nonzero;"/><path d="M184.694,30.063l-139.359,138.852l0.367,0.368l139.359,-138.851" style="fill:#fff;fill-rule:nonzero;"/><path d="M182.995,28.363l-139.76,138.451l0.366,0.369l139.76,-138.45" style="fill:#fff;fill-rule:nonzero;"/><path d="M181.351,26.718l-140.75,137.453l0.363,0.372l140.75,-137.453" style="fill:#fff;fill-rule:nonzero;"/><path d="M82.741,206.841c7.269,-8.875 13.396,-17.859 18.521,-26.746c-1.516,6.917 -3.302,13.747 -8.572,19.018c-3.048,3.053 -6.393,5.618 -9.949,7.728Z" style="fill:#e7a649;fill-rule:nonzero;"/><path d="M212.782,10.505l-11.971,-0c-0.055,-0.25 -0.174,-0.509 -0.325,-0.769c-0.119,-0.184 -0.271,-0.379 -0.438,-0.541c-0.54,-0.534 -1.194,-0.823 -1.753,-0.823c-0.337,-0 -0.639,0.105 -0.861,0.324l-1.809,1.809l-8.994,-0c1.116,-1.364 2.436,-2.739 4.004,-4.07l20.399,-0c1.006,1.158 1.677,2.576 1.748,4.07Zm-13.484,-1.154l-0.018,-0l0.018,-0Z" style="fill:#e7a650;fill-rule:nonzero;"/><path d="M196.127,10.505l-0.502,-0l1.809,-1.809c0.222,-0.219 0.524,-0.324 0.861,-0.324c0.559,-0 1.213,0.289 1.753,0.823c0.167,0.162 0.319,0.357 0.438,0.541c-0.394,-0.248 -0.811,-0.381 -1.188,-0.385l-0.018,-0c-0.341,-0 -0.648,0.106 -0.872,0.331l-0.826,0.816l-0.722,-0.72l-0.733,0.727Z" style="fill:#be9543;fill-rule:nonzero;"/><path d="M197.575,10.505l-1.448,-0l0.733,-0.727l0.722,0.72l-0.007,0.007Z" style="fill:#7c4d0c;fill-rule:nonzero;"/><path d="M185.831,22.292l-0.002,-0c0,-0.001 0.001,-0.002 0.002,-0.003l0,0.003Zm-1.127,-0l-3.561,-0c0.2,-1.17 0.541,-2.565 1.082,-4.081l5.694,-0l-2.912,2.911c-0.285,0.287 -0.379,0.716 -0.303,1.17Zm1.15,-0.04c0.037,-0.055 0.079,-0.107 0.127,-0.155l-0.127,0.155Z" style="fill:#e7a650;fill-rule:nonzero;"/><path d="M185.829,22.292l-1.125,-0c-0.076,-0.454 0.018,-0.883 0.303,-1.17l2.912,-2.911l1.943,-0l-1.313,1.315l-0.722,-0.72l-1.164,1.17l0.719,0.718l-1.401,1.403c-0.048,0.048 -0.09,0.1 -0.127,0.155l-0.023,0.029l0,0.008c-0.001,0.001 -0.002,0.002 -0.002,0.003Z" style="fill:#be9543;fill-rule:nonzero;"/><path d="M187.382,20.694l-0.719,-0.718l1.164,-1.17l0.722,0.72l-1.167,1.168Z" style="fill:#7c4d0c;fill-rule:nonzero;"/><path d="M190.073,22.292l4.081,-4.081l0.002,-0l-4.083,4.081Z" style="fill:#dfac64;fill-rule:nonzero;"/><path d="M197.425,22.292l-7.352,-0l4.083,-4.081l7.345,-0l-4.076,4.081Z" style="fill:#e7a650;fill-rule:nonzero;"/><path d="M198.035,22.292l-0.61,-0l4.076,-4.081l0.874,-0l0.55,0.548l-3.042,3.043l-0.707,-0.701l-1.175,1.158l0.034,0.033Z" style="fill:#be9543;fill-rule:nonzero;"/><path d="M202.925,18.759l-0.55,-0.548l1.098,-0l-0.548,0.548Z" style="fill:#7c4d0c;fill-rule:nonzero;"/><path d="M199.393,22.292l-1.358,-0l-0.034,-0.033l1.175,-1.158l0.707,0.701l-0.49,0.49Z" style="fill:#7c4d0c;fill-rule:nonzero;"/><path d="M203.677,22.281l-0.004,-0l2.427,-2.423l0.101,-0.099l-2.524,2.522Zm2.556,-2.555l-0.001,-0l1.116,-1.115l-1.115,1.115Z" style="fill:#dfac64;fill-rule:nonzero;"/><path d="M212.701,22.281l-9.024,-0l2.524,-2.522l0.032,-0.032l0,-0.001l1.115,-1.115c0.113,-0.108 0.196,-0.236 0.244,-0.4l5.85,-0l0,0.011c0.471,0.403 1.091,0.949 1.089,1.024c0,0.002 -0.001,0.003 -0.001,0.004c-0.596,1.093 -1.207,2.101 -1.829,3.031Z" style="fill:#e7a650;fill-rule:nonzero;"/><path d="M206.1,19.858l0.132,-0.132l0.001,-0l0,0.001l-0.032,0.032l-0.101,0.099Z" style="fill:#7c4d0c;fill-rule:nonzero;"/></g></g></g></svg>