<?xml version="1.0" encoding="UTF-8" standalone="no"?><!DOCTYPE svg PUBLIC "-//W3C//DTD SVG 1.1//EN" "http://www.w3.org/Graphics/SVG/1.1/DTD/svg11.dtd"><svg width="100%" height="100%" viewBox="0 0 209 217" version="1.1" xmlns="http://www.w3.org/2000/svg" xmlns:xlink="http://www.w3.org/1999/xlink" xml:space="preserve" xmlns:serif="http://www.serif.com/" style="fill-rule:evenodd;clip-rule:evenodd;stroke-linejoin:round;stroke-miterlimit:2;"><g><g><g><path d="M177.95,150.2c1.28,3.89 2.6,7.68 3.05,11.79c0.08,0.85 0.03,2 -0.69,2.6c-0.74,0.63 -1.89,0.34 -2.72,0.13c-1.66,-0.43 -3.36,-0.84 -5.05,-1.1c-0.95,-0.16 -2.04,-0.22 -2.91,-0.67c-1.16,-0.61 -1.17,-2.18 -1.07,-3.29c0.18,-1.67 0.48,-3.4 1,-4.99c0.7,-2.18 2,-4.21 3.99,-5.38l4.4,0.91Z" style="fill:#f3bca6;fill-rule:nonzero;"/><path d="M182.6,63.25l-20.17,21.15l-4.24,-4l20.15,-21.13l4.26,3.98Z" style="fill:#18131b;fill-rule:nonzero;"/><path d="M182.6,63.25l-20.17,21.15l-2.73,-2.56l20.17,-21.15l2.73,2.56Z" style="fill:#34333b;fill-rule:nonzero;"/><path d="M174.41,72.84l-71.9,76.59l-5.46,-5.12l71.9,-76.59l5.46,5.12Z" style="fill:#18131b;fill-rule:nonzero;"/><path d="M174.41,72.84l-71.9,76.59l-3.33,-3.13l71.9,-76.59l3.33,3.13Z" style="fill:#34333b;fill-rule:nonzero;"/><path d="M119.95,132.33l-4.15,4.42l-6.941,-6.5l4.151,-4.42l6.94,6.5Z" style="fill:#dd995e;fill-rule:nonzero;"/><path d="M136.51,114.71l-4.16,4.42l-6.93,-6.52l4.15,-4.42l6.94,6.52Z" style="fill:#dd995e;fill-rule:nonzero;"/><path d="M185.67,62.64l-0.22,0.26c-1.26,1.33 -3.1,1.8 -4.76,1.38c-0.77,-0.2 -1.5,-0.59 -2.13,-1.17c-1.96,-1.84 -2.05,-4.93 -0.22,-6.89l0.24,-0.22l1.02,0.94l6.07,5.7Z" style="fill:#dd995e;fill-rule:nonzero;"/><path d="M132.35,119.13l-0.74,-0.69l-3.33,-3.14l-2.86,-2.69l4.15,-4.42l0.89,0.84c-0.49,2.56 -0.611,6.54 1.98,9.99l-0.09,0.11Z" style="fill:#d2864d;fill-rule:nonzero;"/><path d="M113.589,126.37l-0.579,-0.54l0.579,0.53l-0,0.01Z" style="fill:#f0d1b5;fill-rule:nonzero;"/><path d="M114.96,135.96l-6.101,-5.71l4.151,-4.42l0.579,0.54c-0.369,2.33 -0.71,6.92 1.371,9.59Z" style="fill:#d2864d;fill-rule:nonzero;"/><path d="M180.69,64.28c-0.77,-0.2 -1.5,-0.59 -2.13,-1.17c-1.01,-0.96 -1.53,-2.25 -1.53,-3.55c-0.01,-1.19 0.43,-2.39 1.31,-3.34l0.24,-0.22l1.02,0.94c-0.02,2.17 0.19,4.99 1.09,7.34Z" style="fill:#d2864d;fill-rule:nonzero;"/><path d="M205.25,99.8l-23.71,17.06l-3.44,-4.71l23.71,-17.06l3.44,4.71Z" style="fill:#18131b;fill-rule:nonzero;"/><path d="M205.25,99.8l-23.71,17.06l-2.21,-3.02l23.71,-17.06l2.21,3.02Z" style="fill:#34333b;fill-rule:nonzero;"/><path d="M195.43,107.71l-84.791,62.01l-4.409,-6.04l84.8,-62l4.4,6.03Z" style="fill:#18131b;fill-rule:nonzero;"/><path d="M195.43,107.71l-84.791,62.01l-2.699,-3.69l84.8,-62l2.69,3.68Z" style="fill:#34333b;fill-rule:nonzero;"/><path d="M130.94,156.13l-4.9,3.58l-5.61,-7.67l4.89,-3.59l5.62,7.68Z" style="fill:#dd995e;fill-rule:nonzero;"/><path d="M150.45,141.85l-4.88,3.59l-5.62,-7.68l4.89,-3.58l5.61,7.67Z" style="fill:#dd995e;fill-rule:nonzero;"/><path d="M208.39,99.77l-0.25,0.19c-1.5,1.1 -3.4,1.23 -4.95,0.5c-0.72,-0.34 -1.36,-0.86 -1.88,-1.54c-1.58,-2.17 -1.11,-5.22 1.06,-6.81c0.09,-0.07 0.19,-0.13 0.27,-0.19l0.83,1.13l4.92,6.72Z" style="fill:#dd995e;fill-rule:nonzero;"/><path d="M145.57,145.44l-0.6,-0.82l0.6,0.82l0.1,-0.08l-0,0.01l-0.1,0.07Zm-0.12,-10.43l-0.61,-0.83l0.61,0.83Z" style="fill:#f0d1b5;fill-rule:nonzero;"/><path d="M145.57,135.18l-0.12,-0.17l0.12,0.16l0,0.01Z" style="fill:#140504;fill-rule:nonzero;"/><path d="M145.57,145.44l-0.6,-0.82l-2.7,-3.69l-2.32,-3.17l4.89,-3.58l0.61,0.83l0.12,0.17c-0.96,2.42 -1.82,6.3 0.1,10.18l-0.1,0.08Z" style="fill:#d2864d;fill-rule:nonzero;"/><path d="M125.359,158.78l-4.929,-6.74l4.89,-3.59l0.47,0.64c-0.78,2.22 -1.99,6.67 -0.431,9.69Z" style="fill:#d2864d;fill-rule:nonzero;"/><path d="M203.19,100.46c-0.72,-0.34 -1.36,-0.86 -1.88,-1.54c-0.63,-0.86 -0.94,-1.87 -0.94,-2.87c-0,-1.5 0.69,-2.99 2,-3.94c0.09,-0.07 0.19,-0.13 0.27,-0.19l0.83,1.13c-0.42,2.12 -0.74,4.92 -0.28,7.41Z" style="fill:#d2864d;fill-rule:nonzero;"/><path d="M186.71,7.68l-41.19,52.07l-5.08,-4l41.19,-52.09l5.08,4.02Z" style="fill:#18131b;fill-rule:nonzero;"/><path d="M186.71,7.68l-41.19,52.07l-3.27,-2.56l41.2,-52.1l3.26,2.59Z" style="fill:#34333b;fill-rule:nonzero;"/><path d="M157.7,45.82l-72.43,91.61l-6.54,-5.17l72.45,-91.59l6.52,5.15Z" style="fill:#18131b;fill-rule:nonzero;"/><path d="M157.7,45.82l-72.43,91.61l-3.99,-3.15l72.43,-91.59l3.99,3.13Z" style="fill:#34333b;fill-rule:nonzero;"/><path d="M102.97,116.85l-4.18,5.28l-8.29,-6.56l4.18,-5.28l8.29,6.56Z" style="fill:#dd995e;fill-rule:nonzero;"/><path d="M119.65,95.76l-4.17,5.28l-8.31,-6.55l4.189,-5.3l8.291,6.57Z" style="fill:#dd995e;fill-rule:nonzero;"/><path d="M158.58,46.55l-4.17,5.28l-8.3,-6.57l4.18,-5.27l8.29,6.56Z" style="fill:#dd995e;fill-rule:nonzero;"/><path d="M181.58,0c-0.08,0.09 -0.16,0.19 -0.23,0.29c-1.86,2.34 -1.46,5.75 0.89,7.59c2.34,1.87 5.76,1.48 7.61,-0.87c0.08,-0.1 0.14,-0.2 0.21,-0.31l-8.48,-6.7Z" style="fill:#dd995e;fill-rule:nonzero;"/><path d="M112.25,89.89l-0.891,-0.7l0.891,0.7Z" style="fill:#f0d1b5;fill-rule:nonzero;"/><path d="M112.43,90.04l-0.18,-0.15l0.18,0.15Z" style="fill:#140504;fill-rule:nonzero;"/><path d="M115.48,101.04l-0.891,-0.7l-3.98,-3.15l-3.439,-2.7l4.189,-5.3l0.891,0.7l0.18,0.15c-0.321,2.89 -0.071,7.32 3.12,10.9l-0.07,0.1Z" style="fill:#d2864d;fill-rule:nonzero;"/><path d="M152.06,49.97l-2.52,-2l2.52,2Z" style="fill:#312725;fill-rule:nonzero;"/><path d="M146.11,45.26l4.07,-5.14c-0,-0 -0,0.01 -0.01,0.01l-4.06,5.13Z" style="fill:#f0d1b5;fill-rule:nonzero;"/><path d="M152.06,49.97l-2.52,-2l-2.54,-2.01l-0.89,-0.7l4.06,-5.13c-0.4,1.82 -0.75,5.65 1.89,9.84Z" style="fill:#d2864d;fill-rule:nonzero;"/><path d="M91.379,116.27l-0.879,-0.7l0.879,0.7Zm4,-5.43l-0.699,-0.55l0.699,0.54l-0,0.01Z" style="fill:#f0d1b5;fill-rule:nonzero;"/><path d="M93.92,118.29l-2.541,-2.02l2.551,2.01l-0.01,0.01Z" style="fill:#140504;fill-rule:nonzero;"/><path d="M97.79,121.35l-3.87,-3.06l0.01,-0.01l3.82,3.03c0.01,0.01 0.03,0.03 0.04,0.04Z" style="fill:#312725;fill-rule:nonzero;"/><path d="M97.75,121.31l-3.82,-3.03l-2.551,-2.01l-0.879,-0.7l4.18,-5.28l0.699,0.55c-0.189,2.59 -0.149,7.67 2.371,10.47Z" style="fill:#d2864d;fill-rule:nonzero;"/><path d="M2.9,200.49l23.24,-62.2l6.06,2.26l-23.24,62.21l-6.06,-2.27Z" style="fill:#18131b;fill-rule:nonzero;"/><path d="M2.9,200.49l23.24,-62.2l3.9,1.45l-23.26,62.21l-3.88,-1.46Z" style="fill:#34333b;fill-rule:nonzero;"/><path d="M26.59,158.19l-3.02,-1.14l-4.76,-1.79l45.05,-110.3l0.65,-1.6l1.99,-4.48l-2.4,7.19l-8.06,24.1l-29.45,88.02Z" style="fill:#18131b;fill-rule:nonzero;"/><path d="M64.1,46.07l-0.24,-1.11l-45.05,110.3l4.76,1.79l32.47,-86.88l8.06,-24.1Z" style="fill:#34333b;fill-rule:nonzero;"/><path d="M49.14,70.9l2.36,-6.31l9.9,3.69l-2.36,6.32l-9.9,-3.7Z" style="fill:#dd995e;fill-rule:nonzero;"/><path d="M39.73,96.09l2.36,-6.31l9.9,3.7l-2.36,6.31l-9.9,-3.7Z" style="fill:#dd995e;fill-rule:nonzero;"/><path d="M17.75,154.88l2.37,-6.32l9.9,3.71l-2.36,6.31l-9.91,-3.7Z" style="fill:#dd995e;fill-rule:nonzero;"/><path d="M10.11,206.22c0.06,-0.12 0.12,-0.21 0.16,-0.34c1.05,-2.8 -0.38,-5.93 -3.18,-6.98c-2.82,-1.04 -5.94,0.39 -6.98,3.2c-0.05,0.11 -0.08,0.23 -0.11,0.33l10.11,3.79Z" style="fill:#18131b;fill-rule:nonzero;"/><path d="M49.63,99.79l-1.28,-0.48l1.28,0.48l2.36,-6.31l-2.36,6.31Zm-7.59,-9.88l0.05,-0.13l-0.05,0.13Z" style="fill:#f0d1b5;fill-rule:nonzero;"/><path d="M49.63,99.79l-1.28,-0.48c-0.58,-2.83 -2.17,-6.97 -6.31,-9.4l0.05,-0.13l9.9,3.7l-2.36,6.31Z" style="fill:#d2864d;fill-rule:nonzero;"/><path d="M28.74,151.79l-2.81,-1.05l2.81,1.05Z" style="fill:#140504;fill-rule:nonzero;"/><path d="M25.93,150.74l-3,-1.13l-0.01,-0l3.01,1.13Z" style="fill:#312725;fill-rule:nonzero;"/><path d="M27.71,158.41c-0.16,-1.85 -0.99,-5.62 -4.79,-8.8l3.01,1.13l2.81,1.05l1.28,0.48l-2.31,6.14Z" style="fill:#d2864d;fill-rule:nonzero;"/><path d="M59.04,74.6l-0.82,-0.3l-0,-0.01l0.82,0.31l2.36,-6.32l-2.36,6.32Z" style="fill:#f0d1b5;fill-rule:nonzero;"/><path d="M59.04,74.6l-0.82,-0.31c-0.63,-2.53 -2.24,-7.39 -5.52,-9.25l8.7,3.24l-2.36,6.32Z" style="fill:#d2864d;fill-rule:nonzero;"/><path d="M33.79,131.94l-0.19,-0.07c0.12,-0.07 0.24,-0.15 0.37,-0.21c-0.06,0.09 -0.12,0.2 -0.18,0.28Zm16.68,-18.95c-6.59,0.51 -11.77,2.56 -15.97,5.77c-1.74,1.35 -3.32,2.88 -4.75,4.61c-0.09,0.09 -0.17,0.19 -0.24,0.29c-1.34,1.63 -2.55,3.44 -3.65,5.34c-1.77,3.07 -3.27,6.46 -4.61,10.08l0.36,1.43l-0.21,0.57l11.48,4.25l4.46,-12.07c-0,-0 2.17,-5.53 9.99,-4.99c0.11,-0 0.21,0.01 0.34,0.02c0.09,0.01 0.19,0.02 0.29,0.02c0.23,0.02 0.47,0.06 0.71,0.08c0.11,0.03 0.21,0.04 0.31,0.06c0.21,0.04 0.42,0.07 0.63,0.12c0.19,0.05 0.38,0.09 0.58,0.11c0.12,0.03 0.25,0.05 0.37,0.1c0.27,0.06 0.57,0.14 0.87,0.22l0.15,0.05c0.34,0.1 0.69,0.2 1.06,0.32c2.28,0.77 4.54,1.85 6.92,3.11c15.47,8.15 -2.22,36.81 -4.16,47.44c-2.22,12.32 5.34,26.37 15.81,32.83c12.2,7.51 24.409,1.67 33.52,-6.94c1.909,-1.78 3.67,-3.71 5.28,-5.67c34.74,-41.97 -14.911,-90.68 -59.54,-87.15Z" style="fill:#740f11;fill-rule:nonzero;"/><path d="M29.98,135.88l-0.21,-0.08c0.13,-0.06 0.27,-0.14 0.38,-0.21c-0.05,0.09 -0.12,0.21 -0.17,0.29Zm16.68,-18.97c-6.59,0.52 -11.79,2.58 -15.97,5.79c-0.41,0.32 -0.8,0.63 -1.18,0.96c-1.34,1.63 -2.55,3.44 -3.65,5.34c-1.77,3.07 -3.27,6.46 -4.61,10.08l0.36,1.43l-0.21,0.57l9.4,3.48l2.72,-7.36c0,-0 0.94,-2.39 3.8,-3.89l0.02,-0.05c-0,-0 2.17,-5.53 9.99,-4.99c0.11,-0 0.21,0.01 0.34,0.02c0.09,0.01 0.19,0.02 0.29,0.02c0.23,0.02 0.47,0.06 0.71,0.08c0.11,0.03 0.21,0.04 0.31,0.06c0.21,0.04 0.42,0.07 0.63,0.12c0.19,0.05 0.38,0.09 0.58,0.11c0.12,0.03 0.25,0.05 0.37,0.1c0.27,0.06 0.57,0.14 0.87,0.22l0.15,0.05c0.34,0.1 0.69,0.2 1.06,0.32c2.28,0.77 4.54,1.85 6.92,3.11c9.61,5.06 6.43,18.03 2.16,29.68c-2.59,7.11 -5.59,13.73 -6.32,17.76c-2.22,12.32 5.34,26.37 15.81,32.83c8.62,5.3 17.24,3.94 24.77,-0.35c3.129,-1.78 6.07,-4.07 8.75,-6.59c0.51,-0.57 0.99,-1.15 1.47,-1.72c34.73,-41.97 -14.92,-90.69 -59.54,-87.18Z" style="fill:#991f22;fill-rule:nonzero;"/><path d="M34.89,139.9l-2.94,8.13l-12.3,-4.45l2.92,-8.12l12.32,4.44Z" style="fill:#dd995e;fill-rule:nonzero;"/><path d="M31.95,148.03l-4.41,-1.59l-4.47,-1.62l-3.42,-1.24l2.92,-8.12l1.59,0.57c0.73,3.61 2.69,8.85 7.85,11.84l-0.06,0.16Z" style="fill:#d2864d;fill-rule:nonzero;"/><path d="M146.31,47.71l33.69,18.32l0.12,-0.23l-0.25,0.06c-0,0.01 1.51,7.03 4.93,15.16c3.43,8.12 8.76,17.36 16.47,21.79l0.13,-0.23l-0.21,-0.15c-0,-0 -6.34,8.47 -12.68,18.29c-3.17,4.91 -6.34,10.15 -8.73,14.85c-2.38,4.7 -3.98,8.82 -3.99,11.59c0,0.92 0.18,1.69 0.59,2.29c0.08,0.12 0.24,0.15 0.36,0.06c0.12,-0.08 0.15,-0.24 0.07,-0.36c-0.33,-0.47 -0.5,-1.14 -0.5,-1.99c0,-2.58 1.56,-6.7 3.94,-11.36c3.55,-7 8.89,-15.27 13.34,-21.79c2.23,-3.25 4.23,-6.07 5.68,-8.08c0.72,-1 1.31,-1.8 1.71,-2.35c0.4,-0.54 0.62,-0.84 0.63,-0.84l0.04,-0.21l-0.12,-0.17c-7.54,-4.31 -12.85,-13.46 -16.25,-21.54c-1.7,-4.04 -2.93,-7.81 -3.73,-10.57c-0.4,-1.38 -0.69,-2.51 -0.89,-3.29c-0.19,-0.78 -0.28,-1.21 -0.28,-1.21l-0.13,-0.18l-33.69,-18.32c-0.13,-0.07 -0.29,-0.02 -0.36,0.1c-0.06,0.13 -0.02,0.29 0.11,0.36Z" style="fill:#901b1e;fill-rule:nonzero;"/><path d="M179.08,145.68l-1,4.86l-5.31,-1.12l1,-4.85l5.31,1.11Z" style="fill:#dd995e;fill-rule:nonzero;"/><path d="M95.98,212.4c-7.53,4.29 -16.15,5.65 -24.77,0.35c-10.47,-6.46 -18.03,-20.51 -15.81,-32.83c0.73,-4.03 3.73,-10.65 6.32,-17.76c1.1,13.3 6.65,42.47 34.26,50.24Z" style="fill:#740f11;fill-rule:nonzero;"/><path d="M177.23,150.36l-4.46,-0.94l1,-4.85l0.06,0.02c-0.02,1.15 0.21,4.3 3.4,5.77Z" style="fill:#d2864d;fill-rule:nonzero;"/></g></g></g></svg>