<?xml version="1.0" encoding="UTF-8" standalone="no"?><!DOCTYPE svg PUBLIC "-//W3C//DTD SVG 1.1//EN" "http://www.w3.org/Graphics/SVG/1.1/DTD/svg11.dtd"><svg width="100%" height="100%" viewBox="0 0 214 217" version="1.1" xmlns="http://www.w3.org/2000/svg" xmlns:xlink="http://www.w3.org/1999/xlink" xml:space="preserve" xmlns:serif="http://www.serif.com/" style="fill-rule:evenodd;clip-rule:evenodd;stroke-linejoin:round;stroke-miterlimit:2;"><g><g><g><path d="M204.58,27.973c5.66,-5.672 1.07,-19.331 1.07,-19.331c0,-0 -0.25,-0.098 -0.71,-0.228c-2.87,-0.843 -13.73,-3.581 -18.61,1.299c-1.43,1.418 -1.97,3.442 -3.3,4.741c-1.38,1.374 -3.5,1.894 -4.98,3.388c-4.12,4.124 -5.5,9.839 -4,14.591l-3,3.009c0.01,0.834 7.85,7.847 7.85,7.847l3.09,-3.106c0.76,0.216 1.54,0.379 2.34,0.454c4.13,0.39 8.59,-1.147 11.98,-4.545c1.43,-1.418 1.96,-3.432 3.29,-4.752c1.38,-1.353 3.49,-1.884 4.98,-3.367Z" style="fill:#4c1800;fill-rule:nonzero;"/><path d="M193.08,42.174l-3.95,-3.95l1.51,-1.505l3.95,3.951l-1.51,1.504Z" style="fill:#4d2500;fill-rule:nonzero;"/><path d="M193.26,40.854c-0.46,0.443 -0.75,1.299 -0.77,2.252c-0.03,1.103 0.29,2.316 1.15,3.171c1.59,1.602 4.03,1.764 5.42,0.379c0.66,-0.65 0.98,-1.537 0.93,-2.447c-0,-1.05 -0.44,-2.132 -1.3,-2.987c-1.61,-1.602 -4.47,-1.331 -5.43,-0.368Z" style="fill:#e2b98c;fill-rule:nonzero;"/><path d="M196.69,47.596c-1.06,-0 -2.18,-0.446 -3.05,-1.319c-0.82,-0.815 -1.15,-1.955 -1.15,-3.015l-0,-0.156c1.72,1.433 3.29,1.901 4.61,1.901c1.2,-0 2.19,-0.394 2.89,-0.798l-0,0.17c0.01,0.85 -0.31,1.667 -0.93,2.277c-0.63,0.63 -1.48,0.94 -2.37,0.94Z" style="fill:#ebc592;fill-rule:nonzero;"/><path d="M206.76,31.036l-3.96,-3.95l1.5,-1.527l3.95,3.963l-1.49,1.514Z" style="fill:#4d2500;fill-rule:nonzero;"/><path d="M206.92,29.705c-0.45,0.444 -0.75,1.299 -0.77,2.252c-0.03,1.104 0.3,2.316 1.15,3.171c1.61,1.602 4.04,1.765 5.42,0.39c0.66,-0.672 0.98,-1.548 0.94,-2.457c-0.01,-1.051 -0.45,-2.122 -1.31,-2.989c-1.59,-1.59 -4.46,-1.341 -5.43,-0.367Z" style="fill:#e2b98c;fill-rule:nonzero;"/><path d="M210.37,36.449c-1.07,-0 -2.19,-0.446 -3.07,-1.321c-0.81,-0.815 -1.15,-1.954 -1.15,-3.015l0,-0.156c1.73,1.439 3.3,1.91 4.61,1.91c1.21,-0 2.2,-0.397 2.9,-0.806l0,0.17c0,0.848 -0.32,1.657 -0.94,2.287c-0.63,0.624 -1.47,0.931 -2.35,0.931Z" style="fill:#ebc592;fill-rule:nonzero;"/><path d="M171.49,20.58l3.96,3.973l1.5,-1.516l-3.95,-3.951l-1.51,1.494Z" style="fill:#4d2500;fill-rule:nonzero;"/><path d="M172.83,20.418c-0.45,0.455 -1.32,0.736 -2.26,0.78c-1.1,0.021 -2.31,-0.293 -3.17,-1.169c-1.61,-1.591 -1.78,-4.039 -0.39,-5.423c0.66,-0.65 1.54,-0.963 2.46,-0.932c1.05,0.012 2.12,0.455 2.97,1.3c1.6,1.612 1.36,4.481 0.39,5.444Z" style="fill:#e2b98c;fill-rule:nonzero;"/><path d="M170.46,21.199c-1.07,-0 -2.23,-0.322 -3.06,-1.17c-0.88,-0.87 -1.33,-1.997 -1.33,-3.065c-0,-0.885 0.31,-1.731 0.94,-2.358c0.63,-0.62 1.47,-0.934 2.33,-0.934c0.04,-0 0.08,0.001 0.13,0.002c-0.85,1.473 -1.66,4.19 1.1,7.524c-0.04,-0 -0.07,0.001 -0.11,0.001Z" style="fill:#ebc592;fill-rule:nonzero;"/><path d="M182.64,6.91l3.95,3.972l1.5,-1.515l-3.95,-3.951l-1.5,1.494Z" style="fill:#4d2500;fill-rule:nonzero;"/><path d="M183.97,6.758c-0.46,0.434 -1.31,0.747 -2.26,0.768c-1.1,0.011 -2.3,-0.313 -3.17,-1.157c-1.61,-1.602 -1.77,-4.038 -0.39,-5.424c0.67,-0.649 1.55,-0.984 2.47,-0.941c1.04,0.011 2.12,0.455 2.97,1.321c1.6,1.591 1.34,4.47 0.38,5.433Z" style="fill:#e2b98c;fill-rule:nonzero;"/><path d="M181.65,7.527c-1.08,-0 -2.26,-0.327 -3.11,-1.158c-0.88,-0.876 -1.33,-2.002 -1.32,-3.068c0,-0.884 0.31,-1.728 0.93,-2.356c0.63,-0.612 1.45,-0.945 2.31,-0.945c0.05,0 0.11,0.002 0.16,0.004c-0.86,1.461 -1.66,4.199 1.09,7.522c-0.02,0.001 -0.04,0.001 -0.06,0.001Z" style="fill:#ebc592;fill-rule:nonzero;"/><path d="M183.85,40.582c-0.63,-0.085 -1.26,-0.215 -1.87,-0.392l0.01,-0.007c0.61,0.173 1.23,0.312 1.86,0.399Zm-9.81,-8.136c-0.89,-2.823 -0.77,-5.99 0.35,-8.96l0,0.005c-1.11,2.964 -1.23,6.122 -0.34,8.942l-0.01,0.013Zm1.3,-11.016l-0,-0.004c0.71,-1.277 1.61,-2.487 2.71,-3.584c-1.1,1.099 -2,2.311 -2.71,3.588Zm29.6,-13.016c-0.03,-0.008 -0.05,-0.016 -0.08,-0.025c0.03,0.009 0.05,0.017 0.08,0.025Zm-0.1,-0.029c-1.67,-0.483 -5.66,-1.497 -9.71,-1.5c4.05,0.003 8.04,1.017 9.71,1.5Zm-9.74,-1.5l0.01,0l-0.01,0Z" style="fill:#c9cacc;fill-rule:nonzero;"/><path d="M184.33,40.637c-0.16,-0.016 -0.32,-0.034 -0.48,-0.055c-0.63,-0.087 -1.25,-0.226 -1.86,-0.399l-0.01,0.007c-1.88,-0.543 -3.61,-1.525 -5.05,-2.973c-1.37,-1.366 -2.33,-3.001 -2.89,-4.771l0.01,-0.013c-0.89,-2.82 -0.77,-5.978 0.34,-8.942l1.06,1.062l1.5,-1.516l-1.61,-1.607c0.71,-1.277 1.61,-2.489 2.71,-3.588c1.48,-1.494 3.6,-2.014 4.98,-3.388c1.19,-1.161 1.75,-2.9 2.87,-4.269l0.69,0.697l1.5,-1.515l-0.6,-0.605c2.09,-1.409 4.86,-1.875 7.61,-1.877l0.03,0c4.05,0.003 8.04,1.017 9.71,1.5c0.01,0.001 0.01,0.003 0.02,0.004c0.03,0.009 0.05,0.017 0.08,0.025c-6.22,3.074 -25.97,13.974 -20.61,32.223Z" style="fill:#431100;fill-rule:nonzero;"/><path d="M175.45,24.553l-1.06,-1.062l0,-0.005c0.26,-0.7 0.58,-1.389 0.95,-2.06l-0,0.004l1.61,1.607l-1.5,1.516Z" style="fill:#431d00;fill-rule:nonzero;"/><path d="M186.59,10.882l-0.69,-0.697c0.13,-0.163 0.28,-0.321 0.43,-0.472c0.35,-0.356 0.74,-0.672 1.16,-0.951l0.6,0.605l-1.5,1.515Z" style="fill:#431d00;fill-rule:nonzero;"/><path d="M139.21,61.961l3.96,3.95l1.51,-1.493l-3.96,-3.962l-1.51,1.505Z" style="fill:#4d2500;fill-rule:nonzero;"/><path d="M140.54,61.799c-0.44,0.444 -1.31,0.736 -2.25,0.768c-1.1,0.021 -2.32,-0.292 -3.18,-1.147c-1.601,-1.613 -1.77,-4.049 -0.37,-5.433c0.66,-0.662 1.53,-0.975 2.45,-0.932c1.05,0.011 2.12,0.465 2.97,1.32c1.61,1.58 1.35,4.46 0.38,5.424Z" style="fill:#e2b98c;fill-rule:nonzero;"/><path d="M138.19,62.568c-1.08,-0 -2.24,-0.32 -3.08,-1.148c-0.87,-0.882 -1.32,-2.01 -1.32,-3.078c-0,-0.885 0.31,-1.728 0.95,-2.355c0.62,-0.621 1.43,-0.936 2.28,-0.936c0.06,0 0.11,0.001 0.17,0.004c-0.85,1.473 -1.66,4.211 1.1,7.512c-0.03,0 -0.07,0.001 -0.1,0.001Z" style="fill:#ebc592;fill-rule:nonzero;"/><path d="M86.019,201.449c-19.679,19.668 -51.579,19.668 -71.259,-0c-19.68,-19.677 -19.68,-51.587 0,-71.253c19.68,-19.69 51.58,-19.69 71.259,-0c19.671,19.666 19.671,51.576 -0,71.253Z" style="fill:#892f16;fill-rule:nonzero;"/><path d="M82.86,198.292c-18.76,18.745 -49.15,18.745 -67.9,-0c-18.75,-18.761 -18.75,-49.155 -0,-67.913c18.75,-18.747 49.14,-18.747 67.9,0c18.75,18.758 18.75,49.152 0,67.913Z" style="fill:#4c1800;fill-rule:nonzero;"/><path d="M48.9,206.397c-8.47,-0 -16.94,-2.544 -24.17,-7.631c-1.23,-0.867 -2.43,-1.83 -3.6,-2.847c-0.67,-0.573 -1.32,-1.202 -1.96,-1.841c-0.65,-0.648 -1.27,-1.287 -1.85,-1.968c-0.99,-1.127 -1.92,-2.307 -2.76,-3.487c-11.65,-16.431 -10.1,-39.312 4.6,-54.033c8.21,-8.211 18.98,-12.319 29.75,-12.319c8.46,-0 16.92,2.533 24.14,7.606l-3.56,3.428c-6.24,-4.143 -13.45,-6.208 -20.66,-6.208c-0.76,-0 -1.51,0.022 -2.26,0.067c-8.73,0.553 -17.32,4.179 -23.99,10.846c-7.26,7.262 -10.89,16.777 -10.9,26.294c-0,7.461 2.22,14.922 6.68,21.3c-0.01,0.021 -0.02,0.043 -0.03,0.064l1.17,1.48c0.09,0.12 0.19,0.238 0.28,0.357l1.31,1.659l3.83,3.821c1.14,1.018 2.35,1.96 3.59,2.826c0.11,-0.043 0.22,-0.085 0.33,-0.128c4.83,3.101 10.23,4.969 15.74,5.616c1.44,0.169 2.89,0.253 4.34,0.253c9.52,0 19.04,-3.635 26.3,-10.904c7.19,-7.177 10.83,-16.583 10.9,-25.999c0.07,-7.101 -1.89,-14.225 -5.87,-20.425l3.45,-3.542c11.16,16.376 9.47,38.879 -5.05,53.396c-8.21,8.213 -18.98,12.319 -29.75,12.319Z" style="fill:#2a0000;fill-rule:nonzero;"/><path d="M75.22,190.648c-8.37,8.378 -19.74,11.928 -30.64,10.651c-8.04,-0.942 -15.82,-4.482 -21.99,-10.651c-0.72,-0.705 -1.39,-1.45 -2.04,-2.208c-12.47,-14.623 -11.79,-36.608 2.03,-50.43c6.67,-6.667 15.26,-10.293 23.99,-10.846c10.3,-0.617 20.8,2.989 28.66,10.846c7.36,7.35 10.99,17.016 10.89,26.639c-0.07,9.416 -3.71,18.822 -10.9,25.999Z" style="fill:#fcc9a6;fill-rule:nonzero;"/><path d="M78.3,145.576c-0.1,-0 -0.18,-0.038 -0.25,-0.103l-9.91,-9.903l102.81,-99.414l7.18,6.706l-99.59,102.611c-0.06,0.065 -0.15,0.103 -0.24,0.103Z" style="fill:#4d2500;fill-rule:nonzero;"/><path d="M171.19,35.713c-0.18,0 -0.35,0.065 -0.49,0.195l-102.8,98.92c-0.13,0.13 -0.21,0.303 -0.21,0.492c-0,0.184 0.07,0.364 0.2,0.493l9.92,9.904c0.13,0.13 0.3,0.205 0.49,0.205c0.18,-0 0.36,-0.075 0.49,-0.205l99.59,-102.125c0.26,-0.275 0.26,-0.709 -0.01,-0.974l-6.69,-6.7c-0.14,-0.14 -0.31,-0.205 -0.49,-0.205Zm0,0.692l6.69,6.701l-99.58,102.124l-9.91,-9.904l102.8,-98.921Z" style="fill:#c2c4c6;fill-rule:nonzero;"/><path d="M83.17,140.222l-9.76,-9.752c-0.13,-0.136 -0.35,-0.136 -0.49,-0c-0.13,0.136 -0.13,0.355 -0,0.49l9.76,9.753c0.14,0.135 0.36,0.134 0.49,-0.001c0.14,-0.135 0.14,-0.355 -0,-0.49Z" style="fill:#c2c4c6;fill-rule:nonzero;"/><path d="M88.63,134.626l-9.58,-9.568c-0.14,-0.135 -0.36,-0.135 -0.49,-0c-0.14,0.135 -0.14,0.355 -0,0.49l9.58,9.568c0.129,0.136 0.349,0.136 0.49,-0c0.129,-0.135 0.129,-0.355 0,-0.49Z" style="fill:#c2c4c6;fill-rule:nonzero;"/><path d="M88.63,134.626l-9.58,-9.568c-0.14,-0.135 -0.36,-0.135 -0.49,-0c-0.14,0.135 -0.14,0.355 -0,0.49l9.58,9.568c0.129,0.136 0.349,0.136 0.49,-0c0.129,-0.135 0.129,-0.355 0,-0.49Z" style="fill:#c2c4c6;fill-rule:nonzero;"/><path d="M94.09,129.03l-9.4,-9.406c-0.14,-0.135 -0.36,-0.135 -0.49,0c-0.14,0.136 -0.14,0.355 -0,0.49l9.4,9.407c0.139,0.135 0.36,0.135 0.49,-0c0.139,-0.136 0.139,-0.355 -0,-0.491Z" style="fill:#c2c4c6;fill-rule:nonzero;"/><path d="M99.09,123.91l-9.24,-9.254c-0.13,-0.136 -0.351,-0.136 -0.49,-0.001c-0.131,0.136 -0.14,0.355 0,0.491l9.24,9.254c0.129,0.136 0.35,0.136 0.49,0.001c0.13,-0.135 0.13,-0.355 -0,-0.491Z" style="fill:#c2c4c6;fill-rule:nonzero;"/><path d="M104.759,118.087l-9.069,-9.06c-0.13,-0.135 -0.35,-0.135 -0.49,-0c-0.13,0.136 -0.13,0.356 0,0.491l9.069,9.059c0.131,0.136 0.351,0.136 0.49,0c0.131,-0.135 0.131,-0.354 -0,-0.49Z" style="fill:#c2c4c6;fill-rule:nonzero;"/><path d="M110.32,112.383l-8.88,-8.887c-0.13,-0.135 -0.35,-0.135 -0.49,-0c-0.13,0.136 -0.13,0.355 0,0.49l8.88,8.887c0.13,0.135 0.35,0.136 0.49,0.001c0.13,-0.136 0.13,-0.356 -0,-0.491Z" style="fill:#c2c4c6;fill-rule:nonzero;"/><path d="M116.2,106.354l-8.701,-8.692c-0.139,-0.135 -0.359,-0.135 -0.49,-0c-0.139,0.136 -0.139,0.355 -0,0.491l8.701,8.691c0.13,0.136 0.35,0.136 0.49,-0c0.13,-0.136 0.13,-0.355 0,-0.49Z" style="fill:#c2c4c6;fill-rule:nonzero;"/><path d="M122.69,99.708l-8.49,-8.496c-0.13,-0.136 -0.35,-0.136 -0.49,-0.001c-0.13,0.135 -0.13,0.355 0,0.491l8.49,8.496c0.14,0.136 0.36,0.136 0.49,0.001c0.14,-0.135 0.14,-0.355 0,-0.491Z" style="fill:#c2c4c6;fill-rule:nonzero;"/><path d="M128.33,93.917l-8.301,-8.291c-0.139,-0.135 -0.359,-0.135 -0.489,-0c-0.14,0.136 -0.14,0.356 -0,0.491l8.3,8.291c0.13,0.135 0.35,0.135 0.49,-0.001c0.13,-0.135 0.13,-0.355 -0,-0.49Z" style="fill:#c2c4c6;fill-rule:nonzero;"/><path d="M135.41,86.654l-8.07,-8.064c-0.13,-0.135 -0.351,-0.135 -0.49,-0c-0.13,0.136 -0.13,0.355 0,0.49l8.07,8.064c0.14,0.135 0.36,0.135 0.49,-0c0.14,-0.136 0.14,-0.355 0,-0.49Z" style="fill:#c2c4c6;fill-rule:nonzero;"/><path d="M141.9,80.008l-7.86,-7.868c-0.13,-0.135 -0.35,-0.136 -0.49,0c-0.13,0.135 -0.13,0.355 -0,0.49l7.86,7.868c0.14,0.136 0.36,0.136 0.49,-0c0.14,-0.135 0.14,-0.354 0,-0.49Z" style="fill:#c2c4c6;fill-rule:nonzero;"/><path d="M149.47,72.226l-7.62,-7.61c-0.13,-0.135 -0.35,-0.135 -0.49,0.001c-0.13,0.135 -0.13,0.354 0,0.49l7.62,7.609c0.14,0.136 0.36,0.136 0.49,-0c0.14,-0.136 0.14,-0.355 0,-0.49Z" style="fill:#c2c4c6;fill-rule:nonzero;"/><path d="M157.92,63.556l-7.34,-7.35c-0.13,-0.135 -0.35,-0.135 -0.49,-0c-0.13,0.135 -0.13,0.355 -0,0.49l7.34,7.35c0.14,0.135 0.36,0.136 0.49,0.001c0.14,-0.136 0.14,-0.356 0,-0.491Z" style="fill:#c2c4c6;fill-rule:nonzero;"/><path d="M165.86,55.416l-7.09,-7.068c-0.14,-0.136 -0.36,-0.136 -0.49,0c-0.14,0.136 -0.14,0.356 -0,0.49l7.09,7.069c0.13,0.135 0.35,0.135 0.49,-0.001c0.13,-0.135 0.13,-0.355 0,-0.49Z" style="fill:#c2c4c6;fill-rule:nonzero;"/><path d="M78.3,145.23l-3.26,-3.258l4.45,-4.452l3.19,3.193c-0,0.003 0.01,0.006 0.01,0.009l-4.39,4.508Zm4.88,-5.004c-0.01,-0.001 -0.01,-0.003 -0.01,-0.004l-3.19,-3.192l5.029,-5.035l3.131,3.121c0,0.004 0,0.007 0.01,0.01l-4.97,5.1Zm5.45,-5.596l0,-0.004l-3.131,-3.121l5.041,-5.042l3.06,3.058c0,0.002 0.01,0.004 0.01,0.006l-4.98,5.103Zm5.46,-5.6l-3.05,-3.058l4.57,-4.57l2.99,2.998l0,0.005l-4.51,4.625Zm5,-5.122l-2.99,-2.996l5.25,-5.252l2.919,2.917c-0,0.004 -0,0.007 0.01,0.01l-5.189,5.321Zm5.669,-5.816l-0,-0.005l-2.919,-2.917l5.139,-5.146l2.851,2.849c-0,0.003 0.01,0.006 0.01,0.009l-5.081,5.21Zm5.561,-5.706l-0,-0.003l-2.85,-2.849l5.46,-5.46l2.78,2.77c0,0.004 0,0.007 0.01,0.011l-5.4,5.531Zm5.88,-6.028l0,-0.004l-2.78,-2.771l6.089,-6.082l2.691,2.697l0,0.004l-6,6.156Zm6.49,-6.652l-2.691,-2.695l5.221,-5.221l2.62,2.618c-0,0.002 -0,0.005 0.01,0.007l-5.16,5.291Zm5.64,-5.787l-0,-0.002l-2.62,-2.618l6.68,-6.684l2.53,2.529c0.01,0.002 0.01,0.005 0.01,0.007l-6.6,6.768Zm7.08,-7.264l0,-0.001l-2.53,-2.529l6.08,-6.08l2.45,2.453c0,0.001 0,0.002 0.01,0.003l-6.01,6.154Zm6.49,-6.651l-2.45,-2.449l7.19,-7.183l2.34,2.344c0.01,0.004 0.01,0.008 0.02,0.012l-7.1,7.276Zm7.58,-7.772c-0,-0.002 -0,-0.004 -0.01,-0.006l-2.34,-2.344l8.07,-8.073l2.23,2.237c0.01,0.005 0.01,0.009 0.02,0.014l-7.97,8.172Zm8.45,-8.668c0,-0.003 0,-0.005 -0.01,-0.008l-2.23,-2.237l7.54,-7.541l2.14,2.129c0,0.005 0.01,0.011 0.01,0.015l-7.45,7.642Zm7.94,-8.138c-0.01,-0.003 -0.01,-0.007 -0.01,-0.01l-2.14,-2.129l12.17,-12.173l1.99,1.992l-12.01,12.32Z" style="fill:#350200;fill-rule:nonzero;"/><path d="M78.3,145.23l4.39,-4.508l-4.39,4.508Zm4.88,-5.004l4.97,-5.1l-4.97,5.1Zm5.45,-5.596l4.98,-5.103l-4.98,5.103Zm5.46,-5.6l4.51,-4.625l-4.51,4.625Zm5,-5.122l5.189,-5.321l-5.189,5.321Zm5.669,-5.816l5.081,-5.21l-5.081,5.21Zm5.561,-5.706l5.4,-5.531l-5.4,5.531Zm5.88,-6.028l6,-6.156l-6,6.156Zm6.49,-6.652l5.16,-5.291l-5.16,5.291Zm5.64,-5.787l6.6,-6.768l-6.6,6.768Zm7.08,-7.264l6.01,-6.154l-6.01,6.154Zm6.49,-6.651l7.1,-7.276l-7.1,7.276Zm7.58,-7.772l7.97,-8.172l-7.97,8.172Zm8.45,-8.668l7.45,-7.642l-7.45,7.642Zm7.94,-8.138l12.01,-12.32l-12.01,12.32Zm12.01,-12.32l-1.99,-1.99l0,-0.002l1.99,1.992Z" style="fill:#6c492c;fill-rule:nonzero;"/><path d="M82.69,140.722c-0,-0.003 -0.01,-0.006 -0.01,-0.009l-3.19,-3.193l0.49,-0.49l3.19,3.192c-0,0.001 -0,0.003 0.01,0.004l-0.49,0.496Z" style="fill:#6c492c;fill-rule:nonzero;"/><path d="M88.15,135.126c-0.01,-0.003 -0.01,-0.006 -0.01,-0.01l-3.131,-3.121l0.49,-0.49l3.131,3.121l0,0.004l-0.48,0.496Z" style="fill:#6c492c;fill-rule:nonzero;"/><path d="M93.61,129.527c0,-0.002 -0.01,-0.004 -0.01,-0.006l-3.06,-3.058l0.5,-0.491l3.05,3.058l-0.48,0.497Z" style="fill:#6c492c;fill-rule:nonzero;"/><path d="M98.6,124.405l0,-0.005l-2.99,-2.998l0.49,-0.49l2.99,2.996l-0.49,0.497Z" style="fill:#6c492c;fill-rule:nonzero;"/><path d="M104.279,118.587c-0.01,-0.003 -0.01,-0.006 -0.01,-0.01l-2.919,-2.917l0.49,-0.49l2.919,2.917l-0,0.005l-0.48,0.495Z" style="fill:#6c492c;fill-rule:nonzero;"/><path d="M109.84,112.882c-0,-0.003 -0.01,-0.006 -0.01,-0.009l-2.851,-2.849l0.491,-0.49l2.85,2.849l-0,0.003l-0.48,0.496Z" style="fill:#6c492c;fill-rule:nonzero;"/><path d="M115.72,106.855c-0.01,-0.004 -0.01,-0.007 -0.01,-0.011l-2.78,-2.77l0.49,-0.491l2.78,2.771l0,0.004l-0.48,0.497Z" style="fill:#6c492c;fill-rule:nonzero;"/><path d="M122.2,100.202l0,-0.004l-2.691,-2.697l0.49,-0.49l2.691,2.695l-0.49,0.496Z" style="fill:#6c492c;fill-rule:nonzero;"/><path d="M127.85,94.415c-0.01,-0.002 -0.01,-0.005 -0.01,-0.007l-2.62,-2.618l0.49,-0.491l2.62,2.618l-0,0.002l-0.48,0.496Z" style="fill:#6c492c;fill-rule:nonzero;"/><path d="M134.93,87.151c0,-0.002 0,-0.005 -0.01,-0.007l-2.53,-2.529l0.49,-0.49l2.53,2.529l0,0.001l-0.48,0.496Z" style="fill:#6c492c;fill-rule:nonzero;"/><path d="M141.42,80.501c-0.01,-0.001 -0.01,-0.002 -0.01,-0.003l-2.45,-2.453l0.49,-0.49l2.45,2.449l-0.48,0.497Z" style="fill:#6c492c;fill-rule:nonzero;"/><path d="M149,72.728c-0.01,-0.004 -0.01,-0.008 -0.02,-0.012l-2.34,-2.344l0.49,-0.49l2.34,2.344c0.01,0.002 0.01,0.004 0.01,0.006l-0.48,0.496Z" style="fill:#6c492c;fill-rule:nonzero;"/><path d="M157.45,64.06c-0.01,-0.005 -0.01,-0.009 -0.02,-0.014l-2.23,-2.237l0.49,-0.49l2.23,2.237c0.01,0.003 0.01,0.005 0.01,0.008l-0.48,0.496Z" style="fill:#6c492c;fill-rule:nonzero;"/><path d="M165.38,55.922c0,-0.004 -0.01,-0.01 -0.01,-0.015l-2.14,-2.129l0.49,-0.491l2.14,2.129c0,0.003 0,0.007 0.01,0.01l-0.49,0.496Z" style="fill:#6c492c;fill-rule:nonzero;"/><path d="M56.01,176.512l-19.56,-19.56l2.75,-2.738l19.56,19.537l-2.75,2.761Z" style="fill:#4d2500;fill-rule:nonzero;"/><path d="M177.41,42.553l-139.78,139.803l0.37,0.368l139.78,-139.804" style="fill:#fff;fill-rule:nonzero;"/><path d="M175.35,40.475l-140.29,140.301l0.37,0.368l140.29,-140.302" style="fill:#fff;fill-rule:nonzero;"/><path d="M173.63,38.851l-140.74,139.76l0.36,0.369l140.75,-139.76" style="fill:#fff;fill-rule:nonzero;"/><path d="M171.58,36.708l-141.27,139.109l0.37,0.37l141.26,-139.109" style="fill:#fff;fill-rule:nonzero;"/><path d="M192.78,14.801c-0.97,0.974 -2.55,0.974 -3.52,0c-0.97,-0.975 -0.97,-2.545 0.01,-3.508c0.96,-0.974 2.54,-0.974 3.51,-0c0.96,0.963 0.96,2.533 -0,3.508Z" style="fill:#c9cacc;fill-rule:nonzero;"/><path d="M202.99,25.008c-0.98,0.974 -2.55,0.974 -3.51,-0c-0.97,-0.975 -0.97,-2.533 -0,-3.508c0.96,-0.963 2.53,-0.963 3.51,0c0.96,0.975 0.96,2.533 -0,3.508Z" style="fill:#c9cacc;fill-rule:nonzero;"/><path d="M181.33,26.241c-0.97,0.964 -2.54,0.964 -3.51,-0c-0.97,-0.963 -0.97,-2.543 -0,-3.506c0.97,-0.975 2.54,-0.975 3.51,-0c0.96,0.963 0.96,2.543 -0,3.506Z" style="fill:#c9cacc;fill-rule:nonzero;"/><path d="M191.54,36.459c-0.97,0.975 -2.54,0.975 -3.51,-0c-0.97,-0.974 -0.97,-2.543 -0,-3.507c0.97,-0.973 2.54,-0.973 3.51,0c0.97,0.964 0.97,2.533 -0,3.507Z" style="fill:#c9cacc;fill-rule:nonzero;"/><path d="M19.78,187.505c-0.09,-0.119 -0.19,-0.237 -0.28,-0.357l0.28,0.357Z" style="fill:#f9a375;fill-rule:nonzero;"/><path d="M18.36,185.604c-4.46,-6.378 -6.68,-13.839 -6.68,-21.3c0.01,-9.517 3.64,-19.032 10.9,-26.294c6.67,-6.667 15.26,-10.293 23.99,-10.846c-12.9,13.018 -27.38,32.506 -26.59,55.231c-0.46,0.69 -0.78,1.349 -1.21,2.256c-0.15,0.324 -0.28,0.639 -0.41,0.953Z" style="fill:#f9a375;fill-rule:nonzero;"/><path d="M29.59,195.368c-0.36,0.162 -0.72,0.302 -1.08,0.443c-1.24,-0.866 -2.45,-1.808 -3.59,-2.826l-3.83,-3.821l-2.76,-3.496c0.14,-0.335 0.28,-0.671 0.44,-1.017c1,-2.111 1.39,-2.879 4.45,-5.822c3.26,-3.13 6.46,-5.857 7.03,-6.345l0.09,-0.075l11.39,11.398c0,0 -7.53,9.438 -12.14,11.561Z" style="fill:#c9cacc;fill-rule:nonzero;"/><path d="M41.67,183.862l-11.34,-11.335l2.81,-2.813l11.34,11.343l-2.81,2.805Z" style="fill:#080d00;fill-rule:nonzero;"/><path d="M48.92,201.552c-1.45,0 -2.9,-0.084 -4.34,-0.253c22.07,-10.478 34.54,-24.117 41.54,-36.65c-0.07,9.416 -3.71,18.822 -10.9,25.999c-7.26,7.269 -16.78,10.904 -26.3,10.904Z" style="fill:#fdd4b3;fill-rule:nonzero;"/><path d="M23.63,191.698l-2.54,-2.534l-2.76,-3.496c0.14,-0.335 0.28,-0.671 0.44,-1.017c1,-2.111 1.39,-2.879 4.45,-5.822c3.26,-3.13 6.46,-5.857 7.03,-6.345l0.08,0.043c-0,-0 -8.93,7.794 -6.7,19.171Z" style="fill:#a3a5a8;fill-rule:nonzero;"/></g></g></g></svg>