<?xml version="1.0" encoding="UTF-8" standalone="no"?><!DOCTYPE svg PUBLIC "-//W3C//DTD SVG 1.1//EN" "http://www.w3.org/Graphics/SVG/1.1/DTD/svg11.dtd"><svg width="100%" height="100%" viewBox="0 0 217 99" version="1.1" xmlns="http://www.w3.org/2000/svg" xmlns:xlink="http://www.w3.org/1999/xlink" xml:space="preserve" xmlns:serif="http://www.serif.com/" style="fill-rule:evenodd;clip-rule:evenodd;stroke-linejoin:round;stroke-miterlimit:2;"><g><g><g><rect x="90.29" y="40.125" width="33.68" height="22.296" style="fill:#e0b395;fill-rule:nonzero;"/><path d="M98.8,89.309l-0.03,-0c-0.92,-0 -1.66,-0.747 -1.64,-1.688c0.22,-20.534 1.36,-34.443 1.37,-34.583c0.03,-0.347 0.16,-0.682 0.39,-0.953c7.66,-8.995 0.33,-17.632 0.02,-18c-0.61,-0.693 -0.54,-1.753 0.16,-2.349c0.69,-0.617 1.75,-0.541 2.35,0.162c0.09,0.098 9.28,10.911 0.37,21.919c-0.21,2.717 -1.13,15.651 -1.33,33.836c-0.01,0.931 -0.74,1.656 -1.66,1.656Z" style="fill:#919396;fill-rule:nonzero;"/><path d="M95.24,78.388c0,1.947 1.6,3.539 3.56,3.539c1.97,0 3.56,-1.592 3.56,-3.539l0,-6.842c0,-1.947 -1.59,-3.549 -3.56,-3.549c-1.96,0 -3.56,1.602 -3.56,3.549l0,6.842Z" style="fill:#4a4b4c;fill-rule:nonzero;"/><path d="M101.41,69.123l-5.71,-3.995l-0.96,5.997l-2.04,4.578l3.21,2.047" style="fill:#4a4b4c;fill-rule:nonzero;"/><path d="M6.88,88.909c-0.92,-0 -1.67,-0.736 -1.68,-1.646c-0.19,-18.206 -1.11,-31.13 -1.31,-33.846c-8.91,-11.031 0.26,-21.822 0.36,-21.93c0.6,-0.692 1.65,-0.769 2.35,-0.163c0.7,0.607 0.77,1.657 0.17,2.349c-0.31,0.369 -7.6,9.049 0.01,18.012c0.23,0.26 0.37,0.595 0.39,0.941c0.02,0.141 1.15,14.049 1.38,34.605c0,0.92 -0.74,1.667 -1.66,1.678l-0.01,-0Z" style="fill:#919396;fill-rule:nonzero;"/><path d="M96.15,63.095c0,-0 -0.48,5.248 -1.12,12.023c-0.54,0.488 -1.15,0.954 -1.8,1.44c-1.3,0.932 -2.8,1.862 -4.49,2.75c-4.57,2.37 -10.53,4.416 -17.62,5.779c-1.91,0.369 -3.9,0.682 -5.97,0.931c-3.81,0.455 -7.87,0.715 -12.17,0.715c-2.47,-0 -4.85,-0.076 -7.14,-0.217c-2.54,-0.151 -4.97,-0.401 -7.28,-0.703c-13.52,-1.797 -22.9,-6.029 -27.23,-10.52l-1.36,-10.577l-0.19,-1.621l86.37,-0Z" style="fill:#4a4b4c;fill-rule:nonzero;"/><path d="M45.84,86.516c-2.54,-0.151 -4.97,-0.401 -7.28,-0.703l-6.57,-8.097c2.45,0.529 5.06,0.968 7.78,1.306l6.07,7.494Z" style="fill:#333132;fill-rule:nonzero;"/><path d="M65.15,86.018l-5.2,-6.419c2.14,-0.134 4.23,-0.33 6.25,-0.582l4.92,6.07c-1.91,0.369 -3.9,0.682 -5.97,0.931Z" style="fill:#333132;fill-rule:nonzero;"/><path d="M96.15,63.095c0,9.242 -19.33,16.721 -43.18,16.721c-23.86,-0 -43.19,-7.479 -43.19,-16.721c0,-9.224 19.33,-16.703 43.19,-16.703c23.85,-0 43.18,7.479 43.18,16.703Z" style="fill:#200000;fill-rule:nonzero;"/><path d="M100.42,21.291c0,-0 -0.55,5.672 -1.24,12.978c-0.44,4.654 -0.95,9.99 -1.41,14.959c-0.67,6.94 -1.25,13.162 -1.48,15.781c-6.18,6.862 -21.92,13.725 -43.47,13.725c-1.15,0 -2.29,-0.022 -3.39,-0.055c-19.6,-0.594 -33.02,-6.234 -38.48,-12.295l-4.07,-33.793l-1.16,-9.547l-0.21,-1.753l94.91,-0Z" style="fill:#fcc9a6;fill-rule:nonzero;"/><path d="M49.43,78.679c-19.6,-0.594 -33.02,-6.234 -38.48,-12.295l-3.57,-29.608c0.59,0.416 1.22,0.827 1.88,1.231c7,14.725 19.12,31.077 40.17,40.672Z" style="fill:#da9370;fill-rule:nonzero;"/><path d="M88.14,41.679c1.91,-0.704 3.69,-1.459 5.33,-2.255l0.01,0.007c-1.65,0.787 -3.42,1.543 -5.34,2.248Z" style="fill:#f79863;fill-rule:nonzero;"/><path d="M103.72,19.646c0,-0 -0.58,6.158 -1.32,14.125c-2.25,1.959 -5.24,3.897 -8.92,5.65c-1.7,0.823 -3.54,1.602 -5.52,2.326c-1.74,0.639 -3.59,1.247 -5.54,1.809c-1.95,0.552 -4.02,1.071 -6.17,1.516c-2.13,0.465 -4.37,0.854 -6.69,1.201c-2.19,0.303 -4.45,0.552 -6.79,0.746c-3.13,0.25 -6.4,0.379 -9.8,0.379c-5.43,0 -10.48,-0.292 -15.15,-0.833c-2.99,-0.368 -5.81,-0.824 -8.49,-1.353c-12.3,-2.478 -20.95,-6.754 -25.29,-11.258l-1.6,-12.404l-0.23,-1.904l101.51,-0Z" style="fill:#4a4b4c;fill-rule:nonzero;"/><path d="M35.61,46.273c-2.18,-0.302 -4.27,-0.664 -6.28,-1.061c2.01,0.397 4.1,0.752 6.28,1.061Z" style="fill:#fee0ca;fill-rule:nonzero;"/><path d="M37.82,46.554c-0.74,-0.087 -1.48,-0.181 -2.21,-0.281c-2.18,-0.309 -4.27,-0.664 -6.28,-1.061l-20.74,-25.566l7.41,-0l21.82,26.908Z" style="fill:#333132;fill-rule:nonzero;"/><path d="M63.03,19.646l-7.41,-0l-1.07,-1.332l7.41,-0l1.07,1.332Z" style="fill:#4a4b4c;fill-rule:nonzero;"/><path d="M76.25,45.072l-20.63,-25.426l7.41,-0l19.39,23.91c-1.95,0.552 -4.02,1.071 -6.17,1.516Z" style="fill:#333132;fill-rule:nonzero;"/><path d="M103.72,19.634c0,10.846 -22.72,19.647 -50.76,19.647c-28.03,0 -50.75,-8.801 -50.75,-19.647c0,-10.845 22.72,-19.634 50.75,-19.634c28.04,-0 50.76,8.789 50.76,19.634Z" style="fill:#200000;fill-rule:nonzero;"/><path d="M98.87,18.898c0,0.791 -0.14,1.56 -0.44,2.307c-1.27,3.43 -5.4,6.537 -11.46,8.972c-8.12,3.28 -19.68,5.358 -32.57,5.477c-0.43,0.012 -0.84,0.012 -1.26,0.012c-0.42,-0 -0.84,-0 -1.25,-0.012c-12.91,-0.119 -24.48,-2.197 -32.57,-5.477c-6.07,-2.435 -10.2,-5.542 -11.48,-8.972c-0.29,-0.747 -0.43,-1.516 -0.43,-2.307c0,-9.275 20.48,-16.764 45.73,-16.764c25.25,0 45.73,7.489 45.73,16.764Z" style="fill:#d4b6a1;fill-rule:nonzero;"/><path d="M96.63,17.22c0,0.737 -0.13,1.473 -0.4,2.188c-1.22,3.268 -5.15,6.223 -10.93,8.54c-7.31,2.944 -17.58,4.882 -29.09,5.184c-0.62,0.022 -1.25,0.022 -1.88,0.033l-2.39,-0c-12.26,-0.13 -23.27,-2.1 -30.97,-5.217c-5.78,-2.317 -9.7,-5.272 -10.91,-8.54c-0.28,-0.715 -0.42,-1.451 -0.42,-2.188c0,-4.35 4.74,-8.301 12.44,-11.17c7.89,-2.955 18.89,-4.795 31.06,-4.795c24.01,0 43.49,7.155 43.49,15.965Z" style="fill:#f8d2b9;fill-rule:nonzero;"/><path d="M10.43,77.965c0,1.982 -1.58,3.562 -3.55,3.562c-1.98,-0 -3.57,-1.58 -3.57,-3.562l0,-6.819c0,-1.98 1.59,-3.561 3.57,-3.561c1.97,-0 3.55,1.581 3.55,3.561l0,6.819Z" style="fill:#4a4b4c;fill-rule:nonzero;"/><path d="M4.26,68.732l5.71,-4.016l0.97,6l2.03,4.577l-3.19,2.044" style="fill:#4a4b4c;fill-rule:nonzero;"/><path d="M42.55,47.019c0,-0 8.72,4.611 8.72,11.008l7.31,-0c0,-0 1.81,-10.401 8.74,-11.473" style="fill:#4a4b4c;fill-rule:nonzero;"/><path d="M54.93,98.488c-0.92,-0 -1.67,-0.747 -1.67,-1.678l0,-46.793c0,-0.93 0.75,-1.666 1.67,-1.666c0.93,-0 1.68,0.736 1.68,1.666l0,46.793c0,0.931 -0.75,1.678 -1.68,1.678Z" style="fill:#919396;fill-rule:nonzero;"/><path d="M51.37,90.142c0,1.96 1.59,3.572 3.56,3.572c1.97,-0 3.56,-1.612 3.56,-3.572l0,-6.818c0,-1.971 -1.59,-3.562 -3.56,-3.562c-1.97,-0 -3.56,1.591 -3.56,3.562l0,6.818Z" style="fill:#4a4b4c;fill-rule:nonzero;"/><path d="M56.21,33.132c-0.62,0.022 -1.25,0.022 -1.88,0.033l-2.39,-0c-12.26,-0.13 -23.27,-2.1 -30.97,-5.217c-5.78,-2.317 -9.7,-5.272 -10.91,-8.54c-0.28,-0.715 -0.42,-1.451 -0.42,-2.188c0,-4.35 4.74,-8.301 12.44,-11.17c3.23,9.201 11.75,21.573 34.13,27.082Z" style="fill:#fcc9a6;fill-rule:nonzero;"/><path d="M206.68,63.277c0,-0 -0.49,5.25 -1.12,12.016c-0.55,0.486 -1.15,0.973 -1.81,1.449c-1.29,0.931 -2.8,1.851 -4.5,2.75c-4.56,2.359 -10.51,4.427 -17.6,5.78c-1.91,0.367 -3.9,0.66 -5.97,0.931c-3.8,0.454 -7.88,0.713 -12.18,0.713c-2.48,-0 -4.85,-0.075 -7.13,-0.205c-2.54,-0.173 -4.98,-0.411 -7.29,-0.715c-13.51,-1.796 -22.89,-6.028 -27.22,-10.532l-1.37,-10.563l-0.2,-1.624l86.39,-0Z" style="fill:#4a4b4c;fill-rule:nonzero;"/><path d="M156.37,86.711c-2.54,-0.173 -4.98,-0.411 -7.29,-0.715l-6.56,-8.096c2.45,0.528 5.05,0.967 7.77,1.304l6.08,7.507Z" style="fill:#333132;fill-rule:nonzero;"/><path d="M175.68,86.203l-5.2,-6.42c2.14,-0.135 4.22,-0.331 6.25,-0.583l4.92,6.072c-1.91,0.367 -3.9,0.66 -5.97,0.931Z" style="fill:#333132;fill-rule:nonzero;"/><path d="M206.68,63.288c0,9.222 -19.34,16.712 -43.19,16.712c-23.85,0 -43.2,-7.49 -43.2,-16.712c0,-9.233 19.35,-16.712 43.2,-16.712c23.85,-0 43.19,7.479 43.19,16.712Z" style="fill:#200000;fill-rule:nonzero;"/><path d="M210.94,21.474c0,-0 -0.27,2.793 -0.66,6.961c-0.17,1.785 -0.37,3.831 -0.56,6.018c-0.45,4.654 -0.96,10.002 -1.42,14.948c-0.67,6.96 -1.25,13.173 -1.49,15.792c-4.23,4.687 -12.92,9.385 -24.9,11.874c-1.27,0.271 -2.57,0.509 -3.9,0.726c-4.51,0.703 -9.42,1.114 -14.67,1.114c-1.14,-0 -2.28,-0.011 -3.39,-0.043c-19.59,-0.585 -33.02,-6.224 -38.48,-12.296l-4.08,-33.804l-1.15,-9.536l-0.2,-1.754l94.9,-0Z" style="fill:#fcc9a6;fill-rule:nonzero;"/><path d="M181.91,77.067c4.78,-10.794 6.05,-21.916 5.61,-31.96c1.89,-0.413 3.7,-0.87 5.42,-1.367c1.94,-0.552 3.8,-1.169 5.54,-1.797c1.99,-0.725 3.83,-1.504 5.53,-2.349l-0.01,-0.004c2.06,-0.973 3.9,-2.007 5.52,-3.073c-0.4,4.132 -0.83,8.655 -1.22,12.884c-0.67,6.96 -1.25,13.173 -1.49,15.792c-4.23,4.687 -12.92,9.385 -24.9,11.874Z" style="fill:#f9a375;fill-rule:nonzero;"/><path d="M209.32,89.503l-0.02,-0c-0.92,-0 -1.66,-0.768 -1.65,-1.688c0.23,-20.555 1.36,-34.452 1.37,-34.593c0.04,-0.357 0.17,-0.682 0.4,-0.942c7.65,-9.005 0.32,-17.644 0.01,-18c-0.62,-0.704 -0.53,-1.754 0.16,-2.357c0.7,-0.62 1.74,-0.545 2.36,0.16c0.09,0.108 9.28,10.899 0.36,21.928c-0.21,2.696 -1.12,15.641 -1.32,33.848c-0.01,0.898 -0.75,1.644 -1.67,1.644Z" style="fill:#919396;fill-rule:nonzero;"/><path d="M205.76,78.55c0,1.981 1.6,3.572 3.56,3.572c1.97,0 3.57,-1.591 3.57,-3.572l0,-6.819c0,-1.97 -1.6,-3.562 -3.57,-3.562c-1.96,0 -3.56,1.592 -3.56,3.562l0,6.819Z" style="fill:#4a4b4c;fill-rule:nonzero;"/><path d="M211.94,69.317l-5.71,-4.016l-0.97,5.997l-2.04,4.589l3.2,2.034" style="fill:#4a4b4c;fill-rule:nonzero;"/><path d="M117.39,89.092c-0.91,-0 -1.65,-0.724 -1.66,-1.645c-0.2,-18.196 -1.11,-31.151 -1.32,-33.846c-8.91,-11.03 0.26,-21.822 0.36,-21.93c0.6,-0.693 1.66,-0.769 2.36,-0.162c0.7,0.606 0.76,1.666 0.16,2.36c-0.31,0.357 -7.61,9.037 0.02,18c0.22,0.259 0.36,0.584 0.38,0.941c0.02,0.141 1.16,14.05 1.37,34.594c0.01,0.93 -0.73,1.678 -1.64,1.688l-0.03,-0Z" style="fill:#919396;fill-rule:nonzero;"/><path d="M198.48,41.943c1.99,-0.736 3.83,-1.504 5.51,-2.349c0.01,-0.001 0.01,-0.002 0.01,-0.004l0.01,0.004c-1.7,0.845 -3.54,1.624 -5.53,2.349Z" style="fill:#f5814a;fill-rule:nonzero;"/><path d="M214.24,19.83c0,-0 -0.58,6.158 -1.32,14.114c-2.24,1.969 -5.25,3.907 -8.93,5.65c-1.68,0.845 -3.52,1.613 -5.51,2.349c-1.74,0.628 -3.6,1.245 -5.54,1.797c-1.94,0.562 -4.01,1.072 -6.17,1.526c-2.12,0.444 -4.36,0.845 -6.68,1.18c-2.19,0.313 -4.46,0.573 -6.8,0.758c-3.13,0.249 -6.4,0.378 -9.79,0.378c-5.44,-0 -10.49,-0.291 -15.14,-0.844c-3.01,-0.346 -5.83,-0.801 -8.5,-1.342c-12.3,-2.479 -20.95,-6.744 -25.29,-11.246l-1.61,-12.438l-0.22,-1.882l101.5,-0Z" style="fill:#4a4b4c;fill-rule:nonzero;"/><path d="M148.36,46.738c-3.01,-0.346 -5.83,-0.801 -8.5,-1.342l-20.74,-25.566l7.41,-0l21.83,26.908Z" style="fill:#333132;fill-rule:nonzero;"/><path d="M173.56,19.83l-7.42,-0l-1.06,-1.333l7.41,0l1.07,1.333Z" style="fill:#4a4b4c;fill-rule:nonzero;"/><path d="M186.77,45.266l-20.63,-25.436l7.42,-0l19.38,23.91c-1.72,0.497 -3.53,0.954 -5.42,1.367c-0.25,0.054 -0.5,0.107 -0.75,0.159Z" style="fill:#333132;fill-rule:nonzero;"/><path d="M214.24,19.83c0,10.835 -22.73,19.634 -50.75,19.634c-28.03,-0 -50.75,-8.799 -50.75,-19.634c0,-10.857 22.72,-19.646 50.75,-19.646c28.02,-0 50.75,8.789 50.75,19.646Z" style="fill:#200000;fill-rule:nonzero;"/><path d="M209.39,19.093c0,0.769 -0.15,1.527 -0.43,2.284c-1.29,3.453 -5.41,6.548 -11.48,9.005c-8.1,3.259 -19.67,5.337 -32.57,5.467c-0.41,0.011 -0.82,0.011 -1.25,0.011c-0.42,-0 -0.84,-0 -1.25,-0.011c-12.9,-0.13 -24.47,-2.208 -32.58,-5.467c-6.06,-2.457 -10.18,-5.552 -11.46,-9.005c-0.3,-0.757 -0.44,-1.515 -0.44,-2.284c0,-9.275 20.48,-16.777 45.73,-16.777c25.26,0 45.73,7.502 45.73,16.777Z" style="fill:#d4b6a1;fill-rule:nonzero;"/><path d="M207.16,17.394c0,0.747 -0.13,1.482 -0.42,2.187c-1.21,3.268 -5.13,6.223 -10.91,8.55c-7.31,2.955 -17.58,4.893 -29.1,5.177c-0.62,0.02 -1.24,0.029 -1.88,0.029c-0.4,0.012 -0.78,0.012 -1.19,0.012c-0.4,-0 -0.8,-0 -1.19,-0.012c-12.27,-0.107 -23.28,-2.099 -30.98,-5.206c-5.77,-2.327 -9.69,-5.282 -10.91,-8.55c-0.28,-0.705 -0.41,-1.44 -0.41,-2.187c0,-4.33 4.74,-8.28 12.42,-11.16c7.89,-2.954 18.9,-4.791 31.07,-4.791c24.02,-0 43.5,7.151 43.5,15.951Z" style="fill:#f8d2b9;fill-rule:nonzero;"/><path d="M120.95,78.15c0,1.969 -1.59,3.571 -3.56,3.571c-1.96,0 -3.56,-1.602 -3.56,-3.571l0,-6.82c0,-1.969 1.6,-3.561 3.56,-3.561c1.97,-0 3.56,1.592 3.56,3.561l0,6.82Z" style="fill:#4a4b4c;fill-rule:nonzero;"/><path d="M114.78,68.917l5.71,-4.016l0.96,5.997l2.05,4.589l-3.21,2.034" style="fill:#4a4b4c;fill-rule:nonzero;"/><path d="M153.07,47.204c0,-0 8.73,4.6 8.73,11.007l7.31,-0c0,-0 1.81,-10.401 8.73,-11.473" style="fill:#4a4b4c;fill-rule:nonzero;"/><path d="M165.46,98.661c-0.92,0 -1.68,-0.746 -1.68,-1.657l0,-46.813c0,-0.92 0.76,-1.667 1.68,-1.667c0.92,-0 1.67,0.747 1.67,1.667l0,46.813c0,0.911 -0.75,1.657 -1.67,1.657Z" style="fill:#919396;fill-rule:nonzero;"/><path d="M161.89,90.327c0,1.969 1.6,3.549 3.57,3.549c1.97,-0 3.56,-1.58 3.56,-3.549l0,-6.82c0,-1.97 -1.59,-3.56 -3.56,-3.56c-1.97,-0 -3.57,1.59 -3.57,3.56l0,6.82Z" style="fill:#4a4b4c;fill-rule:nonzero;"/><path d="M166.06,34.388c-0.63,0.01 -1.26,0.022 -1.9,0.032l-2.38,-0c-12.26,-0.119 -23.27,-2.11 -30.98,-5.206c-5.76,-2.338 -9.68,-5.283 -10.91,-8.562c-0.27,-0.714 -0.4,-1.44 -0.4,-2.186c0,-4.33 4.74,-8.281 12.42,-11.16c3.23,9.211 11.77,21.572 34.15,27.082Z" style="fill:#fcc9a6;fill-rule:nonzero;"/></g></g></g></svg>