<?xml version="1.0" encoding="UTF-8" standalone="no"?><!DOCTYPE svg PUBLIC "-//W3C//DTD SVG 1.1//EN" "http://www.w3.org/Graphics/SVG/1.1/DTD/svg11.dtd"><svg width="100%" height="100%" viewBox="0 0 143 217" version="1.1" xmlns="http://www.w3.org/2000/svg" xmlns:xlink="http://www.w3.org/1999/xlink" xml:space="preserve" xmlns:serif="http://www.serif.com/" style="fill-rule:evenodd;clip-rule:evenodd;stroke-linejoin:round;stroke-miterlimit:2;"><g><g><g><path d="M99.75,204.46c0,-0 -0.35,1.1 -0.79,5.02c-1.32,0.97 -3.1,1.93 -5.28,2.79c-1,0.4 -2.08,0.78 -3.26,1.15c-1.03,0.32 -2.12,0.62 -3.28,0.88c-1.15,0.29 -2.37,0.54 -3.64,0.76c-1.28,0.22 -2.59,0.41 -3.96,0.58c-1.3,0.15 -2.64,0.28 -4.03,0.36c-1.85,0.14 -3.78,0.21 -5.78,0.21c-3.23,-0 -6.22,-0.16 -8.98,-0.42c-1.77,-0.18 -3.44,-0.4 -5.01,-0.66c-7.29,-1.22 -12.41,-3.33 -14.97,-5.55l-0.96,-4.07l-0.12,-0.94l60.06,-0.11Z" style="fill:#4a4b4c;fill-rule:nonzero;"/><path d="M60.75,215.79c-1.77,-0.18 -3.44,-0.4 -5.01,-0.66l-5.18,-5.31c1.7,0.44 3.56,0.85 5.55,1.2l4.64,4.77Z" style="fill:#333132;fill-rule:nonzero;"/><path d="M83.5,215.06l-3.45,-3.54c1.32,-0.17 2.59,-0.37 3.81,-0.59l3.28,3.37c-1.15,0.29 -2.37,0.54 -3.64,0.76Z" style="fill:#333132;fill-rule:nonzero;"/><path d="M99.75,204.46c0,1.41 -4.53,3.8 -11.58,5.55c-5.1,1.26 -11.5,2.19 -18.45,2.19c-16.6,-0 -30.04,-5.32 -30.04,-7.74l3.2,-42.77l2.87,-38.4l50.86,-0l3.14,81.17Z" style="fill:#955943;fill-rule:nonzero;"/><path d="M136.04,52.79c0,1.9 -0.04,3.77 -0.12,5.62c-0.25,5.46 -0.82,10.67 -1.73,15.6c-0.99,5.42 -2.38,10.54 -4.1,15.3c-5.36,14.8 -14.05,26.26 -24.83,33.85c-3.02,2.11 -6.21,3.93 -9.53,5.42c-7.52,3.41 -15.76,5.16 -24.41,5.16c-30.8,-0 -56.58,-22.54 -63.11,-61.23c-0.45,-2.69 -0.82,-5.47 -1.08,-8.33c-0.33,-3.68 -0.52,-7.47 -0.52,-11.39c0,-10 1.13,-19.61 3.23,-28.61l122.98,-0c2.08,9 3.22,18.61 3.22,28.61Z" style="fill:#834e3a;fill-rule:nonzero;"/><path d="M120.5,58.67l0,-0.01c2.66,-0.96 5.13,-2.01 7.43,-3.1c-2.3,1.09 -4.77,2.14 -7.43,3.11Z" style="fill:#ca5a37;fill-rule:nonzero;"/><path d="M142.65,27.6c0,0 -0.81,8.66 -1.85,19.85c-3.15,2.75 -7.38,5.48 -12.54,7.95c-2.38,1.15 -4.97,2.25 -7.76,3.26c-2.44,0.93 -5.05,1.76 -7.78,2.55c-2.74,0.78 -5.63,1.51 -8.66,2.14c-3,0.64 -6.15,1.2 -9.41,1.66c-3.06,0.45 -6.26,0.79 -9.54,1.05c-4.41,0.36 -9,0.55 -13.78,0.55c-7.62,-0 -14.73,-0.42 -21.28,-1.18c-4.22,-0.5 -8.18,-1.14 -11.93,-1.9c-17.28,-3.47 -29.45,-9.48 -35.54,-15.8l-2.25,-17.45l-0.31,-2.68l142.63,0Z" style="fill:#4a4b4c;fill-rule:nonzero;"/><path d="M45.24,64.78c-2.46,-0.37 -4.83,-0.78 -7.12,-1.24l-0.02,-0.01l0.02,-0c2.29,0.46 4.66,0.88 7.12,1.25Z" style="fill:#735547;fill-rule:nonzero;"/><path d="M50.05,65.43c-1.63,-0.19 -3.24,-0.41 -4.81,-0.65c-2.46,-0.37 -4.83,-0.79 -7.12,-1.25l-0.02,-0l-29.12,-35.93l10.41,0l30.66,37.83Z" style="fill:#333132;fill-rule:nonzero;"/><path d="M85.47,27.6l-10.41,0l-1.5,-1.85l10.41,0l1.5,1.85Z" style="fill:#735547;fill-rule:nonzero;"/><path d="M104.06,63.35l-29,-35.75l10.41,0l27.25,33.61c-2.74,0.78 -5.63,1.51 -8.66,2.14Z" style="fill:#333132;fill-rule:nonzero;"/><path d="M142.65,27.6c0,15.24 -31.93,27.61 -71.33,27.61c-39.38,-0 -71.32,-12.37 -71.32,-27.61c0,-15.25 31.94,-27.6 71.32,-27.6c39.4,0 71.33,12.35 71.33,27.6Z" style="fill:#200000;fill-rule:nonzero;"/><path d="M135.85,26.55c0,1.11 -0.21,2.19 -0.61,3.24c-1.82,4.83 -7.61,9.18 -16.13,12.62c-11.41,4.6 -27.66,7.54 -45.78,7.72l-3.52,0c-18.12,-0.18 -34.38,-3.12 -45.76,-7.72c-8.53,-3.44 -14.33,-7.79 -16.14,-12.62c-0.4,-1.05 -0.59,-2.13 -0.59,-3.24c0,-13.02 28.77,-23.56 64.25,-23.56c35.49,-0 64.28,10.54 64.28,23.56Z" style="fill:#d4b6a1;fill-rule:nonzero;"/><path d="M132.7,24.18c0,1.04 -0.2,2.08 -0.58,3.09c-1.71,4.59 -7.23,8.73 -15.34,12c-10.28,4.14 -24.71,6.88 -40.89,7.28c-0.86,0.02 -1.75,0.04 -2.65,0.05c-0.56,0.01 -1.11,0.01 -1.67,0.01c-0.55,-0 -1.12,-0 -1.67,-0.01c-17.24,-0.18 -32.71,-2.95 -43.54,-7.33c-8.11,-3.27 -13.62,-7.41 -15.33,-12c-0.38,-1.01 -0.58,-2.05 -0.58,-3.09c0,-6.08 6.67,-11.62 17.47,-15.68c11.08,-4.15 26.55,-6.74 43.65,-6.74c33.76,-0 61.13,10.05 61.13,22.42Z" style="fill:#f8d2b9;fill-rule:nonzero;"/><path d="M74.93,48.05c-0.87,0.03 -1.74,0.04 -2.64,0.06c-0.56,0.01 -1.12,0.01 -1.68,0.01c-0.55,-0 -1.12,-0 -1.68,-0.01c-17.24,-0.17 -32.69,-2.97 -43.54,-7.33c-8.09,-3.27 -13.6,-7.41 -15.33,-11.99c-0.37,-1.01 -0.57,-2.05 -0.57,-3.09c0,-6.09 6.67,-11.65 17.47,-15.7c4.55,12.94 16.53,30.32 47.97,38.05Z" style="fill:#fcc9a6;fill-rule:nonzero;"/><path d="M80.62,61.28l-14.12,-0l0,18.04l0.08,-0c-0.01,0.2 -0.02,0.39 -0.02,0.6c0,3.87 3.14,7.01 7,7.01c3.87,-0 7.01,-3.14 7.01,-7.01c0,-0.21 -0.02,-0.4 -0.03,-0.6l0.08,-0l-0,-18.04Z" style="fill:#4a4b4c;fill-rule:nonzero;"/><path d="M27.57,53.37l-13.97,2.11l2.71,17.85l0.08,-0c0.01,0.18 0.03,0.37 0.07,0.58c0.56,3.82 4.14,6.45 7.96,5.87c3.83,-0.58 6.46,-4.14 5.89,-7.97c-0.04,-0.19 -0.08,-0.38 -0.13,-0.57l0.09,-0.03l-2.7,-17.84Z" style="fill:#4a4b4c;fill-rule:nonzero;"/><path d="M129.12,53.23l-14.09,-0.98l-1.23,18.02l0.08,-0c-0.02,0.2 -0.05,0.39 -0.07,0.58c-0.26,3.87 2.66,7.21 6.52,7.48c3.85,0.26 7.2,-2.64 7.46,-6.51c0.01,-0.19 0.01,-0.39 0.01,-0.59l0.09,0.01l1.23,-18.01Z" style="fill:#4a4b4c;fill-rule:nonzero;"/><path d="M69.72,212.2c-4.9,-0 -9.53,-0.46 -13.61,-1.18c-1.99,-0.35 -3.85,-0.76 -5.55,-1.2c-6.65,-1.73 -10.88,-4 -10.88,-5.36l3.2,-42.77c9.37,16.93 24.22,37.35 45.29,48.32c-1.35,0.33 -2.79,0.64 -4.31,0.92c-1.22,0.22 -2.49,0.42 -3.81,0.59c-3.22,0.42 -6.7,0.68 -10.33,0.68Z" style="fill:#743928;fill-rule:nonzero;"/><path d="M71.32,133.74c-30.8,-0 -56.58,-22.54 -63.11,-61.23c17.64,17.86 55.53,50.65 96.73,50.65l0.32,0c-3.02,2.11 -6.21,3.93 -9.53,5.42c-7.52,3.41 -15.76,5.16 -24.41,5.16Z" style="fill:#743f2c;fill-rule:nonzero;"/><path d="M18.53,68.81c0,0.03 -0.01,0.12 -0.01,0.26c0.01,1.79 0.2,12.85 5.19,26.46c2.5,6.79 6.22,14.23 11.73,21.4c5.51,7.18 12.82,14.09 22.46,19.81c1.64,0.97 3.77,0.43 4.75,-1.21c0.97,-1.65 0.43,-3.78 -1.21,-4.76c-8.85,-5.25 -15.48,-11.53 -20.5,-18.06c-7.53,-9.79 -11.41,-20.2 -13.4,-28.43c-2,-8.23 -2.08,-14.27 -2.08,-15.21l0,-0.11l-1.21,-0.02l1.21,0.02l-1.21,-0.02l1.21,0.02c0.04,-1.91 -1.48,-3.5 -3.39,-3.54c-1.92,-0.04 -3.5,1.48 -3.54,3.39Z" style="fill:#4a4b4c;fill-rule:nonzero;"/><path d="M116.98,68.99l1.41,-0.04l-1.41,0.03l0,0.01l1.41,-0.04l-1.41,0.03c0,0.01 0.01,0.13 0.01,0.35c0,1.97 -0.25,12.12 -4.62,24.34c-2.18,6.11 -5.39,12.74 -10.09,19.17c-4.7,6.43 -10.89,12.66 -19.11,18.01c-1.61,1.05 -2.06,3.19 -1.02,4.8c1.05,1.6 3.2,2.06 4.8,1.01c8.96,-5.83 15.78,-12.68 20.93,-19.73c7.73,-10.58 11.73,-21.57 13.81,-30.34c2.07,-8.79 2.23,-15.38 2.23,-17.26c0,-0.32 0,-0.51 -0.01,-0.54c-0.05,-1.91 -1.64,-3.42 -3.56,-3.37c-1.91,0.06 -3.42,1.65 -3.37,3.57Z" style="fill:#4a4b4c;fill-rule:nonzero;"/><path d="M70.1,74.09l0,61.73c0,1.92 1.55,3.47 3.46,3.47c1.92,-0 3.47,-1.55 3.47,-3.47l0,-61.73c0,-1.91 -1.55,-3.46 -3.47,-3.46c-1.91,0 -3.46,1.55 -3.46,3.46Z" style="fill:#4a4b4c;fill-rule:nonzero;"/></g></g></g></svg>