<?xml version="1.0" encoding="UTF-8" standalone="no"?><!DOCTYPE svg PUBLIC "-//W3C//DTD SVG 1.1//EN" "http://www.w3.org/Graphics/SVG/1.1/DTD/svg11.dtd"><svg width="100%" height="100%" viewBox="0 0 217 208" version="1.1" xmlns="http://www.w3.org/2000/svg" xmlns:xlink="http://www.w3.org/1999/xlink" xml:space="preserve" xmlns:serif="http://www.serif.com/" style="fill-rule:evenodd;clip-rule:evenodd;stroke-linejoin:round;stroke-miterlimit:2;"><g><g><g><path d="M209.43,162.249c0,-0 -1.16,9.979 -2.64,22.859c-1.29,0.92 -2.71,1.84 -4.23,2.728c-3.06,1.799 -6.58,3.551 -10.56,5.228c-10.71,4.515 -24.67,8.465 -41.3,11.008c-4.48,0.704 -9.16,1.3 -14.01,1.786c-8.93,0.867 -18.47,1.353 -28.57,1.353c-5.78,-0 -11.36,-0.14 -16.72,-0.422c-5.98,-0.281 -11.68,-0.725 -17.11,-1.32c-31.71,-3.431 -53.7,-11.485 -63.85,-20.026l-3.22,-20.099l-0.45,-3.095l202.66,-0Z" style="fill:#f26a3c;fill-rule:nonzero;"/><path d="M91.4,206.789c-5.98,-0.281 -11.68,-0.725 -17.11,-1.32l-15.43,-15.427c5.77,1.008 11.88,1.843 18.27,2.486l14.27,14.261Z" style="fill:#f1572e;fill-rule:nonzero;"/><path d="M136.69,205.858l-12.23,-12.232c5.03,-0.256 9.93,-0.628 14.68,-1.107l11.56,11.553c-4.48,0.704 -9.16,1.3 -14.01,1.786Z" style="fill:#f1572e;fill-rule:nonzero;"/><path d="M192,193.064l-9.29,-9.298c4.15,-1.417 7.9,-2.953 11.19,-4.589l8.66,8.659c-3.06,1.799 -6.58,3.551 -10.56,5.228Z" style="fill:#f1572e;fill-rule:nonzero;"/><path d="M209.43,162.259c0,17.557 -45.37,31.779 -101.34,31.779c-55.95,-0 -101.32,-14.222 -101.32,-31.779c0,-17.557 45.37,-31.79 101.32,-31.79c55.97,-0 101.34,14.233 101.34,31.79Z" style="fill:#7a1b0c;fill-rule:nonzero;"/><path d="M214.55,82.973c0,-0 -1.22,10.315 -2.78,23.597c-0.99,8.485 -2.14,18.194 -3.18,27.212c-1.49,12.652 -2.8,23.942 -3.32,28.704c-13.87,12.491 -49.16,24.96 -97.49,24.96c-2.58,-0 -5.13,-0.032 -7.61,-0.096c-43.95,-1.072 -74.08,-11.322 -86.3,-22.352l-9.16,-61.47l-2.57,-17.362l-0.47,-3.193l212.88,-0Z" style="fill:#963f1e;fill-rule:nonzero;"/><path d="M214.55,82.973c0,-0 -1.22,10.315 -2.78,23.597c-0.99,8.485 -2.14,18.194 -3.18,27.212c-18.58,-23.901 -48.47,-30.059 -48.84,-30.254l0,-9.753l49.59,-10.802l5.21,-0Z" style="fill:#7a1b0c;fill-rule:nonzero;"/><path d="M100.17,187.35c-0.36,-0.009 -0.71,-0.018 -1.06,-0.028c0.04,-0.105 0.08,-0.212 0.12,-0.321c0.31,0.117 0.62,0.233 0.94,0.349Z" style="fill:#883010;fill-rule:nonzero;"/><path d="M89.62,186.905c-13.36,-0.809 -25.26,-2.492 -35.57,-4.77c0.06,-0.072 0.12,-0.146 0.17,-0.222c0.3,-0.416 0.55,-0.879 0.73,-1.377c0.24,-0.648 0.37,-1.343 0.38,-2.09l0,-0.07c0,-0.129 0,-0.277 -0.02,-0.42c-0.01,-0.272 -0.05,-0.538 -0.1,-0.797c-0.09,-0.482 -0.25,-0.942 -0.44,-1.369l7.69,-7.315c8.11,5.32 17.12,10.251 27.11,14.612c-0.17,0.573 -0.27,1.188 -0.27,1.827c0,0.702 0.11,1.372 0.32,1.991Z" style="fill:#883010;fill-rule:nonzero;"/><path d="M45.24,179.942c-10.35,-2.889 -18.7,-6.408 -24.87,-10.18c0.03,-0.04 0.07,-0.08 0.1,-0.121c0.42,-0.519 0.76,-1.13 0.98,-1.799c0.2,-0.577 0.31,-1.197 0.32,-1.831l0,-0.137c0,-0.184 0,-0.389 -0.02,-0.573l-0,-0.012c-0.08,-0.888 -0.35,-1.716 -0.76,-2.436l13.63,-14.08l12.61,24.976c-1.33,1.021 -2.18,2.723 -2.18,4.627c0,0.544 0.06,1.069 0.19,1.566Zm8.3,-5.861c-0.43,-0.409 -0.92,-0.74 -1.46,-0.974l0.66,-11.505c2.54,1.937 5.19,3.837 7.94,5.692l-7.14,6.787Zm-4.43,-1.237l-12.96,-25.653l0.02,-0.021c4.43,4.412 9.28,8.732 14.57,12.89l-0.72,12.659c-0.31,0.011 -0.62,0.054 -0.91,0.125Z" style="fill:#883010;fill-rule:nonzero;"/><path d="M13.35,161.512l-7.86,-52.753c0.98,0.738 2.04,1.472 3.18,2.198c2.66,4.704 5.67,9.514 9.07,14.347l-2.97,35.278c-0.31,0.13 -0.59,0.293 -0.86,0.487c-0.2,0.134 -0.39,0.282 -0.56,0.443Zm6.29,-0.246c-0.79,-0.617 -1.73,-1 -2.75,-1.056l2.72,-32.309c3.46,4.716 7.31,9.441 11.59,14.093l2.43,4.813l-13.99,14.459Z" style="fill:#883010;fill-rule:nonzero;"/><path d="M16.5,164.825l3.75,-44.517l29.56,58.537c0.21,0.421 0.68,0.645 1.14,0.549c0.46,-0.096 0.8,-0.488 0.82,-0.958l2.72,-47.476l39.65,54.566c0.26,0.358 0.72,0.512 1.14,0.385c0.42,-0.127 0.72,-0.504 0.74,-0.947l2.37,-49.269l37.53,48.985c0.27,0.346 0.72,0.49 1.14,0.36c0.41,-0.13 0.7,-0.506 0.73,-0.942l2.38,-48.781l38.11,40.856c0.28,0.303 0.72,0.41 1.11,0.27c0.39,-0.14 0.66,-0.501 0.69,-0.915l2.83,-45.696l19.49,32.957c0.24,0.392 0.69,0.587 1.14,0.483c0.44,-0.105 0.76,-0.483 0.8,-0.937l3.55,-48.384c0.04,-0.572 -0.39,-1.071 -0.96,-1.113c-0.57,-0.042 -1.07,0.388 -1.11,0.961l-3.31,45.074l-19.53,-33.014c-0.23,-0.391 -0.7,-0.588 -1.14,-0.481c-0.44,0.106 -0.77,0.492 -0.79,0.946l-2.9,46.663l-38.14,-40.89c-0.28,-0.305 -0.72,-0.41 -1.12,-0.267c-0.39,0.143 -0.66,0.509 -0.68,0.926l-2.36,48.406l-37.54,-48.988c-0.26,-0.346 -0.71,-0.49 -1.13,-0.36c-0.42,0.13 -0.71,0.507 -0.73,0.943l-2.36,49.154l-39.62,-54.532c-0.26,-0.356 -0.72,-0.51 -1.14,-0.386c-0.42,0.124 -0.72,0.499 -0.74,0.938l-2.67,46.52l-29.47,-58.36c-0.21,-0.415 -0.67,-0.641 -1.12,-0.552c-0.46,0.088 -0.8,0.47 -0.84,0.933l-4.07,48.178c-0.05,0.572 0.38,1.075 0.95,1.124c0.57,0.048 1.08,-0.377 1.13,-0.949Z" style="fill:#490100;fill-rule:nonzero;"/><path d="M17.37,166.597l35.82,-37.006c0.4,-0.413 0.39,-1.072 -0.02,-1.471c-0.42,-0.399 -1.07,-0.388 -1.47,0.024l-35.83,37.007c-0.4,0.412 -0.38,1.071 0.03,1.47c0.41,0.4 1.07,0.389 1.47,-0.024Z" style="fill:#77190a;fill-rule:nonzero;"/><path d="M50.91,179.455l47.25,-44.92c0.41,-0.395 0.43,-1.054 0.03,-1.47c-0.39,-0.417 -1.05,-0.433 -1.47,-0.037l-47.24,44.92c-0.42,0.395 -0.44,1.054 -0.04,1.47c0.4,0.416 1.05,0.433 1.47,0.037Z" style="fill:#77190a;fill-rule:nonzero;"/><path d="M94.77,184.253l45.26,-50.754c0.38,-0.429 0.34,-1.086 -0.09,-1.468c-0.42,-0.383 -1.08,-0.345 -1.46,0.084l-45.26,50.754c-0.39,0.428 -0.35,1.086 0.08,1.468c0.43,0.382 1.09,0.345 1.47,-0.084Z" style="fill:#77190a;fill-rule:nonzero;"/><path d="M137.01,183.953l46.29,-59.11c0.35,-0.452 0.27,-1.106 -0.18,-1.46c-0.45,-0.354 -1.11,-0.275 -1.46,0.177l-46.29,59.11c-0.35,0.453 -0.27,1.106 0.18,1.461c0.45,0.354 1.1,0.274 1.46,-0.178Z" style="fill:#77190a;fill-rule:nonzero;"/><path d="M179.99,175.871l27.16,-63.894c0.22,-0.529 -0.03,-1.139 -0.56,-1.363c-0.52,-0.225 -1.13,0.021 -1.36,0.55l-27.15,63.894c-0.22,0.528 0.02,1.139 0.55,1.363c0.53,0.225 1.14,-0.022 1.36,-0.55Z" style="fill:#77190a;fill-rule:nonzero;"/><path d="M21.77,165.874c0,1.44 -0.49,2.771 -1.3,3.767c-0.94,1.158 -2.31,1.905 -3.85,1.905c-2.84,-0 -5.14,-2.532 -5.14,-5.672c-0,-2.035 0.97,-3.799 2.43,-4.805c0.78,-0.563 1.72,-0.867 2.71,-0.867c2.86,-0 5.15,2.544 5.15,5.672Z" style="fill:#fcc9a6;fill-rule:nonzero;"/><path d="M21.45,167.842c0.19,-0.574 0.3,-1.191 0.32,-1.831c-0.01,0.634 -0.12,1.254 -0.32,1.831Zm0.32,-1.834l0,-0.027l0,0.027Zm0,-0.039l0,-0.022l0,0.022Zm0,-0.043l0,-0.014l0,0.014Zm0,-0.052c0,-1.106 -0.29,-2.139 -0.78,-3.013l-0,-0.008c0.41,0.72 0.68,1.548 0.76,2.436l0,0.012c0.02,0.184 0.02,0.389 0.02,0.573Zm-2.14,-4.604c-0.78,-0.619 -1.72,-1.004 -2.74,-1.06c1.02,0.056 1.96,0.439 2.75,1.056l-0.01,0.004Z" style="fill:#88280b;fill-rule:nonzero;"/><path d="M16.89,160.21c-0.03,-0.002 -0.05,-0.003 -0.07,-0.003c0.02,-0 0.04,0.001 0.07,0.003Z" style="fill:#490000;fill-rule:nonzero;"/><path d="M20.99,162.861c-0.36,-0.622 -0.82,-1.163 -1.36,-1.591l0.01,-0.004c0.54,0.427 1,0.967 1.35,1.587l-0,0.008Z" style="fill:#761403;fill-rule:nonzero;"/><path d="M16.82,160.207c-0.01,-0.001 -0.02,-0.001 -0.03,-0.002c0.01,0.001 0.02,0.001 0.03,0.002Zm-0.03,-0.002c-0.01,-0 -0.02,-0 -0.03,-0.001c0.01,0.001 0.02,0.001 0.03,0.001Zm-0.04,-0.001l-0.02,-0l0.02,-0Zm-0.03,-0.001l-0.03,-0l0.03,-0Zm-0.03,-0l-0.03,-0l0.03,-0Zm-0.04,-0c-0.01,-0.001 -0.02,-0.001 -0.03,-0.001c0.01,-0 0.02,-0 0.03,0.001Z" style="fill:#490000;fill-rule:nonzero;"/><path d="M17.72,170.539c-2.86,-0 -5.15,-2.543 -5.15,-5.693c0,-1.451 0.5,-2.771 1.34,-3.777c0.78,-0.563 1.72,-0.867 2.71,-0.867c0.01,-0 0.02,-0 0.03,0.001l0.07,-0c-0,-0 -0,0.001 0.01,0.001l0.03,-0c0.01,0.001 0.02,0.001 0.03,0.001c0.01,0.001 0.02,0.001 0.03,0.002c0.02,-0 0.04,0.001 0.07,0.003c1.02,0.056 1.96,0.441 2.74,1.06c0.54,0.428 1,0.969 1.36,1.591c0.49,0.874 0.78,1.907 0.78,3.013l0,0.137c-0.02,0.64 -0.13,1.257 -0.32,1.831c-0.05,0.167 -0.12,0.33 -0.19,0.489c-0.21,0.488 -0.46,0.909 -0.79,1.31c-0.8,0.563 -1.74,0.898 -2.75,0.898Z" style="fill:#f9a375;fill-rule:nonzero;"/><path d="M21.77,165.874c0,0.867 -0.17,1.71 -0.51,2.457l-0.13,0.011c-0.81,-0 -1.46,-0.715 -1.46,-1.601c0,-0.585 0.28,-1.083 0.69,-1.365c0.23,-0.151 0.48,-0.237 0.77,-0.237c0.22,-0 0.43,0.043 0.62,0.15l0,0.012c0.02,0.184 0.02,0.389 0.02,0.573Z" style="fill:#fcc9a6;fill-rule:nonzero;"/><path d="M55.33,178.376c0,1.451 -0.48,2.77 -1.29,3.778c-0.95,1.158 -2.33,1.893 -3.85,1.893c-2.84,-0 -5.14,-2.532 -5.14,-5.671c0,-2.013 0.95,-3.8 2.42,-4.795c0.78,-0.542 1.72,-0.866 2.72,-0.866c2.84,-0 5.14,2.533 5.14,5.661Z" style="fill:#fcc9a6;fill-rule:nonzero;"/><path d="M54.04,182.154c0,-0.007 0.01,-0.013 0.01,-0.019c0,0.006 -0.01,0.012 -0.01,0.019Z" style="fill:#7a1506;fill-rule:nonzero;"/><path d="M54.05,182.135c0.06,-0.072 0.12,-0.146 0.17,-0.222c-0.05,0.076 -0.11,0.15 -0.17,0.222Zm0.9,-1.599c0.24,-0.645 0.37,-1.35 0.38,-2.09c-0.01,0.747 -0.14,1.442 -0.38,2.09Zm0.38,-2.099l0,-0.024l0,0.024Zm0,-0.061c0,-0.141 -0.01,-0.281 -0.02,-0.42c0.02,0.143 0.02,0.291 0.02,0.42Zm-0.12,-1.217c-0.1,-0.482 -0.25,-0.941 -0.45,-1.368l0.01,-0.001c0.19,0.427 0.35,0.887 0.44,1.369Zm-1.67,-3.076c-0.43,-0.41 -0.92,-0.741 -1.46,-0.975l0,-0.001c0.54,0.234 1.03,0.565 1.46,0.974l0,0.002Z" style="fill:#88280b;fill-rule:nonzero;"/><path d="M52.08,173.108c-0.5,-0.216 -1.03,-0.349 -1.59,-0.384c0.56,0.035 1.09,0.168 1.59,0.383l0,0.001Z" style="fill:#490000;fill-rule:nonzero;"/><path d="M54.76,175.791c-0.3,-0.654 -0.72,-1.233 -1.22,-1.708l0,-0.002c0.51,0.475 0.92,1.055 1.23,1.709l-0.01,0.001Z" style="fill:#761403;fill-rule:nonzero;"/><path d="M50.49,172.724c-0.01,-0 -0.02,-0.001 -0.03,-0.001c0.01,-0 0.02,0.001 0.03,0.001Zm-0.03,-0.002c-0.01,-0 -0.02,-0.001 -0.03,-0.001c0.01,-0 0.02,0.001 0.03,0.001Zm-0.04,-0.001c-0.01,-0.001 -0.01,-0.001 -0.02,-0.001c0.01,-0 0.01,-0 0.02,0.001Zm-0.03,-0.002c-0.01,-0 -0.02,-0 -0.02,-0.001c-0,0.001 0.01,0.001 0.02,0.001Zm-0.03,-0.001c-0.01,-0 -0.02,-0.001 -0.03,-0.001c0.01,-0 0.02,0.001 0.03,0.001Zm-0.04,-0.001c0,-0 -0.01,-0 -0.02,-0.001c0.01,0.001 0.02,0.001 0.02,0.001Zm-0.03,-0.001l-0.02,-0l0.02,-0Zm-0.03,-0c-0.01,-0.001 -0.02,-0.001 -0.03,-0.001c0.01,-0 0.02,-0 0.03,0.001Zm-0.03,-0.001l-0.04,-0l0.04,-0Z" style="fill:#490000;fill-rule:nonzero;"/><path d="M51.28,183.041c-2.85,-0 -5.15,-2.544 -5.15,-5.661c0,-1.461 0.51,-2.804 1.34,-3.799c0.78,-0.542 1.72,-0.866 2.72,-0.866l0.04,-0c0.01,-0 0.02,-0 0.03,0.001l0.04,-0c0.01,0.001 0.02,0.001 0.02,0.001l0.01,-0c0.01,-0 0.02,0.001 0.03,0.001l0.01,-0c-0,0.001 0.01,0.001 0.02,0.001l0.01,0.001c0.01,-0 0.01,-0 0.02,0.001l0.01,-0c0.01,-0 0.02,0.001 0.03,0.001l0,0.001c0.01,-0 0.02,0.001 0.03,0.001c0.56,0.035 1.09,0.168 1.59,0.384c0.54,0.234 1.03,0.565 1.46,0.975c0.5,0.475 0.92,1.054 1.22,1.708c0.2,0.427 0.35,0.886 0.45,1.368c0.04,0.21 0.07,0.425 0.09,0.644l0,0.01c0.01,0.046 0.01,0.094 0.01,0.143c0.01,0.139 0.02,0.279 0.02,0.42l0,0.07c-0.01,0.74 -0.14,1.445 -0.38,2.09c-0.04,0.108 -0.08,0.214 -0.13,0.319c-0.17,0.374 -0.36,0.731 -0.6,1.058c-0.05,0.076 -0.11,0.15 -0.17,0.222c0,0.006 -0.01,0.012 -0.01,0.019c-0.8,0.573 -1.75,0.887 -2.76,0.887Z" style="fill:#f9a375;fill-rule:nonzero;"/><path d="M55.33,178.376c0,0.898 -0.17,1.721 -0.51,2.479l-0.12,0.011c-0.82,-0 -1.46,-0.725 -1.46,-1.602c-0,-0.585 0.26,-1.082 0.68,-1.375c0.22,-0.151 0.49,-0.238 0.78,-0.238c0.21,-0 0.42,0.043 0.6,0.152l0,0.01c0.02,0.184 0.03,0.39 0.03,0.563Z" style="fill:#fcc9a6;fill-rule:nonzero;"/><path d="M99.59,184.914c0,1.44 -0.48,2.771 -1.31,3.778c-0.93,1.158 -2.3,1.883 -3.83,1.883c-2.86,-0 -5.15,-2.522 -5.15,-5.661c0,-2.025 0.96,-3.81 2.42,-4.806c0.79,-0.541 1.73,-0.844 2.73,-0.844c2.84,-0 5.14,2.51 5.14,5.65Z" style="fill:#fcc9a6;fill-rule:nonzero;"/><path d="M98.28,188.692c0.3,-0.369 0.56,-0.781 0.76,-1.226c-0.2,0.445 -0.45,0.858 -0.76,1.226Z" style="fill:#7a1506;fill-rule:nonzero;"/><path d="M99.58,185.204l0,-0.003l0,0.003Zm0,-0.039l0,-0.005l0,0.005Zm0,-0.042l0,-0.003l0,0.003Zm0.01,-0.043l0,-0.002l0,0.002Zm0,-0.038l0,-0.01l0,0.01Zm0,-0.038l0,-0.013l0,0.013Zm0,-0.04l0,-0.012l0,0.012Zm0,-0.05c0,-0.147 -0.01,-0.293 -0.02,-0.438c0.01,0.146 0.02,0.295 0.02,0.438Z" style="fill:#963616;fill-rule:nonzero;"/><path d="M94.67,179.269l-0.01,-0l0.01,-0Zm-0.03,-0.001l-0.01,-0l0.01,-0Zm-0.03,-0.001c-0.01,-0 -0.01,-0.001 -0.01,-0.001c-0,-0 -0,0.001 0.01,0.001Zm-0.04,-0.001l0,-0.001l0,0.001Zm-0.03,-0.001l-0.01,-0l0.01,-0Zm-0.03,-0.001l-0.02,-0l0.02,-0Zm-0.03,-0l-0.03,-0l0.03,-0Z" style="fill:#490000;fill-rule:nonzero;"/><path d="M95.53,189.578c-2.84,-0 -5.15,-2.532 -5.15,-5.672c0,-1.46 0.51,-2.802 1.34,-3.798c0.79,-0.541 1.73,-0.844 2.73,-0.844l0.06,-0c0.01,-0 0.01,0.001 0.02,0.001l0.04,-0l0,0.001l0.03,-0c-0,-0 -0,0.001 0.01,0.001c-0,-0 0.01,-0 0.02,0.001l0.01,-0c0.01,-0 0.01,-0 0.02,0.001l0.01,-0c2.56,0.117 4.64,2.292 4.89,5.082c0.01,0.041 0.01,0.083 0.01,0.125c0.01,0.145 0.02,0.291 0.02,0.438l0,0.166c0,0.014 0,0.027 -0.01,0.04l0,0.084c-0.03,0.779 -0.21,1.513 -0.5,2.177c-0.01,0.028 -0.02,0.057 -0.04,0.085c-0.2,0.445 -0.46,0.857 -0.76,1.226c-0.79,0.562 -1.73,0.886 -2.75,0.886Z" style="fill:#f9a375;fill-rule:nonzero;"/><path d="M99.59,184.914c0,0.887 -0.18,1.721 -0.51,2.467l-0.12,0.012c-0.82,-0 -1.47,-0.715 -1.47,-1.603c-0,-0.573 0.27,-1.082 0.68,-1.364c0.24,-0.15 0.49,-0.248 0.79,-0.248c0.21,-0 0.41,0.054 0.6,0.173c0.02,0.184 0.03,0.379 0.03,0.563Z" style="fill:#fcc9a6;fill-rule:nonzero;"/><path d="M141.36,184.047c-0,1.452 -0.49,2.771 -1.31,3.768c-0.94,1.158 -2.31,1.894 -3.84,1.894c-2.84,-0 -5.14,-2.522 -5.14,-5.662c0,-2.023 0.95,-3.81 2.4,-4.795c0.8,-0.551 1.74,-0.876 2.74,-0.876c2.85,-0 5.15,2.544 5.15,5.671Z" style="fill:#fcc9a6;fill-rule:nonzero;"/><path d="M140.05,187.815c0.22,-0.258 0.4,-0.537 0.57,-0.835c-0.16,0.302 -0.35,0.581 -0.57,0.835Z" style="fill:#7a1506;fill-rule:nonzero;"/><path d="M141.36,184.131l-0,-0.004l-0,0.004Zm-0,-0.037l-0,-0.008l-0,0.008Zm-0.66,-2.815c-0.2,-0.402 -0.45,-0.773 -0.73,-1.107l-0,-0.002c0.28,0.334 0.53,0.707 0.73,1.109Zm-2.36,-2.398c-0.1,-0.048 -0.19,-0.092 -0.29,-0.134l0,-0.001c0.1,0.041 0.19,0.086 0.29,0.134l0,0.001Z" style="fill:#963616;fill-rule:nonzero;"/><path d="M138.05,178.747c-0.51,-0.215 -1.06,-0.342 -1.64,-0.367c0.58,0.024 1.13,0.152 1.64,0.366l0,0.001Z" style="fill:#490000;fill-rule:nonzero;"/><path d="M139.97,180.172c-0.46,-0.54 -1.01,-0.981 -1.63,-1.291l0,-0.001c0.62,0.309 1.17,0.75 1.63,1.29l-0,0.002Z" style="fill:#761403;fill-rule:nonzero;"/><path d="M136.41,178.38c-0.01,-0 -0.02,-0 -0.03,-0.001c0.01,0.001 0.02,0.001 0.03,0.001Zm-0.03,-0.001c-0.01,-0 -0.02,-0.001 -0.03,-0.001c0.01,-0 0.02,0.001 0.03,0.001Zm-0.04,-0.001c-0.01,-0 -0.01,-0 -0.02,-0.001c0.01,0.001 0.01,0.001 0.02,0.001Zm-0.03,-0.001l-0.03,-0l0.03,-0Zm-0.03,-0c-0.01,-0 -0.02,-0.001 -0.03,-0.001c0.01,-0 0.02,0.001 0.03,0.001Zm-0.04,-0.001l-0.03,-0l0.03,-0Z" style="fill:#490000;fill-rule:nonzero;"/><path d="M137.29,188.713c-2.84,-0 -5.14,-2.541 -5.14,-5.682c0,-1.451 0.51,-2.794 1.32,-3.779c0.8,-0.551 1.74,-0.876 2.74,-0.876l0.04,-0c0.01,-0 0.02,0.001 0.03,0.001l0.04,-0c0.01,0.001 0.01,0.001 0.02,0.001l0.01,-0c0.01,-0 0.02,0.001 0.03,0.001c0.01,0.001 0.02,0.001 0.03,0.001c0.58,0.025 1.13,0.152 1.64,0.367c0.1,0.042 0.19,0.086 0.29,0.134c0.62,0.31 1.17,0.751 1.63,1.291c0.28,0.334 0.53,0.705 0.73,1.107c0.34,0.658 0.55,1.397 0.62,2.184l0,0.012c0.03,0.205 0.04,0.389 0.04,0.572l-0,0.084c-0.01,0.847 -0.2,1.662 -0.52,2.385c-0.07,0.16 -0.14,0.315 -0.22,0.464c-0.17,0.298 -0.35,0.577 -0.57,0.835c-0.8,0.584 -1.74,0.898 -2.76,0.898Z" style="fill:#f9a375;fill-rule:nonzero;"/><path d="M141.36,184.047c-0,0.877 -0.19,1.722 -0.52,2.469l-0.12,0.011c-0.82,-0 -1.47,-0.726 -1.47,-1.613c0,-0.563 0.28,-1.072 0.7,-1.353c0.22,-0.152 0.47,-0.249 0.77,-0.249c0.21,-0 0.42,0.054 0.6,0.151l0,0.012c0.03,0.205 0.04,0.389 0.04,0.572Z" style="fill:#fcc9a6;fill-rule:nonzero;"/><path d="M184.18,175.464c0,1.441 -0.48,2.771 -1.29,3.78c-0.95,1.145 -2.33,1.881 -3.85,1.881c-2.84,-0 -5.15,-2.533 -5.15,-5.661c0,-2.034 0.97,-3.81 2.42,-4.805c0.8,-0.542 1.73,-0.845 2.73,-0.845c2.85,-0 5.14,2.522 5.14,5.65Z" style="fill:#fcc9a6;fill-rule:nonzero;"/><path d="M182.9,179.22c0.03,-0.033 0.06,-0.067 0.08,-0.101c-0.02,0.034 -0.05,0.068 -0.08,0.101Zm1.18,-2.619l0,-0.01l0,0.01Zm0.01,-0.026c0.05,-0.315 0.09,-0.639 0.09,-0.969c0,0.331 -0.04,0.655 -0.09,0.969Zm0.09,-0.979l0,-0.021l0,0.021Zm0,-0.039l0,-0.018l0,0.018Zm0,-0.041l0,-0.014l0,0.014Zm0,-0.052c0,-0.264 -0.01,-0.524 -0.04,-0.778l0,-0.002c0.01,0.069 0.02,0.138 0.02,0.207l0,0.011c0.02,0.186 0.02,0.368 0.02,0.562Z" style="fill:#7a1506;fill-rule:nonzero;"/><path d="M184.14,174.686c-0.07,-0.509 -0.19,-0.996 -0.37,-1.452c0.18,0.456 0.3,0.942 0.37,1.45l0,0.002Z" style="fill:#963616;fill-rule:nonzero;"/><path d="M181.44,170.46l-0.01,-0l0.01,-0Z" style="fill:#761403;fill-rule:nonzero;"/><path d="M180.24,169.969c-0.28,-0.074 -0.57,-0.122 -0.87,-0.143c0.3,0.021 0.59,0.069 0.87,0.143Z" style="fill:#490000;fill-rule:nonzero;"/><path d="M181.41,170.446c-0.36,-0.208 -0.76,-0.369 -1.17,-0.477c0.41,0.107 0.81,0.269 1.17,0.477Z" style="fill:#761403;fill-rule:nonzero;"/><path d="M179.37,169.826c-0.01,-0.001 -0.02,-0.001 -0.03,-0.002c0.01,0.001 0.02,0.001 0.03,0.002Zm-0.04,-0.002c-0.01,-0.001 -0.01,-0.002 -0.02,-0.002c0.01,-0 0.01,0.001 0.02,0.002Zm-0.03,-0.002c-0.01,-0.001 -0.02,-0.001 -0.03,-0.002c0.01,0.001 0.02,0.001 0.03,0.002Zm-0.03,-0.002c-0.01,-0 -0.02,-0.001 -0.03,-0.001c0.01,-0 0.02,0.001 0.03,0.001Zm-0.04,-0.002l-0.02,-0l0.02,-0Zm-0.03,-0.001l-0.02,-0l0.02,-0Zm-0.03,-0.001l-0.02,-0l0.02,-0Zm-0.04,-0.001l-0.02,-0l0.02,-0Zm-0.03,-0l-0.02,-0l0.02,-0Zm-0.03,-0c-0.01,-0 -0.02,-0.001 -0.03,-0.001c0.01,-0 0.02,0.001 0.03,0.001Z" style="fill:#490000;fill-rule:nonzero;"/><path d="M180.13,180.129c-2.85,-0 -5.15,-2.543 -5.15,-5.672c-0,-1.461 0.5,-2.803 1.33,-3.798c0.8,-0.542 1.73,-0.845 2.73,-0.845c0.01,-0 0.02,0.001 0.03,0.001l0.06,-0c0.01,0.001 0.01,0.001 0.02,0.001l0.02,-0l0.01,0.001l0.02,-0c0,-0 0.01,-0 0.01,0.001l0.02,-0l0.01,0.001c0.01,-0 0.02,0.001 0.03,0.001c0.01,0.001 0.02,0.001 0.03,0.002l0.01,-0c0.01,-0 0.01,0.001 0.02,0.002l0.01,-0c0.01,0.001 0.02,0.001 0.03,0.002c0.3,0.021 0.59,0.069 0.87,0.143c0.41,0.108 0.81,0.269 1.17,0.477c0.01,0.004 0.02,0.009 0.02,0.014l0.01,-0c1.04,0.601 1.86,1.581 2.33,2.774c0.18,0.456 0.3,0.943 0.37,1.452c0.03,0.254 0.04,0.514 0.04,0.778l0,0.142c0,0.33 -0.04,0.654 -0.09,0.969c-0.01,0.005 -0.01,0.01 -0.01,0.016l0,0.01c-0.09,0.467 -0.22,0.913 -0.41,1.331c-0.19,0.418 -0.41,0.819 -0.69,1.187c-0.02,0.034 -0.05,0.068 -0.08,0.101c0,0.008 -0.01,0.016 -0.01,0.024c-0.81,0.561 -1.75,0.885 -2.76,0.885Z" style="fill:#f9a375;fill-rule:nonzero;"/><path d="M184.18,175.464c0,0.888 -0.18,1.722 -0.51,2.468l-0.12,0.012c-0.81,-0 -1.47,-0.726 -1.47,-1.603c0,-0.573 0.28,-1.083 0.69,-1.374c0.23,-0.141 0.49,-0.238 0.78,-0.238c0.21,-0 0.43,0.053 0.61,0.162l0,0.011c0.02,0.186 0.02,0.368 0.02,0.562Z" style="fill:#fcc9a6;fill-rule:nonzero;"/><path d="M207.91,162.249c0,1.449 -0.49,2.771 -1.32,3.766c-0.92,1.169 -2.31,1.916 -3.84,1.916c-2.84,-0 -5.14,-2.541 -5.14,-5.682c-0,-2.014 0.97,-3.8 2.42,-4.796c0.79,-0.552 1.72,-0.866 2.72,-0.866c2.85,-0 5.16,2.532 5.16,5.662Z" style="fill:#fcc9a6;fill-rule:nonzero;"/><path d="M206.59,166.015c0.19,-0.223 0.36,-0.462 0.51,-0.716c-0.15,0.252 -0.32,0.491 -0.51,0.716Zm1.31,-3.723l0,-0.003l0,0.003Zm0.01,-0.043l0,-0.021l0,0.021Zm-1.73,-4.23l0,-0.002l0,0.002Zm-0.02,-0.015c0,-0.004 -0.01,-0.009 -0.01,-0.013c0,0.004 0.01,0.009 0.01,0.013Zm-0.01,-0.017c-0.11,-0.104 -0.22,-0.203 -0.34,-0.296l0,-0.001c0.12,0.094 0.23,0.193 0.34,0.297Z" style="fill:#7a1506;fill-rule:nonzero;"/><path d="M205.81,157.691c-0.33,-0.27 -0.7,-0.497 -1.08,-0.674c0.38,0.176 0.75,0.403 1.08,0.673l0,0.001Z" style="fill:#963616;fill-rule:nonzero;"/><path d="M204.73,157.017c-0.52,-0.237 -1.09,-0.384 -1.68,-0.421c0.59,0.037 1.16,0.183 1.68,0.421Zm-1.68,-0.421c-0.01,-0 -0.02,-0.001 -0.03,-0.002c0.01,0.001 0.02,0.002 0.03,0.002Zm-0.03,-0.002c-0.01,-0 -0.02,-0.001 -0.03,-0.001c0.01,-0 0.02,0.001 0.03,0.001Zm-0.04,-0.002c-0.01,-0 -0.02,-0 -0.02,-0.001c0,0.001 0.01,0.001 0.02,0.001Zm-0.03,-0.001c-0.01,-0 -0.02,-0.001 -0.03,-0.001c0.01,-0 0.02,0.001 0.03,0.001Zm-0.03,-0.001c-0.01,-0.001 -0.02,-0.001 -0.03,-0.001c0.01,-0 0.02,-0 0.03,0.001Zm-0.04,-0.001c0,-0 -0.01,-0.001 -0.02,-0.001c0.01,-0 0.02,0.001 0.02,0.001Zm-0.03,-0.001l-0.02,-0l0.02,-0Zm-0.03,-0.001l-0.03,-0l0.03,-0Zm-0.03,-0l-0.04,-0l0.04,-0Z" style="fill:#490000;fill-rule:nonzero;"/><path d="M203.85,166.913c-2.86,-0 -5.16,-2.532 -5.16,-5.672c0,-1.471 0.5,-2.792 1.34,-3.788c0.79,-0.552 1.72,-0.866 2.72,-0.866l0.07,-0l0.01,0.001l0.03,-0c0.01,-0 0.02,0.001 0.02,0.001l0.01,-0c0.01,-0 0.02,-0 0.03,0.001c0.01,-0 0.02,0.001 0.03,0.001l0.01,-0c0,0.001 0.01,0.001 0.02,0.001c-0,0.001 0.01,0.001 0.01,0.001c0.01,-0 0.02,0.001 0.03,0.001c0.01,0.001 0.02,0.002 0.03,0.002c0.59,0.037 1.16,0.184 1.68,0.421c0.38,0.177 0.75,0.404 1.08,0.674c0.12,0.093 0.23,0.192 0.34,0.296l0,0.004c0,0.004 0.01,0.009 0.01,0.013c0.01,0.004 0.01,0.009 0.02,0.013l0,0.002c0.94,0.919 1.57,2.21 1.7,3.667c0.01,0.176 0.02,0.373 0.03,0.542l0,0.021c0,0.013 0,0.026 -0.01,0.04l0,0.003c0,0.861 -0.19,1.689 -0.51,2.435c-0.09,0.197 -0.19,0.388 -0.29,0.572c-0.15,0.254 -0.32,0.493 -0.51,0.716c-0.78,0.573 -1.74,0.898 -2.74,0.898Z" style="fill:#f9a375;fill-rule:nonzero;"/><path d="M207.91,162.248c0,0.877 -0.19,1.721 -0.52,2.479l-0.13,0.011c-0.81,-0 -1.45,-0.734 -1.45,-1.624c0,-0.563 0.26,-1.071 0.67,-1.342c0.23,-0.173 0.5,-0.26 0.78,-0.26c0.22,-0 0.42,0.055 0.62,0.174c0.01,0.183 0.03,0.388 0.03,0.562Z" style="fill:#fcc9a6;fill-rule:nonzero;"/><path d="M24.67,114.612c0,1.439 -0.49,2.781 -1.3,3.788c-0.94,1.136 -2.33,1.883 -3.85,1.883c-2.84,-0 -5.14,-2.533 -5.14,-5.671c0,-2.024 0.96,-3.811 2.42,-4.806c0.78,-0.542 1.72,-0.856 2.72,-0.856c2.84,-0 5.15,2.534 5.15,5.662Z" style="fill:#fcc9a6;fill-rule:nonzero;"/><path d="M20.61,119.277c-2.49,-0 -4.56,-1.931 -5.04,-4.518c2.43,1.174 5.08,2.314 7.97,3.411c-0.06,0.079 -0.11,0.155 -0.17,0.23c-0.81,0.563 -1.75,0.877 -2.76,0.877Z" style="fill:#f9a375;fill-rule:nonzero;"/><path d="M24.67,114.612c0,0.887 -0.19,1.732 -0.52,2.467l-0.12,-0c-0.82,-0 -1.47,-0.704 -1.47,-1.59c0,-0.584 0.27,-1.082 0.69,-1.375c0.22,-0.152 0.49,-0.239 0.78,-0.239c0.2,-0 0.42,0.055 0.61,0.153l0,0.009c0.01,0.196 0.03,0.391 0.03,0.575Z" style="fill:#fcc9a6;fill-rule:nonzero;"/><path d="M58.23,127.135c-0,1.451 -0.5,2.76 -1.31,3.767c-0.94,1.147 -2.32,1.905 -3.84,1.905c-2.85,-0 -5.14,-2.543 -5.14,-5.672c0,-2.024 0.96,-3.811 2.42,-4.816c0.78,-0.542 1.72,-0.856 2.72,-0.856c2.84,-0 5.15,2.534 5.15,5.672Z" style="fill:#fcc9a6;fill-rule:nonzero;"/><path d="M56.97,130.833c0.16,-0.204 0.31,-0.421 0.44,-0.648c-0.13,0.225 -0.27,0.44 -0.44,0.648Z" style="fill:#963616;fill-rule:nonzero;"/><path d="M56.94,130.878c0.01,-0.015 0.02,-0.03 0.03,-0.045c-0.01,0.015 -0.02,0.03 -0.03,0.045Z" style="fill:#490000;fill-rule:nonzero;"/><path d="M54.16,131.79c-2.85,-0 -5.14,-2.544 -5.14,-5.683c0,-0.261 0.02,-0.517 0.05,-0.768c2.45,0.498 4.99,0.969 7.6,1.408c-0.34,0.292 -0.54,0.738 -0.54,1.244c0,0.886 0.64,1.612 1.45,1.612l0.13,-0c-0.09,0.203 -0.19,0.396 -0.3,0.582c-0.13,0.227 -0.28,0.444 -0.44,0.648c-0.01,0.015 -0.02,0.03 -0.03,0.045c-0.01,0.008 -0.01,0.016 -0.02,0.024c-0.79,0.573 -1.74,0.888 -2.76,0.888Z" style="fill:#f9a375;fill-rule:nonzero;"/><path d="M58.23,127.135c-0,0.865 -0.19,1.711 -0.52,2.468l-0.13,-0c-0.81,-0 -1.45,-0.726 -1.45,-1.612c0,-0.575 0.26,-1.073 0.69,-1.354c0.21,-0.162 0.47,-0.248 0.76,-0.248c0.22,-0 0.43,0.053 0.62,0.162c0.01,0.205 0.03,0.389 0.03,0.584Z" style="fill:#fcc9a6;fill-rule:nonzero;"/><path d="M102.48,133.662c-0,1.451 -0.48,2.76 -1.31,3.766c-0.93,1.17 -2.31,1.906 -3.83,1.906c-2.85,-0 -5.15,-2.544 -5.15,-5.672c0,-2.024 0.96,-3.81 2.42,-4.806c0.79,-0.552 1.73,-0.865 2.73,-0.865c2.84,-0 5.14,2.542 5.14,5.671Z" style="fill:#fcc9a6;fill-rule:nonzero;"/><path d="M101.72,136.625l-0,-0.002c0.05,-0.09 0.1,-0.183 0.15,-0.276c-0.05,0.094 -0.1,0.187 -0.15,0.278Z" style="fill:#963616;fill-rule:nonzero;"/><path d="M101.17,137.428c0.21,-0.25 0.39,-0.52 0.55,-0.805l-0,0.002c-0.15,0.289 -0.34,0.56 -0.55,0.803Z" style="fill:#490000;fill-rule:nonzero;"/><path d="M102.48,133.706l-0,-0.005l-0,0.005Zm-0.01,-0.426c-0.06,-0.96 -0.34,-1.855 -0.77,-2.626c0.41,0.717 0.68,1.541 0.76,2.423l0,0.011c0,0.064 0,0.128 0.01,0.192Z" style="fill:#963616;fill-rule:nonzero;"/><path d="M98.42,138.317c-2.85,-0 -5.15,-2.544 -5.15,-5.672c0,-0.786 0.15,-1.534 0.41,-2.213c2.63,0.102 5.3,0.177 8.02,0.222c0.43,0.771 0.71,1.666 0.77,2.626c-0,0.13 0.01,0.258 0.01,0.382l-0,0.044c-0.01,0.85 -0.19,1.679 -0.51,2.423c-0.03,0.073 -0.07,0.146 -0.1,0.218c-0.05,0.093 -0.1,0.186 -0.15,0.276c-0.16,0.285 -0.34,0.555 -0.55,0.805c-0.79,0.574 -1.74,0.889 -2.75,0.889Z" style="fill:#f9a375;fill-rule:nonzero;"/><path d="M102.48,133.662c-0,0.866 -0.18,1.71 -0.51,2.467l-0.12,0.012c-0.82,-0 -1.47,-0.726 -1.47,-1.624c0,-0.563 0.28,-1.061 0.69,-1.353c0.22,-0.162 0.48,-0.227 0.78,-0.227c0.21,-0 0.41,0.044 0.61,0.14l0,0.011c0.01,0.195 0.02,0.39 0.02,0.574Z" style="fill:#fcc9a6;fill-rule:nonzero;"/><path d="M144.24,132.807c-0,1.429 -0.48,2.759 -1.31,3.756c-0.93,1.158 -2.31,1.905 -3.83,1.905c-2.85,-0 -5.14,-2.533 -5.14,-5.661c0,-2.046 0.95,-3.82 2.41,-4.816c0.8,-0.553 1.73,-0.856 2.73,-0.856c2.85,-0 5.14,2.533 5.14,5.672Z" style="fill:#fcc9a6;fill-rule:nonzero;"/><path d="M143.47,135.799l-0.01,-0.001c0.11,-0.191 0.21,-0.39 0.3,-0.596c-0.01,0.021 -0.02,0.042 -0.03,0.062c-0.08,0.185 -0.17,0.364 -0.26,0.535Z" style="fill:#963616;fill-rule:nonzero;"/><path d="M142.93,136.563c0.2,-0.237 0.38,-0.493 0.53,-0.765l0.01,0.001c-0.16,0.271 -0.33,0.526 -0.54,0.764Z" style="fill:#490000;fill-rule:nonzero;"/><path d="M144.24,132.852l-0,-0.006l-0,0.006Zm-0,-0.24c-0.05,-1.484 -0.6,-2.822 -1.49,-3.803c0,-0.001 0.01,-0.001 0.01,-0.001c0.8,0.894 1.34,2.085 1.46,3.415c0.01,0.129 0.02,0.259 0.02,0.389Z" style="fill:#963616;fill-rule:nonzero;"/><path d="M140.19,137.461c-2.85,-0 -5.15,-2.551 -5.15,-5.682c0,-0.795 0.15,-1.55 0.42,-2.235c2.47,-0.215 4.9,-0.46 7.29,-0.735c0.89,0.981 1.44,2.319 1.49,3.803l-0,0.276c-0.01,0.813 -0.18,1.597 -0.48,2.314c-0.09,0.206 -0.19,0.405 -0.3,0.596c-0.15,0.272 -0.33,0.528 -0.53,0.765c-0.79,0.562 -1.73,0.898 -2.74,0.898Z" style="fill:#f9a375;fill-rule:nonzero;"/><path d="M144.24,132.807c-0,0.865 -0.18,1.699 -0.5,2.457l-0.14,0.011c-0.8,-0 -1.46,-0.726 -1.46,-1.613c0,-0.574 0.27,-1.072 0.69,-1.364c0.23,-0.159 0.48,-0.249 0.77,-0.249c0.22,-0 0.42,0.055 0.62,0.174c0.01,0.194 0.02,0.389 0.02,0.584Z" style="fill:#fcc9a6;fill-rule:nonzero;"/><path d="M187.07,124.201c0,1.452 -0.47,2.772 -1.3,3.768c-0.94,1.168 -2.32,1.904 -3.84,1.904c-2.84,-0 -5.15,-2.533 -5.15,-5.672c0,-2.013 0.96,-3.799 2.43,-4.805c0.78,-0.541 1.73,-0.855 2.72,-0.855c2.84,-0 5.14,2.533 5.14,5.66Z" style="fill:#fcc9a6;fill-rule:nonzero;"/><path d="M187.07,124.491l0,-0.001l0,0.001Zm0,-0.039l0,-0.004l0,0.004Zm0,-0.084l0,-0.006l0,0.006Zm0,-0.038l0,-0.012l0,0.012Zm0,-0.038l0,-0.014l0,0.014Zm0,-0.04l0,-0.013l0,0.013Z" style="fill:#963616;fill-rule:nonzero;"/><path d="M183.01,128.868c-2.84,-0 -5.15,-2.545 -5.15,-5.684c-0,-0.303 0.02,-0.602 0.07,-0.895c1.6,-0.433 3.17,-0.878 4.7,-1.335c0.96,-0.285 1.9,-0.575 2.83,-0.871c0.88,0.911 1.46,2.156 1.58,3.545l0,0.011c0.02,0.195 0.03,0.39 0.03,0.562l0,0.29c-0.04,0.779 -0.21,1.513 -0.5,2.179c-0.22,0.486 -0.48,0.908 -0.8,1.299c-0.8,0.584 -1.73,0.899 -2.76,0.899Z" style="fill:#f9a375;fill-rule:nonzero;"/><path d="M187.07,124.201c0,0.888 -0.17,1.721 -0.5,2.469l-0.13,0.01c-0.82,-0 -1.47,-0.725 -1.47,-1.602c-0,-0.584 0.27,-1.071 0.69,-1.363c0.22,-0.162 0.48,-0.238 0.78,-0.238c0.21,-0 0.42,0.043 0.6,0.151l0,0.011c0.02,0.195 0.03,0.39 0.03,0.562Z" style="fill:#fcc9a6;fill-rule:nonzero;"/><path d="M210.79,110.997c0,1.439 -0.49,2.771 -1.3,3.767c-0.94,1.157 -2.32,1.894 -3.84,1.894c-2.85,-0 -5.14,-2.531 -5.14,-5.661c0,-2.036 0.95,-3.821 2.41,-4.806c0.79,-0.542 1.72,-0.866 2.73,-0.866c2.84,-0 5.14,2.543 5.14,5.672Z" style="fill:#fcc9a6;fill-rule:nonzero;"/><path d="M209.49,114.764c0.25,-0.306 0.47,-0.643 0.65,-1.005c-0.18,0.362 -0.39,0.696 -0.65,1.005Zm0.78,-1.281c0.02,-0.032 0.03,-0.064 0.04,-0.097c-0.01,0.026 -0.02,0.052 -0.03,0.078c0,0.006 -0.01,0.013 -0.01,0.019Zm0.52,-2.363l0,-0.002l0,0.002Zm0,-0.037l0,-0.008l0,0.008Zm0,-0.039l0,-0.009l0,0.009Zm0,-0.047c0,-0.673 -0.11,-1.318 -0.3,-1.917l-0,-0.002c0.14,0.427 0.23,0.877 0.28,1.344l0,0.012c0.02,0.183 0.02,0.367 0.02,0.563Z" style="fill:#7a1506;fill-rule:nonzero;"/><path d="M206.73,115.661c-1.69,-0 -3.19,-0.898 -4.12,-2.279c2.91,-1.403 5.54,-2.844 7.88,-4.302c0.19,0.599 0.3,1.244 0.3,1.917l0,0.123c-0.02,0.803 -0.19,1.574 -0.48,2.266c-0.01,0.033 -0.02,0.065 -0.04,0.097c-0.04,0.094 -0.08,0.186 -0.13,0.276c-0.18,0.362 -0.4,0.699 -0.65,1.005c-0.8,0.572 -1.74,0.897 -2.76,0.897Z" style="fill:#f9a375;fill-rule:nonzero;"/><path d="M210.79,110.996c0,0.877 -0.18,1.721 -0.51,2.468l-0.13,0.011c-0.81,-0 -1.46,-0.725 -1.46,-1.612c0,-0.564 0.27,-1.072 0.68,-1.365c0.23,-0.151 0.49,-0.238 0.78,-0.238c0.22,-0 0.43,0.055 0.62,0.162l0,0.012c0.02,0.183 0.02,0.367 0.02,0.562Z" style="fill:#fcc9a6;fill-rule:nonzero;"/><path d="M216.2,82.768c0,-0 -1.24,10.629 -2.82,24.387c-4.77,3.387 -11.16,6.732 -18.99,9.773c-3.62,1.418 -7.54,2.772 -11.76,4.026c-11.13,3.324 -24.28,6.062 -39.18,7.773c-4.66,0.55 -9.48,0.984 -14.47,1.308c-6.68,0.445 -13.63,0.673 -20.86,0.673c-11.56,-0 -22.34,-0.51 -32.26,-1.462c-6.39,-0.607 -12.42,-1.375 -18.09,-2.316c-26.2,-4.287 -44.63,-11.658 -53.86,-19.43l-3.43,-21.453l-0.47,-3.279l216.19,-0Z" style="fill:#f26a3c;fill-rule:nonzero;"/><path d="M75.86,129.246c-6.22,-0.591 -12.1,-1.334 -17.64,-2.241c-0.15,-0.025 -0.3,-0.05 -0.45,-0.075l-17.86,-17.853c6.09,1.552 12.72,2.901 19.79,4.013l16.16,16.156Z" style="fill:#f1572e;fill-rule:nonzero;"/><path d="M128.98,130.035l-13.45,-13.446c5.15,-0.11 10.2,-0.333 15.12,-0.66l12.8,12.798c-0.23,0.027 -0.46,0.055 -0.7,0.082c-2.39,0.275 -4.82,0.52 -7.29,0.735c-0.21,0.018 -0.41,0.035 -0.61,0.053c-1.93,0.163 -3.89,0.309 -5.87,0.438Z" style="fill:#f1572e;fill-rule:nonzero;"/><path d="M216.21,82.768c0,18.725 -48.4,33.9 -108.12,33.9c-59.7,-0 -108.09,-15.175 -108.09,-33.9c0,-18.736 48.39,-33.923 108.09,-33.923c59.72,-0 108.12,15.187 108.12,33.923Z" style="fill:#f04839;fill-rule:nonzero;"/><path d="M206.53,81.49c0,1.375 -0.31,2.706 -0.93,4.016c-2.76,5.985 -11.59,11.376 -24.61,15.629c-17.38,5.672 -42.19,9.299 -69.85,9.516c-0.88,0.013 -1.78,0.013 -2.68,0.013c-0.89,-0 -1.8,-0 -2.69,-0.013c-27.64,-0.217 -52.45,-3.844 -69.83,-9.526c-13,-4.243 -21.85,-9.634 -24.6,-15.619c-0.61,-1.31 -0.93,-2.641 -0.93,-4.016c0,-16.095 43.91,-29.149 98.05,-29.149c54.17,-0 98.07,13.054 98.07,29.149Z" style="fill:#7a1b0c;fill-rule:nonzero;"/><path d="M205.6,85.506c-2.76,5.985 -11.6,11.365 -24.62,15.629c-17.37,5.672 -42.18,9.299 -69.84,9.516c-0.88,0.013 -1.77,0.013 -2.68,0.013c-0.89,-0 -1.79,-0 -2.69,-0.013l-0.49,-0c-27.45,-0.272 -52.07,-3.876 -69.33,-9.526c-13.01,-4.254 -21.87,-9.634 -24.61,-15.619c4.37,-7.783 21.15,-14.461 44.69,-18.51c15.18,-2.598 33.16,-4.113 52.43,-4.113c49.2,-0 89.95,9.819 97.14,22.623Z" style="fill:#fcc9a6;fill-rule:nonzero;"/><path d="M105.28,110.651c-27.45,-0.272 -52.07,-3.876 -69.33,-9.526c-13.01,-4.254 -21.87,-9.634 -24.61,-15.619c4.37,-7.783 21.15,-14.461 44.69,-18.51c4.11,14.537 16.98,30.828 49.25,43.655Z" style="fill:#f9a375;fill-rule:nonzero;"/><path d="M207.1,8.937l-66.77,68.018l-6.95,-6.96l66.76,-68.018c1.38,-1.385 3.39,-1.764 5.13,-1.137c0.67,0.238 1.3,0.617 1.83,1.147c1.91,1.906 1.91,5.033 -0,6.95Z" style="fill:#fcc9a6;fill-rule:nonzero;"/><path d="M140.33,76.955l-6.95,-6.96l66.76,-68.018c0.95,-0.953 2.2,-1.43 3.45,-1.43c0.57,-0 1.14,0.098 1.68,0.293c-5.81,5.001 -18.37,17.037 -23,32.916l-41.94,43.199Z" style="fill:#f9a375;fill-rule:nonzero;"/><path d="M140.32,87.465c-2.6,2.609 -6.1,3.811 -9.53,3.594c-2.88,-0.184 -5.73,-1.386 -7.94,-3.594c-4.82,-4.828 -4.82,-12.642 -0,-17.471c3.64,-3.625 8.97,-4.535 13.45,-2.683c1.46,0.596 2.83,1.504 4.02,2.683c4.83,4.829 4.83,12.643 0,17.471Z" style="fill:#450100;fill-rule:nonzero;"/><path d="M140.32,87.465c-2.6,2.609 -6.1,3.811 -9.53,3.594c-1.46,-0.596 -2.83,-1.505 -4.03,-2.695c-4.81,-4.817 -4.81,-12.632 0,-17.471c2.63,-2.598 6.12,-3.799 9.54,-3.582c1.46,0.596 2.83,1.504 4.02,2.683c4.83,4.829 4.83,12.643 0,17.471Z" style="fill:#7a1b0c;fill-rule:nonzero;"/><path d="M138.67,88.321c-1.17,1.168 -2.75,1.71 -4.27,1.623c-1.3,-0.098 -2.58,-0.628 -3.56,-1.623c-2.17,-2.155 -2.17,-5.663 0,-7.827c1.63,-1.634 4.02,-2.035 6.02,-1.212c0.66,0.271 1.28,0.671 1.81,1.212c2.16,2.164 2.16,5.672 0,7.827Z" style="fill:#a93023;fill-rule:nonzero;"/><path d="M1.52,8.385l66.77,68.007l6.95,-6.949l-66.77,-68.007c-1.38,-1.386 -3.39,-1.776 -5.12,-1.137c-0.69,0.228 -1.31,0.617 -1.83,1.137c-1.92,1.916 -1.91,5.033 0,6.949Z" style="fill:#fcc9a6;fill-rule:nonzero;"/><path d="M68.29,76.392l-41.95,-43.188c-4.62,-15.878 -17.18,-27.905 -22.99,-32.905c0.54,-0.199 1.11,-0.298 1.68,-0.298c1.25,-0 2.49,0.482 3.44,1.435l66.77,68.007l-6.95,6.949Z" style="fill:#f9a375;fill-rule:nonzero;"/><path d="M68.3,86.924c2.6,2.608 6.1,3.799 9.52,3.594c2.89,-0.174 5.73,-1.386 7.94,-3.594c4.83,-4.816 4.83,-12.654 0,-17.471c-3.64,-3.647 -8.97,-4.523 -13.45,-2.695c-1.46,0.596 -2.84,1.505 -4.01,2.695c-4.84,4.817 -4.84,12.655 0,17.471Z" style="fill:#450100;fill-rule:nonzero;"/><path d="M68.3,86.924c2.6,2.608 6.1,3.799 9.52,3.594c1.46,-0.596 2.84,-1.505 4.02,-2.686c4.82,-4.838 4.82,-12.652 0,-17.48c-2.61,-2.609 -6.1,-3.799 -9.53,-3.594c-1.46,0.596 -2.84,1.505 -4.01,2.695c-4.84,4.817 -4.84,12.655 0,17.471Z" style="fill:#7a1b0c;fill-rule:nonzero;"/><path d="M69.94,87.78c1.18,1.179 2.75,1.699 4.28,1.612c1.3,-0.087 2.57,-0.628 3.56,-1.612c2.16,-2.166 2.16,-5.663 0,-7.838c-1.63,-1.623 -4.02,-2.045 -6.04,-1.201c-0.65,0.271 -1.27,0.681 -1.8,1.201c-2.16,2.175 -2.16,5.672 0,7.838Z" style="fill:#a93023;fill-rule:nonzero;"/></g></g></g></svg>