<?xml version="1.0" encoding="UTF-8" standalone="no"?><!DOCTYPE svg PUBLIC "-//W3C//DTD SVG 1.1//EN" "http://www.w3.org/Graphics/SVG/1.1/DTD/svg11.dtd"><svg width="100%" height="100%" viewBox="0 0 217 215" version="1.1" xmlns="http://www.w3.org/2000/svg" xmlns:xlink="http://www.w3.org/1999/xlink" xml:space="preserve" xmlns:serif="http://www.serif.com/" style="fill-rule:evenodd;clip-rule:evenodd;stroke-linejoin:round;stroke-miterlimit:2;"><g><g><g><path d="M196.262,10.281l1.89,3.529l-1.34,0.704l-1.9,-3.507l1.35,-0.726Z" style="fill:#808285;fill-rule:nonzero;"/><path d="M195.872,11.147c0.39,-0.194 0.78,-0.725 0.99,-1.374c0.25,-0.748 0.28,-1.646 -0.13,-2.414c-0.77,-1.418 -2.4,-2.035 -3.64,-1.396c-0.58,0.324 -0.98,0.865 -1.14,1.494c-0.22,0.725 -0.13,1.558 0.27,2.316c0.77,1.428 2.78,1.85 3.65,1.374Z" style="fill:#adb0b2;fill-rule:nonzero;"/><path d="M196.862,9.773c-1.29,-1.948 -2.78,-2.43 -3.93,-2.43c-0.37,0 -0.7,0.049 -0.98,0.114c0.16,-0.629 0.56,-1.17 1.14,-1.494c0.33,-0.171 0.69,-0.252 1.05,-0.252c1,0 2.02,0.609 2.59,1.648c0.22,0.414 0.31,0.866 0.31,1.312c-0,0.381 -0.07,0.757 -0.18,1.102Z" style="fill:#cfd1d3;fill-rule:nonzero;"/><path d="M201.252,7.607l1.9,3.529l-1.34,0.728l-1.9,-3.531l1.34,-0.726Z" style="fill:#808285;fill-rule:nonzero;"/><path d="M200.862,8.485c0.4,-0.206 0.79,-0.747 1,-1.397c0.25,-0.746 0.28,-1.634 -0.14,-2.403c-0.75,-1.428 -2.39,-2.045 -3.62,-1.385c-0.59,0.313 -0.99,0.855 -1.14,1.494c-0.22,0.713 -0.14,1.536 0.27,2.294c0.76,1.429 2.78,1.862 3.63,1.397Z" style="fill:#adb0b2;fill-rule:nonzero;"/><path d="M201.862,7.088c-1.28,-1.93 -2.75,-2.42 -3.89,-2.42c-0.38,0 -0.72,0.053 -1.01,0.126c0.15,-0.639 0.55,-1.181 1.14,-1.494c0.33,-0.18 0.7,-0.265 1.07,-0.265c0.99,0 2,0.61 2.55,1.65c0.23,0.421 0.32,0.877 0.32,1.326c-0,0.372 -0.07,0.739 -0.18,1.077Z" style="fill:#cfd1d3;fill-rule:nonzero;"/><path d="M206.662,4.577l1.89,3.518l-1.34,0.715l-1.89,-3.519l1.34,-0.714Z" style="fill:#808285;fill-rule:nonzero;"/><path d="M206.282,5.443c0.39,-0.206 0.78,-0.736 0.99,-1.375c0.25,-0.757 0.28,-1.645 -0.13,-2.424c-0.76,-1.417 -2.4,-2.046 -3.63,-1.375c-0.6,0.303 -0.99,0.844 -1.15,1.483c-0.21,0.726 -0.13,1.537 0.27,2.316c0.77,1.418 2.79,1.852 3.65,1.375Z" style="fill:#adb0b2;fill-rule:nonzero;"/><path d="M207.272,4.068c-1.29,-1.952 -2.77,-2.431 -3.93,-2.431c-0.36,0 -0.7,0.049 -0.98,0.115c0.16,-0.639 0.55,-1.18 1.15,-1.483c0.34,-0.183 0.7,-0.269 1.07,-0.269c0.99,0 2,0.614 2.56,1.644c0.22,0.42 0.31,0.872 0.31,1.317c-0,0.381 -0.06,0.758 -0.18,1.107Z" style="fill:#cfd1d3;fill-rule:nonzero;"/><path d="M180.712,19.276l1.88,3.528l-1.33,0.715l-1.89,-3.529l1.34,-0.714Z" style="fill:#808285;fill-rule:nonzero;"/><path d="M180.322,20.152c0.4,-0.216 0.78,-0.735 1,-1.385c0.24,-0.757 0.28,-1.645 -0.14,-2.402c-0.76,-1.44 -2.39,-2.056 -3.63,-1.397c-0.6,0.314 -0.98,0.845 -1.14,1.483c-0.21,0.715 -0.13,1.548 0.27,2.316c0.76,1.418 2.78,1.84 3.64,1.385Z" style="fill:#adb0b2;fill-rule:nonzero;"/><path d="M181.322,18.767c-1.28,-1.951 -2.76,-2.437 -3.91,-2.437c-0.37,0 -0.71,0.052 -1,0.121c0.16,-0.638 0.54,-1.169 1.14,-1.483c0.34,-0.179 0.7,-0.264 1.07,-0.264c0.99,0 2,0.612 2.56,1.661c0.22,0.408 0.32,0.854 0.32,1.297c-0,0.379 -0.07,0.756 -0.18,1.105Z" style="fill:#cfd1d3;fill-rule:nonzero;"/><path d="M185.722,16.603l1.88,3.528l-1.34,0.715l-1.89,-3.53l1.35,-0.713Z" style="fill:#808285;fill-rule:nonzero;"/><path d="M185.322,17.479c0.4,-0.227 0.78,-0.735 1,-1.385c0.25,-0.746 0.28,-1.657 -0.13,-2.414c-0.77,-1.428 -2.4,-2.045 -3.64,-1.385c-0.58,0.324 -0.98,0.843 -1.15,1.471c-0.21,0.726 -0.13,1.57 0.28,2.328c0.76,1.429 2.77,1.839 3.64,1.385Z" style="fill:#adb0b2;fill-rule:nonzero;"/><path d="M186.322,16.094c-1.3,-1.959 -2.79,-2.435 -3.95,-2.435c-0.36,0 -0.69,0.046 -0.97,0.107c0.17,-0.628 0.57,-1.147 1.15,-1.471c0.34,-0.18 0.7,-0.265 1.07,-0.265c0.99,0 2.01,0.61 2.57,1.65c0.22,0.408 0.31,0.861 0.31,1.308c-0,0.383 -0.07,0.762 -0.18,1.106Z" style="fill:#cfd1d3;fill-rule:nonzero;"/><path d="M190.912,13.81l1.88,3.54l-1.34,0.724l-1.88,-3.55l1.34,-0.714Z" style="fill:#808285;fill-rule:nonzero;"/><path d="M190.522,14.709c0.4,-0.228 0.78,-0.748 0.99,-1.397c0.24,-0.747 0.28,-1.645 -0.13,-2.414c-0.77,-1.439 -2.4,-2.046 -3.63,-1.384c-0.59,0.312 -0.99,0.854 -1.15,1.492c-0.21,0.715 -0.13,1.538 0.28,2.306c0.76,1.429 2.78,1.851 3.64,1.397Z" style="fill:#adb0b2;fill-rule:nonzero;"/><path d="M191.512,13.312c-1.27,-1.942 -2.75,-2.427 -3.9,-2.427c-0.38,0 -0.72,0.052 -1.01,0.121c0.16,-0.638 0.56,-1.18 1.15,-1.492c0.34,-0.181 0.7,-0.267 1.07,-0.267c0.99,0 2,0.606 2.56,1.651c0.22,0.415 0.31,0.867 0.31,1.312c-0,0.382 -0.07,0.758 -0.18,1.102Z" style="fill:#cfd1d3;fill-rule:nonzero;"/><path d="M203.932,23.477c-1.5,1.622 -2.11,3.874 -3.14,5.812c-0.8,1.504 -1.51,3.063 -2.33,4.557c-0.66,1.222 -1.51,3.084 -2.69,3.928c-0.77,0.542 -1.95,-0.194 -2.77,-0.389c-1.53,-0.369 -3.16,-0.52 -4.74,-0.358c-2.72,0.25 -5.26,1.43 -6.69,3.973l-8.15,-8.151c-0,0 1.47,-3.712 1.7,-7.1l38.37,-22.146c0.02,0 0.07,0.098 0.14,0.293c0.43,1.092 1.75,5.044 1.81,5.314c0.72,3.236 1.12,7.425 -0.68,10.38c-0.56,0.931 -1.34,1.689 -2.23,2.305c-0.66,0.466 -2.41,1.829 -3.22,1.786c-1,-0.064 -1.99,-1.082 -3.08,-1.158c-0.93,-0.097 -1.67,0.281 -2.3,0.954Z" style="fill:#b6937b;fill-rule:nonzero;"/><path d="M68.202,212.322c-1.14,0.498 -2.31,0.92 -3.47,1.235c-10.38,2.912 -22.03,-0.856 -32.54,-7.836c-14.65,-9.7 -27.11,-25.611 -30.81,-38.252c-2.36,-7.988 -1.85,-19.777 2.72,-26.813c3.73,-5.758 10.14,-10.326 17.15,-12.793l0.05,-0.033c3.98,-1.396 8.15,-2.11 12.14,-2.002c0.51,0.011 1.04,0.055 1.54,0.098c3.12,0.269 5.87,0.021 8.32,-0.639c17.48,-4.752 19.85,-30.871 31.61,-43.123c3.63,-3.777 7.9,-7.912 12.99,-9.871c1.24,-0.477 2.52,-0.823 3.85,-1.018c4.28,-0.585 8.79,2.598 8.08,7.144c-0.37,2.348 -3.18,4.798 -4.46,6.624c-4.67,6.7 -6.54,13.281 -1.52,20.88l11.25,14.45c-1.94,4.167 -1.77,10.033 0.8,14.006c2.7,4.145 5.94,4.676 9.38,3.766c3.81,-0.994 7.89,-3.723 11.81,-5.217c2.36,-0.887 4.66,-1.342 6.83,-0.725c5.82,1.689 1.44,9.492 -0.67,11.918c-2.47,2.827 -5.58,4.362 -8.96,5.314c-5.62,1.602 -11.98,1.678 -17.43,3.691c-0.45,0.151 -0.88,0.346 -1.31,0.53c-15.78,7.014 -15.04,18.987 -18.19,33.891c-2.37,11.278 -8.54,20.035 -19.16,24.775Z" style="fill:#500;fill-rule:nonzero;"/><path d="M66.342,212.93c-0.54,0.215 -1.07,0.443 -1.61,0.627c-10.38,2.912 -22.03,-0.856 -32.54,-7.836c-14.65,-9.7 -27.11,-25.611 -30.81,-38.252c-2.36,-7.988 -1.85,-19.777 2.72,-26.813c3.73,-5.758 10.14,-10.326 17.15,-12.793l0.05,-0.033c3.41,-0.996 6.9,-1.483 10.27,-1.385c0.51,0.01 1.03,0.043 1.55,0.086c3.93,0.347 7.28,-0.129 10.18,-1.244c15.8,-6.04 18.41,-30.708 29.75,-42.518c4.05,-4.22 8.93,-8.886 14.85,-10.476c0.65,-0.174 1.31,-0.304 1.98,-0.401c4.27,-0.595 8.79,2.586 8.07,7.143c-0.36,2.338 -3.17,4.785 -4.45,6.614c-4.68,6.701 -6.54,13.303 -1.53,20.88l11.25,14.461c-1.94,4.166 -1.75,10.025 0.81,13.995c3.18,4.904 7.1,4.742 11.25,3.16c3.87,-1.493 7.95,-4.188 11.81,-5.217c1.71,-0.432 3.36,-0.563 4.95,-0.108c5.82,1.667 1.43,9.492 -0.66,11.896c-2,2.316 -4.44,3.756 -7.09,4.719c-5.43,2.002 -11.79,2.067 -17.43,3.691c-1.09,0.313 -2.16,0.683 -3.17,1.137c-15.8,7.024 -15.05,18.985 -18.2,33.911c-2.37,11.246 -8.54,20.025 -19.15,24.756Z" style="fill:#791214;fill-rule:nonzero;"/><path d="M112.632,148.991c-7.46,1.581 -16.81,4.341 -20.67,11.572c-4.22,7.933 -6.27,17.685 -10.84,25.566c-3.9,6.689 -13.84,14.374 -22.8,12.144c-0.17,-0.043 -0.34,-0.097 -0.52,-0.141c-9.56,-2.803 -6.84,-15.661 -7.52,-23.001c-0.94,-10.023 -9.75,-16.993 -10.92,-26.756c-1.25,-10.186 12.42,-11.854 19.11,-15.381c6.93,-3.659 11.5,-11.615 16.15,-17.535c2.84,-3.594 9.75,-12.557 14.15,-7.274c0.24,0.325 0.5,0.67 0.74,1.082c2.36,4.059 2.98,9.385 4.75,13.757c3.34,8.314 9.73,20.46 20.65,18.704c4.94,-0.79 8.15,-5.207 12.93,-6.417c4.14,-1.04 6.12,0.554 4.31,4.566c-1.48,3.324 -4.12,5.196 -7.2,6.397c-3.88,1.494 -8.47,1.906 -12.32,2.717Z" style="fill:#fff;fill-rule:nonzero;"/><path d="M4.102,140.656c0.02,-0.018 0.03,-0.036 0.04,-0.054c-0.01,0.018 -0.02,0.036 -0.04,0.054Zm0.07,-0.102l-0,-0.001l-0,0.001Zm5.25,-5.913c0.01,-0.006 0.02,-0.014 0.02,-0.02c-0.01,0.006 -0.01,0.013 -0.02,0.02Zm0.03,-0.028c6.28,-5.405 15.02,-8.798 23.12,-8.798c0.29,0 0.58,0.004 0.87,0.013c-0.27,-0.007 -0.53,-0.011 -0.8,-0.011c-3.74,0 -7.63,0.709 -11.34,2.013l-0.05,0.033c-4.33,1.522 -8.42,3.843 -11.8,6.75Z" style="fill:#791214;fill-rule:nonzero;"/><path d="M9.452,134.613c3.38,-2.907 7.47,-5.228 11.8,-6.75l0.05,-0.033c3.71,-1.304 7.6,-2.013 11.34,-2.013c0.27,0 0.53,0.004 0.8,0.011c-0.18,0.226 -0.35,0.456 -0.52,0.687c-0.45,-0.035 -0.91,-0.061 -1.35,-0.07c-0.29,-0.008 -0.57,-0.012 -0.85,-0.012c-3.1,0 -6.3,0.485 -9.42,1.397l-0.05,0.033c-4.33,1.522 -8.42,3.843 -11.8,6.75Z" style="fill:#2f0000;fill-rule:nonzero;"/><path d="M32.192,205.721c-14.65,-9.7 -27.11,-25.611 -30.81,-38.252c-0.9,-3.027 -1.38,-6.599 -1.38,-10.252c-0.01,-5.987 1.26,-12.191 4.1,-16.561c0.02,-0.018 0.03,-0.036 0.04,-0.054c0.01,-0.016 0.02,-0.032 0.03,-0.048l-0,-0.001c1.41,-2.154 3.2,-4.14 5.25,-5.912c0.01,-0.007 0.01,-0.014 0.02,-0.02c0.01,-0.003 0.01,-0.005 0.01,-0.008c3.38,-2.907 7.47,-5.228 11.8,-6.75l0.05,-0.033c3.12,-0.912 6.32,-1.397 9.42,-1.397c0.28,0 0.56,0.004 0.85,0.012c0.44,0.009 0.9,0.035 1.35,0.07c-12.2,16.307 -23.61,44.219 -0.73,79.206Z" style="fill:#440102;fill-rule:nonzero;"/><path d="M58.322,198.273c-0.17,-0.043 -0.34,-0.097 -0.52,-0.141c-6.91,-2.026 -7.41,-9.302 -7.41,-15.953c-0,-1.114 0.02,-2.211 0.02,-3.263c-0,-1.357 -0.02,-2.638 -0.13,-3.785c-0.94,-10.023 -9.75,-16.993 -10.92,-26.756c-0.06,-0.438 -0.08,-0.86 -0.08,-1.267c-0,-9.065 12.79,-10.738 19.19,-14.114c6.93,-3.659 11.5,-11.615 16.15,-17.535c2.22,-2.809 6.93,-8.901 10.98,-8.901c1.13,0 2.21,0.474 3.17,1.627c-9.87,8.301 -52.12,47.311 -30.45,90.088Z" style="fill:#d2d3d5;fill-rule:nonzero;"/><path d="M41.972,158.231l14.12,14.115c0.13,0.135 0.35,0.135 0.49,0c0.13,-0.136 0.13,-0.355 -0,-0.491l-14.12,-14.114c-0.13,-0.135 -0.35,-0.135 -0.49,0c-0.14,0.135 -0.14,0.355 -0,0.49Z" style="fill:#c2c4c6;fill-rule:nonzero;"/><path d="M204.072,23.996c-1.5,1.612 -2.1,3.897 -3.13,5.812c-0.8,1.504 -1.51,3.063 -2.33,4.568c-0.66,1.223 -1.51,3.085 -2.69,3.918c-0.78,0.542 -1.95,-0.185 -2.78,-0.39c-1.51,-0.367 -3.16,-0.519 -4.73,-0.357c-2.72,0.259 -5.26,1.439 -6.69,3.962l-8.14,-8.129c-0,0 1.46,-3.735 1.7,-7.112l38.38,-22.136c0.01,-0.009 0.05,0.112 0.13,0.272c0.43,1.103 1.74,5.055 1.8,5.336c0.73,3.226 1.12,7.414 -0.68,10.369c-0.57,0.932 -1.34,1.69 -2.24,2.306c-0.65,0.466 -2.39,1.829 -3.21,1.786c-1.01,-0.076 -1.98,-1.072 -3.08,-1.169c-0.94,-0.075 -1.66,0.292 -2.31,0.964Z" style="fill:#fcc9a6;fill-rule:nonzero;"/><path d="M95.742,129.498c-0.09,0 -0.18,-0.039 -0.24,-0.104l-10.39,-10.39l88.85,-85.267l7.5,7.041l-85.47,88.616c-0.07,0.065 -0.15,0.104 -0.25,0.104Z" style="fill:#4d2500;fill-rule:nonzero;"/><path d="M174.192,33.293c-0.17,0 -0.34,0.065 -0.47,0.195l-88.85,84.773c-0.13,0.126 -0.21,0.303 -0.21,0.488c-0,0.19 0.07,0.368 0.2,0.498l10.39,10.392c0.13,0.128 0.31,0.205 0.49,0.205l0.01,0c0.18,0 0.36,-0.077 0.49,-0.211l85.48,-88.129c0.26,-0.271 0.26,-0.704 -0.01,-0.969l-7.02,-7.036c-0.14,-0.141 -0.32,-0.206 -0.5,-0.206Zm-0,0.693l7.03,7.035l-85.48,88.129l-10.39,-10.39l88.84,-84.774Z" style="fill:#c2c4c6;fill-rule:nonzero;"/><path d="M99.972,124.804l-10.24,-10.24c-0.14,-0.136 -0.35,-0.136 -0.49,0c-0.14,0.135 -0.14,0.354 -0,0.489l10.24,10.241c0.13,0.135 0.35,0.135 0.49,0c0.13,-0.136 0.13,-0.355 -0,-0.49Z" style="fill:#c2c4c6;fill-rule:nonzero;"/><path d="M104.652,119.976l-10.04,-10.055c-0.13,-0.136 -0.35,-0.136 -0.49,0c-0.13,0.135 -0.13,0.354 -0,0.49l10.04,10.055c0.14,0.135 0.35,0.135 0.49,0c0.14,-0.136 0.14,-0.355 -0,-0.49Z" style="fill:#c2c4c6;fill-rule:nonzero;"/><path d="M104.652,119.976l-10.04,-10.055c-0.13,-0.136 -0.35,-0.136 -0.49,0c-0.13,0.135 -0.13,0.354 -0,0.49l10.04,10.055c0.14,0.135 0.35,0.135 0.49,0c0.14,-0.136 0.14,-0.355 -0,-0.49Z" style="fill:#c2c4c6;fill-rule:nonzero;"/><path d="M109.332,115.138l-9.85,-9.862c-0.14,-0.135 -0.36,-0.135 -0.49,0c-0.14,0.135 -0.14,0.355 -0,0.491l9.85,9.861c0.14,0.135 0.36,0.135 0.49,0c0.14,-0.135 0.14,-0.355 -0,-0.49Z" style="fill:#c2c4c6;fill-rule:nonzero;"/><path d="M113.622,110.71l-9.68,-9.688c-0.13,-0.135 -0.35,-0.135 -0.49,0c-0.13,0.136 -0.13,0.355 -0,0.491l9.68,9.687c0.14,0.135 0.36,0.135 0.49,0c0.14,-0.135 0.14,-0.355 -0,-0.49Z" style="fill:#c2c4c6;fill-rule:nonzero;"/><path d="M118.502,105.699l-9.51,-9.514c-0.14,-0.136 -0.35,-0.136 -0.49,0c-0.14,0.135 -0.14,0.354 -0,0.49l9.51,9.514c0.13,0.136 0.35,0.136 0.49,0c0.14,-0.135 0.14,-0.355 -0,-0.49Z" style="fill:#c2c4c6;fill-rule:nonzero;"/><path d="M123.272,100.762l-9.32,-9.297c-0.14,-0.135 -0.36,-0.135 -0.49,0.001c-0.14,0.136 -0.14,0.355 -0,0.49l9.32,9.297c0.14,0.135 0.36,0.135 0.49,-0.001c0.14,-0.135 0.14,-0.355 -0,-0.49Z" style="fill:#c2c4c6;fill-rule:nonzero;"/><path d="M128.312,95.579l-9.12,-9.114c-0.13,-0.135 -0.35,-0.136 -0.49,-0.001c-0.13,0.136 -0.13,0.356 -0,0.491l9.12,9.114c0.13,0.136 0.35,0.136 0.49,0c0.13,-0.135 0.13,-0.355 -0,-0.49Z" style="fill:#c2c4c6;fill-rule:nonzero;"/><path d="M133.882,89.831l-8.9,-8.898c-0.14,-0.135 -0.36,-0.135 -0.49,0.001c-0.14,0.135 -0.14,0.354 -0,0.49l8.9,8.897c0.14,0.135 0.36,0.135 0.49,0c0.14,-0.135 0.14,-0.355 -0,-0.49Z" style="fill:#c2c4c6;fill-rule:nonzero;"/><path d="M138.722,84.841l-8.7,-8.713c-0.14,-0.136 -0.36,-0.136 -0.49,0c-0.14,0.135 -0.14,0.354 -0,0.49l8.7,8.713c0.13,0.135 0.35,0.135 0.49,0c0.13,-0.135 0.13,-0.355 -0,-0.49Z" style="fill:#c2c4c6;fill-rule:nonzero;"/><path d="M144.802,78.563l-8.46,-8.453c-0.14,-0.135 -0.36,-0.135 -0.49,0c-0.14,0.136 -0.14,0.355 -0,0.491l8.46,8.453c0.13,0.135 0.35,0.135 0.49,-0.001c0.13,-0.135 0.13,-0.354 -0,-0.49Z" style="fill:#c2c4c6;fill-rule:nonzero;"/><path d="M150.382,72.815l-8.26,-8.236c-0.13,-0.136 -0.35,-0.135 -0.49,0c-0.13,0.136 -0.13,0.355 -0,0.491l8.26,8.236c0.13,0.135 0.35,0.135 0.49,-0.001c0.13,-0.135 0.13,-0.355 -0,-0.49Z" style="fill:#c2c4c6;fill-rule:nonzero;"/><path d="M156.882,66.104l-7.99,-7.977c-0.13,-0.135 -0.35,-0.134 -0.49,0.001c-0.13,0.135 -0.13,0.355 -0,0.49l7.99,7.977c0.14,0.135 0.36,0.135 0.49,-0.001c0.14,-0.135 0.14,-0.355 -0,-0.49Z" style="fill:#c2c4c6;fill-rule:nonzero;"/><path d="M164.122,58.648l-7.7,-7.718c-0.13,-0.136 -0.35,-0.136 -0.49,-0.001c-0.13,0.136 -0.13,0.355 -0,0.49l7.7,7.718c0.13,0.136 0.35,0.136 0.49,0.001c0.13,-0.135 0.13,-0.355 -0,-0.49Z" style="fill:#c2c4c6;fill-rule:nonzero;"/><path d="M170.932,51.611l-7.43,-7.425c-0.14,-0.135 -0.36,-0.135 -0.49,0.001c-0.14,0.135 -0.14,0.354 -0,0.49l7.43,7.425c0.14,0.135 0.36,0.135 0.49,-0.001c0.14,-0.135 0.14,-0.355 -0,-0.49Z" style="fill:#c2c4c6;fill-rule:nonzero;"/><path d="M95.742,129.15l-3.4,-3.409l3.79,-3.795l3.35,3.348l-0,0.001l-3.74,3.855Zm4.22,-4.352l-3.34,-3.342l4.27,-4.268l3.27,3.278l-0,0.002l-4.2,4.33Zm4.68,-4.828l-3.26,-3.272l4.26,-4.269l3.2,3.199c-0,0.002 0.01,0.005 0.01,0.007l-4.21,4.335Z" style="fill:#3c0c00;"/><path d="M99.482,125.295l-0,-0.001l-3.35,-3.348l0.49,-0.49l3.34,3.342l-0.48,0.497Z" style="fill:#84674f;fill-rule:nonzero;"/><path d="M104.162,120.468l-0,-0.002l-3.27,-3.278l0.49,-0.49l3.26,3.272l-0.48,0.498Z" style="fill:#84674f;fill-rule:nonzero;"/><path d="M109.332,115.138l-3.19,-3.199l3.86,-3.869l3.13,3.13c0.01,0.003 0.01,0.006 0.01,0.009l-3.81,3.929Z" style="fill:#3c0c00;fill-rule:nonzero;"/><path d="M113.622,110.712l-0,-0.002l-3.13,-3.131l4.46,-4.454l3.06,3.064l-0,0.001l-4.39,4.522Z" style="fill:#3c0c00;fill-rule:nonzero;"/><path d="M118.492,105.692l-3.05,-3.057l4.36,-4.36l2.98,2.978c0.01,0.003 0.01,0.005 0.01,0.008l-4.3,4.431Z" style="fill:#3c0c00;fill-rule:nonzero;"/><path d="M123.272,100.763l-0,-0.001l-2.98,-2.978l4.62,-4.623l2.91,2.908l-0,0.005l-4.55,4.689Z" style="fill:#3c0c00;fill-rule:nonzero;"/><path d="M128.302,95.577l-2.9,-2.906l5.17,-5.171l2.82,2.821c-0,0.002 -0,0.004 0.01,0.006l-5.1,5.25Z" style="fill:#3c0c00;fill-rule:nonzero;"/><path d="M133.882,89.829l-2.82,-2.819l4.42,-4.427l2.75,2.748l-0,0.007l-4.35,4.491Z" style="fill:#3c0c00;fill-rule:nonzero;"/><path d="M138.722,84.84l-2.75,-2.748l5.69,-5.685l2.65,2.647c-0,0.004 -0,0.008 0.01,0.012l-5.6,5.774Z" style="fill:#3c0c00;fill-rule:nonzero;"/><path d="M144.802,78.568l-0,-0.005l-2.65,-2.646l5.17,-5.173l2.57,2.562c-0,0.003 -0,0.006 0.01,0.009l-5.1,5.253Z" style="fill:#3c0c00;fill-rule:nonzero;"/><path d="M150.382,72.817l-0,-0.002l-2.57,-2.561l6.12,-6.12l2.46,2.461c0.01,0.003 0.01,0.007 0.01,0.01l-6.02,6.212Z" style="fill:#3c0c00;fill-rule:nonzero;"/><path d="M156.892,66.108c-0.01,-0.001 -0.01,-0.003 -0.01,-0.004l-2.46,-2.46l6.86,-6.862l2.35,2.355c-0,0.004 -0,0.007 0.01,0.01l-6.75,6.961Z" style="fill:#3c0c00;fill-rule:nonzero;"/><path d="M164.122,58.65l-0,-0.002l-2.35,-2.356l6.43,-6.431l2.24,2.241c0.01,0.005 0.01,0.01 0.02,0.014l-6.34,6.534Z" style="fill:#3c0c00;fill-rule:nonzero;"/><path d="M170.942,51.619c-0,-0.003 -0.01,-0.006 -0.01,-0.008l-2.24,-2.24l10.44,-10.443l2.09,2.093l-10.28,10.598Z" style="fill:#3c0c00;fill-rule:nonzero;"/><path d="M170.942,51.619l10.28,-10.598l-10.28,10.598Zm10.28,-10.598l-2.09,-2.093l-0,-0.006l2.09,2.099Z" style="fill:#84674f;fill-rule:nonzero;"/><path d="M108.852,115.635c-0,-0.002 -0.01,-0.005 -0.01,-0.007l-3.2,-3.199l0.5,-0.49l3.19,3.199l-0.48,0.497Z" style="fill:#84674f;fill-rule:nonzero;"/><path d="M113.142,111.209c-0,-0.003 -0,-0.006 -0.01,-0.009l-3.13,-3.13l0.49,-0.491l3.13,3.131l-0,0.002l-0.48,0.497Z" style="fill:#84674f;fill-rule:nonzero;"/><path d="M118.012,106.19l-0,-0.001l-3.06,-3.064l0.49,-0.49l3.05,3.057l-0.48,0.498Z" style="fill:#84674f;fill-rule:nonzero;"/><path d="M122.792,101.261c-0,-0.003 -0,-0.005 -0.01,-0.008l-2.98,-2.978l0.49,-0.491l2.98,2.978l-0,0.001l-0.48,0.498Z" style="fill:#84674f;fill-rule:nonzero;"/><path d="M127.822,96.074l-0,-0.005l-2.91,-2.908l0.49,-0.49l2.9,2.906l-0.48,0.497Z" style="fill:#84674f;fill-rule:nonzero;"/><path d="M133.402,90.327c-0.01,-0.002 -0.01,-0.004 -0.01,-0.006l-2.82,-2.821l0.49,-0.49l2.82,2.819l-0.48,0.498Z" style="fill:#84674f;fill-rule:nonzero;"/><path d="M138.232,85.338l-0,-0.007l-2.75,-2.748l0.49,-0.491l2.75,2.748l-0.49,0.498Z" style="fill:#84674f;fill-rule:nonzero;"/><path d="M144.322,79.066c-0.01,-0.004 -0.01,-0.008 -0.01,-0.012l-2.65,-2.647l0.49,-0.49l2.65,2.646l-0,0.005l-0.48,0.498Z" style="fill:#84674f;fill-rule:nonzero;"/><path d="M149.902,73.315c-0.01,-0.003 -0.01,-0.006 -0.01,-0.009l-2.57,-2.562l0.49,-0.49l2.57,2.561l-0,0.002l-0.48,0.498Z" style="fill:#84674f;fill-rule:nonzero;"/><path d="M156.402,66.605c-0,-0.003 -0,-0.007 -0.01,-0.01l-2.46,-2.461l0.49,-0.49l2.46,2.46c-0,0.001 -0,0.003 0.01,0.004l-0.49,0.497Z" style="fill:#84674f;fill-rule:nonzero;"/><path d="M163.642,59.147c-0.01,-0.003 -0.01,-0.006 -0.01,-0.01l-2.35,-2.355l0.49,-0.49l2.35,2.356l-0,0.002l-0.48,0.497Z" style="fill:#84674f;fill-rule:nonzero;"/><path d="M170.462,52.116c-0.01,-0.004 -0.01,-0.009 -0.02,-0.014l-2.24,-2.241l0.49,-0.49l2.24,2.24c-0,0.002 0.01,0.005 0.01,0.008l-0.48,0.497Z" style="fill:#84674f;fill-rule:nonzero;"/><path d="M209.342,10.953c-0.55,0.563 -1.47,0.563 -2.03,0l-0.15,-0.185c-0.41,-0.573 -0.36,-1.352 0.14,-1.862c0.57,-0.562 1.48,-0.562 2.04,0.012c0.21,0.217 0.33,0.465 0.39,0.758c0.09,0.443 -0.04,0.93 -0.39,1.277Z" style="fill:#b6937b;fill-rule:nonzero;"/><path d="M209.342,10.953c-0.55,0.563 -1.47,0.563 -2.03,0l-0.15,-0.185c-0.08,-0.454 0.05,-0.942 0.39,-1.288c0.55,-0.562 1.47,-0.562 2.04,0l0.14,0.196c0.09,0.443 -0.04,0.93 -0.39,1.277Z" style="fill:#fff;fill-rule:nonzero;"/><path d="M204.112,14.145c-0.56,0.564 -1.47,0.564 -2.03,0l-0.15,-0.184c-0.41,-0.563 -0.36,-1.342 0.15,-1.861c0.55,-0.563 1.46,-0.563 2.03,0c0.22,0.216 0.34,0.487 0.4,0.747c0.08,0.465 -0.05,0.942 -0.4,1.298Z" style="fill:#b6937b;fill-rule:nonzero;"/><path d="M204.112,14.145c-0.56,0.564 -1.47,0.564 -2.03,0l-0.15,-0.184c-0.08,-0.454 0.05,-0.93 0.39,-1.287c0.56,-0.563 1.47,-0.563 2.04,0.01l0.15,0.163c0.08,0.465 -0.05,0.942 -0.4,1.298Z" style="fill:#fff;fill-rule:nonzero;"/><path d="M199.252,16.971c-0.56,0.552 -1.46,0.552 -2.02,0l-0.16,-0.196c-0.41,-0.562 -0.35,-1.352 0.15,-1.85c0.57,-0.552 1.46,-0.552 2.03,0c0.22,0.217 0.35,0.487 0.4,0.758c0.08,0.432 -0.04,0.93 -0.4,1.288Z" style="fill:#b6937b;fill-rule:nonzero;"/><path d="M199.252,16.971c-0.56,0.552 -1.46,0.552 -2.02,0l-0.16,-0.196c-0.08,-0.454 0.05,-0.941 0.4,-1.277c0.55,-0.573 1.47,-0.573 2.03,0l0.15,0.185c0.08,0.432 -0.04,0.93 -0.4,1.288Z" style="fill:#fff;fill-rule:nonzero;"/><path d="M194.042,19.785c-0.57,0.563 -1.48,0.563 -2.04,0l-0.15,-0.184c-0.41,-0.574 -0.36,-1.353 0.14,-1.862c0.56,-0.563 1.48,-0.563 2.04,0.011c0.21,0.205 0.34,0.465 0.39,0.747c0.08,0.444 -0.04,0.931 -0.38,1.288Z" style="fill:#b6937b;fill-rule:nonzero;"/><path d="M194.042,19.785c-0.57,0.563 -1.48,0.563 -2.04,0l-0.15,-0.184c-0.08,-0.444 0.05,-0.942 0.39,-1.298c0.56,-0.542 1.47,-0.542 2.03,0.009l0.15,0.185c0.08,0.444 -0.04,0.931 -0.38,1.288Z" style="fill:#fff;fill-rule:nonzero;"/><path d="M188.592,23.184c-0.56,0.552 -1.46,0.552 -2.02,0l-0.16,-0.184c-0.41,-0.574 -0.36,-1.354 0.15,-1.861c0.56,-0.575 1.47,-0.575 2.03,0.009c0.22,0.217 0.34,0.466 0.39,0.747c0.1,0.445 -0.04,0.943 -0.39,1.289Z" style="fill:#b6937b;fill-rule:nonzero;"/><path d="M188.592,23.184c-0.56,0.552 -1.46,0.552 -2.02,0l-0.16,-0.184c-0.08,-0.455 0.05,-0.941 0.39,-1.289c0.56,-0.551 1.48,-0.551 2.04,0l0.14,0.184c0.1,0.445 -0.04,0.943 -0.39,1.289Z" style="fill:#fff;fill-rule:nonzero;"/><path d="M183.742,25.965c-0.56,0.574 -1.47,0.574 -2.03,0l-0.15,-0.172c-0.41,-0.574 -0.36,-1.343 0.15,-1.852c0.55,-0.574 1.46,-0.574 2.03,0c0.21,0.205 0.33,0.488 0.4,0.758c0.08,0.443 -0.05,0.92 -0.4,1.266Z" style="fill:#b6937b;fill-rule:nonzero;"/><path d="M183.742,25.965c-0.56,0.574 -1.47,0.574 -2.03,0l-0.15,-0.172c-0.09,-0.444 0.04,-0.932 0.38,-1.289c0.56,-0.552 1.48,-0.552 2.05,0.012l0.15,0.183c0.08,0.443 -0.05,0.92 -0.4,1.266Z" style="fill:#fff;fill-rule:nonzero;"/><path d="M195.242,38.491c-0.69,0 -1.49,-0.436 -2.1,-0.587c-1.11,-0.268 -2.28,-0.422 -3.45,-0.422c-0.43,0 -0.86,0.021 -1.28,0.065c19.9,-14.396 24.37,-27.916 25.38,-33.143c0.43,1.103 1.74,5.055 1.8,5.336c0.34,1.512 0.61,3.236 0.61,4.945c-0,1.937 -0.34,3.855 -1.29,5.424c-0.57,0.932 -1.34,1.69 -2.24,2.306c-0.64,0.459 -2.34,1.787 -3.17,1.787c-0.02,0 -0.03,0 -0.04,-0.001c-1.01,-0.076 -1.98,-1.072 -3.08,-1.169c-0.08,-0.007 -0.16,-0.01 -0.24,-0.01c-0.83,0 -1.48,0.36 -2.07,0.974c-1.5,1.612 -2.1,3.897 -3.13,5.812c-0.8,1.504 -1.51,3.063 -2.33,4.568c-0.66,1.223 -1.51,3.085 -2.69,3.918c-0.21,0.142 -0.44,0.197 -0.68,0.197Z" style="fill:#fed5b5;fill-rule:nonzero;"/><path d="M56.222,174.504l-15.33,-15.349l7.78,-7.772l15.33,15.338l-7.78,7.783Z" style="fill:#939598;fill-rule:nonzero;"/><path d="M92.032,139.791c-0.85,0.844 -2.06,1.007 -2.7,0.357l-14.89,-14.904c-0.66,-0.661 -0.49,-1.862 0.35,-2.707c0.83,-0.833 2.03,-0.984 2.69,-0.346l14.89,14.894c0.65,0.66 0.5,1.862 -0.34,2.706Z" style="fill:#a1a3a5;fill-rule:nonzero;"/><path d="M92.472,139.348c-0.84,0.833 -2.05,0.996 -2.7,0.345l-14.88,-14.893c-0.66,-0.65 -0.5,-1.851 0.35,-2.706c0.83,-0.823 2.04,-0.996 2.68,-0.336l14.9,14.883c0.65,0.66 0.5,1.862 -0.35,2.707Z" style="fill:#fff;fill-rule:nonzero;"/><path d="M77.832,124.702c-0.36,0.357 -0.95,0.357 -1.31,0c-0.36,-0.368 -0.36,-0.952 -0,-1.307c0.36,-0.36 0.95,-0.36 1.31,0c0.35,0.355 0.35,0.939 -0,1.307Z" style="fill:#696a6c;fill-rule:nonzero;"/><path d="M80.422,127.301c-0.36,0.367 -0.94,0.367 -1.3,0c-0.37,-0.369 -0.37,-0.943 -0,-1.311c0.36,-0.357 0.94,-0.357 1.3,0c0.37,0.368 0.37,0.942 -0,1.311Z" style="fill:#696a6c;fill-rule:nonzero;"/><path d="M83.072,129.952c-0.36,0.357 -0.95,0.357 -1.31,-0.011c-0.36,-0.346 -0.36,-0.953 -0,-1.31c0.36,-0.367 0.95,-0.367 1.31,0c0.36,0.357 0.36,0.964 -0,1.321Z" style="fill:#696a6c;fill-rule:nonzero;"/><path d="M85.632,132.539c-0.36,0.367 -0.95,0.367 -1.31,0c-0.37,-0.357 -0.37,-0.941 -0,-1.299c0.36,-0.368 0.95,-0.368 1.31,0c0.36,0.358 0.36,0.942 -0,1.299Z" style="fill:#696a6c;fill-rule:nonzero;"/><path d="M88.232,135.147c-0.36,0.369 -0.94,0.369 -1.31,0c-0.36,-0.356 -0.36,-0.942 -0,-1.309c0.37,-0.368 0.95,-0.368 1.31,0c0.37,0.367 0.37,0.953 -0,1.309Z" style="fill:#696a6c;fill-rule:nonzero;"/><path d="M90.872,137.789c-0.36,0.367 -0.95,0.367 -1.31,0c-0.36,-0.357 -0.36,-0.953 -0,-1.299c0.36,-0.369 0.95,-0.369 1.31,0c0.36,0.346 0.36,0.942 -0,1.299Z" style="fill:#696a6c;fill-rule:nonzero;"/><path d="M82.892,148.926c-0.84,0.844 -2.05,0.996 -2.69,0.357l-14.91,-14.904c-0.64,-0.65 -0.49,-1.852 0.36,-2.695c0.83,-0.844 2.05,-1.006 2.69,-0.346l14.9,14.893c0.65,0.65 0.49,1.872 -0.35,2.695Z" style="fill:#a1a3a5;fill-rule:nonzero;"/><path d="M83.342,148.482c-0.84,0.834 -2.05,0.986 -2.7,0.347l-14.9,-14.884c-0.65,-0.67 -0.49,-1.861 0.35,-2.705c0.84,-0.845 2.06,-0.996 2.7,-0.357l14.89,14.904c0.65,0.65 0.5,1.862 -0.34,2.695Z" style="fill:#fff;fill-rule:nonzero;"/><path d="M68.692,133.838c-0.36,0.367 -0.95,0.367 -1.3,0c-0.37,-0.368 -0.37,-0.953 -0,-1.311c0.35,-0.356 0.94,-0.356 1.3,0c0.36,0.358 0.36,0.943 -0,1.311Z" style="fill:#696a6c;fill-rule:nonzero;"/><path d="M71.292,136.435c-0.36,0.358 -0.94,0.358 -1.31,0c-0.36,-0.357 -0.36,-0.953 0.01,-1.309c0.36,-0.358 0.94,-0.358 1.3,0c0.37,0.356 0.37,0.952 -0,1.309Z" style="fill:#696a6c;fill-rule:nonzero;"/><path d="M73.942,139.088c-0.37,0.357 -0.95,0.357 -1.32,0c-0.36,-0.369 -0.36,-0.953 -0,-1.321c0.37,-0.357 0.95,-0.357 1.32,0c0.36,0.368 0.36,0.952 -0,1.321Z" style="fill:#696a6c;fill-rule:nonzero;"/><path d="M76.492,141.674c-0.36,0.369 -0.95,0.369 -1.31,0c-0.36,-0.357 -0.36,-0.942 -0,-1.309c0.36,-0.357 0.95,-0.357 1.31,0c0.37,0.367 0.37,0.952 -0,1.309Z" style="fill:#696a6c;fill-rule:nonzero;"/><path d="M79.092,144.283c-0.36,0.358 -0.94,0.358 -1.3,0c-0.36,-0.357 -0.36,-0.941 -0,-1.31c0.36,-0.357 0.94,-0.357 1.3,0c0.38,0.369 0.38,0.953 -0,1.31Z" style="fill:#696a6c;fill-rule:nonzero;"/><path d="M81.742,146.935c-0.36,0.357 -0.95,0.357 -1.32,0c-0.36,-0.378 -0.36,-0.953 -0,-1.321c0.37,-0.356 0.96,-0.356 1.32,0c0.36,0.368 0.36,0.943 -0,1.321Z" style="fill:#696a6c;fill-rule:nonzero;"/><path d="M73.362,156.839c-0.38,1.126 -1.38,1.807 -2.26,1.514l-19.99,-6.667c-0.86,-0.281 -1.26,-1.439 -0.88,-2.565c0.36,-1.125 1.38,-1.808 2.25,-1.516l19.98,6.668c0.87,0.282 1.28,1.44 0.9,2.566Z" style="fill:#a1a3a5;fill-rule:nonzero;"/><path d="M73.562,156.232c-0.38,1.148 -1.38,1.819 -2.26,1.527l-19.99,-6.654c-0.87,-0.295 -1.26,-1.453 -0.89,-2.568c0.37,-1.137 1.39,-1.818 2.26,-1.516l19.97,6.657c0.89,0.281 1.29,1.439 0.91,2.554Z" style="fill:#fff;fill-rule:nonzero;"/><path d="M53.922,149.684c-0.17,0.498 -0.69,0.757 -1.18,0.595c-0.49,-0.162 -0.75,-0.681 -0.59,-1.179c0.17,-0.477 0.69,-0.747 1.17,-0.575c0.49,0.153 0.76,0.683 0.6,1.159Z" style="fill:#696a6c;fill-rule:nonzero;"/><path d="M57.412,150.863c-0.17,0.467 -0.7,0.737 -1.18,0.585c-0.48,-0.162 -0.75,-0.692 -0.59,-1.18c0.17,-0.487 0.69,-0.757 1.18,-0.584c0.47,0.152 0.74,0.693 0.59,1.179Z" style="fill:#696a6c;fill-rule:nonzero;"/><path d="M60.952,152.033c-0.17,0.486 -0.7,0.746 -1.18,0.596c-0.48,-0.163 -0.74,-0.694 -0.58,-1.17c0.17,-0.498 0.69,-0.758 1.17,-0.596c0.49,0.163 0.75,0.694 0.59,1.17Z" style="fill:#696a6c;fill-rule:nonzero;"/><path d="M64.402,153.224c-0.17,0.487 -0.69,0.747 -1.17,0.585c-0.49,-0.163 -0.75,-0.694 -0.59,-1.17c0.16,-0.487 0.68,-0.758 1.17,-0.595c0.49,0.162 0.75,0.681 0.59,1.18Z" style="fill:#696a6c;fill-rule:nonzero;"/><path d="M67.882,154.382c-0.16,0.487 -0.69,0.747 -1.16,0.585c-0.48,-0.163 -0.74,-0.683 -0.59,-1.17c0.16,-0.487 0.68,-0.758 1.18,-0.584c0.48,0.162 0.74,0.681 0.57,1.169Z" style="fill:#696a6c;fill-rule:nonzero;"/><path d="M71.442,155.561c-0.16,0.488 -0.7,0.748 -1.18,0.595c-0.48,-0.172 -0.75,-0.681 -0.58,-1.189c0.16,-0.466 0.68,-0.748 1.17,-0.575c0.49,0.152 0.75,0.694 0.59,1.169Z" style="fill:#696a6c;fill-rule:nonzero;"/><path d="M51.902,155.908l-6.41,6.408l-1.83,-1.83l6.41,-6.418l1.83,1.84Z" style="fill:#afb1b4;fill-rule:nonzero;"/><path d="M51.262,155.496l-4.11,4.104c-0.22,0.215 -0.56,0.215 -0.76,0c-0.21,-0.207 -0.21,-0.542 -0,-0.758l4.11,-4.104l0.14,-0.096l0.71,0.704l-0.09,0.15Z" style="fill:#4f4f51;fill-rule:nonzero;"/><path d="M53.732,157.737l-6.41,6.407l-1.83,-1.828l6.41,-6.408l1.83,1.829Z" style="fill:#afb1b4;fill-rule:nonzero;"/><path d="M53.082,157.326l-4.1,4.102c-0.21,0.216 -0.55,0.216 -0.76,0c-0.21,-0.205 -0.21,-0.541 -0,-0.768l4.1,-4.092l0.14,-0.097l0.73,0.714l-0.11,0.141Z" style="fill:#4f4f51;fill-rule:nonzero;"/><path d="M55.562,159.566l-6.4,6.409l-1.84,-1.831l6.41,-6.407l1.83,1.829Z" style="fill:#afb1b4;fill-rule:nonzero;"/><path d="M54.922,159.155l-4.1,4.103c-0.23,0.217 -0.56,0.205 -0.77,0c-0.21,-0.206 -0.21,-0.553 -0,-0.77l4.11,-4.101l0.12,-0.098l0.72,0.726l-0.08,0.14Z" style="fill:#4f4f51;fill-rule:nonzero;"/><path d="M57.402,161.396l-6.41,6.408l-1.83,-1.829l6.4,-6.409l1.84,1.83Z" style="fill:#afb1b4;fill-rule:nonzero;"/><path d="M56.752,160.984l-4.1,4.103c-0.23,0.216 -0.56,0.206 -0.76,0c-0.21,-0.206 -0.22,-0.542 -0,-0.758l4.09,-4.113l0.15,-0.087l0.72,0.715l-0.1,0.14Z" style="fill:#4f4f51;fill-rule:nonzero;"/><path d="M59.232,163.236l-6.41,6.397l-1.83,-1.829l6.41,-6.408l1.83,1.84Z" style="fill:#afb1b4;fill-rule:nonzero;"/><path d="M58.582,162.824l-4.1,4.103c-0.21,0.206 -0.55,0.206 -0.76,0c-0.22,-0.216 -0.22,-0.552 -0.01,-0.769l4.11,-4.101l0.14,-0.098l0.72,0.714l-0.1,0.151Z" style="fill:#4f4f51;fill-rule:nonzero;"/><path d="M61.062,165.064l-6.41,6.409l-1.83,-1.84l6.41,-6.397l1.83,1.828Z" style="fill:#afb1b4;fill-rule:nonzero;"/><path d="M60.412,164.654l-4.1,4.102c-0.21,0.206 -0.55,0.206 -0.76,0c-0.22,-0.205 -0.22,-0.552 -0,-0.758l4.1,-4.102l0.14,-0.097l0.72,0.715l-0.1,0.14Z" style="fill:#4f4f51;fill-rule:nonzero;"/><path d="M40.952,158.527c-0.2,0.198 -0.2,0.509 -0,0.715c0.18,0.184 0.51,0.184 0.7,0l7.08,-7.079c0.19,-0.194 0.19,-0.521 -0,-0.704c-0.2,-0.205 -0.51,-0.205 -0.71,0l-7.07,7.068Z" style="fill:#939598;fill-rule:nonzero;"/><path d="M56.222,173.801c-0.2,0.194 -0.2,0.508 -0,0.703c0.19,0.195 0.51,0.195 0.7,0l7.08,-7.079c0.19,-0.195 0.19,-0.52 -0,-0.704c-0.2,-0.195 -0.51,-0.195 -0.71,0l-7.07,7.08Z" style="fill:#939598;fill-rule:nonzero;"/><path d="M94.412,142.605c-0.31,0.303 -0.81,0.303 -1.13,0c-0.32,-0.314 -0.32,-0.822 -0,-1.136c0.32,-0.315 0.82,-0.315 1.13,0c0.33,0.314 0.33,0.822 -0,1.136Z" style="fill:#4f4f51;fill-rule:nonzero;"/><path d="M74.312,121.369c-0.31,0.314 -0.82,0.314 -1.13,0c-0.31,-0.325 -0.31,-0.834 -0,-1.137c0.31,-0.314 0.82,-0.314 1.13,0c0.31,0.303 0.31,0.812 -0,1.137Z" style="fill:#4f4f51;fill-rule:nonzero;"/><path d="M164.422,52.333c-0.5,0.509 -1.31,0.509 -1.8,0c-0.51,-0.498 -0.51,-1.31 -0,-1.797c0.49,-0.509 1.3,-0.509 1.8,0c0.5,0.487 0.5,1.299 -0,1.797Z" style="fill:#fff;fill-rule:nonzero;"/><path d="M149.772,67.086c-0.5,0.509 -1.3,0.509 -1.8,0c-0.49,-0.495 -0.49,-1.299 -0,-1.808c0.5,-0.487 1.3,-0.487 1.8,0c0.51,0.509 0.51,1.313 -0,1.808Z" style="fill:#fff;fill-rule:nonzero;"/><path d="M138.162,78.711c-0.5,0.487 -1.31,0.487 -1.81,0c-0.48,-0.498 -0.48,-1.32 -0,-1.808c0.5,-0.509 1.31,-0.509 1.81,0c0.5,0.488 0.5,1.31 -0,1.808Z" style="fill:#fff;fill-rule:nonzero;"/><path d="M127.562,89.308c-0.5,0.498 -1.31,0.498 -1.81,0c-0.5,-0.498 -0.5,-1.31 -0,-1.808c0.5,-0.498 1.31,-0.498 1.81,0c0.49,0.498 0.49,1.31 -0,1.808Z" style="fill:#fff;fill-rule:nonzero;"/><path d="M114.862,97.35c-0.5,0.509 -1.32,0.509 -1.82,0c-0.48,-0.499 -0.49,-1.31 -0,-1.807c0.5,-0.488 1.32,-0.488 1.82,0c0.49,0.497 0.49,1.308 -0,1.807Z" style="fill:#fff;fill-rule:nonzero;"/><path d="M119.322,101.831c-0.5,0.498 -1.3,0.498 -1.8,0c-0.5,-0.509 -0.5,-1.31 -0,-1.818c0.5,-0.488 1.3,-0.488 1.8,0c0.5,0.508 0.5,1.309 -0,1.818Z" style="fill:#fff;fill-rule:nonzero;"/><path d="M107.382,109.04c-0.5,0.501 -1.3,0.501 -1.8,0c-0.5,-0.498 -0.5,-1.31 -0,-1.797c0.5,-0.498 1.3,-0.498 1.8,0c0.5,0.487 0.5,1.299 -0,1.797Z" style="fill:#fff;fill-rule:nonzero;"/><path d="M97.942,118.662c-0.5,0.51 -1.3,0.51 -1.8,0c-0.5,-0.486 -0.5,-1.287 -0,-1.785c0.5,-0.51 1.3,-0.51 1.8,0c0.5,0.498 0.5,1.299 -0,1.785Z" style="fill:#fff;fill-rule:nonzero;"/><path d="M180.652,40.45l-126.58,129.401l0.37,0.364l126.58,-129.401" style="fill:#919396;fill-rule:nonzero;"/><path d="M179.582,39.391l-127.16,128.436l0.37,0.366l127.16,-128.436" style="fill:#919396;fill-rule:nonzero;"/><path d="M178.362,38.164l-127.99,127.984l0.36,0.368l128,-127.985" style="fill:#919396;fill-rule:nonzero;"/><path d="M176.942,36.736l-128.23,127.755l0.37,0.369l128.23,-127.756" style="fill:#919396;fill-rule:nonzero;"/><path d="M175.382,35.176l-128.6,127.377l0.36,0.37l128.61,-127.377" style="fill:#919396;fill-rule:nonzero;"/><path d="M174.322,34.113l-129.96,126.014l0.36,0.373l129.96,-126.014" style="fill:#919396;fill-rule:nonzero;"/><path d="M181.222,40.634l27.42,-30.243l-0.38,-0.349l-27.43,30.242" style="fill:#919396;fill-rule:nonzero;"/><path d="M202.882,12.957l-23.12,26.258l0.39,0.343l23.12,-26.257" style="fill:#919396;fill-rule:nonzero;"/><path d="M198.242,15.963l-19.77,21.951l0.39,0.348l19.77,-21.951" style="fill:#919396;fill-rule:nonzero;"/><path d="M192.942,18.877l-15.7,17.795l0.39,0.344l15.7,-17.795" style="fill:#919396;fill-rule:nonzero;"/><path d="M187.602,22.183l-12.04,12.805l0.38,0.356l12.04,-12.805" style="fill:#919396;fill-rule:nonzero;"/><path d="M182.652,25.066l-8.09,8.941l0.39,0.349l8.09,-8.941" style="fill:#919396;fill-rule:nonzero;"/><path d="M208.862,10.443c-0.25,0.239 -0.65,0.239 -0.88,0c-0.25,-0.248 -0.25,-0.638 -0,-0.886c0.23,-0.239 0.63,-0.239 0.88,0c0.25,0.248 0.25,0.638 -0,0.886Z" style="fill:#919396;fill-rule:nonzero;"/><path d="M203.542,13.572c-0.24,0.238 -0.65,0.238 -0.89,0c-0.24,-0.249 -0.24,-0.66 -0,-0.898c0.24,-0.239 0.65,-0.239 0.89,0c0.24,0.238 0.24,0.649 -0,0.898Z" style="fill:#919396;fill-rule:nonzero;"/><path d="M198.652,16.516c-0.24,0.25 -0.64,0.25 -0.88,0c-0.25,-0.239 -0.25,-0.639 -0,-0.887c0.24,-0.238 0.64,-0.238 0.88,0c0.25,0.248 0.25,0.648 -0,0.887Z" style="fill:#919396;fill-rule:nonzero;"/><path d="M193.472,19.385c-0.25,0.238 -0.65,0.238 -0.9,0c-0.25,-0.239 -0.25,-0.651 -0,-0.899c0.25,-0.249 0.65,-0.249 0.9,0c0.24,0.248 0.24,0.66 -0,0.899Z" style="fill:#919396;fill-rule:nonzero;"/><path d="M188.172,22.728c-0.25,0.25 -0.64,0.25 -0.89,0.012c-0.24,-0.238 -0.24,-0.65 -0,-0.898c0.25,-0.249 0.64,-0.249 0.89,0c0.25,0.248 0.25,0.66 -0,0.886Z" style="fill:#919396;fill-rule:nonzero;"/><path d="M183.172,25.435c-0.24,0.239 -0.64,0.239 -0.88,0c-0.25,-0.238 -0.25,-0.628 -0,-0.888c0.24,-0.238 0.64,-0.238 0.88,0c0.25,0.26 0.25,0.65 -0,0.888Z" style="fill:#919396;fill-rule:nonzero;"/></g></g></g></svg>