<?xml version="1.0" encoding="UTF-8" standalone="no"?><!DOCTYPE svg PUBLIC "-//W3C//DTD SVG 1.1//EN" "http://www.w3.org/Graphics/SVG/1.1/DTD/svg11.dtd"><svg width="100%" height="100%" viewBox="0 0 164 217" version="1.1" xmlns="http://www.w3.org/2000/svg" xmlns:xlink="http://www.w3.org/1999/xlink" xml:space="preserve" xmlns:serif="http://www.serif.com/" style="fill-rule:evenodd;clip-rule:evenodd;stroke-linejoin:round;stroke-miterlimit:2;"><g><g><g><path d="M18.29,201.231l-0,10.314l0.18,-0c1.56,2.479 13.11,4.504 27.16,4.644c15.119,0.165 27.4,-1.913 27.42,-4.644l-0,-10.314l-54.76,-0Z" style="fill:#f4b770;fill-rule:nonzero;"/><path d="M73.05,201.231c-0,2.738 -12.27,4.936 -27.38,4.936c-15.11,-0 -27.38,-2.198 -27.38,-4.936c-0,-2.707 12.27,-4.915 27.38,-4.915c15.11,-0 27.38,2.208 27.38,4.915Z" style="fill:#dea862;fill-rule:nonzero;"/><path d="M159.12,50.051c-18.76,31.39 -36.53,63.31 -54.351,95.219c-5.439,9.731 -10.919,19.418 -16.579,29.03c-4.451,7.556 -10.181,14.894 -13.211,23.185c-1.599,4.394 -2.349,5.076 -7.049,5.824l-0.25,0.043c-6.87,1.072 -13.73,1.895 -20.54,3.323c2.28,-3.052 4.57,-6.105 6.83,-9.178c25.37,-34.302 48.82,-69.719 71.34,-105.979c3.5,-5.617 6.99,-11.258 10.46,-16.874c1.09,-1.765 3.32,-4.698 5.2,-7.87c2.5,-4.265 4.36,-8.962 1.95,-11.906c-4.04,-4.914 -13.71,6.462 -16.83,8.043c-7.59,3.875 -16.87,5.064 -24.92,1.893c-6.34,-2.478 -12.14,-7.706 -16.53,-12.804c0,-0 -34.21,-48.362 -66.35,-26.346l2.64,-20.414c0.14,-0.065 0.28,-0.13 0.42,-0.171c5.86,-2.654 12.14,-4.537 18.57,-4.981c16.38,-1.115 30.29,8.561 40.62,20.446c7.76,8.929 12.42,23.553 23,29.517c5.29,2.977 14.03,1.614 19.13,-0.92c5.91,-2.933 10.58,-7.804 16.29,-11.051c4.27,-2.404 19.27,-7.74 23.6,-3.29c3.22,3.29 -1.66,12.285 -3.44,15.261Z" style="fill:#dea862;fill-rule:nonzero;"/><path d="M33.56,201.739l-11.08,0.747l-2.56,-37.884l-0.25,-3.832l-1.93,-28.586l-0.27,-3.832l-1.99,-29.701l-0.09,-1.244l-0.25,-3.81l-1.33,-19.7l-0.27,-3.821l-1.51,-22.374l-0.26,-3.831l0,-0.009l-2.63,-38.914l11.08,-0.758l2.05,30.404l0.25,3.832l1.51,22.373l0.27,3.832l1.33,19.668l0.25,3.842l2.1,30.945l0.11,1.744l0.14,2.056l1.93,28.608l0.26,3.832l3.14,46.413Z" style="fill:#dd995e;fill-rule:nonzero;"/><path d="M72.58,200.495c-0,2.326 -6.311,4.221 -14.1,4.221c-7.78,-0 -14.09,-1.895 -14.09,-4.221c0,-2.317 6.31,-4.189 14.09,-4.189c7.789,-0 14.1,1.872 14.1,4.189Z" style="fill:#dd995e;fill-rule:nonzero;"/><path d="M38.66,14.451c-0,1.169 -0.77,2.165 -1.84,2.489c-0.24,0.055 -0.5,0.119 -0.76,0.119c-1.44,-0 -2.59,-1.179 -2.59,-2.608c-0,-1.45 1.15,-2.609 2.59,-2.609c0.61,-0 1.17,0.206 1.61,0.563c0.61,0.466 0.99,1.201 0.99,2.046Z" style="fill:#c48954;fill-rule:nonzero;"/><path d="M36.82,16.94c-1.26,-0.043 -2.25,-1.071 -2.25,-2.338c-0,-1.287 1.04,-2.338 2.33,-2.338c0.27,-0 0.53,0.055 0.77,0.141c0.61,0.466 0.99,1.201 0.99,2.046c-0,1.169 -0.77,2.165 -1.84,2.489Z" style="fill:#9d5528;fill-rule:nonzero;"/><path d="M50.75,16.107c0,1.169 -0.77,2.176 -1.84,2.501c-0.24,0.053 -0.49,0.118 -0.76,0.118c-1.44,-0 -2.6,-1.179 -2.6,-2.619c-0,-1.45 1.16,-2.598 2.6,-2.598c0.62,-0 1.17,0.207 1.61,0.566c0.61,0.473 0.99,1.199 0.99,2.032Z" style="fill:#c48954;fill-rule:nonzero;"/><path d="M48.91,18.608c-1.25,-0.044 -2.25,-1.069 -2.25,-2.339c-0,-1.288 1.04,-2.327 2.33,-2.327c0.27,-0 0.54,0.043 0.77,0.133c0.61,0.473 0.99,1.199 0.99,2.032c-0,1.169 -0.77,2.176 -1.84,2.501Z" style="fill:#9d5528;fill-rule:nonzero;"/><path d="M62.92,22.634c0,1.169 -0.78,2.165 -1.85,2.49c-0.22,0.064 -0.49,0.107 -0.75,0.107c-1.44,-0 -2.61,-1.18 -2.61,-2.597c-0,-1.45 1.17,-2.619 2.61,-2.619c0.6,-0 1.169,0.216 1.61,0.574c0.6,0.464 0.99,1.211 0.99,2.045Z" style="fill:#c48954;fill-rule:nonzero;"/><path d="M61.729,24.822c-0.039,-0.547 -0.5,-0.966 -1.039,-0.966c-0.02,-0 -0.05,0.001 -0.07,0.002c-0.45,0.029 -0.81,0.339 -0.93,0.747c-0.53,-0.429 -0.86,-1.084 -0.86,-1.819c-0,-1.277 1.04,-2.328 2.32,-2.328c0.27,-0 0.54,0.033 0.78,0.131c0.6,0.464 0.99,1.211 0.99,2.045c0,0.915 -0.48,1.724 -1.191,2.188Z" style="fill:#9d5528;fill-rule:nonzero;"/><path d="M73.489,30.016c-0,1.168 -0.779,2.164 -1.839,2.489c-0.24,0.066 -0.51,0.109 -0.77,0.109c-1.43,-0 -2.6,-1.158 -2.6,-2.598c-0,-1.451 1.17,-2.609 2.6,-2.609c0.619,-0 1.17,0.206 1.619,0.564c0.601,0.475 0.99,1.201 0.99,2.045Z" style="fill:#c48954;fill-rule:nonzero;"/><path d="M72.15,32.289c-0.131,-0.419 -0.53,-0.715 -0.98,-0.715c-0.03,-0 -0.05,0.001 -0.07,0.002c-0.331,0.022 -0.621,0.197 -0.79,0.452c-0.561,-0.425 -0.91,-1.093 -0.91,-1.85c0,-1.298 1.04,-2.337 2.319,-2.337c0.27,-0 0.53,0.042 0.78,0.13c0.601,0.475 0.99,1.201 0.99,2.045c-0,0.973 -0.539,1.827 -1.339,2.273Z" style="fill:#9d5528;fill-rule:nonzero;"/><path d="M82.32,38.989c-0,1.179 -0.77,2.165 -1.851,2.5c-0.22,0.065 -0.48,0.109 -0.74,0.109c-1.439,-0 -2.609,-1.18 -2.609,-2.609c-0,-1.44 1.17,-2.608 2.609,-2.608c0.601,-0 1.151,0.215 1.601,0.563c0.61,0.476 0.99,1.211 0.99,2.045Z" style="fill:#c48954;fill-rule:nonzero;"/><path d="M79.259,41.084c-0.619,-0.422 -1.03,-1.131 -1.03,-1.933c-0,-1.278 1.04,-2.326 2.331,-2.326c0.27,-0 0.54,0.031 0.77,0.119c0.61,0.476 0.99,1.211 0.99,2.045c-0,0.842 -0.39,1.585 -1.01,2.064c-0.081,-0.496 -0.52,-0.864 -1.02,-0.864c-0.031,-0 -0.051,0.001 -0.071,0.002c-0.5,0.033 -0.899,0.415 -0.96,0.893Z" style="fill:#9d5528;fill-rule:nonzero;"/><path d="M92.489,52.747c-0,1.179 -0.779,2.176 -1.839,2.489c-0.23,0.075 -0.5,0.119 -0.76,0.119c-1.44,-0 -2.6,-1.18 -2.6,-2.608c-0,-1.43 1.16,-2.61 2.6,-2.61c0.619,-0 1.16,0.206 1.609,0.574c0.611,0.465 0.99,1.202 0.99,2.036Z" style="fill:#c48954;fill-rule:nonzero;"/><path d="M90.96,55.121l-0.02,-0.272c-0.05,-0.545 -0.5,-0.957 -1.04,-0.957c-0.02,-0 -0.05,0.001 -0.08,0.003c-0.37,0.03 -0.68,0.248 -0.841,0.552c-0.359,-0.409 -0.579,-0.944 -0.579,-1.527c0,-1.31 1.05,-2.338 2.319,-2.338c0.28,-0 0.55,0.032 0.78,0.129c0.611,0.465 0.99,1.202 0.99,2.036c-0,1.061 -0.629,1.974 -1.529,2.374Z" style="fill:#9d5528;fill-rule:nonzero;"/><path d="M104.18,60.842c0,1.159 -0.78,2.166 -1.84,2.479c-0.24,0.076 -0.5,0.119 -0.76,0.119c-1.45,-0 -2.601,-1.168 -2.601,-2.598c-0,-1.45 1.151,-2.608 2.601,-2.608c0.61,-0 1.159,0.195 1.61,0.552c0.61,0.465 0.99,1.201 0.99,2.056Z" style="fill:#c48954;fill-rule:nonzero;"/><path d="M102.989,63.023l-0.049,-0.688c-0.04,-0.546 -0.5,-0.962 -1.04,-0.962c-0.02,-0 -0.05,0.001 -0.08,0.003c-0.571,0.042 -1,0.541 -0.96,1.114l0.02,0.253c-0.48,-0.425 -0.79,-1.049 -0.79,-1.748c-0,-1.289 1.05,-2.329 2.32,-2.329c0.28,-0 0.55,0.045 0.78,0.12c0.61,0.465 0.99,1.201 0.99,2.056c0,0.906 -0.47,1.719 -1.191,2.181Z" style="fill:#9d5528;fill-rule:nonzero;"/><path d="M120.75,62.413c-0,1.168 -0.78,2.164 -1.85,2.478c-0.23,0.077 -0.49,0.129 -0.74,0.129c-1.46,-0 -2.62,-1.18 -2.62,-2.607c-0,-1.452 1.16,-2.609 2.62,-2.609c0.6,-0 1.15,0.205 1.59,0.552c0.62,0.476 1,1.223 1,2.057Z" style="fill:#c48954;fill-rule:nonzero;"/><path d="M119.26,64.756l-0.07,-0.792c-0.04,-0.545 -0.49,-0.958 -1.03,-0.958c-0.03,-0 -0.06,0.002 -0.08,0.004c-0.52,0.041 -0.92,0.454 -0.96,0.956c-0.29,-0.389 -0.46,-0.873 -0.46,-1.399c0,-1.291 1.04,-2.32 2.33,-2.32c0.27,-0 0.53,0.022 0.76,0.109c0.62,0.476 1,1.223 1,2.057c-0,1.033 -0.61,1.932 -1.49,2.343Z" style="fill:#9d5528;fill-rule:nonzero;"/><path d="M35.58,16.577l12.09,179.831c0.04,0.573 0.53,1.007 1.1,0.968c0.58,-0.038 1.01,-0.534 0.97,-1.107l-12.08,-179.831c-0.04,-0.573 -0.54,-1.007 -1.11,-0.968c-0.57,0.038 -1.01,0.534 -0.97,1.107Z" style="fill:#c48954;fill-rule:nonzero;"/><path d="M47.51,18.21l11.89,179.863c0.03,0.573 0.53,1.007 1.099,0.969c0.581,-0.038 1.01,-0.533 0.97,-1.106l-11.889,-179.863c-0.04,-0.573 -0.53,-1.007 -1.11,-0.969c-0.57,0.037 -1,0.533 -0.96,1.106Z" style="fill:#c48954;fill-rule:nonzero;"/><path d="M59.65,24.964l10.48,161.883c0.04,0.573 0.53,1.008 1.099,0.971c0.581,-0.038 1.01,-0.532 0.971,-1.105l-10.471,-161.884c-0.039,-0.573 -0.539,-1.008 -1.109,-0.971c-0.57,0.037 -1.01,0.532 -0.97,1.106Z" style="fill:#c48954;fill-rule:nonzero;"/><path d="M70.13,32.683l9.55,143.916c0.03,0.573 0.53,1.007 1.1,0.969c0.58,-0.038 1.01,-0.533 0.969,-1.107l-9.549,-143.916c-0.03,-0.573 -0.53,-1.007 -1.1,-0.969c-0.581,0.038 -1.01,0.534 -0.97,1.107Z" style="fill:#c48954;fill-rule:nonzero;"/><path d="M79.249,41.298l8.111,122.615c0.04,0.573 0.54,1.007 1.109,0.969c0.571,-0.038 1.01,-0.533 0.971,-1.106l-8.12,-122.616c-0.04,-0.572 -0.53,-1.007 -1.101,-0.969c-0.579,0.038 -1.009,0.534 -0.97,1.107Z" style="fill:#c48954;fill-rule:nonzero;"/><path d="M88.87,55.016l6.84,84.925c0.039,0.573 0.539,1 1.12,0.954c0.57,-0.046 1,-0.548 0.95,-1.121l-6.84,-84.925c-0.05,-0.573 -0.55,-0.999 -1.12,-0.954c-0.571,0.047 -1,0.548 -0.95,1.121Z" style="fill:#c48954;fill-rule:nonzero;"/><path d="M100.86,62.49l5.31,71.071c0.04,0.572 0.54,1.002 1.12,0.959c0.57,-0.043 1,-0.541 0.959,-1.114l-5.309,-71.071c-0.05,-0.573 -0.54,-1.002 -1.12,-0.959c-0.571,0.042 -1,0.541 -0.96,1.114Z" style="fill:#c48954;fill-rule:nonzero;"/><path d="M117.12,64.129l3.51,44.032c0.04,0.573 0.55,1 1.12,0.955c0.57,-0.046 1,-0.547 0.95,-1.12l-3.51,-44.032c-0.04,-0.573 -0.54,-1 -1.11,-0.954c-0.58,0.046 -1,0.547 -0.96,1.119Z" style="fill:#c48954;fill-rule:nonzero;"/><path d="M33.64,202.139c0,1.224 -2.53,2.209 -5.67,2.209c-3.12,-0 -5.66,-0.985 -5.66,-2.209c-0,-1.222 2.54,-2.208 5.66,-2.208c3.14,-0 5.67,0.986 5.67,2.208Z" style="fill:#dd995e;fill-rule:nonzero;"/><path d="M159.12,50.051c-18.76,31.39 -36.53,63.31 -54.351,95.219c-5.439,9.731 -10.919,19.418 -16.579,29.03c-4.451,7.556 -10.181,14.894 -13.211,23.185c-1.599,4.394 -2.349,5.076 -7.049,5.824c-1.28,-0.531 -3.13,-0.931 -5.25,-1.277c-6.44,-1.039 -15.39,-1.516 -18.29,-2.729c16.609,-22.47 36.51,-46.174 54.579,-70.041c9.54,-12.59 18.571,-25.242 26.341,-37.744c3.5,-5.617 6.99,-11.258 10.46,-16.874c1.09,-1.765 3.32,-4.698 5.2,-7.87l0.18,-0.205c3.2,-3.561 8.6,-10.164 5.5,-15.338c-4.12,-6.884 -12.88,-0.238 -16.9,2.631c-4.3,3.041 -8.19,4.621 -12.85,4.979c-1.39,0.118 -2.84,0.118 -4.39,0.021c-8.531,-0.509 -15.1,-3.916 -20.83,-10.326c-1.201,-1.332 -2.32,-2.998 -3.201,-4.535c-35.009,-50.462 -65.449,-33.025 -65.449,-33.025c-0,-0 -0.71,-2.522 -1.68,-5.907c5.86,-2.654 12.14,-4.537 18.57,-4.981c16.38,-1.115 30.29,8.561 40.62,20.446c7.76,8.929 12.42,23.553 23,29.517c3.939,2.219 9.77,2.024 14.61,0.747c1.66,-0.444 3.21,-1.018 4.52,-1.667c5.91,-2.933 10.58,-7.804 16.29,-11.051c4.27,-2.404 19.27,-7.74 23.6,-3.29c3.22,3.29 -1.66,12.285 -3.44,15.261Z" style="fill:#dd995e;fill-rule:nonzero;"/><path d="M28.23,122.886l-0.14,-2.056l-0.11,-1.744l0.25,3.8Z" style="fill:#dea862;fill-rule:nonzero;"/><path d="M17.74,132.184l-0.27,-3.832l9.79,-8.634c0.28,0.374 0.55,0.745 0.83,1.112l-0.11,-1.744l0.11,1.744l0.14,2.056l-10.49,9.298Z" style="fill:#f7b849;fill-rule:nonzero;"/><path d="M19.92,164.602l-0.25,-3.832l10.49,-9.276l0.26,3.832l-10.5,9.276Z" style="fill:#f7b849;fill-rule:nonzero;"/><path d="M67.93,203.309c-1.28,-0.531 -3.13,-0.931 -5.25,-1.277c16.079,-23.565 27.789,-48.752 36.289,-72.77c9.54,-12.59 18.571,-25.242 26.341,-37.744c3.5,-5.617 6.99,-11.258 10.46,-16.874c1.09,-1.765 3.32,-4.698 5.2,-7.87l0.18,-0.205c2.52,-2.81 6.42,-7.514 6.43,-11.915c-0,-1.177 -0.27,-2.332 -0.93,-3.423c-1.31,-2.201 -3.11,-3.02 -5.07,-3.02c-4.17,-0 -9.1,3.699 -11.83,5.651c-4.3,3.041 -8.19,4.621 -12.85,4.979c0.46,-2.782 0.87,-5.477 1.25,-8.043c1.66,-0.444 3.21,-1.018 4.52,-1.667c5.91,-2.933 10.58,-7.804 16.29,-11.051c3.08,-1.737 11.77,-5.006 17.99,-5.006c2.39,-0 4.41,0.482 5.61,1.716c0.77,0.784 1.08,1.891 1.07,3.165c0,4.07 -3.16,9.829 -4.51,12.096c-18.76,31.39 -36.53,63.31 -54.351,95.219c-5.439,9.731 -10.919,19.418 -16.579,29.03c-4.451,7.556 -10.181,14.894 -13.211,23.185c-1.599,4.394 -2.349,5.076 -7.049,5.824Z" style="fill:#d08549;fill-rule:nonzero;"/><path d="M27.26,119.718c-4.53,-6.191 -8.43,-13.422 -11.78,-21.067l-0.09,-1.244l10.49,-9.266l2.1,30.945l-0.72,0.632Zm-12.12,-26.121l-1.33,-19.7l10.49,-9.266l1.33,19.668l-10.49,9.298Zm-1.6,-23.521l-1.51,-22.374l10.49,-9.276l1.51,22.373l-10.49,9.277Z" style="fill:#d2864d;fill-rule:nonzero;"/><path d="M11.77,43.862l-2.63,-38.914l11.08,-0.758l2.05,30.404l-10.5,9.268Z" style="fill:#d2864d;fill-rule:nonzero;"/><path d="M12.03,47.702l-0.26,-3.831l0,-0.009l10.5,-9.268l0.25,3.832l-10.49,9.276Z" style="fill:#e89e3d;fill-rule:nonzero;"/><path d="M13.81,73.897l-0.27,-3.821l10.49,-9.277l0.27,3.832l-10.49,9.266Z" style="fill:#e89e3d;fill-rule:nonzero;"/><path d="M15.39,97.407l-0.25,-3.81l10.49,-9.298l0.25,3.842l-10.49,9.266Z" style="fill:#e89e3d;fill-rule:nonzero;"/><path d="M28.09,120.83c-0.28,-0.367 -0.55,-0.738 -0.83,-1.112l0.72,-0.632l0.11,1.744Z" style="fill:#e89e3d;fill-rule:nonzero;"/><path d="M0,6.094c0.03,0.293 0.04,0.585 0.09,0.867c1,7.371 7.78,12.534 15.14,11.516c7.37,-1.006 12.53,-7.782 11.52,-15.142c-0.04,-0.292 -0.1,-0.596 -0.17,-0.877l-26.58,3.636Z" style="fill:#dea862;fill-rule:nonzero;"/></g></g></g></svg>