<?xml version="1.0" encoding="UTF-8" standalone="no"?><!DOCTYPE svg PUBLIC "-//W3C//DTD SVG 1.1//EN" "http://www.w3.org/Graphics/SVG/1.1/DTD/svg11.dtd"><svg width="100%" height="100%" viewBox="0 0 217 97" version="1.1" xmlns="http://www.w3.org/2000/svg" xmlns:xlink="http://www.w3.org/1999/xlink" xml:space="preserve" xmlns:serif="http://www.serif.com/" style="fill-rule:evenodd;clip-rule:evenodd;stroke-linejoin:round;stroke-miterlimit:2;"><g><g><g><path d="M216.205,5.575l0.005,0l-0,85.195c-0,2.967 -2.425,5.391 -5.395,5.391l-205.424,0c-1.483,0 -2.825,-0.605 -3.804,-1.58c-0.981,-0.975 -1.587,-2.317 -1.587,-3.811l0,-85.195l0.011,0l-0.011,-0.184c0,-2.976 2.425,-5.391 5.391,-5.391l205.424,-0c2.97,-0 5.395,2.415 5.395,5.391l-0.005,0.184Z" style="fill:#200000;fill-rule:nonzero;"/><path d="M96.454,96.161l-91.063,0c-1.483,0 -2.825,-0.605 -3.804,-1.58c-0.981,-0.975 -1.587,-2.317 -1.587,-3.811l-0,-73.992c11.528,18.801 41.592,59.25 96.454,79.383Z" style="fill:#4a4b4c;fill-rule:nonzero;"/><rect x="6.441" y="29.788" width="198.123" height="57.465" style="fill:#c9cacc;fill-rule:nonzero;"/><rect x="6.441" y="32.776" width="13.368" height="54.477" style="fill:#b7b9bc;fill-rule:nonzero;"/><rect x="6.441" y="29.788" width="13.368" height="54.477" style="fill:#fff;fill-rule:nonzero;"/><rect x="20.68" y="32.776" width="13.374" height="54.477" style="fill:#b7b9bc;fill-rule:nonzero;"/><rect x="20.68" y="29.788" width="13.374" height="54.477" style="fill:#fff;fill-rule:nonzero;"/><rect x="35.417" y="32.776" width="13.378" height="54.477" style="fill:#b7b9bc;fill-rule:nonzero;"/><rect x="35.427" y="29.788" width="13.368" height="54.477" style="fill:#fff;fill-rule:nonzero;"/><rect x="49.813" y="32.776" width="13.378" height="54.477" style="fill:#b7b9bc;fill-rule:nonzero;"/><rect x="49.813" y="29.788" width="13.367" height="54.477" style="fill:#fff;fill-rule:nonzero;"/><rect x="64.36" y="32.776" width="13.373" height="54.477" style="fill:#b7b9bc;fill-rule:nonzero;"/><rect x="64.372" y="29.788" width="13.361" height="54.477" style="fill:#fff;fill-rule:nonzero;"/><rect x="78.919" y="32.776" width="13.367" height="54.477" style="fill:#b7b9bc;fill-rule:nonzero;"/><rect x="78.919" y="29.788" width="13.367" height="54.477" style="fill:#fff;fill-rule:nonzero;"/><rect x="93.401" y="32.776" width="13.379" height="54.477" style="fill:#b7b9bc;fill-rule:nonzero;"/><rect x="93.401" y="29.788" width="13.379" height="54.477" style="fill:#fff;fill-rule:nonzero;"/><rect x="107.948" y="32.776" width="13.379" height="54.477" style="fill:#b7b9bc;fill-rule:nonzero;"/><rect x="107.948" y="29.788" width="13.379" height="54.477" style="fill:#fff;fill-rule:nonzero;"/><rect x="122.864" y="32.776" width="13.379" height="54.477" style="fill:#b7b9bc;fill-rule:nonzero;"/><rect x="122.875" y="29.788" width="13.374" height="54.477" style="fill:#fff;fill-rule:nonzero;"/><rect x="137.411" y="32.776" width="13.379" height="54.477" style="fill:#b7b9bc;fill-rule:nonzero;"/><rect x="137.411" y="29.788" width="13.379" height="54.477" style="fill:#fff;fill-rule:nonzero;"/><rect x="151.84" y="32.776" width="13.378" height="54.477" style="fill:#b7b9bc;fill-rule:nonzero;"/><rect x="151.845" y="29.788" width="13.378" height="54.477" style="fill:#fff;fill-rule:nonzero;"/><rect x="166.387" y="32.776" width="13.385" height="54.477" style="fill:#b7b9bc;fill-rule:nonzero;"/><rect x="166.387" y="29.788" width="13.385" height="54.477" style="fill:#fff;fill-rule:nonzero;"/><rect x="180.637" y="32.776" width="13.368" height="54.477" style="fill:#b7b9bc;fill-rule:nonzero;"/><rect x="180.637" y="29.788" width="13.373" height="54.477" style="fill:#fff;fill-rule:nonzero;"/><rect x="195.184" y="32.776" width="13.373" height="54.477" style="fill:#b7b9bc;fill-rule:nonzero;"/><rect x="195.184" y="29.788" width="13.373" height="54.477" style="fill:#fff;fill-rule:nonzero;"/><path d="M19.809,84.265l-13.368,0l-0,-38.512c1.656,3.826 4.729,7.976 10.154,12.039l-0,5.236l3.214,0l-0,21.237Z" style="fill:#d0d2d3;fill-rule:nonzero;"/><path d="M34.054,84.265l-13.374,0l-0,-21.237l2.354,0l-0,-1.13c3.136,1.726 6.784,3.414 11.02,5.028l-0,17.339Z" style="fill:#d0d2d3;fill-rule:nonzero;"/><path d="M48.795,84.265l-13.368,0l-0,-16.842c3.947,1.429 8.378,2.792 13.368,4.048l-0,12.794Z" style="fill:#d0d2d3;fill-rule:nonzero;"/><path d="M63.18,84.265l-13.367,0l-0,-12.534c4.08,0.996 8.534,1.949 13.367,2.825l-0,9.709Z" style="fill:#d0d2d3;fill-rule:nonzero;"/><path d="M77.733,84.265l-13.361,0l-0,-9.514c4.166,0.715 8.609,1.396 13.361,1.98l-0,7.534Z" style="fill:#d0d2d3;fill-rule:nonzero;"/><path d="M92.286,84.265l-13.367,0l-0,-7.381c4.215,0.519 8.669,0.984 13.367,1.384l-0,5.997Z" style="fill:#d0d2d3;fill-rule:nonzero;"/><path d="M106.78,84.265l-13.379,0l0,-5.899c4.264,0.358 8.708,0.672 13.379,0.932l-0,4.967Z" style="fill:#d0d2d3;fill-rule:nonzero;"/><path d="M121.327,84.265l-13.379,0l-0,-4.914c4.281,0.239 8.736,0.422 13.379,0.541l-0,4.373Z" style="fill:#d0d2d3;fill-rule:nonzero;"/><path d="M136.249,84.265l-13.374,0l0,-4.319c4.302,0.119 8.756,0.206 13.374,0.228l-0,4.091Z" style="fill:#d0d2d3;fill-rule:nonzero;"/><path d="M150.79,84.265l-13.379,0l-0,-4.081c1.897,0.015 3.82,0.023 5.769,0.023c2.496,0 5.033,-0.013 7.61,-0.044l-0,4.102Z" style="fill:#d0d2d3;fill-rule:nonzero;"/><path d="M165.223,84.265l-13.378,0l-0,-4.102c4.335,-0.064 8.794,-0.141 13.378,-0.271l-0,4.373Z" style="fill:#d0d2d3;fill-rule:nonzero;"/><path d="M179.772,84.265l-13.385,0l-0,-4.394c4.352,-0.109 8.801,-0.26 13.385,-0.445l-0,4.839Z" style="fill:#d0d2d3;fill-rule:nonzero;"/><path d="M194.01,84.265l-13.373,0l-0,-4.87c4.346,-0.184 8.805,-0.39 13.373,-0.617l-0,5.487Z" style="fill:#d0d2d3;fill-rule:nonzero;"/><path d="M208.557,84.265l-13.373,0l-0,-5.552c4.363,-0.239 8.812,-0.499 13.373,-0.769l-0,6.321Z" style="fill:#d0d2d3;fill-rule:nonzero;"/><rect x="16.595" y="30.384" width="6.439" height="32.644" style="fill:#4f4b4a;fill-rule:nonzero;"/><rect x="16.595" y="27.991" width="6.439" height="32.646" style="fill:#282525;fill-rule:nonzero;"/><rect x="21.817" y="27.991" width="0.388" height="32.646" style="fill:#e6e7e8;fill-rule:nonzero;"/><path d="M23.034,60.637l-6.439,0l6.439,0Z" style="fill:#252526;fill-rule:nonzero;"/><path d="M23.034,60.637l-0.829,0l-0,-3.569c0.264,0.545 0.54,1.061 0.829,1.544l-0,2.025Zm-1.217,0l-5.222,0l-0,-32.646c-0,0 0.793,18.172 5.222,28.235l-0,4.411Z" style="fill:#090909;fill-rule:nonzero;"/><path d="M22.205,60.637l-0.388,0l-0,-4.411c0.126,0.287 0.256,0.569 0.388,0.842l-0,3.569Z" style="fill:#676b70;fill-rule:nonzero;"/><rect x="30.839" y="30.384" width="6.439" height="32.644" style="fill:#4f4b4a;fill-rule:nonzero;"/><rect x="30.839" y="27.991" width="6.439" height="32.646" style="fill:#282525;fill-rule:nonzero;"/><rect x="36.066" y="27.991" width="0.384" height="32.646" style="fill:#e6e7e8;fill-rule:nonzero;"/><path d="M37.278,60.637l-6.439,0l6.439,0Z" style="fill:#252526;fill-rule:nonzero;"/><path d="M37.278,60.637l-0.828,0l-0,-3.566c0.264,0.543 0.54,1.059 0.828,1.541l-0,2.025Zm-1.212,0l-5.227,0l-0,-32.646c-0,0 0.79,18.188 5.227,28.249l-0,4.397Z" style="fill:#090909;fill-rule:nonzero;"/><path d="M36.45,60.637l-0.384,0l-0,-4.397c0.125,0.283 0.253,0.56 0.384,0.831l-0,3.566Z" style="fill:#676b70;fill-rule:nonzero;"/><rect x="59.971" y="30.384" width="6.435" height="32.644" style="fill:#4f4b4a;fill-rule:nonzero;"/><rect x="59.965" y="27.991" width="6.441" height="32.646" style="fill:#282525;fill-rule:nonzero;"/><rect x="65.188" y="27.991" width="0.39" height="32.646" style="fill:#e6e7e8;fill-rule:nonzero;"/><path d="M66.406,60.637l-6.435,0l6.435,0Z" style="fill:#252526;fill-rule:nonzero;"/><path d="M66.406,60.637l-0.828,0l-0,-3.567c0.264,0.544 0.539,1.06 0.828,1.542l-0,2.025Zm-1.218,0l-5.223,0l-0,-32.646c-0,0 0.791,18.171 5.223,28.235l-0,4.411Z" style="fill:#090909;fill-rule:nonzero;"/><path d="M65.578,60.637l-0.39,0l-0,-4.411c0.127,0.288 0.257,0.569 0.39,0.844l-0,3.567Z" style="fill:#676b70;fill-rule:nonzero;"/><rect x="75.693" y="30.384" width="6.44" height="32.644" style="fill:#4f4b4a;fill-rule:nonzero;"/><rect x="75.688" y="27.991" width="6.445" height="32.646" style="fill:#282525;fill-rule:nonzero;"/><rect x="80.916" y="27.991" width="0.383" height="32.646" style="fill:#e6e7e8;fill-rule:nonzero;"/><path d="M82.133,60.637l-6.44,0l6.44,0Z" style="fill:#252526;fill-rule:nonzero;"/><path d="M82.133,60.637l-0.834,0l-0,-3.578c0.266,0.548 0.544,1.067 0.834,1.553l-0,2.025Zm-1.217,0l-5.228,0l-0,-32.646c-0,0 0.794,18.173 5.228,28.237l-0,4.409Z" style="fill:#090909;fill-rule:nonzero;"/><path d="M81.299,60.637l-0.383,0l-0,-4.409c0.125,0.283 0.253,0.561 0.383,0.831l-0,3.578Z" style="fill:#676b70;fill-rule:nonzero;"/><rect x="90.186" y="30.384" width="6.43" height="32.644" style="fill:#4f4b4a;fill-rule:nonzero;"/><rect x="90.186" y="27.991" width="6.43" height="32.646" style="fill:#282525;fill-rule:nonzero;"/><rect x="95.403" y="27.991" width="0.379" height="32.646" style="fill:#e6e7e8;fill-rule:nonzero;"/><path d="M96.616,60.637l-6.43,0l6.43,0Z" style="fill:#252526;fill-rule:nonzero;"/><path d="M96.616,60.637l-0.834,0l-0,-3.579c0.265,0.549 0.543,1.068 0.834,1.554l-0,2.025Zm-1.213,0l-5.217,0l-0,-32.646c-0,0 0.782,18.184 5.217,28.246l-0,4.4Z" style="fill:#090909;fill-rule:nonzero;"/><path d="M95.782,60.637l-0.379,0l-0,-4.4c0.123,0.28 0.249,0.554 0.379,0.821l-0,3.579Z" style="fill:#676b70;fill-rule:nonzero;"/><rect x="118.102" y="30.384" width="6.44" height="32.644" style="fill:#4f4b4a;fill-rule:nonzero;"/><rect x="118.102" y="27.991" width="6.44" height="32.646" style="fill:#282525;fill-rule:nonzero;"/><rect x="123.329" y="27.991" width="0.379" height="32.646" style="fill:#e6e7e8;fill-rule:nonzero;"/><path d="M124.542,60.637l-6.44,0l6.44,0Z" style="fill:#252526;fill-rule:nonzero;"/><path d="M124.542,60.637l-0.834,0l-0,-3.578c0.265,0.549 0.543,1.067 0.834,1.553l-0,2.025Zm-1.213,0l-5.227,0l-0,-32.646c-0,0 0.785,18.19 5.227,28.25l-0,4.396Z" style="fill:#090909;fill-rule:nonzero;"/><path d="M123.708,60.637l-0.379,0l-0,-4.396c0.123,0.278 0.25,0.553 0.379,0.818l-0,3.578Z" style="fill:#676b70;fill-rule:nonzero;"/><rect x="133.034" y="30.384" width="6.428" height="32.644" style="fill:#4f4b4a;fill-rule:nonzero;"/><rect x="133.034" y="27.991" width="6.428" height="32.646" style="fill:#282525;fill-rule:nonzero;"/><rect x="138.245" y="27.991" width="0.395" height="32.646" style="fill:#e6e7e8;fill-rule:nonzero;"/><path d="M139.462,60.637l-6.428,0l6.428,0Z" style="fill:#252526;fill-rule:nonzero;"/><path d="M139.462,60.637l-0.822,0l-0,-3.557c0.262,0.541 0.536,1.053 0.822,1.532l-0,2.025Zm-1.217,0l-5.211,0l-0,-32.646c-0,0 0.784,18.168 5.211,28.232l-0,4.414Z" style="fill:#090909;fill-rule:nonzero;"/><path d="M138.64,60.637l-0.395,0l-0,-4.414c0.128,0.293 0.26,0.579 0.395,0.857l-0,3.557Z" style="fill:#676b70;fill-rule:nonzero;"/><rect x="163.172" y="30.384" width="6.441" height="32.644" style="fill:#4f4b4a;fill-rule:nonzero;"/><rect x="163.172" y="27.991" width="6.441" height="32.646" style="fill:#282525;fill-rule:nonzero;"/><rect x="168.395" y="27.991" width="0.39" height="32.646" style="fill:#e6e7e8;fill-rule:nonzero;"/><path d="M169.613,60.637l-6.441,0l6.441,0Z" style="fill:#252526;fill-rule:nonzero;"/><path d="M169.613,60.637l-0.828,0l-0,-3.566c0.264,0.543 0.54,1.059 0.828,1.541l-0,2.025Zm-1.218,0l-5.223,0l-0,-32.646c-0,0 0.791,18.171 5.223,28.235l-0,4.411Z" style="fill:#090909;fill-rule:nonzero;"/><path d="M168.785,60.637l-0.39,0l-0,-4.411c0.127,0.289 0.257,0.57 0.39,0.845l-0,3.566Z" style="fill:#676b70;fill-rule:nonzero;"/><rect x="177.423" y="30.384" width="6.435" height="32.644" style="fill:#4f4b4a;fill-rule:nonzero;"/><rect x="177.423" y="27.991" width="6.435" height="32.646" style="fill:#282525;fill-rule:nonzero;"/><rect x="182.639" y="27.991" width="0.385" height="32.646" style="fill:#e6e7e8;fill-rule:nonzero;"/><path d="M183.858,60.637l-6.435,0l6.435,0Z" style="fill:#252526;fill-rule:nonzero;"/><path d="M183.858,60.637l-0.834,0l-0,-3.578c0.266,0.548 0.543,1.067 0.834,1.553l-0,2.025Zm-1.219,0l-5.216,0l-0,-32.646c-0,0 0.785,18.17 5.216,28.234l-0,4.412Z" style="fill:#090909;fill-rule:nonzero;"/><path d="M183.024,60.637l-0.385,0l-0,-4.412c0.126,0.284 0.254,0.563 0.385,0.834l-0,3.578Z" style="fill:#676b70;fill-rule:nonzero;"/><rect x="190.795" y="30.384" width="6.446" height="32.644" style="fill:#4f4b4a;fill-rule:nonzero;"/><rect x="190.795" y="27.991" width="6.446" height="32.646" style="fill:#282525;fill-rule:nonzero;"/><rect x="196.012" y="27.991" width="0.391" height="32.646" style="fill:#e6e7e8;fill-rule:nonzero;"/><path d="M197.241,60.637l-6.446,0l6.446,0Z" style="fill:#252526;fill-rule:nonzero;"/><path d="M197.241,60.637l-0.838,0l-0,-3.583c0.267,0.55 0.546,1.071 0.838,1.558l-0,2.025Zm-1.229,0l-5.217,0l-0,-32.646c-0,0 0.78,18.151 5.217,28.218l-0,4.428Z" style="fill:#090909;fill-rule:nonzero;"/><path d="M196.403,60.637l-0.391,0l-0,-4.428c0.127,0.288 0.258,0.571 0.391,0.845l-0,3.583Z" style="fill:#676b70;fill-rule:nonzero;"/><path d="M208.667,29.377c-0,0.825 -0.682,1.505 -1.522,1.505l-199.248,0c-0.845,0 -1.516,-0.68 -1.516,-1.505c-0,-0.855 0.671,-1.515 1.516,-1.515l199.248,0c0.84,0 1.522,0.66 1.522,1.515Z" style="fill:#919396;fill-rule:nonzero;"/><path d="M216.206,5.575l0.005,0l-0,7.923l-209.018,0c-2.776,0 -5.304,-1.061 -7.192,-2.792l-0,-5.131l0.01,0l-0.01,-0.184c-0,-2.976 2.423,-5.39 5.39,-5.39l205.424,-0c2.971,-0 5.396,2.414 5.396,5.39l-0.005,0.184Z" style="fill:#4a4b4c;fill-rule:nonzero;"/><path d="M46.89,21.173c-0,1.32 -0.719,2.467 -1.786,3.095c-0.525,0.303 -1.142,0.465 -1.797,0.465c-1.975,0 -3.572,-1.591 -3.572,-3.56c-0,-1.321 0.715,-2.469 1.77,-3.096c0.537,-0.304 1.153,-0.488 1.802,-0.488c1.976,-0 3.583,1.602 3.583,3.584Z" style="fill:#fff;fill-rule:nonzero;"/><path d="M43.307,24.733c-1.975,0 -3.572,-1.591 -3.572,-3.56c-0,-1.321 0.715,-2.469 1.77,-3.096c-0.2,1.547 -0.071,4.221 3.599,6.191c-0.525,0.303 -1.142,0.465 -1.797,0.465Z" style="fill:#d0d2d3;fill-rule:nonzero;"/><path d="M59.024,21.173c-0,1.32 -0.715,2.467 -1.786,3.095c-0.519,0.303 -1.142,0.465 -1.792,0.465c-1.975,0 -3.572,-1.591 -3.572,-3.56c-0,-1.321 0.71,-2.469 1.771,-3.096c0.529,-0.304 1.141,-0.488 1.801,-0.488c1.976,-0 3.578,1.602 3.578,3.584Z" style="fill:#fff;fill-rule:nonzero;"/><path d="M55.446,24.733c-1.975,0 -3.572,-1.591 -3.572,-3.56c-0,-1.321 0.71,-2.469 1.771,-3.096c-0.201,1.547 -0.066,4.221 3.593,6.191c-0.519,0.303 -1.142,0.465 -1.792,0.465Z" style="fill:#d0d2d3;fill-rule:nonzero;"/><path d="M72.733,21.173c-0,1.32 -0.721,2.467 -1.792,3.095c-0.531,0.303 -1.136,0.465 -1.786,0.465c-1.981,0 -3.577,-1.591 -3.577,-3.56c-0,-1.321 0.704,-2.469 1.77,-3.096c0.53,-0.304 1.147,-0.488 1.807,-0.488c1.971,-0 3.578,1.602 3.578,3.584Z" style="fill:#fff;fill-rule:nonzero;"/><path d="M69.155,24.733c-1.981,0 -3.577,-1.591 -3.577,-3.56c-0,-1.321 0.704,-2.469 1.77,-3.096c-0.206,1.547 -0.07,4.221 3.593,6.191c-0.531,0.303 -1.136,0.465 -1.786,0.465Z" style="fill:#d0d2d3;fill-rule:nonzero;"/><path d="M139.82,21.42c-0,1.311 -0.72,2.479 -1.776,3.087c-0.524,0.312 -1.141,0.497 -1.801,0.497c-1.976,0 -3.583,-1.613 -3.583,-3.584c-0,-1.32 0.725,-2.478 1.786,-3.095c0.535,-0.314 1.141,-0.476 1.797,-0.476c1.98,-0 3.577,1.591 3.577,3.571Z" style="fill:#fff;fill-rule:nonzero;"/><path d="M136.243,25.004c-1.976,0 -3.583,-1.613 -3.583,-3.584c-0,-1.32 0.725,-2.478 1.786,-3.095c-0.2,1.558 -0.077,4.222 3.598,6.182c-0.524,0.312 -1.141,0.497 -1.801,0.497Z" style="fill:#d0d2d3;fill-rule:nonzero;"/><path d="M151.147,21.42c-0,1.311 -0.715,2.479 -1.776,3.087c-0.524,0.312 -1.146,0.497 -1.796,0.497c-1.969,0 -3.572,-1.613 -3.572,-3.584c-0,-1.32 0.71,-2.478 1.77,-3.095c0.53,-0.314 1.141,-0.476 1.802,-0.476c1.981,-0 3.572,1.591 3.572,3.571Z" style="fill:#fff;fill-rule:nonzero;"/><path d="M147.575,25.004c-1.969,0 -3.572,-1.613 -3.572,-3.584c-0,-1.32 0.71,-2.478 1.77,-3.095c-0.2,1.558 -0.081,4.222 3.598,6.182c-0.524,0.312 -1.146,0.497 -1.796,0.497Z" style="fill:#d0d2d3;fill-rule:nonzero;"/><path d="M163.172,21.42c-0,1.311 -0.703,2.479 -1.769,3.087c-0.526,0.312 -1.152,0.497 -1.803,0.497c-1.975,0 -3.571,-1.613 -3.571,-3.584c-0,-1.32 0.714,-2.478 1.774,-3.095c0.537,-0.314 1.143,-0.476 1.797,-0.476c1.981,-0 3.572,1.591 3.572,3.571Z" style="fill:#fff;fill-rule:nonzero;"/><path d="M159.6,25.004c-1.975,0 -3.571,-1.613 -3.571,-3.584c-0,-1.32 0.714,-2.478 1.774,-3.095c-0.199,1.558 -0.086,4.222 3.6,6.182c-0.526,0.312 -1.152,0.497 -1.803,0.497Z" style="fill:#d0d2d3;fill-rule:nonzero;"/></g></g></g></svg>