<?xml version="1.0" encoding="UTF-8" standalone="no"?><!DOCTYPE svg PUBLIC "-//W3C//DTD SVG 1.1//EN" "http://www.w3.org/Graphics/SVG/1.1/DTD/svg11.dtd"><svg width="100%" height="100%" viewBox="0 0 202 217" version="1.1" xmlns="http://www.w3.org/2000/svg" xmlns:xlink="http://www.w3.org/1999/xlink" xml:space="preserve" xmlns:serif="http://www.serif.com/" style="fill-rule:evenodd;clip-rule:evenodd;stroke-linejoin:round;stroke-miterlimit:2;"><g><g><g><rect x="41.994" y="37.772" width="110.498" height="14.45" style="fill:#c29444;fill-rule:nonzero;"/><path d="M143.009,47.732l-0,147.41c-0,0.57 0.465,1.04 1.04,1.04c0.574,-0 1.04,-0.47 1.04,-1.04l-0,-147.41c-0,-0.58 -0.466,-1.04 -1.04,-1.04c-0.575,-0 -1.04,0.46 -1.04,1.04Z" style="fill:#c48954;fill-rule:nonzero;"/><path d="M45.793,47.732l-0,147.41c-0,0.57 0.465,1.04 1.04,1.04c0.575,-0 1.04,-0.47 1.04,-1.04l-0,-147.41c-0,-0.58 -0.465,-1.04 -1.04,-1.04c-0.575,-0 -1.04,0.46 -1.04,1.04Z" style="fill:#c48954;fill-rule:nonzero;"/><rect x="42.297" y="40.492" width="110.509" height="14.47" style="fill:#e1c268;fill-rule:nonzero;"/><path d="M173.273,107.212c-8.87,-16.67 -13.145,-37.12 -7.76,-55.61c1.493,-0.08 3.014,-0.27 4.536,-0.57c15.548,-3.13 25.884,-16.93 23.087,-30.86c-2.787,-13.92 -17.653,-22.66 -33.214,-19.54c-17.642,3.55 -23.889,19.84 -26.074,35.78c-2.539,18.55 3.977,37.64 11.224,54.44c4.053,9.41 8.583,18.53 13.242,27.64c7.6,14.85 15.95,36.64 3.941,51.47c-2.408,2.98 -5.623,5.35 -9.195,7.32c-41.976,19.54 -96.324,6.52 -96.593,6.45c-8.627,-2.66 -18.023,-6.34 -23.439,-13.03c-12.016,-14.82 -3.66,-36.63 3.933,-51.47c13.238,-25.85 32.65,-64.05 21.887,-93.23c-0.477,-6.54 -3.658,-12.67 -8.719,-17.26c-3.939,-3.57 -8.995,-6.21 -14.775,-7.37c-15.554,-3.12 -30.421,5.63 -33.213,19.54c-2.793,13.91 7.544,27.73 23.093,30.85c1.52,0.31 3.03,0.49 4.534,0.59c5.386,18.45 1.116,38.91 -7.76,55.58c-9.428,17.75 -24.306,33.68 -21.708,55.39c2.279,19.1 20.447,35.25 38.182,41c5.201,1.69 11.057,3.01 16.783,4.06l-0.022,0.59c-0,-0 41.71,10.05 80.32,-0.54c7.079,-1.18 14.671,-2.72 21.242,-4.85c17.735,-5.73 35.892,-21.88 38.181,-41c2.593,-21.7 -12.279,-37.65 -21.713,-55.37Z" style="fill:#c29444;fill-rule:nonzero;"/><path d="M77.73,47.732l-0,147.41c-0,0.57 0.465,1.04 1.04,1.04c0.574,-0 1.04,-0.47 1.04,-1.04l-0,-147.41c-0,-0.58 -0.466,-1.04 -1.04,-1.04c-0.575,-0 -1.04,0.46 -1.04,1.04Z" style="fill:#c48954;fill-rule:nonzero;"/><path d="M63.598,47.732l-0,147.41c-0,0.57 0.466,1.04 1.04,1.04c0.575,-0 1.04,-0.47 1.04,-1.04l-0,-147.41c-0,-0.58 -0.465,-1.04 -1.04,-1.04c-0.574,-0 -1.04,0.46 -1.04,1.04Z" style="fill:#c48954;fill-rule:nonzero;"/><path d="M94.186,47.732l-0,147.41c-0,0.57 0.466,1.04 1.041,1.04c0.574,-0 1.04,-0.47 1.04,-1.04l-0,-147.41c-0,-0.58 -0.466,-1.04 -1.04,-1.04c-0.575,-0 -1.041,0.46 -1.041,1.04Z" style="fill:#c48954;fill-rule:nonzero;"/><path d="M110.32,47.732l-0,147.41c-0,0.57 0.466,1.04 1.04,1.04c0.575,-0 1.04,-0.47 1.04,-1.04l-0,-147.41c-0,-0.58 -0.465,-1.04 -1.04,-1.04c-0.574,-0 -1.04,0.46 -1.04,1.04Z" style="fill:#c48954;fill-rule:nonzero;"/><path d="M127.33,47.732l-0,147.41c-0,0.57 0.466,1.04 1.04,1.04c0.574,-0 1.04,-0.47 1.04,-1.04l-0,-147.41c-0,-0.58 -0.466,-1.04 -1.04,-1.04c-0.574,-0 -1.04,0.46 -1.04,1.04Z" style="fill:#c48954;fill-rule:nonzero;"/><path d="M99.697,48.332c-0,1.4 -0.92,2.61 -2.218,2.99c-0.271,0.09 -0.59,0.14 -0.91,0.14c-1.731,-0 -3.134,-1.41 -3.134,-3.13c-0,-1.74 1.403,-3.15 3.134,-3.15c0.736,-0 1.407,0.25 1.938,0.69c0.735,0.55 1.19,1.45 1.19,2.46Z" style="fill:#c48954;fill-rule:nonzero;"/><path d="M97.479,51.322c-1.5,-0.05 -2.696,-1.28 -2.696,-2.8c-0,-1.56 1.25,-2.82 2.804,-2.82c0.325,-0 0.638,0.06 0.92,0.17c0.735,0.55 1.19,1.45 1.19,2.46c-0,1.4 -0.92,2.61 -2.218,2.99Z" style="fill:#9d5528;fill-rule:nonzero;"/><path d="M81.902,48.132c-0,1.4 -0.925,2.62 -2.212,3.01c-0.282,0.07 -0.607,0.13 -0.911,0.13c-1.742,-0 -3.143,-1.41 -3.143,-3.14c-0,-1.73 1.401,-3.13 3.143,-3.13c0.727,-0 1.392,0.24 1.928,0.67c0.736,0.56 1.195,1.45 1.195,2.46Z" style="fill:#c48954;fill-rule:nonzero;"/><path d="M79.69,51.142c-1.516,-0.06 -2.717,-1.29 -2.717,-2.81c-0,-1.57 1.25,-2.81 2.808,-2.81c0.319,-0 0.65,0.05 0.926,0.15c0.736,0.56 1.195,1.45 1.195,2.46c-0,1.4 -0.925,2.62 -2.212,3.01Z" style="fill:#9d5528;fill-rule:nonzero;"/><path d="M67.767,48.332c-0,1.4 -0.937,2.61 -2.214,2.99c-0.288,0.09 -0.601,0.14 -0.915,0.14c-1.732,-0 -3.133,-1.41 -3.133,-3.13c-0,-1.74 1.401,-3.15 3.133,-3.15c0.737,-0 1.402,0.25 1.943,0.69c0.732,0.55 1.186,1.45 1.186,2.46Z" style="fill:#c48954;fill-rule:nonzero;"/><path d="M114.494,48.332c-0,1.4 -0.926,2.61 -2.214,2.99c-0.286,0.09 -0.6,0.14 -0.903,0.14c-1.748,-0 -3.145,-1.41 -3.145,-3.13c-0,-1.74 1.397,-3.15 3.145,-3.15c0.73,-0 1.397,0.25 1.931,0.69c0.725,0.55 1.186,1.45 1.186,2.46Z" style="fill:#c48954;fill-rule:nonzero;"/><path d="M112.28,51.322c-1.509,-0.05 -2.7,-1.28 -2.7,-2.8c-0,-1.56 1.244,-2.82 2.798,-2.82c0.319,-0 0.643,0.06 0.93,0.17c0.725,0.55 1.186,1.45 1.186,2.46c-0,1.4 -0.926,2.61 -2.214,2.99Z" style="fill:#9d5528;fill-rule:nonzero;"/><path d="M130.59,48.842c-0,1.41 -0.926,2.62 -2.209,3c-0.281,0.09 -0.601,0.14 -0.914,0.14c-1.739,-0 -3.134,-1.42 -3.134,-3.14c-0,-1.73 1.395,-3.14 3.134,-3.14c0.73,-0 1.401,0.25 1.942,0.68c0.732,0.57 1.181,1.46 1.181,2.46Z" style="fill:#c48954;fill-rule:nonzero;"/><path d="M128.381,51.842c-1.504,-0.04 -2.706,-1.28 -2.706,-2.79c-0,-1.57 1.251,-2.83 2.797,-2.83c0.326,-0 0.651,0.06 0.937,0.16c0.732,0.57 1.181,1.46 1.181,2.46c-0,1.41 -0.926,2.62 -2.209,3Z" style="fill:#9d5528;fill-rule:nonzero;"/><path d="M200.783,165.502c-1.104,9.2 -5.888,17.73 -12.535,24.73c-4.535,4.77 -9.925,8.84 -15.613,11.92c-3.285,1.81 -6.662,3.26 -10.029,4.34c-6.564,2.15 -14.152,3.68 -21.242,4.85c-2.003,0.57 -4.032,1.06 -6.034,1.5c-36.801,8.09 -74.285,-0.95 -74.285,-0.95l0.022,-0.58c-5.732,-1.07 -11.571,-2.38 -16.789,-4.07c-17.729,-5.76 -35.887,-21.9 -38.176,-41c-2.457,-20.58 10.781,-35.96 20.192,-52.63c0.52,-0.92 1.023,-1.83 1.521,-2.76c6.982,-13.13 11.116,-28.59 9.92,-43.59c-0.304,-4.06 -1.017,-8.07 -2.171,-12c-1.488,-0.09 -3.002,-0.28 -4.523,-0.58c-3.377,-0.68 -6.5,-1.86 -9.309,-3.44c-4.871,-2.74 -8.757,-6.66 -11.219,-11.22c-2.674,-4.9 -3.718,-10.53 -2.576,-16.19c0.719,-3.56 2.224,-6.8 4.346,-9.56c6.126,-8.06 17.313,-12.3 28.873,-9.97c5.78,1.16 10.834,3.79 14.779,7.35c5.055,4.6 8.254,10.74 8.703,17.26c4.352,11.79 3.784,25.06 0.672,38.4c-1.63,6.99 -3.962,14.03 -6.646,20.87c-4.834,12.34 -10.814,24.06 -15.9,33.96c-2.209,4.33 -4.483,9.25 -6.301,14.4c-4.427,12.54 -6.137,26.57 2.371,37.08c5.418,6.68 14.802,10.37 23.434,13.03c0.108,0.02 8.632,2.06 21.491,3.34c18.265,1.81 45.294,2.02 69.36,-7.35c1.932,-0.76 3.86,-1.55 5.759,-2.45c3.562,-1.96 6.77,-4.33 9.173,-7.29c0.444,-0.56 0.84,-1.1 1.218,-1.64c10.196,-14.77 2.175,-35.53 -5.158,-49.84c-4.654,-9.12 -9.178,-18.25 -13.238,-27.65c-4.621,-10.7 -8.93,-22.31 -10.803,-34.14l-0,-0.01c-1.07,-6.75 -1.342,-13.56 -0.416,-20.3c2.192,-15.91 8.421,-32.22 26.081,-35.77c15.548,-3.12 30.421,5.63 33.218,19.54c2.787,13.93 -7.548,27.73 -23.103,30.86c-1.521,0.3 -3.032,0.5 -4.53,0.59c-3.517,12.04 -2.906,24.97 0.401,37.11c1.759,6.45 4.281,12.69 7.359,18.48c9.428,17.74 24.307,33.67 21.703,55.37Z" style="fill:#dfa84e;fill-rule:nonzero;"/><path d="M102.113,216.212c-23.188,-0 -41.068,-4.32 -41.068,-4.32l0.022,-0.58c-5.732,-1.07 -11.571,-2.38 -16.789,-4.07c-17.729,-5.76 -35.887,-21.9 -38.176,-41c-0.201,-1.69 -0.297,-3.34 -0.298,-4.96c-0.013,-18.15 11.851,-32.37 20.49,-47.67c2.62,7.24 5.936,15.02 10.169,22.93c-2.153,6.1 -3.663,12.55 -3.668,18.78c-0.006,6.58 1.669,12.9 6.039,18.3c5.418,6.68 14.802,10.37 23.434,13.03c0.108,0.02 8.632,2.06 21.491,3.34c14.034,9.61 31.011,17.62 51.571,22.85c-11.384,2.5 -22.833,3.37 -33.217,3.37Z" style="fill:#ecbf46;fill-rule:nonzero;"/><path d="M171.721,91.652c-14.791,-9.48 -24.874,-20.64 -31.651,-32.02l-0,-0.01c-0.627,-3.96 -0.98,-7.93 -0.978,-11.9c0.001,-2.81 0.179,-5.61 0.562,-8.4c2.192,-15.91 8.421,-32.22 26.081,-35.77c2.128,-0.42 4.245,-0.63 6.319,-0.63c13.076,-0 24.485,8.17 26.899,20.17c0.305,1.53 0.453,3.05 0.454,4.55c0.01,12.27 -9.704,23.52 -23.557,26.31c-1.521,0.3 -3.032,0.5 -4.53,0.59c-1.635,5.59 -2.378,11.38 -2.372,17.2c0.006,6.69 1.003,13.41 2.773,19.91Z" style="fill:#ecbf46;fill-rule:nonzero;"/><path d="M58.664,88.182l-20.929,-20.92c-0.304,-4.06 -1.017,-8.07 -2.171,-12c-1.488,-0.09 -3.002,-0.28 -4.523,-0.58c-3.377,-0.68 -6.5,-1.86 -9.309,-3.44l-11.219,-11.22c-1.953,-3.58 -3.037,-7.55 -3.034,-11.64c0.001,-1.5 0.15,-3.03 0.458,-4.55c0.719,-3.56 2.224,-6.8 4.346,-9.56l53.027,53.04c-0.507,2.17 -1.08,4.34 -1.712,6.52c-1.401,4.82 -3.084,9.63 -4.934,14.35Z" style="fill:#ecbf46;fill-rule:nonzero;"/><path d="M172.635,202.152l-19.516,-19.51c1.932,-0.76 3.86,-1.55 5.759,-2.45c3.562,-1.96 6.77,-4.33 9.173,-7.29c0.444,-0.56 0.84,-1.1 1.218,-1.64l18.979,18.97c-4.535,4.77 -9.925,8.84 -15.613,11.92Z" style="fill:#ecbf46;fill-rule:nonzero;"/></g></g></g></svg>