<?xml version="1.0" encoding="UTF-8" standalone="no"?><!DOCTYPE svg PUBLIC "-//W3C//DTD SVG 1.1//EN" "http://www.w3.org/Graphics/SVG/1.1/DTD/svg11.dtd"><svg width="100%" height="100%" viewBox="0 0 217 145" version="1.1" xmlns="http://www.w3.org/2000/svg" xmlns:xlink="http://www.w3.org/1999/xlink" xml:space="preserve" xmlns:serif="http://www.serif.com/" style="fill-rule:evenodd;clip-rule:evenodd;stroke-linejoin:round;stroke-miterlimit:2;"><g><g><g><path d="M191.955,108.038c-1.057,-1.608 -2.088,-3.225 -3.091,-4.84l0,-12.37l3.091,4.956l0,12.254Z" style="fill:#fdd4b3;fill-rule:nonzero;"/><path d="M191.955,119.803l-3.091,-4.957l0,-11.648c1.003,1.615 2.034,3.232 3.091,4.84l0,11.765Z" style="fill:#fbb686;fill-rule:nonzero;"/><path d="M191.955,124.479c-0.109,-0.752 -0.16,-1.485 -0.159,-2.195c0.001,-0.711 0.056,-1.398 0.159,-2.059l0,4.254Z" style="fill:#db833d;fill-rule:nonzero;"/><path d="M198.676,137.468c-0.4,-0.396 -0.791,-0.814 -1.172,-1.254c0.381,0.436 0.772,0.851 1.172,1.245l-0,0.009Zm-0,-19.864c-1.041,-1.374 -2.069,-2.783 -3.08,-4.215l0,-11.781l3.08,4.924l-0,11.072Z" style="fill:#fdd4b3;fill-rule:nonzero;"/><path d="M198.676,137.459c-0.4,-0.394 -0.791,-0.809 -1.172,-1.245c-0.671,-0.775 -1.31,-1.615 -1.908,-2.512l0,-20.313c1.011,1.432 2.039,2.841 3.08,4.215l-0,19.855Z" style="fill:#fbb686;fill-rule:nonzero;"/><path d="M204.435,141.41c-0.464,-0.19 -0.927,-0.413 -1.389,-0.666c0.462,0.251 0.926,0.473 1.389,0.666Zm0.53,-16.155c-1.036,-1.147 -2.065,-2.345 -3.086,-3.585l-0,-10.006l1.647,2.63c0.48,0.205 0.952,0.433 1.439,0.714l-0,10.247Z" style="fill:#fdd4b3;fill-rule:nonzero;"/><path d="M204.965,141.614c-0.177,-0.063 -0.353,-0.131 -0.53,-0.204c-0.463,-0.193 -0.927,-0.415 -1.389,-0.666c-0.389,-0.212 -0.777,-0.446 -1.167,-0.7l-0,-18.374c1.021,1.24 2.05,2.438 3.086,3.585l-0,16.359Z" style="fill:#fbb686;fill-rule:nonzero;"/><path d="M208.617,142.35c-0.142,0 -0.284,-0.004 -0.427,-0.011l0,-0.013c0.175,0.011 0.35,0.016 0.523,0.016c0.228,0 0.454,-0.009 0.678,-0.027c-0.255,0.023 -0.513,0.035 -0.774,0.035Zm2.664,-10.874c-1.032,-0.883 -2.064,-1.834 -3.091,-2.846l0,-11.392c1.088,0.919 2.127,2.014 3.091,3.225l0,11.013Z" style="fill:#fdd4b3;fill-rule:nonzero;"/><path d="M208.713,142.342c-0.173,0 -0.348,-0.005 -0.523,-0.016l0,-13.696c1.027,1.012 2.059,1.963 3.091,2.846l0,10.43c-0.596,0.21 -1.232,0.348 -1.89,0.409c-0.224,0.018 -0.45,0.027 -0.678,0.027Z" style="fill:#fbb686;fill-rule:nonzero;"/><path d="M214.928,138.81l0,-0.005c0.414,-0.722 0.727,-1.53 0.938,-2.404c-0.211,0.88 -0.523,1.689 -0.938,2.409Zm1.175,-3.745c-0.391,-0.245 -0.784,-0.503 -1.175,-0.772l0,-7.4c0.845,2.241 1.272,4.468 1.273,6.507c0.001,0.571 -0.032,1.127 -0.098,1.665Z" style="fill:#fdd4b3;fill-rule:nonzero;"/><path d="M214.928,138.805l0,-4.512c0.391,0.269 0.784,0.527 1.175,0.772c-0.055,0.461 -0.134,0.907 -0.237,1.336c-0.211,0.874 -0.524,1.682 -0.938,2.404Z" style="fill:#fbb686;fill-rule:nonzero;"/><path d="M115.245,68.594c3.3,5.088 7.456,9.277 12.176,12.471c9.64,6.623 21.589,9.168 33.101,7.046c5.596,-1.007 11.105,-3.162 16.165,-6.43c15.505,-10.088 22.639,-28.164 19.499,-45.277c-1.006,-5.607 -3.144,-11.095 -6.439,-16.171c-2.1,-3.225 -4.547,-6.104 -7.285,-8.583c-6.646,-6.095 -14.894,-9.894 -23.543,-11.181c-10.309,-1.506 -21.198,0.584 -30.61,6.721c-17.34,11.268 -24.219,32.549 -17.951,51.285c1.168,3.496 2.798,6.895 4.887,10.119Z" style="fill:#450100;fill-rule:nonzero;"/><path d="M160.847,88.051c0.255,-0.131 0.506,-0.277 0.751,-0.438c3.897,-2.533 5.006,-7.74 2.474,-11.636c-1.374,-2.1 -3.534,-3.398 -5.834,-3.745c-0.409,-0.061 -0.823,-0.092 -1.237,-0.092c-1.57,-0 -3.153,0.444 -4.571,1.369c-3.896,2.532 -4.995,7.739 -2.462,11.636c0.018,0.027 0.035,0.054 0.053,0.08c-5.275,-2.171 -10.17,-5.368 -14.352,-9.508c-0.002,-0.002 -0.004,-0.003 -0.005,-0.005l60.522,-39.308c-1.006,-5.607 -3.144,-11.095 -6.439,-16.171c-2.1,-3.225 -4.547,-6.104 -7.285,-8.583l-59.512,38.647c-2.3,-16.534 4.877,-33.682 19.792,-43.367c5.072,-3.29 10.576,-5.444 16.177,-6.461c8.649,1.287 16.897,5.086 23.543,11.181c2.738,2.479 5.185,5.358 7.285,8.583c3.295,5.076 5.433,10.564 6.439,16.171c0.485,2.641 0.725,5.304 0.727,7.958c0.012,14.531 -7.101,28.764 -20.194,37.298c-0.01,0.007 -0.022,0.014 -0.032,0.021c-0.271,0.175 -0.544,0.347 -0.817,0.516c-1.194,0.736 -2.412,1.411 -3.648,2.025c-0.643,0.319 -1.292,0.622 -1.945,0.908c-0.002,0.001 -0.004,0.002 -0.006,0.003c-3.066,1.343 -6.229,2.317 -9.424,2.918Zm2.097,-86.052c-1.562,-0 -3.143,0.437 -4.539,1.359c-3.902,2.533 -5.006,7.729 -2.473,11.636c1.602,2.471 4.307,3.828 7.068,3.829c0.504,-0 1.009,-0.046 1.51,-0.137c1.055,-0.185 2.094,-0.596 3.058,-1.224c3.896,-2.533 4.995,-7.728 2.462,-11.625c-1.369,-2.122 -3.523,-3.399 -5.839,-3.745c-0.412,-0.062 -0.829,-0.093 -1.247,-0.093Z" style="fill:#370000;fill-rule:nonzero;"/><path d="M163,18.823c-2.761,-0.001 -5.466,-1.358 -7.068,-3.829c-2.533,-3.907 -1.429,-9.103 2.473,-11.636c1.396,-0.922 2.977,-1.359 4.539,-1.359c0.418,-0 0.835,0.031 1.247,0.093c2.316,0.346 4.47,1.623 5.839,3.745c2.533,3.897 1.434,9.092 -2.462,11.625c-0.964,0.628 -2.003,1.039 -3.058,1.224c-0.501,0.091 -1.006,0.137 -1.51,0.137Z" style="fill:#844838;fill-rule:nonzero;"/><path d="M157.009,88.977c-0.634,0 -1.265,-0.072 -1.879,-0.212c1.801,-0.107 3.601,-0.324 5.392,-0.654c0.108,-0.02 0.217,-0.04 0.325,-0.06c-0.74,0.381 -1.517,0.64 -2.307,0.785c-0.508,0.095 -1.021,0.141 -1.531,0.141Z" style="fill:#fff;fill-rule:nonzero;"/><path d="M155.13,88.765c-2.026,-0.465 -3.879,-1.679 -5.109,-3.54c3.374,1.389 6.903,2.358 10.501,2.886c-1.791,0.33 -3.591,0.547 -5.392,0.654Z" style="fill:#8b5242;fill-rule:nonzero;"/><path d="M160.522,88.111c-3.598,-0.528 -7.127,-1.497 -10.501,-2.886c-0.018,-0.026 -0.035,-0.053 -0.053,-0.08c-2.533,-3.897 -1.434,-9.104 2.462,-11.636c1.418,-0.925 3.001,-1.369 4.571,-1.369c0.414,-0 0.828,0.031 1.237,0.092c2.3,0.347 4.46,1.645 5.834,3.745c2.532,3.896 1.423,9.103 -2.474,11.636c-0.245,0.161 -0.496,0.307 -0.751,0.438c-0.108,0.02 -0.217,0.04 -0.325,0.06Z" style="fill:#844838;fill-rule:nonzero;"/><path d="M127.421,81.065c-4.72,-3.194 -8.876,-7.383 -12.176,-12.471c-2.089,-3.224 -3.719,-6.623 -4.887,-10.119l12.592,-8.178c0,0.005 0.001,0.011 0.002,0.016c0.865,6.256 3.079,12.404 6.743,18.044c1.763,2.715 3.757,5.17 5.969,7.355l-8.243,5.353Z" style="fill:#6c0400;fill-rule:nonzero;"/><path d="M135.664,75.712c-2.212,-2.185 -4.206,-4.64 -5.969,-7.355c-3.664,-5.64 -5.878,-11.788 -6.743,-18.044c-0.001,-0.005 -0.002,-0.011 -0.002,-0.016l59.512,-38.647c2.738,2.479 5.185,5.358 7.285,8.583c3.295,5.076 5.433,10.564 6.439,16.171l-60.522,39.308Z" style="fill:#580000;fill-rule:nonzero;"/><path d="M194.833,37.282l-25.506,-17.103l2.024,32.353l-24.923,-17.47l3.789,31.194l-25.398,-17.166l2.602,31.975" style="fill:#fcc9a6;fill-rule:nonzero;"/><path d="M0.099,137.057c0.167,1.396 0.557,2.662 1.174,3.745c0.568,0.974 1.315,1.797 2.257,2.413c0.444,0.282 0.909,0.498 1.385,0.683c0.958,0.357 2.013,0.476 3.107,0.411c1.028,-0.054 2.116,-0.292 3.214,-0.692c1.039,-0.379 2.057,-0.91 3.08,-1.571c1.104,-0.703 2.181,-1.569 3.204,-2.587c1.109,-1.092 2.159,-2.359 3.096,-3.766l0.178,-0.26c1.905,-2.955 3.064,-6.072 3.453,-8.962c0.216,-1.505 0.205,-2.944 0,-4.254c-0.005,-0.119 -0.022,-0.227 -0.043,-0.335l0.043,-0.098l3.096,-4.925l3.604,-5.78l3.101,-4.947l3.193,-5.12l3.08,-4.935l3.664,-5.834l3.084,-4.936l2.047,-3.279l7.137,-11.442l-9.184,-5.963l-1.489,-0.965l-1.595,2.567l-3.664,5.834l-3.08,4.924l-3.193,5.131l-3.101,4.947l-3.604,5.779l-3.096,4.914l-3.631,5.834l-3.096,4.958l-3.204,5.12l-1.645,2.63c-0.487,0.196 -0.953,0.412 -1.435,0.693c-1.098,0.585 -2.186,1.343 -3.214,2.241c-1.094,0.92 -2.139,2.002 -3.107,3.226c-0.455,0.572 -0.882,1.19 -1.299,1.829c-0.985,1.504 -1.753,3.052 -2.343,4.6c-1.077,2.879 -1.478,5.715 -1.174,8.172Z" style="fill:#fcc9a6;fill-rule:nonzero;"/><path d="M7.5,144.338c-1.446,-0 -2.799,-0.361 -3.97,-1.123c-0.684,-0.447 -1.269,-1.004 -1.754,-1.654c0.485,0.647 1.068,1.206 1.754,1.654c0.444,0.282 0.909,0.498 1.385,0.683c0.794,0.296 1.654,0.428 2.548,0.428c0.185,0 0.371,-0.006 0.559,-0.017c1.028,-0.054 2.116,-0.292 3.214,-0.692c0.14,-0.051 0.279,-0.105 0.418,-0.161c-1.417,0.577 -2.825,0.882 -4.154,0.882Zm4.581,-1.064c0.007,-0.003 0.014,-0.007 0.021,-0.01c-0.007,0.004 -0.014,0.006 -0.021,0.01Zm0.029,-0.013c0.739,-0.333 1.471,-0.74 2.206,-1.215c0.378,-0.24 0.752,-0.5 1.123,-0.778c-1.088,0.821 -2.209,1.491 -3.329,1.993Zm4.519,-2.966c0.301,-0.266 0.598,-0.544 0.891,-0.836c1.109,-1.092 2.159,-2.359 3.096,-3.766l0.178,-0.26c1.905,-2.955 3.064,-6.072 3.453,-8.962c0.108,-0.752 0.16,-1.489 0.158,-2.2c-0.001,-0.712 -0.055,-1.399 -0.158,-2.054c-0.004,-0.082 -0.013,-0.158 -0.025,-0.233c0.687,3.882 -0.466,8.879 -3.428,13.46c-1.229,1.886 -2.65,3.518 -4.165,4.851Zm-15.78,-0.347c-0.379,-0.875 -0.631,-1.848 -0.756,-2.891c0.001,-0.001 0.004,-0.002 0.005,-0.003c0,0.001 0,0.002 0.001,0.003c0.125,1.044 0.374,2.015 0.75,2.891Zm23.355,-18.066l0.043,-0.098l3.096,-4.925l3.604,-5.78l3.101,-4.947l3.193,-5.12l3.08,-4.935l2.709,-4.315l-18.826,30.12Z" style="fill:#fcc9a6;fill-rule:nonzero;"/><path d="M8.022,144.309l0,-13.704c1.076,-1.059 2.149,-2.186 3.214,-3.365l0,16.377c-1.098,0.4 -2.186,0.638 -3.214,0.692Zm-3.107,-0.411c-0.476,-0.185 -0.941,-0.401 -1.385,-0.683c-0.686,-0.448 -1.269,-1.007 -1.754,-1.654c-0.182,-0.243 -0.349,-0.498 -0.503,-0.766l0,-4.513c1.212,-0.833 2.429,-1.777 3.642,-2.815l0,10.431Zm9.401,-1.852l0,-18.384c1.08,-1.313 2.148,-2.671 3.204,-4.065l0,19.862c-0.293,0.292 -0.59,0.57 -0.891,0.836c-0.391,0.344 -0.789,0.669 -1.19,0.973c-0.371,0.278 -0.745,0.538 -1.123,0.778Zm6.3,-6.353l-0,-20.334c1.237,-1.751 2.45,-3.538 3.631,-5.336l0,11.761l-0.043,0.098c0.006,0.034 0.012,0.067 0.018,0.102c0.012,0.075 0.021,0.151 0.025,0.233c0.103,0.655 0.157,1.342 0.158,2.054c-0.001,-0.712 -0.055,-1.399 -0.158,-2.054l0,4.254c-0.389,2.89 -1.548,6.007 -3.453,8.962l-0.178,0.26Zm6.727,-18.834l0,-11.682c1.247,-2.006 2.452,-4.008 3.604,-5.974l0,11.876l-3.604,5.78Zm6.705,-10.727l0,-12.348c1.137,-2.035 2.205,-3.998 3.193,-5.853l-0,13.081l-3.193,5.12Zm6.273,-10.055l-0,-11.897c1.199,0.744 2.422,1.424 3.664,2.042l0,4.014l-0.955,1.526l-2.709,4.315Z" style="fill:#f9a375;fill-rule:nonzero;"/><path d="M43.985,90.243l0,-0.007l1.941,-3.106c0.001,0.001 0.002,0.001 0.003,0.002l-1.944,3.111Z" style="fill:#fdd4b3;fill-rule:nonzero;"/><path d="M43.985,90.236l0,-4.014c0.642,0.32 1.289,0.623 1.941,0.908l-1.941,3.106Z" style="fill:#fbb686;fill-rule:nonzero;"/><path d="M37.241,87.931l-0,-5.843c0.726,0.539 1.475,1.06 2.243,1.561c-0.693,1.344 -1.441,2.776 -2.243,4.282Z" style="fill:#fdd4b3;fill-rule:nonzero;"/><path d="M37.241,101.012l-0,-13.081c0.802,-1.506 1.55,-2.938 2.243,-4.282c0.012,0.008 0.024,0.015 0.036,0.023c0.265,0.173 0.533,0.342 0.801,0.508l-0,11.897l-3.08,4.935Z" style="fill:#fbb686;fill-rule:nonzero;"/><path d="M30.947,99.203l0,-12.142l3.101,-4.947l0,11.67c-0.984,1.76 -2.019,3.574 -3.101,5.419Z" style="fill:#fdd4b3;fill-rule:nonzero;"/><path d="M30.947,111.079l0,-11.876c1.082,-1.845 2.117,-3.659 3.101,-5.419l0,12.348l-3.101,4.947Z" style="fill:#fbb686;fill-rule:nonzero;"/><path d="M24.247,110.023l0,-12.269l3.096,-4.914l0,12.337c-1.005,1.616 -2.038,3.237 -3.096,4.846Z" style="fill:#fdd4b3;fill-rule:nonzero;"/><path d="M24.247,121.784l0,-11.761c1.058,-1.609 2.091,-3.23 3.096,-4.846l0,11.682l-3.096,4.925Z" style="fill:#fbb686;fill-rule:nonzero;"/><path d="M24.247,126.471l0,-4.254c0.103,0.655 0.157,1.342 0.158,2.054c0.002,0.711 -0.05,1.448 -0.158,2.2Z" style="fill:#db833d;fill-rule:nonzero;"/><path d="M17.52,119.597l0,-11.051l3.096,-4.958l-0,11.771c-1.017,1.439 -2.049,2.855 -3.096,4.238Z" style="fill:#fdd4b3;fill-rule:nonzero;"/><path d="M17.52,139.459l0,-19.862c1.047,-1.383 2.079,-2.799 3.096,-4.238l-0,20.334c-0.937,1.407 -1.987,2.674 -3.096,3.766Z" style="fill:#fbb686;fill-rule:nonzero;"/><path d="M11.654,143.456c0.142,-0.058 0.285,-0.119 0.427,-0.182c-0.142,0.063 -0.284,0.124 -0.427,0.182Zm0.448,-0.192c0.003,-0.001 0.006,-0.002 0.008,-0.003c-0.003,0.001 -0.005,0.002 -0.008,0.003Zm-0.866,-16.024l0,-10.251c0.482,-0.281 0.948,-0.497 1.435,-0.693l1.645,-2.63l0,9.996c-1.018,1.237 -2.046,2.433 -3.08,3.578Z" style="fill:#fdd4b3;fill-rule:nonzero;"/><path d="M11.236,143.617l0,-16.377c1.034,-1.145 2.062,-2.341 3.08,-3.578l0,18.384c-0.735,0.475 -1.467,0.882 -2.206,1.215c-0.002,0.001 -0.005,0.002 -0.008,0.003c-0.007,0.003 -0.014,0.007 -0.021,0.01c-0.142,0.063 -0.285,0.124 -0.427,0.182c-0.139,0.056 -0.278,0.11 -0.418,0.161Z" style="fill:#fbb686;fill-rule:nonzero;"/><path d="M4.915,133.467l0,-11.011c0.968,-1.224 2.013,-2.306 3.107,-3.226l0,11.375c-1.034,1.018 -2.069,1.974 -3.107,2.862Z" style="fill:#fdd4b3;fill-rule:nonzero;"/><path d="M7.463,144.326c-0.894,0 -1.754,-0.132 -2.548,-0.428l0,-10.431c1.038,-0.888 2.073,-1.844 3.107,-2.862l0,13.704c-0.188,0.011 -0.374,0.017 -0.559,0.017Z" style="fill:#fbb686;fill-rule:nonzero;"/><path d="M1.273,140.802c-0.156,-0.273 -0.297,-0.558 -0.424,-0.854c0.127,0.294 0.268,0.577 0.424,0.847l0,0.007Zm-1.175,-3.748c-0.066,-0.537 -0.098,-1.091 -0.098,-1.66c0.003,-2.037 0.431,-4.259 1.273,-6.509l0,7.397c-0.393,0.269 -0.783,0.526 -1.175,0.772Z" style="fill:#fdd4b3;fill-rule:nonzero;"/><path d="M1.273,140.795c-0.156,-0.27 -0.297,-0.553 -0.424,-0.847c-0.376,-0.876 -0.625,-1.847 -0.75,-2.891c-0.001,-0.001 -0.001,-0.002 -0.001,-0.003c0.392,-0.246 0.782,-0.503 1.175,-0.772l0,4.513Z" style="fill:#fbb686;fill-rule:nonzero;"/><path d="M100.957,70.597c-3.296,5.066 -7.453,9.255 -12.177,12.458c-9.64,6.636 -21.583,9.18 -33.1,7.047c-5.601,-0.996 -11.105,-3.149 -16.16,-6.43c-15.511,-10.088 -22.638,-28.174 -19.511,-45.276c1.018,-5.597 3.15,-11.095 6.446,-16.171c2.094,-3.236 4.551,-6.105 7.285,-8.572c6.645,-6.084 14.893,-9.904 23.542,-11.171c10.315,-1.527 21.186,0.573 30.621,6.688c17.335,11.269 24.208,32.571 17.946,51.307c-1.175,3.485 -2.792,6.894 -4.892,10.12Z" style="fill:#450100;fill-rule:nonzero;"/><path d="M55.37,90.045c-3.205,-0.594 -6.374,-1.568 -9.444,-2.915c-0.652,-0.285 -1.299,-0.588 -1.941,-0.908c-1.242,-0.618 -2.465,-1.298 -3.664,-2.042c-0.268,-0.166 -0.536,-0.335 -0.801,-0.508c-0.012,-0.008 -0.024,-0.015 -0.036,-0.023c-13.095,-8.535 -20.203,-22.774 -20.197,-37.299c0.001,-2.653 0.24,-5.315 0.722,-7.954c1.018,-5.597 3.15,-11.095 6.446,-16.171c2.094,-3.236 4.551,-6.105 7.285,-8.572c6.645,-6.084 14.893,-9.904 23.542,-11.171c5.595,0.995 11.105,3.161 16.172,6.44c14.925,9.699 22.101,26.854 19.802,43.371c-0.001,0.002 -0.001,0.004 -0.001,0.006l-59.515,-38.646c-2.734,2.467 -5.191,5.336 -7.285,8.572c-3.296,5.076 -5.428,10.574 -6.446,16.171l60.532,39.309c-0.001,0.002 -0.002,0.003 -0.004,0.004c-4.182,4.152 -9.08,7.342 -14.356,9.508c0.017,-0.026 0.035,-0.053 0.052,-0.08c2.533,-3.908 1.435,-9.115 -2.467,-11.636c-1.409,-0.923 -2.982,-1.36 -4.545,-1.36c-0.419,0 -0.838,0.032 -1.252,0.094c-2.301,0.346 -4.47,1.634 -5.834,3.734c-2.533,3.897 -1.423,9.102 2.463,11.635c0.254,0.161 0.511,0.308 0.772,0.441Zm-2.117,-86.054c-0.417,0 -0.832,0.031 -1.243,0.093c-2.316,0.335 -4.475,1.624 -5.85,3.734c-2.527,3.897 -1.412,9.114 2.485,11.625c0.957,0.639 1.99,1.039 3.056,1.233c0.503,0.093 1.009,0.138 1.514,0.138c2.75,0 5.446,-1.35 7.064,-3.828c2.534,-3.897 1.419,-9.114 -2.478,-11.636c-1.405,-0.92 -2.986,-1.359 -4.548,-1.359Z" style="fill:#370000;fill-rule:nonzero;"/><path d="M53.215,20.814c-0.505,0 -1.011,-0.045 -1.514,-0.138c-1.066,-0.194 -2.099,-0.594 -3.056,-1.233c-3.897,-2.511 -5.012,-7.728 -2.485,-11.625c1.375,-2.11 3.534,-3.399 5.85,-3.734c0.411,-0.062 0.826,-0.093 1.243,-0.093c1.562,0 3.143,0.439 4.548,1.359c3.897,2.522 5.012,7.739 2.478,11.636c-1.618,2.478 -4.314,3.828 -7.064,3.828Z" style="fill:#844838;fill-rule:nonzero;"/><path d="M59.185,90.966c-0.508,0 -1.018,-0.046 -1.525,-0.138c-0.784,-0.137 -1.55,-0.403 -2.29,-0.783c0.103,0.02 0.207,0.039 0.31,0.057c1.783,0.33 3.576,0.548 5.369,0.657c-0.61,0.137 -1.235,0.207 -1.864,0.207Z" style="fill:#fff;fill-rule:nonzero;"/><path d="M61.049,90.759c-1.793,-0.109 -3.586,-0.327 -5.369,-0.657c3.596,-0.532 7.125,-1.499 10.501,-2.885c-1.238,1.874 -3.099,3.083 -5.132,3.542Z" style="fill:#8b5242;fill-rule:nonzero;"/><path d="M55.68,90.102c-0.103,-0.018 -0.207,-0.037 -0.31,-0.057c-0.261,-0.133 -0.518,-0.28 -0.772,-0.441c-3.886,-2.533 -4.996,-7.738 -2.463,-11.635c1.364,-2.1 3.533,-3.388 5.834,-3.734c0.414,-0.062 0.833,-0.094 1.252,-0.094c1.563,0 3.136,0.437 4.545,1.36c3.902,2.521 5,7.728 2.467,11.636c-0.017,0.027 -0.035,0.054 -0.052,0.08c-3.376,1.386 -6.905,2.353 -10.501,2.885Z" style="fill:#844838;fill-rule:nonzero;"/><path d="M88.78,83.055l-8.239,-5.35c2.202,-2.186 4.202,-4.642 5.961,-7.357c3.667,-5.648 5.886,-11.794 6.753,-18.049l12.594,8.178c-1.175,3.485 -2.792,6.894 -4.892,10.12c-3.296,5.066 -7.453,9.255 -12.177,12.458Z" style="fill:#6c0400;fill-rule:nonzero;"/><path d="M80.541,77.705l-60.532,-39.309c1.018,-5.597 3.15,-11.095 6.446,-16.171c2.094,-3.236 4.551,-6.105 7.285,-8.572l59.515,38.646c-0.867,6.255 -3.086,12.401 -6.753,18.049c-1.759,2.715 -3.759,5.171 -5.961,7.357Z" style="fill:#580000;fill-rule:nonzero;"/><path d="M21.368,39.284l25.502,-17.114l-2.014,32.365l24.928,-17.482l-3.811,31.196l25.41,-17.167l-2.603,31.973" style="fill:#fcc9a6;fill-rule:nonzero;"/><path d="M216.103,135.065c-0.168,1.407 -0.558,2.674 -1.175,3.745c-0.562,0.985 -1.314,1.797 -2.251,2.414c-0.438,0.271 -0.903,0.498 -1.396,0.682c-0.952,0.336 -2.003,0.487 -3.091,0.433c-1.044,-0.076 -2.127,-0.325 -3.225,-0.725c-1.034,-0.369 -2.056,-0.899 -3.086,-1.57c-1.103,-0.704 -2.164,-1.569 -3.203,-2.576c-1.103,-1.092 -2.142,-2.359 -3.08,-3.766l-0.183,-0.26c-1.911,-2.955 -3.069,-6.072 -3.458,-8.963c-0.217,-1.504 -0.207,-2.932 0,-4.254c0.01,-0.118 0.026,-0.226 0.048,-0.335l-0.048,-0.087l-3.091,-4.957l-3.61,-5.759l-3.095,-4.946l-3.209,-5.119l-3.08,-4.926l-3.648,-5.834l-3.085,-4.947l-2.045,-3.28l-7.15,-11.441l9.195,-5.963l1.482,-0.964l1.603,2.566l3.648,5.834l3.08,4.935l3.209,5.121l3.095,4.946l3.61,5.759l3.091,4.956l3.641,5.824l3.08,4.924l3.203,5.132l1.647,2.63c0.48,0.205 0.952,0.433 1.439,0.714c1.098,0.585 2.191,1.331 3.225,2.23c1.088,0.919 2.127,2.014 3.091,3.225c0.459,0.574 0.887,1.169 1.304,1.829c0.98,1.494 1.759,3.053 2.343,4.601c1.082,2.868 1.478,5.715 1.175,8.172Z" style="fill:#fcc9a6;fill-rule:nonzero;"/><path d="M209.391,142.315c0.658,-0.061 1.294,-0.199 1.89,-0.409c0.493,-0.184 0.958,-0.411 1.396,-0.682c0.205,-0.135 0.401,-0.279 0.588,-0.432c-0.187,0.154 -0.383,0.298 -0.588,0.432c-0.984,0.639 -2.096,0.994 -3.286,1.091Zm-2.26,-0.109c-0.883,-0.149 -1.788,-0.416 -2.696,-0.796c0.177,0.073 0.353,0.141 0.53,0.204c0.731,0.266 1.455,0.466 2.166,0.592Zm6.137,-1.417c0.009,-0.008 0.019,-0.015 0.028,-0.023c-0.009,0.008 -0.019,0.015 -0.028,0.023Zm-10.222,-0.045c-1.011,-0.547 -2.013,-1.227 -2.983,-2.03c0.595,0.492 1.199,0.936 1.816,1.33c0.39,0.254 0.778,0.488 1.167,0.7Zm-2.997,-2.041c-0.005,-0.005 -0.011,-0.009 -0.016,-0.014c0.005,0.005 0.011,0.009 0.016,0.014Zm15.817,-2.302c0.103,-0.429 0.182,-0.875 0.237,-1.336c-0.054,0.46 -0.133,0.906 -0.237,1.336Zm-18.362,-0.187c-0.741,-0.849 -1.443,-1.775 -2.091,-2.772c-2.927,-4.511 -4.09,-9.445 -3.45,-13.295c-0.003,0.026 -0.006,0.052 -0.008,0.078c-0.103,0.661 -0.158,1.348 -0.159,2.059c-0.001,0.71 0.05,1.443 0.159,2.195c0.389,2.891 1.547,6.008 3.458,8.963l0.183,0.26c0.598,0.897 1.237,1.737 1.908,2.512Zm-5.543,-16.399l-6.516,-10.424l3.419,5.455l3.091,4.957l0.006,0.012Z" style="fill:#fcc9a6;fill-rule:nonzero;"/><path d="M208.19,142.326c-0.349,-0.02 -0.702,-0.06 -1.059,-0.12c-0.711,-0.126 -1.435,-0.326 -2.166,-0.592l-0,-16.359c1.068,1.183 2.146,2.313 3.225,3.375l0,13.696Zm3.091,-0.42l0,-10.43c1.217,1.041 2.432,1.983 3.647,2.817l0,4.512c-0.433,0.755 -0.978,1.416 -1.632,1.961c-0.009,0.008 -0.019,0.015 -0.028,0.023c-0.001,0.001 -0.002,0.002 -0.003,0.003c-0.187,0.153 -0.383,0.297 -0.588,0.432c-0.438,0.271 -0.903,0.498 -1.396,0.682Zm-9.402,-1.862c-0.617,-0.394 -1.221,-0.838 -1.816,-1.33c-0.004,-0.003 -0.009,-0.007 -0.014,-0.011c-0.005,-0.005 -0.011,-0.009 -0.016,-0.014c-0.461,-0.383 -0.914,-0.793 -1.357,-1.23l-0,-19.855c1.056,1.395 2.124,2.753 3.203,4.066l-0,18.374Zm-6.283,-6.342l-0.183,-0.26c-1.911,-2.955 -3.069,-6.072 -3.458,-8.963l0,-4.254c-0.103,0.661 -0.158,1.348 -0.159,2.059c0.001,-0.711 0.056,-1.398 0.159,-2.059c0.002,-0.026 0.005,-0.052 0.008,-0.078c0.014,-0.086 0.029,-0.172 0.045,-0.257l-0.047,-0.075l-0.006,-0.012l0,-11.765c1.184,1.803 2.401,3.595 3.641,5.351l0,20.313Zm-6.732,-18.856l-3.419,-5.455l-0.191,-0.305l-0,-11.871c1.154,1.97 2.36,3.973 3.61,5.983l0,11.648Zm-6.705,-10.711l-3.209,-5.133l0,-13.081c0.993,1.864 2.065,3.837 3.209,5.883l-0,12.331Zm-6.289,-10.06l-3.648,-5.834l0,-4.019c1.236,-0.614 2.454,-1.289 3.648,-2.025l-0,11.878Z" style="fill:#f9a375;fill-rule:nonzero;"/><path d="M172.222,88.262l-1.951,-3.129c0.002,-0.001 0.004,-0.002 0.006,-0.003l1.945,3.111l0,0.021Z" style="fill:#fdd4b3;fill-rule:nonzero;"/><path d="M172.222,88.241l-1.945,-3.111c0.653,-0.286 1.302,-0.589 1.945,-0.908l0,4.019Z" style="fill:#fbb686;fill-rule:nonzero;"/><path d="M178.95,99.022l-3.08,-4.926l-0,-0.021l3.08,4.927l0,0.02Zm0,-13.101c-0.797,-1.497 -1.543,-2.924 -2.231,-4.261c0.764,-0.498 1.508,-1.015 2.231,-1.551l0,5.812Z" style="fill:#fdd4b3;fill-rule:nonzero;"/><path d="M178.95,99.002l-3.08,-4.927l-0,-11.878c0.273,-0.169 0.546,-0.341 0.817,-0.516c0.01,-0.007 0.022,-0.014 0.032,-0.021c0.688,1.337 1.434,2.764 2.231,4.261l0,13.081Z" style="fill:#fbb686;fill-rule:nonzero;"/><path d="M185.254,109.087l-3.095,-4.946l-0,-0.006l3.095,4.951l-0,0.001Zm-0,-11.872c-1.079,-1.842 -2.113,-3.653 -3.095,-5.411l-0,-11.681l3.095,4.946l-0,12.146Z" style="fill:#fdd4b3;fill-rule:nonzero;"/><path d="M185.254,109.086l-3.095,-4.951l-0,-12.331c0.982,1.758 2.016,3.569 3.095,5.411l-0,11.871Z" style="fill:#fbb686;fill-rule:nonzero;"/></g></g></g></svg>