<?xml version="1.0" encoding="UTF-8" standalone="no"?><!DOCTYPE svg PUBLIC "-//W3C//DTD SVG 1.1//EN" "http://www.w3.org/Graphics/SVG/1.1/DTD/svg11.dtd"><svg width="100%" height="100%" viewBox="0 0 130 217" version="1.1" xmlns="http://www.w3.org/2000/svg" xmlns:xlink="http://www.w3.org/1999/xlink" xml:space="preserve" xmlns:serif="http://www.serif.com/" style="fill-rule:evenodd;clip-rule:evenodd;stroke-linejoin:round;stroke-miterlimit:2;"><g><g><g><path d="M19.28,1.11l0,51.7c0,0.25 -0.01,0.47 -0.01,0.7c-0.02,0.14 -0.03,0.27 -0.05,0.4c-0.02,0.12 -0.03,0.25 -0.05,0.36c-0.02,0.14 -0.04,0.27 -0.07,0.42l-0,0.01c-0.04,0.14 -0.07,0.27 -0.11,0.41c-0.09,0.19 -0.27,0.38 -0.52,0.55c-0.57,0.43 -1.5,0.79 -2.68,1.06c-0.78,0.21 -1.68,0.36 -2.66,0.45c-0.53,0.07 -1.1,0.11 -1.69,0.13c-0.46,0.02 -0.91,0.03 -1.39,0.03c-0.42,0 -0.86,-0.01 -1.26,-0.02c-0.64,-0.03 -1.24,-0.07 -1.82,-0.14c-0.98,-0.1 -1.88,-0.24 -2.65,-0.43c-1.26,-0.31 -2.23,-0.7 -2.79,-1.14c-0.19,-0.16 -0.34,-0.32 -0.43,-0.49c-0.02,-0.15 -0.06,-0.29 -0.09,-0.42l0,-0.02c-0.12,-0.6 -0.18,-1.23 -0.18,-1.86l-0,-51.7c-0,-0.38 0.02,-0.76 0.06,-1.11l18.33,0c0.03,0.35 0.06,0.73 0.06,1.11Z" style="fill:#dd995e;fill-rule:nonzero;"/><path d="M39.5,91.7l0,-90.59c0,-0.38 -0.03,-0.76 -0.08,-1.11l-18.32,0c-0.04,0.35 -0.07,0.73 -0.07,1.11l0,90.59l18.47,0Z" style="fill:#dd995e;fill-rule:nonzero;"/><path d="M60.43,120.21l0,-118.75c0,-0.49 -0.05,-0.99 -0.13,-1.46l-18.19,-0c-0.08,0.47 -0.13,0.97 -0.13,1.46l-0,118.75l18.45,0Z" style="fill:#dd995e;fill-rule:nonzero;"/><path d="M80.77,156.73l0,-155.27c0,-0.49 -0.06,-0.99 -0.14,-1.46l-18.2,0c-0.08,0.47 -0.13,0.97 -0.13,1.46l0,155.27l18.47,-0Z" style="fill:#dd995e;fill-rule:nonzero;"/><path d="M102.25,181.34l0,-178.9c0,-0.84 -0.13,-1.65 -0.34,-2.44l-17.77,0c-0.21,0.79 -0.34,1.6 -0.34,2.44l0,178.9l18.45,0Z" style="fill:#dd995e;fill-rule:nonzero;"/><path d="M124.26,213.58l0,-211.14c0,-0.84 -0.12,-1.65 -0.34,-2.44l-17.77,0c-0.21,0.79 -0.35,1.6 -0.35,2.44l0,211.14l18.46,0Z" style="fill:#dd995e;fill-rule:nonzero;"/><path d="M8.79,57.31c-0.64,-0.03 -1.24,-0.07 -1.82,-0.14l-0,-15.76l1.82,-0l0,15.9Zm2.65,-0.01l-0,-15.89l1.69,-0l0,15.76c-0.53,0.07 -1.1,0.11 -1.69,0.13Zm-7.12,-0.56c-1.26,-0.31 -2.23,-0.7 -2.79,-1.14c-0.19,-0.16 -0.34,-0.32 -0.43,-0.49c-0.02,-0.15 -0.06,-0.29 -0.09,-0.42l0,-0.02c-0.12,-0.6 -0.18,-1.23 -0.18,-1.86l-0,-11.4l3.49,-0l-0,15.33Zm11.47,-0.02l0,-15.31l3.49,-0l0,11.4c0,0.25 -0.01,0.47 -0.01,0.7c-0.02,0.14 -0.03,0.27 -0.05,0.4c-0.02,0.12 -0.03,0.25 -0.05,0.36c-0.02,0.14 -0.04,0.27 -0.07,0.42l-0,0.01c-0.04,0.14 -0.07,0.27 -0.11,0.41c-0.09,0.19 -0.27,0.38 -0.52,0.55c-0.57,0.43 -1.5,0.79 -2.68,1.06Zm-11.6,-44.17l-3.36,-0l-0,-6.63c1.03,2.13 2.17,4.35 3.36,6.63Z" style="fill:#e3a051;fill-rule:nonzero;"/><path d="M39.5,91.7l-3.49,0l0,-27.97c1.14,1.55 2.3,3.12 3.49,4.68l0,23.29Zm-6.16,0l-1.68,0l0,-34.03c0.56,0.78 1.12,1.57 1.68,2.36l-0,31.67Zm-4.35,0l-1.81,0l0,-40.55c0.6,0.89 1.2,1.78 1.81,2.67l-0,37.88Zm-4.47,0l-3.49,0l0,-49.97c1.14,1.79 2.3,3.6 3.49,5.42l0,44.55Z" style="fill:#e3a051;fill-rule:nonzero;"/><path d="M60.43,120.21l-3.43,0l0,-30.26c1.13,1.29 2.28,2.58 3.43,3.87l0,26.39Zm-6.08,0l-1.69,0l0,-35.31c0.56,0.66 1.12,1.32 1.69,1.99l-0,33.32Zm-4.36,0l-1.8,0l-0,-40.71c0.59,0.74 1.2,1.47 1.8,2.21l-0,38.5Zm-4.47,0l-3.54,0l-0,-48.54c1.16,1.5 2.34,3.01 3.54,4.52l0,44.02Z" style="fill:#e3a051;fill-rule:nonzero;"/><path d="M80.77,156.73l-3.5,-0l0,-45.53c1.15,1.1 2.32,2.21 3.5,3.3l0,42.23Zm-6.16,-0l-1.69,-0l0,-49.78c0.56,0.55 1.13,1.11 1.69,1.67l-0,48.11Z" style="fill:#e3a051;fill-rule:nonzero;"/><path d="M70.26,156.73l-1.81,-0l-0,-54.34c0.6,0.63 1.2,1.25 1.81,1.87l0,52.47Z" style="fill:#e3a051;fill-rule:nonzero;"/><path d="M65.79,156.73l-3.49,-0l0,-60.89c1.15,1.26 2.31,2.52 3.49,3.77l0,57.12Z" style="fill:#e3a051;fill-rule:nonzero;"/><path d="M102.25,181.34l-3.48,0l0,-51.25c1.15,0.92 2.31,1.83 3.48,2.74l0,48.51Zm-6.15,0l-1.69,0l0,-54.8c0.57,0.47 1.13,0.93 1.69,1.39l-0,53.41Zm-4.35,0l-1.81,0l-0,-58.59c0.6,0.52 1.2,1.03 1.81,1.55l0,57.04Zm-4.46,0l-3.49,0l0,-64.03c1.15,1.04 2.31,2.09 3.49,3.12l0,60.91Z" style="fill:#e3a051;fill-rule:nonzero;"/><path d="M124.26,213.58l-3.54,0l-0,-67.52c1.17,0.76 2.35,1.53 3.54,2.28l0,65.24Zm-6.2,0l-1.69,0l-0,-70.43c0.56,0.38 1.13,0.76 1.69,1.14l-0,69.29Zm-4.35,0l-1.81,0l0,-73.55c0.6,0.42 1.2,0.85 1.81,1.27l-0,72.28Zm-4.48,0l-3.43,0l0,-78.02c1.14,0.85 2.28,1.7 3.43,2.54l-0,75.48Z" style="fill:#e3a051;fill-rule:nonzero;"/><path d="M111.9,140.03c-0.89,-0.64 -1.78,-1.28 -2.67,-1.93l-0,-96.69l2.67,-0l0,98.62Zm0,-127.48l-2.67,-0l-0,-12.55l2.67,0l0,12.55Z" style="fill:#c67d38;fill-rule:nonzero;"/><path d="M111.9,213.58l-2.67,0l-0,-75.48c0.89,0.65 1.78,1.29 2.67,1.93l0,73.55Z" style="fill:#cb8234;fill-rule:nonzero;"/><path d="M116.37,143.15c-0.89,-0.61 -1.78,-1.23 -2.66,-1.85l-0,-99.89l2.66,-0l-0,101.74Zm-0,-130.6l-2.66,-0l-0,-12.55l2.66,-0l-0,12.55Z" style="fill:#c67d38;fill-rule:nonzero;"/><path d="M116.37,213.58l-2.66,0l-0,-72.28c0.88,0.62 1.77,1.24 2.66,1.85l-0,70.43Z" style="fill:#cb8234;fill-rule:nonzero;"/><path d="M120.72,146.06c-0.89,-0.59 -1.78,-1.18 -2.66,-1.77l-0,-102.88l2.66,-0l-0,104.65Zm-0,-133.51l-2.66,-0l-0,-12.55l2.66,-0l-0,12.55Z" style="fill:#c67d38;fill-rule:nonzero;"/><path d="M120.72,213.58l-2.66,0l-0,-69.29c0.88,0.59 1.77,1.18 2.66,1.77l-0,67.52Z" style="fill:#cb8234;fill-rule:nonzero;"/><path d="M89.94,122.75c-0.89,-0.77 -1.77,-1.54 -2.65,-2.32l0,-79.02l2.65,-0l-0,81.34Zm-0,-110.2l-2.65,-0l0,-12.55l2.65,-0l-0,12.55Z" style="fill:#c67d38;fill-rule:nonzero;"/><path d="M89.94,181.34l-2.65,0l0,-60.91c0.88,0.78 1.76,1.55 2.65,2.32l-0,58.59Z" style="fill:#cb8234;fill-rule:nonzero;"/><path d="M94.41,126.54c-0.89,-0.75 -1.78,-1.49 -2.66,-2.24l0,-82.89l2.66,-0l0,85.13Zm0,-113.99l-2.66,-0l0,-12.55l2.66,0l0,12.55Z" style="fill:#c67d38;fill-rule:nonzero;"/><path d="M94.41,181.34l-2.66,0l0,-57.04c0.88,0.75 1.77,1.49 2.66,2.24l0,54.8Z" style="fill:#cb8234;fill-rule:nonzero;"/><path d="M98.77,130.09c-0.9,-0.72 -1.78,-1.44 -2.67,-2.16l-0,-86.52l2.67,-0l0,88.68Zm0,-117.54l-2.67,-0l-0,-12.55l2.67,-0l0,12.55Z" style="fill:#c67d38;fill-rule:nonzero;"/><path d="M98.77,181.34l-2.67,0l-0,-53.41c0.89,0.72 1.77,1.44 2.67,2.16l0,51.25Z" style="fill:#cb8234;fill-rule:nonzero;"/><path d="M68.45,102.39c-0.9,-0.92 -1.78,-1.85 -2.66,-2.78l0,-58.2l2.66,-0l-0,60.98Zm-0,-89.84l-2.66,-0l0,-12.55l2.66,0l-0,12.55Z" style="fill:#c67d38;fill-rule:nonzero;"/><path d="M68.45,156.73l-2.66,-0l0,-57.12c0.88,0.93 1.76,1.86 2.66,2.78l-0,54.34Z" style="fill:#cb8234;fill-rule:nonzero;"/><path d="M72.92,106.95c-0.89,-0.9 -1.78,-1.79 -2.66,-2.69l0,-62.85l2.66,-0l0,65.54Zm0,-94.4l-2.66,-0l0,-12.55l2.66,-0l0,12.55Z" style="fill:#c67d38;fill-rule:nonzero;"/><path d="M72.92,156.73l-2.66,-0l0,-52.47c0.88,0.9 1.77,1.79 2.66,2.69l0,49.78Z" style="fill:#cb8234;fill-rule:nonzero;"/><path d="M77.27,111.2c-0.89,-0.86 -1.78,-1.72 -2.66,-2.58l-0,-67.21l2.66,-0l0,69.79Z" style="fill:#c67d38;fill-rule:nonzero;"/><path d="M77.27,156.73l-2.66,-0l-0,-48.11c0.88,0.86 1.77,1.72 2.66,2.58l0,45.53Z" style="fill:#cb8234;fill-rule:nonzero;"/><rect x="74.61" y="0" width="2.66" height="12.55" style="fill:#c67d38;fill-rule:nonzero;"/><path d="M48.19,79.5c-0.9,-1.1 -1.79,-2.21 -2.67,-3.31l0,-34.78l2.67,-0l-0,38.09Z" style="fill:#c67d38;fill-rule:nonzero;"/><path d="M48.19,120.21l-2.67,0l0,-44.02c0.88,1.1 1.77,2.21 2.67,3.31l-0,40.71Z" style="fill:#cb8234;fill-rule:nonzero;"/><rect x="45.52" y="0" width="2.67" height="12.55" style="fill:#c67d38;fill-rule:nonzero;"/><path d="M52.66,84.9c-0.9,-1.06 -1.79,-2.13 -2.67,-3.19l-0,-40.3l2.67,-0l0,43.49Z" style="fill:#c67d38;fill-rule:nonzero;"/><path d="M52.66,120.21l-2.67,0l-0,-38.5c0.88,1.06 1.77,2.13 2.67,3.19l0,35.31Z" style="fill:#cb8234;fill-rule:nonzero;"/><rect x="49.99" y="0" width="2.67" height="12.55" style="fill:#c67d38;fill-rule:nonzero;"/><path d="M57,89.95c-0.89,-1.02 -1.77,-2.04 -2.65,-3.06l-0,-45.48l2.65,-0l0,48.54Z" style="fill:#c67d38;fill-rule:nonzero;"/><path d="M57,120.21l-2.65,0l-0,-33.32c0.88,1.02 1.76,2.04 2.65,3.06l0,30.26Z" style="fill:#cb8234;fill-rule:nonzero;"/><rect x="54.35" y="0" width="2.65" height="12.55" style="fill:#c67d38;fill-rule:nonzero;"/><path d="M27.18,51.15c-0.9,-1.34 -1.79,-2.67 -2.66,-4l0,-5.74l2.66,-0l0,9.74Z" style="fill:#c67d38;fill-rule:nonzero;"/><path d="M27.18,91.7l-2.66,0l0,-44.55c0.87,1.33 1.76,2.66 2.66,4l0,40.55Z" style="fill:#cb8234;fill-rule:nonzero;"/><rect x="24.52" y="0" width="2.66" height="12.55" style="fill:#c67d38;fill-rule:nonzero;"/><path d="M31.66,57.67c-0.9,-1.29 -1.79,-2.57 -2.67,-3.85l-0,-12.41l2.67,-0l0,16.26Z" style="fill:#c67d38;fill-rule:nonzero;"/><path d="M31.66,91.7l-2.67,0l-0,-37.88c0.88,1.28 1.77,2.56 2.67,3.85l0,34.03Z" style="fill:#cb8234;fill-rule:nonzero;"/><rect x="28.99" y="0" width="2.67" height="12.55" style="fill:#c67d38;fill-rule:nonzero;"/><path d="M36.01,63.73c-0.9,-1.24 -1.79,-2.47 -2.67,-3.7l-0,-18.62l2.67,-0l0,22.32Z" style="fill:#c67d38;fill-rule:nonzero;"/><path d="M36.01,91.7l-2.67,0l-0,-31.67c0.88,1.23 1.77,2.46 2.67,3.7l0,27.97Z" style="fill:#cb8234;fill-rule:nonzero;"/><rect x="33.34" y="0" width="2.67" height="12.55" style="fill:#c67d38;fill-rule:nonzero;"/><path d="M6.97,57.17c-0.98,-0.1 -1.88,-0.24 -2.65,-0.43l-0,-15.33l2.65,-0l-0,15.76Z" style="fill:#cb8234;fill-rule:nonzero;"/><rect x="4.32" y="0" width="2.65" height="12.55" style="fill:#c67d38;fill-rule:nonzero;"/><path d="M10.05,57.33c-0.42,0 -0.86,-0.01 -1.26,-0.02l0,-15.9l2.65,-0l-0,15.89c-0.46,0.02 -0.91,0.03 -1.39,0.03Z" style="fill:#cb8234;fill-rule:nonzero;"/><rect x="8.79" y="0" width="2.65" height="12.55" style="fill:#c67d38;fill-rule:nonzero;"/><path d="M13.13,57.17l0,-15.76l2.66,-0l0,15.31c-0.78,0.21 -1.68,0.36 -2.66,0.45Z" style="fill:#cb8234;fill-rule:nonzero;"/><rect x="13.13" y="0" width="2.66" height="12.55" style="fill:#c67d38;fill-rule:nonzero;"/><path d="M129.04,18l0,17.74l-0.03,-0c-0.13,3.15 -1.85,5.67 -3.97,5.67l-125.04,-0l0,-28.86l125.04,-0c2.08,-0 3.77,2.38 3.95,5.45l0.05,-0Z" style="fill:#400000;fill-rule:nonzero;"/><path d="M129.04,18l0,14.19l-0.03,0c-0.13,3.14 -1.85,5.66 -3.97,5.66l-125.04,-0l0,-25.3l125.04,-0c2.08,-0 3.77,2.38 3.95,5.45l0.05,0Z" style="fill:#741809;fill-rule:nonzero;"/><path d="M19.1,54.69l-0,0.03c-0,0.14 -0.04,0.25 -0.11,0.39c-0.09,0.19 -0.27,0.38 -0.52,0.55c-0.57,0.43 -1.5,0.79 -2.68,1.07c-0.78,0.2 -1.68,0.35 -2.66,0.44c-0.53,0.07 -1.1,0.11 -1.69,0.13c-0.46,0.02 -0.91,0.03 -1.39,0.03c-0.42,0 -0.86,-0.01 -1.26,-0.02c-0.64,-0.03 -1.24,-0.07 -1.82,-0.14c-0.98,-0.1 -1.88,-0.24 -2.65,-0.43c-1.26,-0.31 -2.23,-0.7 -2.79,-1.14c-0.19,-0.16 -0.34,-0.32 -0.43,-0.49c-0.06,-0.14 -0.1,-0.25 -0.1,-0.39l0.01,-0.03l0,-0.02l0.03,-0.19c0.22,-0.71 1.45,-1.35 3.28,-1.77c0.77,-0.19 1.67,-0.35 2.65,-0.46c0.58,-0.04 1.18,-0.08 1.82,-0.1c0.16,-0.01 0.35,-0.03 0.53,-0.03c0.22,-0.01 0.44,-0.01 0.66,-0.01c0.28,-0 0.55,0.01 0.83,0.01c0.21,-0 0.42,0.02 0.63,0.04c0.3,0.01 0.59,0.03 0.86,0.04c0.28,0.01 0.56,0.04 0.83,0.05c0.98,0.11 1.87,0.27 2.66,0.46c1.81,0.43 3.05,1.06 3.27,1.77l0.04,0.21Z" style="fill:#741809;fill-rule:nonzero;"/><path d="M19.06,54.48c-0.64,0.34 -1.54,0.64 -2.63,0.86c-0.86,0.19 -1.87,0.36 -2.95,0.45c-0.6,0.06 -1.23,0.1 -1.87,0.13c-0.51,0.03 -1.02,0.04 -1.56,0.04c-0.48,0 -0.94,-0.01 -1.4,-0.04c-0.69,-0.02 -1.38,-0.07 -2.01,-0.13c-1.09,-0.1 -2.1,-0.26 -2.97,-0.44c-1.09,-0.23 -1.98,-0.53 -2.63,-0.87c0.22,-0.71 1.45,-1.35 3.28,-1.77c0.77,-0.19 1.67,-0.35 2.65,-0.46c0.58,-0.04 1.18,-0.08 1.82,-0.1c0.16,-0.01 0.35,-0.03 0.53,-0.03c0.22,-0.01 0.44,-0.01 0.66,-0.01c0.28,-0 0.55,0.01 0.83,0.01c0.26,-0 0.52,0.02 0.8,0.04c0.23,-0 0.46,0.02 0.69,0.04c0.28,0.01 0.56,0.04 0.83,0.05c0.98,0.11 1.87,0.27 2.66,0.46c1.81,0.43 3.05,1.06 3.27,1.77Z" style="fill:#400000;fill-rule:nonzero;"/><path d="M39.5,91.65l0,0.05c0,0.14 -0.03,0.26 -0.1,0.39c-0.11,0.18 -0.29,0.36 -0.55,0.55c-0.57,0.41 -1.52,0.79 -2.72,1.06c-0.81,0.18 -1.72,0.35 -2.72,0.44c-0.55,0.07 -1.12,0.1 -1.72,0.13c-0.46,0.03 -0.94,0.04 -1.42,0.04c-0.44,-0 -0.88,-0.01 -1.29,-0.04c-0.65,-0.02 -1.27,-0.06 -1.86,-0.13c-0.99,-0.09 -1.91,-0.26 -2.71,-0.44c-1.28,-0.29 -2.27,-0.67 -2.84,-1.13c-0.2,-0.16 -0.34,-0.32 -0.43,-0.48c-0.06,-0.13 -0.11,-0.25 -0.11,-0.39l0.01,-0.05l0,-0.01l0.04,-0.18c0.21,-0.73 1.47,-1.35 3.33,-1.78c0.8,-0.2 1.72,-0.34 2.71,-0.44c0.59,-0.06 1.21,-0.11 1.86,-0.13c0.16,-0.01 0.35,-0.01 0.53,-0.02c0.23,-0.01 0.46,-0.01 0.69,-0.01c0.28,0 0.56,0.01 0.84,0.01c0.22,0.01 0.43,0.01 0.65,0.02c0.3,0.02 0.6,0.04 0.87,0.05c0.29,0.03 0.58,0.05 0.85,0.08c1,0.1 1.91,0.24 2.72,0.44c1.85,0.44 3.12,1.06 3.34,1.78l0.03,0.19Z" style="fill:#741809;fill-rule:nonzero;"/><path d="M39.47,91.46c-0.66,0.33 -1.58,0.63 -2.69,0.85c-0.88,0.19 -1.91,0.35 -3.02,0.46c-0.6,0.05 -1.25,0.08 -1.9,0.11c-0.52,0.03 -1.05,0.03 -1.58,0.03c-0.5,-0 -0.98,-0 -1.45,-0.02c-0.71,-0.04 -1.4,-0.07 -2.05,-0.12c-1.11,-0.11 -2.14,-0.27 -3.02,-0.45c-1.11,-0.23 -2.03,-0.53 -2.68,-0.86c0.21,-0.73 1.47,-1.35 3.33,-1.78c0.8,-0.2 1.72,-0.34 2.71,-0.44c0.59,-0.06 1.21,-0.11 1.86,-0.13c0.16,-0.01 0.35,-0.01 0.53,-0.02c0.23,-0.01 0.46,-0.01 0.69,-0.01c0.28,0 0.56,0.01 0.84,0.01c0.27,0.01 0.54,0.01 0.82,0.02c0.22,0.01 0.47,0.03 0.7,0.05c0.29,0.03 0.58,0.05 0.85,0.08c1,0.1 1.91,0.24 2.72,0.44c1.85,0.44 3.12,1.06 3.34,1.78Z" style="fill:#400000;fill-rule:nonzero;"/><path d="M60.43,120.16l0,0.05c0,0.13 -0.03,0.26 -0.09,0.4c-0.11,0.18 -0.29,0.38 -0.55,0.55c-0.57,0.41 -1.53,0.79 -2.72,1.07c-0.8,0.17 -1.72,0.34 -2.72,0.43c-0.55,0.06 -1.13,0.09 -1.72,0.13c-0.46,0.03 -0.94,0.04 -1.42,0.04c-0.44,0 -0.87,-0.01 -1.29,-0.04c-0.64,-0.02 -1.27,-0.07 -1.86,-0.13c-0.98,-0.1 -1.9,-0.26 -2.7,-0.43c-1.29,-0.31 -2.27,-0.7 -2.85,-1.15c-0.2,-0.16 -0.34,-0.31 -0.42,-0.47c-0.08,-0.14 -0.11,-0.27 -0.11,-0.4l0.01,-0.05l-0,-0.01l0.03,-0.18c0.22,-0.71 1.47,-1.36 3.34,-1.78c0.8,-0.19 1.72,-0.33 2.7,-0.43c0.59,-0.06 1.22,-0.11 1.86,-0.13c0.16,-0.01 0.35,-0.02 0.53,-0.03l1.53,-0c0.22,0.01 0.43,0.02 0.65,0.03c0.3,0.02 0.59,0.05 0.88,0.06c0.29,0.02 0.57,0.04 0.84,0.07c1,0.1 1.9,0.24 2.72,0.43c1.85,0.43 3.11,1.08 3.33,1.79l0.03,0.18Z" style="fill:#741809;fill-rule:nonzero;"/><path d="M60.4,119.98c-0.66,0.33 -1.57,0.63 -2.67,0.86c-0.89,0.18 -1.91,0.34 -3.02,0.43c-0.61,0.06 -1.25,0.11 -1.91,0.13c-0.53,0.02 -1.04,0.02 -1.58,0.02c-0.5,-0 -0.98,-0 -1.45,-0.02c-0.7,-0.02 -1.4,-0.07 -2.04,-0.13c-1.12,-0.1 -2.14,-0.25 -3.02,-0.42c-1.13,-0.24 -2.04,-0.54 -2.69,-0.88c0.22,-0.71 1.47,-1.36 3.34,-1.78c0.8,-0.19 1.72,-0.33 2.7,-0.43c0.59,-0.06 1.22,-0.11 1.86,-0.13c0.16,-0.01 0.35,-0.02 0.53,-0.03l1.53,-0c0.27,0.01 0.55,0.02 0.82,0.03c0.24,0.01 0.47,0.02 0.71,0.06c0.29,0.02 0.57,0.04 0.84,0.07c1,0.1 1.9,0.24 2.72,0.43c1.85,0.43 3.11,1.08 3.33,1.79Z" style="fill:#400000;fill-rule:nonzero;"/><path d="M80.76,156.8l0,0.03c0,0.13 -0.04,0.27 -0.11,0.39c-0.11,0.2 -0.28,0.37 -0.54,0.56c-0.57,0.42 -1.53,0.79 -2.73,1.07c-0.8,0.18 -1.72,0.34 -2.71,0.43c-0.56,0.06 -1.13,0.09 -1.71,0.12c-0.48,0.02 -0.95,0.03 -1.43,0.03c-0.45,-0 -0.88,-0.01 -1.29,-0.02c-0.64,-0.03 -1.27,-0.07 -1.85,-0.13c-1.01,-0.09 -1.92,-0.25 -2.72,-0.43c-1.27,-0.3 -2.26,-0.68 -2.84,-1.16c-0.2,-0.15 -0.33,-0.29 -0.42,-0.47c-0.07,-0.12 -0.11,-0.26 -0.11,-0.39l0,-0.04l0.05,-0.21c0.21,-0.72 1.47,-1.34 3.32,-1.78c0.8,-0.17 1.71,-0.32 2.72,-0.43c0.58,-0.05 1.21,-0.1 1.85,-0.12c0.17,-0.01 0.36,-0.01 0.54,-0.02c0.22,-0.01 0.45,-0.01 0.68,-0.01c0.28,-0 0.56,0.01 0.84,0.01c0.21,0.01 0.43,0.01 0.66,0.03c0.28,0.01 0.58,0.03 0.85,0.04c0.3,0.02 0.59,0.05 0.86,0.07c0.99,0.11 1.91,0.26 2.71,0.43c1.86,0.44 3.12,1.07 3.33,1.79l0.05,0.21Z" style="fill:#741809;fill-rule:nonzero;"/><path d="M80.71,156.59c-0.64,0.34 -1.56,0.64 -2.67,0.87c-0.89,0.18 -1.91,0.34 -3.02,0.44c-0.6,0.06 -1.25,0.09 -1.9,0.13c-0.52,0.02 -1.04,0.03 -1.58,0.03c-0.5,-0 -0.97,-0.01 -1.44,-0.03c-0.71,-0.02 -1.41,-0.07 -2.05,-0.13c-1.11,-0.11 -2.14,-0.26 -3.03,-0.44c-1.11,-0.23 -2.03,-0.53 -2.67,-0.88c0.21,-0.72 1.47,-1.34 3.32,-1.78c0.8,-0.17 1.71,-0.32 2.72,-0.43c0.58,-0.05 1.21,-0.1 1.85,-0.12c0.17,-0.01 0.36,-0.01 0.54,-0.02c0.22,-0.01 0.45,-0.01 0.68,-0.01c0.28,-0 0.56,0.01 0.84,0.01c0.27,0.01 0.54,0.01 0.82,0.03c0.23,0.01 0.46,0.02 0.69,0.04c0.3,0.02 0.59,0.05 0.86,0.07c0.99,0.11 1.91,0.26 2.71,0.43c1.86,0.44 3.12,1.07 3.33,1.79Z" style="fill:#400000;fill-rule:nonzero;"/><path d="M102.25,181.45l0,0.03c0,0.13 -0.04,0.25 -0.09,0.38c-0.11,0.2 -0.28,0.38 -0.55,0.55c-0.58,0.44 -1.52,0.8 -2.73,1.07c-0.8,0.2 -1.72,0.36 -2.71,0.44c-0.55,0.08 -1.13,0.12 -1.72,0.14c-0.46,0.02 -0.93,0.02 -1.42,0.02c-0.44,0 -0.88,0 -1.29,-0.02c-0.65,-0.02 -1.26,-0.06 -1.85,-0.14c-1.01,-0.09 -1.92,-0.24 -2.72,-0.42c-1.27,-0.31 -2.27,-0.7 -2.84,-1.14c-0.19,-0.16 -0.34,-0.33 -0.42,-0.5c-0.08,-0.13 -0.11,-0.25 -0.11,-0.38l0,-0.05l0.04,-0.19c0.23,-0.72 1.48,-1.36 3.33,-1.77c0.8,-0.2 1.71,-0.34 2.72,-0.46c0.59,-0.04 1.2,-0.09 1.85,-0.11c0.17,-0.02 0.35,-0.03 0.54,-0.03l1.51,-0c0.23,-0 0.45,0.01 0.66,0.04c0.3,0.01 0.59,0.02 0.88,0.05c0.28,0.01 0.57,0.03 0.84,0.05c0.99,0.12 1.9,0.26 2.71,0.46c1.86,0.42 3.11,1.06 3.33,1.79l0.04,0.19Z" style="fill:#741809;fill-rule:nonzero;"/><path d="M102.21,181.26c-0.64,0.32 -1.56,0.61 -2.66,0.84c-0.89,0.19 -1.93,0.36 -3.03,0.44c-0.6,0.06 -1.24,0.1 -1.9,0.13c-0.52,0.02 -1.04,0.04 -1.59,0.04c-0.49,0 -0.97,-0.02 -1.43,-0.04c-0.72,-0.02 -1.41,-0.07 -2.05,-0.13c-1.11,-0.09 -2.14,-0.25 -3.03,-0.43c-1.11,-0.24 -2.03,-0.53 -2.68,-0.87c0.23,-0.72 1.48,-1.36 3.33,-1.77c0.8,-0.2 1.71,-0.34 2.72,-0.46c0.59,-0.04 1.2,-0.09 1.85,-0.11c0.17,-0.02 0.35,-0.03 0.54,-0.03l1.51,-0c0.28,-0 0.55,0.01 0.83,0.04c0.23,-0 0.47,0.02 0.71,0.05c0.28,0.01 0.57,0.03 0.84,0.05c0.99,0.12 1.9,0.26 2.71,0.46c1.86,0.42 3.11,1.06 3.33,1.79Z" style="fill:#400000;fill-rule:nonzero;"/><path d="M124.26,213.54l0,0.04c0,0.14 -0.02,0.27 -0.1,0.4c-0.1,0.18 -0.29,0.37 -0.54,0.55c-0.58,0.43 -1.52,0.79 -2.73,1.07c-0.79,0.18 -1.72,0.35 -2.71,0.44c-0.54,0.06 -1.12,0.09 -1.72,0.12c-0.46,0.01 -0.93,0.03 -1.42,0.03c-0.44,0 -0.88,-0.02 -1.29,-0.03c-0.65,-0.02 -1.27,-0.06 -1.85,-0.12c-1,-0.1 -1.92,-0.26 -2.71,-0.44c-1.28,-0.3 -2.27,-0.69 -2.85,-1.15c-0.19,-0.15 -0.34,-0.3 -0.42,-0.47c-0.06,-0.13 -0.12,-0.26 -0.12,-0.4l0.01,-0.04l-0,-0.01l0.05,-0.19c0.22,-0.71 1.47,-1.34 3.33,-1.78c0.79,-0.18 1.71,-0.33 2.71,-0.43c0.58,-0.07 1.2,-0.11 1.85,-0.13c0.17,-0.01 0.35,-0.01 0.53,-0.02c0.24,-0.01 0.46,-0.01 0.69,-0.01c0.28,-0 0.57,0.01 0.84,0.01c0.22,0.01 0.44,0.01 0.65,0.03c0.3,0.01 0.6,0.03 0.87,0.04c0.3,0.03 0.57,0.05 0.85,0.08c0.99,0.1 1.91,0.25 2.71,0.43c1.86,0.45 3.11,1.08 3.34,1.79l0.03,0.19Z" style="fill:#741809;fill-rule:nonzero;"/><path d="M124.23,213.35c-0.65,0.33 -1.56,0.63 -2.67,0.85c-0.89,0.2 -1.92,0.35 -3.02,0.46c-0.6,0.04 -1.26,0.08 -1.91,0.12c-0.52,0.02 -1.05,0.03 -1.58,0.03c-0.5,-0 -0.97,-0.01 -1.44,-0.02c-0.71,-0.03 -1.41,-0.09 -2.05,-0.13c-1.11,-0.11 -2.14,-0.26 -3.02,-0.45c-1.12,-0.23 -2.04,-0.53 -2.68,-0.87c0.22,-0.71 1.47,-1.34 3.33,-1.78c0.79,-0.18 1.71,-0.33 2.71,-0.43c0.58,-0.07 1.2,-0.11 1.85,-0.13c0.17,-0.01 0.35,-0.01 0.53,-0.02c0.24,-0.01 0.46,-0.01 0.69,-0.01c0.28,-0 0.57,0.01 0.84,0.01c0.27,0.01 0.54,0.01 0.82,0.03c0.23,0.01 0.47,0.02 0.7,0.04c0.3,0.03 0.57,0.05 0.85,0.08c0.99,0.1 1.91,0.25 2.71,0.43c1.86,0.45 3.11,1.08 3.34,1.79Z" style="fill:#400000;fill-rule:nonzero;"/><path d="M32.77,31.27l-3.01,6.58l-0.31,-0l-2.59,-5.22l2.43,-0.55l0.49,-0.12l2.99,-0.69Z" style="fill:#741809;fill-rule:nonzero;"/><path d="M97.17,16.4l-3.55,0.83l1.48,-4.68l0.23,-0l1.84,3.85Z" style="fill:#741809;fill-rule:nonzero;"/><path d="M2.98,38.14l0.17,-0.29l-2.57,-0l5.32,-0l-1.56,-0l-1.36,0.29Z" style="fill:#9b6758;fill-rule:nonzero;"/><path d="M110.32,37.85l-5.64,-0l-9.04,-19l-6.06,19l-5.63,-0l-9.45,-16.22l-2.48,-4.24l-2.68,5.44l-7.4,15.02l-6,-0l-6.99,-10.31l-7.01,-10.35l-6.18,13.38l-3.34,7.28l-2.66,-0l3.01,-6.58l-2.99,0.69l8.94,-19.41l5.94,-0l9.37,13.81l4.72,6.96l4.49,-9.09l5.75,-11.68l5.83,-0l4.63,7.95l6.84,11.71l4.57,-14.33l1.7,-5.33l2.54,-0l-1.48,4.68l3.55,-0.83l-1.84,-3.85l2.68,-0l1.57,3.3l7.86,16.48l8.74,-19.78l5.28,-0l-11.14,25.3Zm-80.87,-0l-2.7,-0l-2.32,-4.65l-7.8,-15.63l-10.52,19.86l-0.21,0.42l-5.32,-0c0.02,-0.29 0.1,-0.58 0.26,-0.84l12.95,-24.46l5.74,-0l9.76,19.53l-2.43,0.55l2.59,5.22Z" style="fill:#b57867;fill-rule:nonzero;"/><path d="M29.76,37.85l-0.31,-0l-2.59,-5.22l2.43,-0.55l0.23,0.46l0.26,-0.58l2.99,-0.69l-3.01,6.58Z" style="fill:#b57867;fill-rule:nonzero;"/><path d="M93.62,17.23l1.48,-4.68l0.23,-0l1.84,3.85l-3.55,0.83Z" style="fill:#b57867;fill-rule:nonzero;"/></g></g></g></svg>