<?xml version="1.0" encoding="UTF-8" standalone="no"?><!DOCTYPE svg PUBLIC "-//W3C//DTD SVG 1.1//EN" "http://www.w3.org/Graphics/SVG/1.1/DTD/svg11.dtd"><svg width="100%" height="100%" viewBox="0 0 215 217" version="1.1" xmlns="http://www.w3.org/2000/svg" xmlns:xlink="http://www.w3.org/1999/xlink" xml:space="preserve" xmlns:serif="http://www.serif.com/" style="fill-rule:evenodd;clip-rule:evenodd;stroke-linejoin:round;stroke-miterlimit:2;"><g><g><g><path d="M187.483,12.329l14.671,14.655l-9.194,9.352l-11.074,11.247l-3.864,3.95l-110.659,112.213l-2.961,2.998l-4.215,4.287l-23.769,24.168c-9.18,9.18 -10.402,14.79 -11.365,14.7l-19.24,-19.23c-0.065,-0.86 4.22,-1.91 11.45,-8.317c1.03,-0.909 2.1,-1.916 3.243,-3.062l166.977,-166.961Z" style="fill:#fcc9a6;fill-rule:nonzero;"/><path d="M70.832,143.841c-1.732,-1.743 -4.556,-1.743 -6.299,0c-1.228,1.223 -1.592,3.008 -1.066,4.567c0.2,0.617 0.568,1.234 1.066,1.722c1.743,1.753 4.567,1.753 6.299,0c1.445,-1.429 1.699,-3.573 0.764,-5.272c-0.185,-0.379 -0.45,-0.715 -0.764,-1.017Z" style="fill:#c59f85;fill-rule:nonzero;"/><path d="M67.072,150.168c-1.173,0 -2.345,-0.449 -3.238,-1.348c-0.135,-0.141 -0.27,-0.282 -0.367,-0.412c-0.156,-0.463 -0.234,-0.945 -0.234,-1.427c0,-1.142 0.436,-2.28 1.3,-3.14c0.871,-0.872 2.013,-1.307 3.154,-1.307c1.14,-0 2.279,0.435 3.145,1.307c0.314,0.302 0.579,0.638 0.764,1.017c0.221,1.396 -0.202,2.879 -1.278,3.962c-0.898,0.899 -2.073,1.348 -3.246,1.348Z" style="fill:#8e725f;fill-rule:nonzero;"/><path d="M80.986,138.459c-1.141,0 -2.282,-0.436 -3.15,-1.307c-0.515,-0.519 -0.872,-1.115 -1.078,-1.766c0.103,0.163 0.244,0.304 0.369,0.434c0.895,0.893 2.068,1.34 3.243,1.34c1.174,0 2.35,-0.447 3.251,-1.34c1.071,-1.082 1.499,-2.555 1.265,-3.973c-0.194,-0.357 -0.443,-0.692 -0.745,-1.005c-0.872,-0.867 -2.014,-1.3 -3.155,-1.3c-1.141,-0 -2.282,0.433 -3.15,1.3c-0.864,0.874 -1.303,2.012 -1.307,3.14c0.004,-1.128 0.443,-2.266 1.307,-3.14c0.868,-0.867 2.009,-1.3 3.15,-1.3c1.141,-0 2.283,0.433 3.155,1.3c0.302,0.313 0.551,0.648 0.745,1.005c0.932,1.69 0.678,3.868 -0.745,5.305c-0.872,0.871 -2.014,1.307 -3.155,1.307Z" style="fill:#ad8b75;fill-rule:nonzero;"/><path d="M80.37,137.16c-1.175,0 -2.348,-0.447 -3.243,-1.34c-0.125,-0.13 -0.266,-0.271 -0.369,-0.434c-0.154,-0.452 -0.23,-0.927 -0.229,-1.404c0.004,-1.128 0.443,-2.266 1.307,-3.14c0.868,-0.867 2.009,-1.3 3.15,-1.3c1.141,-0 2.283,0.433 3.155,1.3c0.302,0.313 0.551,0.648 0.745,1.005c0.234,1.418 -0.194,2.891 -1.265,3.973c-0.901,0.893 -2.077,1.34 -3.251,1.34Z" style="fill:#806655;fill-rule:nonzero;"/><path d="M92.901,126.238c-1.14,0 -2.28,-0.435 -3.149,-1.306c-0.508,-0.509 -0.881,-1.116 -1.071,-1.755c0.102,0.163 0.227,0.294 0.362,0.434c0.894,0.893 2.065,1.339 3.238,1.339c1.172,0 2.345,-0.446 3.241,-1.339c1.087,-1.083 1.505,-2.566 1.288,-3.962c-0.195,-0.368 -0.466,-0.704 -0.757,-1.028c-0.872,-0.866 -2.012,-1.3 -3.152,-1.3c-1.14,0 -2.28,0.434 -3.149,1.3c-0.864,0.868 -1.305,2.008 -1.306,3.143c0.001,-1.135 0.442,-2.275 1.306,-3.143c0.869,-0.866 2.009,-1.3 3.149,-1.3c1.14,0 2.28,0.434 3.152,1.3c0.291,0.324 0.562,0.66 0.757,1.028c0.925,1.689 0.67,3.843 -0.757,5.283c-0.872,0.871 -2.012,1.306 -3.152,1.306Z" style="fill:#ad8b75;fill-rule:nonzero;"/><path d="M92.281,124.95c-1.173,0 -2.344,-0.446 -3.238,-1.339c-0.135,-0.14 -0.26,-0.271 -0.362,-0.434c-0.157,-0.456 -0.235,-0.934 -0.235,-1.413c0.001,-1.135 0.442,-2.275 1.306,-3.143c0.869,-0.866 2.009,-1.3 3.149,-1.3c1.14,0 2.28,0.434 3.152,1.3c0.291,0.324 0.562,0.66 0.757,1.028c0.217,1.396 -0.201,2.879 -1.288,3.962c-0.896,0.893 -2.069,1.339 -3.241,1.339Z" style="fill:#806655;fill-rule:nonzero;"/><path d="M109.157,109.829c-1.141,0 -2.283,-0.436 -3.157,-1.308c-0.498,-0.508 -0.855,-1.114 -1.056,-1.753c0.097,0.152 0.228,0.304 0.363,0.423c0.898,0.899 2.07,1.348 3.241,1.348c1.171,0 2.342,-0.449 3.237,-1.348c1.082,-1.072 1.504,-2.566 1.283,-3.951c-0.189,-0.379 -0.455,-0.703 -0.757,-1.017c-0.872,-0.872 -2.013,-1.307 -3.154,-1.307c-1.141,0 -2.283,0.435 -3.157,1.307c-0.857,0.852 -1.293,1.995 -1.292,3.131c-0.001,-1.136 0.435,-2.279 1.292,-3.131c0.874,-0.872 2.016,-1.307 3.157,-1.307c1.141,0 2.282,0.435 3.154,1.307c0.302,0.314 0.568,0.638 0.757,1.017c0.93,1.688 0.67,3.853 -0.757,5.281c-0.872,0.872 -2.013,1.308 -3.154,1.308Z" style="fill:#ad8b75;fill-rule:nonzero;"/><path d="M108.548,108.539c-1.171,0 -2.343,-0.449 -3.241,-1.348c-0.135,-0.119 -0.266,-0.271 -0.363,-0.423c-0.157,-0.455 -0.235,-0.934 -0.236,-1.414c-0.001,-1.136 0.435,-2.279 1.292,-3.131c0.874,-0.872 2.016,-1.307 3.157,-1.307c1.141,0 2.282,0.435 3.154,1.307c0.302,0.314 0.568,0.638 0.757,1.017c0.221,1.385 -0.201,2.879 -1.283,3.951c-0.895,0.899 -2.066,1.348 -3.237,1.348Z" style="fill:#806655;fill-rule:nonzero;"/><path d="M122.456,96.83c-1.14,0 -2.28,-0.436 -3.149,-1.307c-0.508,-0.51 -0.87,-1.115 -1.077,-1.744c0.109,0.152 0.239,0.281 0.364,0.423c0.895,0.893 2.068,1.339 3.242,1.339c1.173,0 2.348,-0.446 3.246,-1.339c1.082,-1.083 1.51,-2.566 1.277,-3.962c-0.189,-0.367 -0.449,-0.715 -0.746,-1.028c-0.874,-0.861 -2.016,-1.291 -3.157,-1.291c-1.14,0 -2.28,0.43 -3.149,1.291c-0.867,0.875 -1.304,2.013 -1.306,3.149c0.002,-1.136 0.439,-2.274 1.306,-3.149c0.869,-0.861 2.009,-1.291 3.149,-1.291c1.141,0 2.283,0.43 3.157,1.291c0.297,0.313 0.557,0.661 0.746,1.028c0.932,1.688 0.682,3.853 -0.746,5.283c-0.874,0.871 -2.016,1.307 -3.157,1.307Z" style="fill:#ad8b75;fill-rule:nonzero;"/><path d="M121.836,95.541c-1.174,0 -2.347,-0.446 -3.242,-1.339c-0.125,-0.142 -0.255,-0.271 -0.364,-0.423c-0.154,-0.459 -0.23,-0.938 -0.229,-1.418c0.002,-1.136 0.439,-2.274 1.306,-3.149c0.869,-0.861 2.009,-1.291 3.149,-1.291c1.141,0 2.283,0.43 3.157,1.291c0.297,0.313 0.557,0.661 0.746,1.028c0.233,1.396 -0.195,2.879 -1.277,3.962c-0.898,0.893 -2.073,1.339 -3.246,1.339Z" style="fill:#806655;fill-rule:nonzero;"/><path d="M134.374,84.62c-1.141,-0 -2.283,-0.436 -3.155,-1.307c-0.508,-0.52 -0.866,-1.115 -1.066,-1.754c0.103,0.152 0.222,0.292 0.363,0.422c0.895,0.899 2.068,1.348 3.241,1.348c1.174,0 2.347,-0.449 3.243,-1.348c1.082,-1.082 1.51,-2.565 1.271,-3.962c-0.178,-0.367 -0.443,-0.713 -0.747,-1.017c-0.868,-0.866 -2.009,-1.299 -3.15,-1.299c-1.141,0 -2.283,0.433 -3.155,1.299c-0.863,0.867 -1.299,2.003 -1.299,3.139c0,-1.136 0.436,-2.272 1.299,-3.139c0.872,-0.866 2.014,-1.299 3.155,-1.299c1.141,0 2.282,0.433 3.15,1.299c0.304,0.304 0.569,0.65 0.747,1.017c0.942,1.699 0.688,3.854 -0.747,5.294c-0.868,0.871 -2.009,1.307 -3.15,1.307Z" style="fill:#ad8b75;fill-rule:nonzero;"/><path d="M133.757,83.329c-1.173,0 -2.346,-0.449 -3.241,-1.348c-0.141,-0.13 -0.26,-0.27 -0.363,-0.422c-0.155,-0.459 -0.233,-0.939 -0.233,-1.418c0,-1.136 0.436,-2.272 1.299,-3.139c0.872,-0.866 2.014,-1.299 3.155,-1.299c1.141,0 2.282,0.433 3.15,1.299c0.304,0.304 0.569,0.65 0.747,1.017c0.239,1.397 -0.189,2.88 -1.271,3.962c-0.896,0.899 -2.069,1.348 -3.243,1.348Z" style="fill:#806655;fill-rule:nonzero;"/><path d="M181.318,51.1l-23.607,23.608l-18.666,-18.659l23.601,-23.62l18.672,18.671Z" style="fill:#d8ad90;fill-rule:nonzero;"/><path d="M193.101,31.217l-0.107,-0.107l3.338,-3.335l0.146,-0.163l-6.92,-6.924c0.001,-0 0.004,-0.001 0.005,-0.001l7.034,7.034l-3.496,3.496Z" style="fill:#ad8b75;fill-rule:nonzero;"/><path d="M203.946,0l10.267,10.262l-12.059,16.722l-14.585,-14.577l16.377,-12.407Z" style="fill:#fcc9a6;fill-rule:nonzero;"/><path d="M180.762,51.967c-0.069,-0.035 -0.137,-0.07 -0.206,-0.104l0.754,-0.754l0.155,0.155l-0.703,0.703Z" style="fill:#ead1bf;fill-rule:nonzero;"/><path d="M180.556,51.863c-6.102,-3.073 -12.292,-4.193 -18.065,-4.193c-6.956,0 -13.309,1.625 -18.19,3.419l18.504,-18.497l18.505,18.517l-0.754,0.754Z" style="fill:#c99372;fill-rule:nonzero;"/><path d="M25.074,209.899l-0.021,0l-19.24,-19.23c-0.001,-0.01 -0.001,-0.02 -0.001,-0.02c0.003,-0.86 4.278,-1.94 11.451,-8.297c4.884,-0.553 10.256,-1.341 15.953,-2.549l9.248,9.246l-6.046,6.15c-9.11,9.11 -10.384,14.7 -11.344,14.7Z" style="fill:#fdd4b3;fill-rule:nonzero;"/><path d="M25.853,209.599c1.515,1.5 1.515,3.97 -0,5.46c-1.509,1.52 -3.957,1.52 -5.472,0l-19.244,-19.24c-1.516,-1.51 -1.516,-3.95 -0,-5.46c1.515,-1.51 3.966,-1.51 5.487,0l19.229,19.24Z" style="fill:#d8ad90;fill-rule:nonzero;"/><path d="M48.459,147.846l18.666,18.672l-23.591,23.601l-18.677,-18.677l23.602,-23.596Z" style="fill:#d8ad90;fill-rule:nonzero;"/><path d="M66.416,167.231c-0.001,0 -0.002,-0.001 -0.003,-0.001l0.712,-0.712l-0.709,0.713Z" style="fill:#ead1bf;fill-rule:nonzero;"/><path d="M66.413,167.23c-6.159,-3.152 -12.411,-4.296 -18.242,-4.296c-6.961,0 -13.322,1.63 -18.21,3.42l18.498,-18.508l18.666,18.672l-0.712,0.712Z" style="fill:#c99372;fill-rule:nonzero;"/><path d="M175.848,23.954l11.635,-11.625l-11.625,11.623c-0.003,0.001 -0.007,0.001 -0.01,0.002Zm18.485,-4.782l-6.85,-6.843l0.086,0.078l6.768,6.764c-0.001,0 -0.002,0 -0.004,0.001Z" style="fill:#fcc9a6;fill-rule:nonzero;"/><path d="M175.858,23.952l11.625,-11.623l6.85,6.843c-1.612,0.55 -3.206,1.054 -4.77,1.515l-3.227,-3.228l-3.508,3.508l0.104,0.103l-1.8,1.799c-1.868,0.42 -3.636,0.778 -5.274,1.083Z" style="fill:#fdd4b3;fill-rule:nonzero;"/><path d="M182.932,21.07l-0.104,-0.103l3.508,-3.508l3.227,3.228c-0.001,0 -0.004,0.001 -0.005,0.001l-3.109,-3.11l-0.174,0.152l-3.343,3.34Z" style="fill:#d0b096;fill-rule:nonzero;"/><path d="M194.337,19.171l-6.768,-6.764l16.377,-12.407l10.013,10.013c-6.268,3.983 -13.098,6.948 -19.619,9.157c-0.001,0 -0.002,0 -0.003,0.001Z" style="fill:#fdd4b3;fill-rule:nonzero;"/><path d="M183.742,37.419c-1.819,0 -3.639,-0.693 -5.027,-2.079c-2.771,-2.77 -2.771,-7.283 -0,-10.055l2.417,-2.416c0.947,-0.213 1.92,-0.442 2.913,-0.688l8.949,8.929l-4.234,4.23c-1.383,1.386 -3.2,2.079 -5.018,2.079Z" style="fill:#ad8b75;fill-rule:nonzero;"/><path d="M192.994,31.11l-8.949,-8.929c1.777,-0.44 3.621,-0.935 5.513,-1.493l6.92,6.924l-0.146,0.163l-3.338,3.335Z" style="fill:#806655;fill-rule:nonzero;"/><path d="M181.132,22.869l1.8,-1.799l1.113,1.111c-0.993,0.246 -1.966,0.475 -2.913,0.688Z" style="fill:#ad937e;fill-rule:nonzero;"/><path d="M184.045,22.181l-1.113,-1.111l3.343,-3.34l0.174,-0.152l3.109,3.11c-1.892,0.558 -3.736,1.053 -5.513,1.493Z" style="fill:#947d6b;fill-rule:nonzero;"/></g></g></g></svg>