<?xml version="1.0" encoding="UTF-8" standalone="no"?><!DOCTYPE svg PUBLIC "-//W3C//DTD SVG 1.1//EN" "http://www.w3.org/Graphics/SVG/1.1/DTD/svg11.dtd"><svg width="100%" height="100%" viewBox="0 0 223 217" version="1.1" xmlns="http://www.w3.org/2000/svg" xmlns:xlink="http://www.w3.org/1999/xlink" xml:space="preserve" xmlns:serif="http://www.serif.com/" style="fill-rule:evenodd;clip-rule:evenodd;stroke-linejoin:round;stroke-miterlimit:2;"><g><g><g><path d="M175.191,17.14c0,-0 10.5,0.95 24.09,2.14c3.37,3.67 6.66,8.56 9.63,14.58c1.41,2.78 2.76,5.78 3.99,9.02c3.29,8.54 5.981,18.6 7.66,30.04c0.58,3.56 1.01,7.27 1.301,11.08c0.419,5.11 0.679,10.45 0.679,15.97c0,8.89 -0.51,17.16 -1.439,24.76c-0.6,4.89 -1.391,9.51 -2.291,13.86c-4.23,20.1 -11.5,34.23 -19.209,41.31l-21.191,2.63l-3.22,0.37l0,-165.76Z" style="fill:#fcc9a6;fill-rule:nonzero;"/><path d="M202.872,150.96c1.299,-4.51 2.439,-9.42 3.38,-14.7l14.85,-11.53c-0.6,4.89 -1.391,9.51 -2.291,13.86l-15.939,12.37Z" style="fill:#fee2c4;fill-rule:nonzero;"/><path d="M209.112,93.9c-0.12,-3.97 -0.36,-7.82 -0.691,-11.55l12.14,-9.43c0.58,3.56 1.01,7.27 1.301,11.08l-12.75,9.9Z" style="fill:#fee2c4;fill-rule:nonzero;"/><path d="M175.191,17.14c18.5,-0 33.47,37.11 33.47,82.89c0,45.75 -14.97,82.87 -33.47,82.87c-18.5,-0 -33.51,-37.12 -33.51,-82.87c0,-45.78 15.01,-82.89 33.51,-82.89Z" style="fill:#b5927a;fill-rule:nonzero;"/><path d="M179.561,27.71c6.46,2.03 12.23,8.59 16.781,18.22c6.089,12.85 10,31.18 10.239,51.64l0,4.34c-0.27,20.34 -4.15,38.54 -10.239,51.31c-4.551,9.62 -10.321,16.19 -16.781,18.23c-8.36,-3.27 -15.52,-15.68 -19.86,-33.09c-2.79,-11.21 -4.439,-24.55 -4.439,-38.79c-0,-36.4 10.539,-66.55 24.299,-71.86Z" style="fill:#fcc9a6;fill-rule:nonzero;"/><path d="M163.051,16.13c0,0 10.25,0.96 23.48,2.2c0.93,1.06 1.88,2.25 2.8,3.53c1.84,2.53 3.651,5.46 5.36,8.79c4.64,8.92 8.681,20.53 11.321,34.39c0.71,3.73 1.319,7.61 1.809,11.68c0.901,7.42 1.401,15.37 1.401,23.77c-0,4.82 -0.141,9.46 -0.411,13.93c-0.309,4.98 -0.78,9.74 -1.38,14.25c-3.52,26.4 -11.799,44.71 -20.569,53.17l-20.651,2.69l-3.16,0.38l0,-168.78Z" style="fill:#919396;fill-rule:nonzero;"/><path d="M191.602,141.51c1.03,-4.8 1.89,-9.89 2.549,-15.2l14.66,-11.89c-0.309,4.98 -0.78,9.74 -1.38,14.25l-15.829,12.84Z" style="fill:#6f7073;fill-rule:nonzero;"/><path d="M195.281,86.89c-0.269,-4.18 -0.649,-8.27 -1.14,-12.22l11.871,-9.63c0.71,3.73 1.319,7.61 1.809,11.68l-12.54,10.17Z" style="fill:#6f7073;fill-rule:nonzero;"/><path d="M163.051,184.91c-1.66,-0 -3.299,-0.32 -4.9,-0.95l4.9,-0.59l0,1.54l3.071,-0.37c-1.01,0.25 -2.03,0.37 -3.071,0.37Z" style="fill:#919396;fill-rule:nonzero;"/><path d="M163.051,184.91l0,-1.54l6.421,-0.78c7.62,-6.83 14.89,-20.11 19.419,-38.89l2.711,-2.19c-5.11,23.71 -14.5,40.39 -25.48,43.03l-3.071,0.37Zm28.74,-56.69c0.331,-2.4 0.63,-4.88 0.88,-7.42c0.4,-4.29 0.691,-8.74 0.821,-13.38c0.069,-2.16 0.1,-4.37 0.1,-6.61c-0,-4.2 -0.141,-8.27 -0.391,-12.23l2.08,-1.69c0.28,4.44 0.42,8.99 0.42,13.63c0,8.99 -0.54,17.66 -1.55,25.79l-2.36,1.91Z" style="fill:#606164;fill-rule:nonzero;"/><path d="M188.891,143.7c0.63,-2.6 1.201,-5.3 1.721,-8.11c0.429,-2.38 0.829,-4.84 1.179,-7.37l2.36,-1.91c-0.659,5.31 -1.519,10.4 -2.549,15.2l-2.711,2.19Z" style="fill:#4d4d4f;fill-rule:nonzero;"/><path d="M192.012,76.39c-0.181,-1.43 -0.39,-2.84 -0.611,-4.23c-0.279,-1.75 -0.59,-3.45 -0.919,-5.11c-0.151,-0.86 -0.331,-1.69 -0.5,-2.5l-0,-0.01l0.01,0.01c-1.26,-6.07 -2.73,-11.65 -4.39,-16.74c-4.521,-13.94 -10.401,-24.18 -16.86,-30.4c12,5.45 21.74,27.83 25.399,57.26l-2.129,1.72Z" style="fill:#606164;fill-rule:nonzero;"/><path d="M165.122,16.3c-0.37,-0.04 -0.77,-0.09 -1.181,-0.14c0.401,0.03 0.791,0.08 1.181,0.14Z" style="fill:#919396;fill-rule:nonzero;"/><path d="M193.201,88.58c-0.15,-2.28 -0.329,-4.53 -0.55,-6.74c-0.19,-1.84 -0.399,-3.66 -0.639,-5.45l2.129,-1.72c0.491,3.95 0.871,8.04 1.14,12.22l-2.08,1.69Z" style="fill:#4d4d4f;fill-rule:nonzero;"/><path d="M193.592,100.81c-0,2.24 -0.031,4.45 -0.1,6.61c-0.13,4.64 -0.421,9.09 -0.821,13.38c-0.52,5.21 -1.21,10.14 -2.059,14.79c-4.24,23.08 -12.471,39.22 -21.14,47l-66.031,7.99l-18.65,2.24l-3.409,0.4l-0,-185.41c-0,-0 5.439,0.51 13.59,1.3c3.479,0.32 7.469,0.71 11.75,1.11c9.109,0.86 19.53,1.85 29.209,2.77c13.6,1.28 26.831,3.13 31.931,3.6c9.179,8.25 17.279,24.53 22.12,47.96c0.169,0.81 0.349,1.64 0.5,2.5c0.329,1.66 0.64,3.36 0.919,5.11c0.5,3.12 0.91,6.37 1.25,9.68c0.601,6.03 0.941,12.35 0.941,18.97Z" style="fill:#991f22;fill-rule:nonzero;"/><path d="M189.992,64.55l-0.01,-0.01c-1.26,-6.06 -2.73,-11.64 -4.38,-16.73c1.66,5.09 3.13,10.67 4.39,16.74Z" style="fill:#3c0000;fill-rule:nonzero;"/><path d="M166.972,16.5l-0.011,0c-0.55,-0.06 -1.16,-0.12 -1.829,-0.2l-0.01,-0c0.679,0.08 1.299,0.14 1.85,0.2Z" style="fill:#991f22;fill-rule:nonzero;"/><path d="M167.862,16.59c-0.281,-0.03 -0.581,-0.06 -0.901,-0.09l0.011,0c0.319,0.03 0.62,0.06 0.89,0.09Z" style="fill:#5b0101;fill-rule:nonzero;"/><path d="M163.941,16.16c-6.429,-0.75 -17.099,-2.14 -28.01,-3.17c-8.27,-0.78 -17.079,-1.63 -25.16,-2.39c8.081,0.76 16.89,1.61 25.18,2.39c10.901,1.03 21.57,2.42 27.99,3.17Z" style="fill:#991f22;fill-rule:nonzero;"/><path d="M165.132,16.3c-0.38,-0.04 -0.78,-0.09 -1.191,-0.14c0.411,0.05 0.811,0.1 1.181,0.14l0.01,-0Z" style="fill:#5b0101;fill-rule:nonzero;"/><path d="M189.982,64.54c-18.541,-8.21 -37.591,-11.13 -55.26,-11.13c-2.431,0 -4.821,0.06 -7.191,0.16c-0.799,-3.69 -1.689,-7.23 -2.659,-10.6c-1.101,-3.82 -2.28,-7.41 -3.541,-10.81l0.011,-0.01c-1.421,-3.86 -2.951,-7.47 -4.541,-10.78c-1.919,-4.01 -3.939,-7.61 -6.03,-10.77c8.081,0.76 16.89,1.61 25.16,2.39c10.911,1.03 21.581,2.42 28.01,3.17c0.411,0.05 0.811,0.1 1.191,0.14c0.669,0.08 1.279,0.14 1.829,0.2c0.32,0.03 0.62,0.06 0.901,0.09c6.809,6.12 13.01,16.65 17.74,31.22c1.65,5.09 3.12,10.67 4.38,16.73Z" style="fill:#67191b;fill-rule:nonzero;"/><path d="M121.331,32.16c-1.42,-3.87 -2.94,-7.48 -4.53,-10.79c1.59,3.31 3.12,6.92 4.541,10.78l-0.011,0.01Z" style="fill:#bc1e24;fill-rule:nonzero;"/><path d="M78.141,1.36c21.19,-0 38.361,44.4 38.361,99.17c-0,54.74 -17.171,99.16 -38.361,99.16c-21.18,-0 -38.36,-44.42 -38.36,-99.16c0,-54.77 17.18,-99.17 38.36,-99.17Z" style="fill:#200000;fill-rule:nonzero;"/><path d="M76.691,10.84c1.531,-0 3.041,0.27 4.5,0.83c6.72,2.51 12.781,10.58 17.561,22.43c6.38,15.85 10.449,38.43 10.699,63.63c0.01,0.82 0.01,1.63 0.01,2.46c0,0.8 0,1.61 -0.01,2.44c-0.25,25.19 -4.319,47.81 -10.709,63.63c-4.77,11.86 -10.831,19.92 -17.551,22.41c-1.459,0.57 -2.969,0.86 -4.5,0.86c-18.089,-0 -32.77,-40.01 -32.77,-89.34c0,-49.36 14.681,-89.35 32.77,-89.35Z" style="fill:#d4b6a1;fill-rule:nonzero;"/><path d="M73.401,15.2c1.451,-0 2.88,0.26 4.27,0.79c6.4,2.38 12.16,10.06 16.711,21.34c5.74,14.28 9.549,34.37 10.12,56.84c0.019,1.21 0.039,2.44 0.049,3.69c0.01,0.77 0.01,1.54 0.01,2.33c0,0.76 0,1.56 -0.01,2.32c-0.22,23.96 -4.1,45.46 -10.169,60.53c-4.551,11.26 -10.311,18.93 -16.711,21.32c-1.39,0.53 -2.819,0.8 -4.27,0.8c-8.48,-0 -16.19,-9.28 -21.82,-24.28c-5.76,-15.42 -9.349,-36.92 -9.349,-60.69c-0,-46.94 13.959,-84.99 31.169,-84.99Z" style="fill:#f8d2b9;fill-rule:nonzero;"/><path d="M117.742,100.48l80.409,-0" style="fill:none;fill-rule:nonzero;"/><path d="M117.742,102.22l80.409,0l0,-3.47l-80.409,0" style="fill:#919396;fill-rule:nonzero;"/><path d="M111.301,178.19l74.831,-6.74" style="fill:none;fill-rule:nonzero;"/><path d="M111.461,179.91l74.83,-6.74l-0.309,-3.45l-74.831,6.74" style="fill:#919396;fill-rule:nonzero;"/><path d="M111.301,27.71l80.41,6.15" style="fill:none;fill-rule:nonzero;"/><path d="M111.171,29.44l80.41,6.15l0.261,-3.46l-80.401,-6.15" style="fill:#919396;fill-rule:nonzero;"/><path d="M190.612,135.59l-60.591,-0c0.25,-1.8 0.491,-3.63 0.711,-5.5c0.36,-3.01 0.659,-6.11 0.9,-9.29l61.039,-0c-0.52,5.21 -1.21,10.14 -2.059,14.79Z" style="fill:#b96f5c;fill-rule:nonzero;"/><path d="M192.651,81.84l-60.99,-0c-0.01,-0.16 -0.02,-0.32 -0.039,-0.48c-0.37,-4.56 -0.851,-9 -1.471,-13.28c-0.049,-0.35 -0.1,-0.69 -0.149,-1.03l60.48,-0c0.329,1.66 0.64,3.36 0.919,5.11c0.5,3.12 0.91,6.37 1.25,9.68Z" style="fill:#b96f5c;fill-rule:nonzero;"/><path d="M78.151,1.37c0,-0 12.03,1.12 27.591,2.56c3.829,4.39 7.63,10.25 11.059,17.44c1.59,3.31 3.11,6.92 4.53,10.79c1.261,3.4 2.44,6.99 3.541,10.81c1.1,3.8 2.089,7.84 2.97,12.05c0.88,4.17 1.66,8.53 2.309,13.06c0.62,4.28 1.101,8.72 1.471,13.28c0.5,6.12 0.76,12.51 0.76,19.13c-0,10.61 -0.571,20.49 -1.65,29.6c-0.691,5.87 -1.571,11.39 -2.62,16.6c-4.85,24.02 -13.201,40.94 -21.99,49.4l-24.27,3.14l-3.701,0.44l0,-198.3Z" style="fill:#919396;fill-rule:nonzero;"/><path d="M111.171,160.43c1.02,-4.11 1.961,-8.48 2.78,-13.12c0.23,-1.37 0.46,-2.76 0.681,-4.17l16.1,-13.05c-0.691,5.86 -1.571,11.39 -2.62,16.6l-16.941,13.74Z" style="fill:#606164;fill-rule:nonzero;"/><path d="M115.401,65.11c-0.59,-4.43 -1.299,-8.69 -2.09,-12.77l11.561,-9.37c1.1,3.8 2.089,7.84 2.97,12.05l-12.441,10.09Z" style="fill:#606164;fill-rule:nonzero;"/><path d="M69.541,0c0,0 10.691,1.15 24.52,2.6c3.431,4.45 6.781,10.39 9.811,17.68c1.429,3.37 2.809,7.01 4.059,10.93c3.35,10.37 6.09,22.58 7.801,36.44c0.589,4.32 1.02,8.81 1.319,13.45c0.441,6.2 0.691,12.67 0.691,19.38c-0,10.76 -0.51,20.8 -1.461,30c-0.62,5.94 -1.419,11.55 -2.33,16.83c-4.31,24.36 -11.709,41.51 -19.56,50.08l-21.57,3.22l-3.28,0.43l0,-201.04Z" style="fill:#fcc9a6;fill-rule:nonzero;"/><path d="M95.992,163.92c1.559,-5.66 2.909,-11.83 4.029,-18.41l16.26,-15.03c-0.62,5.94 -1.419,11.55 -2.33,16.83l-17.959,16.61Z" style="fill:#fee2c4;fill-rule:nonzero;"/><path d="M103.541,93.59c-0.11,-4.78 -0.33,-9.47 -0.659,-14.05l12.85,-11.89c0.589,4.32 1.02,8.81 1.319,13.45l-13.51,12.49Z" style="fill:#fee2c4;fill-rule:nonzero;"/><path d="M69.541,0c18.831,0 34.081,45.03 34.081,100.52c-0,55.5 -15.25,100.52 -34.081,100.52c-18.84,-0 -34.12,-45.02 -34.12,-100.52c0,-55.49 15.28,-100.52 34.12,-100.52Z" style="fill:#b5927a;fill-rule:nonzero;"/><path d="M68.262,191.34c-11.361,-0 -21.211,-20.06 -26.081,-49.4l8.23,-17.41c0.78,8.03 1.92,15.59 3.351,22.5c4.419,21.1 11.73,36.16 20.23,40.11c2.51,-0.95 4.929,-2.7 7.209,-5.15c-2.76,4.22 -5.76,7.13 -8.93,8.48c-1.31,0.58 -2.659,0.87 -4.009,0.87Zm-28.191,-65.86c-0.75,-8.03 -1.15,-16.51 -1.15,-25.29c0,-50.37 13.13,-91.18 29.341,-91.18c1.35,-0 2.699,0.27 4.009,0.85c2.841,1.21 5.54,3.67 8.05,7.21c-2.02,-1.99 -4.13,-3.43 -6.329,-4.25c-14,6.45 -24.74,43.02 -24.74,87.14c-0,2.5 0.039,4.98 0.1,7.42l-0.59,-0.28l-8.691,18.38Z" style="fill:#b27655;fill-rule:nonzero;"/><path d="M73.992,12.82c6.569,2.47 12.449,10.43 17.069,22.1c6.21,15.6 10.191,37.83 10.441,62.63l-0,5.26c-0.28,24.66 -4.231,46.74 -10.441,62.23c-4.62,11.68 -10.5,19.62 -17.069,22.1c-8.5,-3.95 -15.811,-19.01 -20.23,-40.11c-2.831,-13.62 -4.51,-29.78 -4.51,-47.07c-0,-44.12 10.74,-80.69 24.74,-87.14Z" style="fill:#fcc9a6;fill-rule:nonzero;"/><path d="M73.992,187.14c-8.5,-3.95 -15.811,-19.01 -20.23,-40.11c15.929,-3.69 33.73,-15.23 47.74,-44.22c-0.28,24.66 -4.231,46.74 -10.441,62.23c-4.62,11.68 -10.5,19.62 -17.069,22.1Z" style="fill:#f9a375;fill-rule:nonzero;"/><path d="M72.691,128.19c-6.66,0 -12.059,-12.03 -12.059,-26.87c-0,-14.85 5.399,-26.88 12.059,-26.88c6.681,0 12.08,12.03 12.08,26.88c0,14.84 -5.399,26.87 -12.08,26.87Z" style="fill:#563009;fill-rule:nonzero;"/><rect x="155.262" y="96.19" width="20.28" height="8.58" style="fill:#9fa1a4;fill-rule:nonzero;"/><path d="M0.722,208.7l48.04,-101.6l8.049,3.88l-48.03,101.61c-1,2.07 -2.799,3.41 -4.58,3.58c-0.689,0.1 -1.359,-0.02 -1.969,-0.31c-2.22,-1.06 -2.901,-4.29 -1.51,-7.16Z" style="fill:#fcc9a6;fill-rule:nonzero;"/><path d="M4.201,216.17c4.38,-7.88 13.58,-26.23 14.48,-44.77l30.081,-64.3l8.049,3.88l-6.4,13.55l-8.23,17.41l-2.76,5.83l-30.64,64.82c-1,2.07 -2.799,3.41 -4.58,3.58Z" style="fill:#f9a375;fill-rule:nonzero;"/><path d="M69.362,108.7c-1.75,3.62 -4.76,8.76 -8.291,7.52c-0.62,-0.22 -1.319,-0.5 -2.089,-0.81c-6.341,-2.66 -17.191,-8.46 -17.191,-8.46c-1.1,-3.34 -1.059,-7.05 0.39,-10.48c0.09,-0.24 0.21,-0.47 0.321,-0.7c1.929,-4.03 5.449,-6.77 9.419,-7.89c3.38,-0.95 7.071,-0.72 10.48,0.91c7.43,3.6 10.53,12.49 6.961,19.91Z" style="fill:#450100;fill-rule:nonzero;"/><path d="M64.541,109.23c-1.199,2.52 -3.38,4.74 -5.559,6.18c-6.341,-2.66 -17.191,-8.46 -17.191,-8.46c-2.9,-1.99 -1.279,-6.88 0.39,-10.48c0.09,-0.24 0.21,-0.47 0.321,-0.7c1.929,-4.03 5.449,-6.77 9.419,-7.89c1.91,0.11 3.831,0.58 5.66,1.45c7.421,3.59 10.541,12.51 6.96,19.9Z" style="fill:#7a1b0c;fill-rule:nonzero;"/><path d="M44.061,94.14c0.86,-1.82 2.431,-3.04 4.22,-3.55c1.51,-0.41 3.16,-0.31 4.691,0.43c3.329,1.59 4.729,5.58 3.12,8.9c-1.21,2.52 -3.771,3.93 -6.391,3.79c-0.849,-0.04 -1.709,-0.27 -2.53,-0.65c-3.329,-1.61 -4.72,-5.59 -3.11,-8.92Z" style="fill:#a93023;fill-rule:nonzero;"/></g></g></g></svg>