<?xml version="1.0" encoding="UTF-8" standalone="no"?><!DOCTYPE svg PUBLIC "-//W3C//DTD SVG 1.1//EN" "http://www.w3.org/Graphics/SVG/1.1/DTD/svg11.dtd"><svg width="100%" height="100%" viewBox="0 0 178 219" version="1.1" xmlns="http://www.w3.org/2000/svg" xmlns:xlink="http://www.w3.org/1999/xlink" xml:space="preserve" xmlns:serif="http://www.serif.com/" style="fill-rule:evenodd;clip-rule:evenodd;stroke-linejoin:round;stroke-miterlimit:2;"><g><g><g><path d="M153.324,148.714c-0.25,0.183 -0.54,0.368 -0.81,0.541c-3.79,2.197 -8.64,0.887 -10.82,-2.902l-48.17,-83.441l-4.785,-8.281l-45.244,78.377l-9.374,16.225l-12.491,21.648l121.494,0c4.36,0 7.91,3.55 7.91,7.913c-0,4.361 -3.55,7.912 -7.91,7.912l-135.208,0c-2.83,0 -5.444,-1.505 -6.856,-3.951c-1.413,-2.436 -1.413,-5.466 -0,-7.912l28.262,-48.957l11.148,-19.3l41.418,-71.741c1.412,-2.458 4.021,-3.962 6.851,-3.962c1.764,-0 3.442,0.595 4.79,1.624c0.834,0.617 1.532,1.418 2.062,2.338l59.813,103.608c2.02,3.484 1.07,7.89 -2.08,10.261Z" style="fill:#797a7d;fill-rule:nonzero;"/><path d="M160.594,178.794c-0,4.361 -3.54,7.912 -7.91,7.912l-135.21,0c-2.819,0 -5.434,-1.505 -6.841,-3.951c-1.418,-2.436 -1.418,-5.466 -0,-7.912l11.679,-20.252l16.583,-28.705l11.137,-19.3l3.411,-5.888l1.537,-2.663l5.438,-9.438l8.989,-15.597l0.661,-1.115l4.79,-8.303l4.205,-7.284l5.899,-10.207l1.895,-3.302l3.549,-6.126l1.044,-1.818c0.537,-0.92 1.25,-1.721 2.079,-2.338c0.834,0.617 1.532,1.418 2.062,2.338l25.363,43.934l28.04,48.568l6.41,11.106c2.02,3.484 1.07,7.89 -2.08,10.261c-0.81,-0.628 -1.52,-1.408 -2.06,-2.361l-14.02,-24.17l-33.53,-57.876l-6.856,-11.819l-0.077,0.011l-2.927,0.79l-5.115,1.342l-0.195,0.357l-5.281,9.136l-4.816,8.345l-5.452,9.427l-3.782,6.56l-5.206,9.016l-5.456,9.439l-3.745,6.483l-11.311,19.614l-9.374,16.225l-9.357,16.214l-3.134,5.434l131.054,0c4.37,0 7.91,3.55 7.91,7.913Z" style="fill:#919396;fill-rule:nonzero;"/><path d="M38.646,186.706l-21.172,0c-2.819,0 -5.434,-1.505 -6.841,-3.951c-1.418,-2.436 -1.418,-5.466 -0,-7.912l11.679,-20.252c0.519,3.702 1.316,7.338 2.452,10.856l-3.134,5.434l5.223,0c2.619,5.899 6.429,11.3 11.793,15.825Z" style="fill:#c0c2c4;fill-rule:nonzero;"/><path d="M70.068,71.885c-0.595,5.725 -0.866,11.267 -0.855,16.571l-5.206,9.016l-5.456,9.439l-3.745,6.483c-0.59,-4.382 -1.045,-8.636 -1.363,-12.696l1.537,-2.663l5.438,-9.438l8.989,-15.597l0.661,-1.115Z" style="fill:#c0c2c4;fill-rule:nonzero;"/><path d="M114.234,186.706l-30.17,0c-4.336,-4.827 -8.08,-10.186 -11.312,-15.825l26.022,0c4.98,6.007 10.25,11.268 15.46,15.825Z" style="fill:#c0c2c4;fill-rule:nonzero;"/><path d="M93.854,53.289l-5.115,1.342l-0.195,0.357l-5.281,9.136c-1.522,-2.685 -2.912,-5.316 -4.2,-7.826l5.899,-10.207l1.895,-3.302c2.05,3.638 4.404,7.144 6.997,10.5Z" style="fill:#c0c2c4;fill-rule:nonzero;"/><path d="M148.994,127.347c-4.08,-1.429 -7.98,-3.161 -11.75,-5.164l-33.53,-57.876c5.35,5.283 11.22,10.099 17.24,14.472l28.04,48.568Z" style="fill:#c0c2c4;fill-rule:nonzero;"/><path d="M82.198,30.883c-0.003,-7.766 1.026,-14.802 2.616,-19.727c0.787,-2.459 1.728,-4.385 2.624,-5.552c0.443,-0.585 0.868,-0.973 1.201,-1.183c0.34,-0.212 0.557,-0.258 0.755,-0.261c0.198,0.003 0.414,0.049 0.754,0.261c0.588,0.358 1.435,1.306 2.219,2.804c1.192,2.24 2.279,5.627 3.03,9.703c0.756,4.079 1.194,8.857 1.194,13.955c0.004,7.776 -1.026,14.815 -2.617,19.74c-0.787,2.459 -1.728,4.384 -2.623,5.55c-0.444,0.586 -0.869,0.973 -1.202,1.183c-0.34,0.211 -0.557,0.258 -0.755,0.261c-1.149,-0 -2.08,0.931 -2.08,2.08c-0,1.149 0.931,2.08 2.08,2.08c1.083,0.003 2.117,-0.353 2.985,-0.909c1.526,-0.985 2.663,-2.497 3.664,-4.366c1.485,-2.813 2.631,-6.525 3.441,-10.895c0.81,-4.366 1.27,-9.381 1.27,-14.724c-0.01,-8.136 -1.05,-15.501 -2.82,-21.002c-0.891,-2.754 -1.949,-5.048 -3.274,-6.797c-0.665,-0.872 -1.406,-1.616 -2.281,-2.174c-0.868,-0.556 -1.902,-0.913 -2.985,-0.91c-1.084,-0.003 -2.118,0.354 -2.986,0.91c-1.526,0.985 -2.662,2.497 -3.663,4.367c-1.485,2.814 -2.631,6.526 -3.444,10.893c-0.807,4.365 -1.262,9.376 -1.263,14.713c-0,1.148 0.932,2.08 2.08,2.08c1.149,0 2.081,-0.932 2.081,-2.08l-0.001,-0Z" style="fill:#351609;fill-rule:nonzero;"/><path d="M168.274,207.389c-0.11,0.9 -0.44,1.79 -1.02,2.57c-1.1,1.51 -2.81,2.33 -4.55,2.33c-1.15,0 -2.3,-0.35 -3.29,-1.07l-78.852,-57.018c-2.517,-1.818 -3.079,-5.336 -1.266,-7.858c0.07,-0.108 0.162,-0.206 0.233,-0.303c1.103,-1.331 2.705,-2.025 4.324,-2.025c1.141,-0 2.289,0.358 3.295,1.062l78.856,57.032c1.72,1.26 2.54,3.3 2.27,5.28Z" style="fill:#a9acae;fill-rule:nonzero;"/><path d="M168.274,207.389c-1.09,1.33 -2.7,2.04 -4.33,2.04c-1.14,-0 -2.29,-0.34 -3.27,-1.06l-78.862,-57.025c-1.737,-1.256 -2.543,-3.324 -2.283,-5.304c1.103,-1.331 2.705,-2.025 4.324,-2.025c1.141,-0 2.289,0.358 3.295,1.062l78.856,57.032c1.72,1.26 2.54,3.3 2.27,5.28Z" style="fill:#d1d3d4;fill-rule:nonzero;"/><path d="M152.374,206.139l4.63,-10.54c-0,0 18.88,4.99 20.01,10.54c0.97,4.77 -6.65,12.66 -11.49,12.111c-4.84,-0.551 -13.15,-12.111 -13.15,-12.111Z" style="fill:#1e0100;fill-rule:nonzero;"/></g></g></g></svg>