<?xml version="1.0" encoding="UTF-8" standalone="no"?><!DOCTYPE svg PUBLIC "-//W3C//DTD SVG 1.1//EN" "http://www.w3.org/Graphics/SVG/1.1/DTD/svg11.dtd"><svg width="100%" height="100%" viewBox="0 0 217 198" version="1.1" xmlns="http://www.w3.org/2000/svg" xmlns:xlink="http://www.w3.org/1999/xlink" xml:space="preserve" xmlns:serif="http://www.serif.com/" style="fill-rule:evenodd;clip-rule:evenodd;stroke-linejoin:round;stroke-miterlimit:2;"><g><g><g><path d="M127,144.826c0.7,0.714 0.09,2.447 -1.36,3.886c-1.44,1.45 -3.17,2.057 -3.87,1.363l-20.17,-20.175c-0.69,-0.705 -0.09,-2.425 1.36,-3.865c1.44,-1.461 3.17,-2.056 3.87,-1.375l20.17,20.166Z" style="fill:#dd9b4c;fill-rule:nonzero;"/><path d="M146.05,125.776c0.7,0.703 0.09,2.435 -1.35,3.885c-1.45,1.45 -3.18,2.046 -3.88,1.353l-20.16,-20.176c-0.71,-0.692 -0.09,-2.414 1.34,-3.863c1.45,-1.449 3.19,-2.057 3.89,-1.354l20.16,20.155Z" style="fill:#dd9b4c;fill-rule:nonzero;"/><path d="M55.43,172.643c1.06,1.061 0.74,3.107 -0.7,4.54c-1.44,1.44 -3.48,1.75 -4.54,0.69l-30.73,-30.731c-1.07,-1.061 -0.75,-3.084 0.69,-4.535c1.46,-1.44 3.49,-1.753 4.54,-0.682l30.74,30.718Z" style="fill:#dd9b4c;fill-rule:nonzero;"/><path d="M81.88,146.2c1.04,1.073 0.74,3.085 -0.71,4.546c-1.44,1.441 -3.47,1.754 -4.53,0.683l-30.73,-30.719c-1.06,-1.061 -0.75,-3.106 0.68,-4.546c1.45,-1.439 3.49,-1.754 4.55,-0.681l30.74,30.717Z" style="fill:#dd9b4c;fill-rule:nonzero;"/><path d="M211.54,40.146c8.37,8.368 5.19,24.16 -7.39,36.737l-89.6,89.591l-9.6,-9.612l89.59,-89.601c7.6,-7.587 9.12,-15.782 7.38,-17.513c-1.74,-1.743 -9.92,-0.228 -17.52,7.371l-131.13,131.144c-12.18,12.17 -31.97,12.17 -44.14,0c-7.87,-7.88 -10.65,-18.921 -8.34,-29.03c1.25,-5.553 4.03,-10.792 8.34,-15.111l5.18,-5.163l-0.02,-0.032l83.07,-83.075l0.02,-0.01c8.86,-10.607 13.49,-36.532 15.22,-48.471c-0.21,-0.843 -0.33,-1.623 -0.36,-2.337c-0.08,-1.667 0.29,-2.977 1.16,-3.854c0.15,-0.141 0.3,-0.257 0.47,-0.389l0.17,-0.11c0.12,-0.064 0.23,-0.119 0.35,-0.183l0.23,-0.098c0.12,-0.064 0.25,-0.107 0.36,-0.14c0.09,-0.022 0.18,-0.043 0.27,-0.065c0.13,-0.054 0.26,-0.065 0.39,-0.097c0.09,-0.022 0.19,-0.034 0.29,-0.044c0.14,-0.021 0.27,-0.032 0.41,-0.032c0.11,-0.01 0.22,-0.022 0.32,-0.022c0.17,-0 0.32,-0 0.48,0.012c0.11,0.01 0.19,-0 0.3,0.01c0.22,0.011 0.46,0.032 0.7,0.065l0.14,0.022c0.28,0.032 0.58,0.108 0.88,0.151l0.24,0.065c0.23,0.054 0.47,0.109 0.72,0.184c0.09,0.022 0.18,0.053 0.28,0.087c0.24,0.054 0.48,0.13 0.72,0.216c0.1,0.022 0.2,0.054 0.28,0.087c0.26,0.108 0.52,0.195 0.8,0.293l0.23,0.085c0.32,0.12 0.63,0.25 0.96,0.401l0.1,0.043c0.42,0.184 0.86,0.391 1.29,0.588c2.34,1.123 4.88,2.648 7.54,4.5l0.14,0.086c0.62,0.444 1.25,0.888 1.88,1.364c0.12,0.087 0.22,0.163 0.33,0.249c0.62,0.465 1.24,0.932 1.87,1.429c0.09,0.086 0.17,0.151 0.26,0.216c0.57,0.468 1.14,0.931 1.72,1.429c0.12,0.097 0.22,0.174 0.34,0.27c0.61,0.52 1.23,1.05 1.84,1.603c0.14,0.129 0.28,0.248 0.42,0.367c0.62,0.563 1.23,1.137 1.85,1.711c0.11,0.108 0.22,0.216 0.33,0.314c0.65,0.628 1.32,1.255 1.97,1.916c3.19,3.183 6.04,6.429 8.49,9.59c2.67,3.442 4.82,6.755 6.4,9.774c0.08,0.173 0.18,0.357 0.26,0.53l0,0.011c2.8,5.52 3.47,9.914 1.43,11.961c-1.27,1.255 -3.42,1.449 -6.2,0.789c-5.78,0.856 -14.86,2.371 -23.88,4.72c-9.25,2.403 -18.43,5.693 -23.98,10.013l-0.02,0.01l-29.88,29.896c-0.26,0.4 -0.57,0.779 -0.92,1.126l-52.71,52.723l-0.33,-0.357l-5.18,5.196c-4.03,4.016 -5.69,9.503 -5.01,14.764c0.49,3.713 2.16,7.306 5.01,10.134c6.86,6.87 18.03,6.87 24.9,0l131.13,-131.136c0.24,-0.238 0.48,-0.476 0.72,-0.682c12.46,-12.014 27.84,-14.893 36.04,-6.679Z" style="fill:#dfa84e;fill-rule:nonzero;"/><path d="M102.84,155.358l14.72,14.72" style="fill:none;fill-rule:nonzero;"/><path d="M90.26,161.495l21.16,21.168c9.31,-12.26 1.34,-23.842 1.34,-23.842c-10.44,-5.618 -22.5,2.674 -22.5,2.674Z" style="fill:#dfa84e;fill-rule:nonzero;"/><path d="M31.2,197.383c-7.99,-0 -15.98,-3.04 -22.07,-9.12c-6.09,-6.09 -9.13,-14.081 -9.13,-22.063c0,7.982 3.04,15.973 9.13,22.063c6.09,6.08 14.08,9.12 22.07,9.12c7.99,-0 15.98,-3.04 22.07,-9.12l32.51,-32.513l0,-0.003l-32.51,32.516c-6.09,6.08 -14.08,9.12 -22.07,9.12Z" style="fill:#dfa84e;fill-rule:nonzero;"/><path d="M31.2,197.383c-7.99,-0 -15.98,-3.04 -22.07,-9.12c-6.09,-6.09 -9.13,-14.081 -9.13,-22.063c0,-2.339 0.26,-4.677 0.79,-6.967c3.35,3.474 7.62,6.797 12.95,9.276c0.49,3.713 2.16,7.306 5.01,10.134c3.43,3.43 7.94,5.15 12.45,5.15c4.51,0 9.02,-1.72 12.45,-5.15l8.34,-8.327c9.75,-2.521 20.96,-7.142 33.79,-14.566l-32.51,32.513c-6.09,6.08 -14.08,9.12 -22.07,9.12Z" style="fill:#c67d31;fill-rule:nonzero;"/><path d="M15.81,137.401l81.55,-81.549l-81.5,81.504c-0.02,0.015 -0.04,0.03 -0.05,0.045Z" style="fill:#dfa84e;fill-rule:nonzero;"/><path d="M15.86,137.356l81.5,-81.504l0.02,-0.01c8.86,-10.607 13.49,-36.532 15.22,-48.471c-0.21,-0.843 -0.33,-1.623 -0.36,-2.337c-0.01,-0.144 -0.01,-0.284 -0.01,-0.422c-0,-1.467 0.38,-2.631 1.17,-3.432c0.15,-0.141 0.3,-0.257 0.47,-0.389l0.17,-0.11c0.12,-0.064 0.23,-0.119 0.35,-0.183l0.23,-0.098c0.12,-0.064 0.25,-0.107 0.36,-0.14c0.09,-0.022 0.18,-0.043 0.27,-0.065c0.13,-0.054 0.26,-0.065 0.39,-0.097c0.09,-0.022 0.19,-0.034 0.29,-0.044c0.14,-0.021 0.27,-0.032 0.41,-0.032c0.11,-0.01 0.22,-0.022 0.32,-0.022c0.17,0 0.32,0 0.48,0.012c0.11,0.01 0.19,-0 0.3,0.01c0.22,0.011 0.46,0.032 0.7,0.065l0.14,0.022c0.28,0.032 0.58,0.108 0.88,0.151l0.24,0.065c0.23,0.054 0.47,0.109 0.72,0.184c0.09,0.022 0.18,0.053 0.28,0.087c0.24,0.054 0.48,0.13 0.72,0.216c0.1,0.022 0.2,0.054 0.28,0.087c0.26,0.108 0.52,0.195 0.8,0.293l0.23,0.085c0.32,0.12 0.63,0.25 0.96,0.401l0.1,0.043c0.42,0.184 0.86,0.391 1.29,0.588c1.29,2.233 2.24,4.871 2.57,8.015c-1.61,-0.595 -3.07,-0.909 -4.32,-0.909c-1.33,0 -2.41,0.356 -3.16,1.107c-2.57,2.56 -0.51,9.01 4.62,15.949c-6.33,15.789 -23.86,38.731 -63.02,72.494c-19.04,16.404 -33.96,28.926 -45.61,38.391Z" style="fill:#e9b338;fill-rule:nonzero;"/><path d="M149.57,44.473c-4.64,0 -12.32,-4.358 -19.37,-11.416c-2.17,-2.173 -4.09,-4.404 -5.71,-6.586c2.62,-6.514 3.33,-11.81 2.86,-16.147c4.4,1.624 9.89,5.345 15.05,10.512c9.08,9.06 13.7,19.17 10.32,22.536c-0.74,0.747 -1.82,1.101 -3.15,1.101Z" style="fill:#c67d31;fill-rule:nonzero;"/><path d="M124.49,26.471c-5.13,-6.939 -7.19,-13.389 -4.62,-15.949c0.75,-0.751 1.83,-1.107 3.16,-1.107c1.25,0 2.71,0.314 4.32,0.909c0.47,4.337 -0.24,9.633 -2.86,16.147Z" style="fill:#ce832c;fill-rule:nonzero;"/><path d="M159.6,121.436c0.01,-0.007 0.01,-0.013 0.01,-0.02l44.54,-44.533c7.86,-7.861 12.06,-16.977 12.05,-24.752c0.01,7.775 -4.19,16.891 -12.05,24.752l-44.55,44.553Zm20.21,-59.717l0,-0.003l4.59,-4.597c5.76,-5.76 11.86,-8.024 15.23,-8.024c1.07,-0 1.87,0.231 2.29,0.653c0.42,0.416 0.65,1.205 0.65,2.269c0,-1.064 -0.23,-1.853 -0.65,-2.269c-0.42,-0.422 -1.22,-0.653 -2.29,-0.653c-3.37,-0 -9.47,2.264 -15.23,8.024l-4.59,4.6Z" style="fill:#dfa84e;fill-rule:nonzero;"/><path d="M159.61,121.416c8.33,-14.204 13.53,-25.996 16.56,-35.787l18.37,-18.368c5.77,-5.764 8.04,-11.879 8.03,-15.244c0,-1.064 -0.23,-1.853 -0.65,-2.269c-0.42,-0.422 -1.22,-0.653 -2.29,-0.653c-3.37,-0 -9.47,2.264 -15.23,8.024l-4.59,4.597c-0.38,-6.959 -2.31,-11.742 -4.31,-14.891c7.69,-7.41 16.48,-11.345 24.02,-11.345c4.68,-0 8.87,1.518 12.02,4.666c3.14,3.138 4.65,7.32 4.66,11.985c0.01,7.775 -4.19,16.891 -12.05,24.752l-44.54,44.533Z" style="fill:#c67d31;fill-rule:nonzero;"/></g></g></g></svg>