<?xml version="1.0" encoding="UTF-8" standalone="no"?><!DOCTYPE svg PUBLIC "-//W3C//DTD SVG 1.1//EN" "http://www.w3.org/Graphics/SVG/1.1/DTD/svg11.dtd"><svg width="100%" height="100%" viewBox="0 0 195 217" version="1.1" xmlns="http://www.w3.org/2000/svg" xmlns:xlink="http://www.w3.org/1999/xlink" xml:space="preserve" xmlns:serif="http://www.serif.com/" style="fill-rule:evenodd;clip-rule:evenodd;stroke-linejoin:round;stroke-miterlimit:2;"><g><g><g><path d="M179.815,14.489c5.45,5.455 9.7,11.094 12.14,15.791c2.45,4.71 3.1,8.487 1.39,10.198c-1.04,1.027 -2.8,1.21 -5.05,0.66c-4.73,0.681 -12.13,1.916 -19.49,3.842c-7.54,1.97 -15.03,4.632 -19.57,8.183c-0.62,0.487 -1.19,0.985 -1.7,1.504l-7.9,-7.901c0.38,-0.369 0.75,-0.769 1.11,-1.212c7.24,-8.66 11.01,-29.788 12.42,-39.53c-0.17,-0.693 -0.27,-1.331 -0.3,-1.905c-0.07,-1.364 0.24,-2.446 0.96,-3.149c1.96,-1.959 6.57,-0.845 12.19,2.5c4.27,2.521 9.09,6.32 13.8,11.019Z" style="fill:#e1bd51;fill-rule:nonzero;"/><path d="M179.815,14.489c-4.71,-4.699 -9.53,-8.498 -13.8,-11.019c-3.74,-2.228 -7.03,-3.466 -9.4,-3.466c-1.18,-0 -2.14,0.311 -2.79,0.966c0.65,-0.657 1.61,-0.97 2.79,-0.97c5.06,-0 14.36,5.654 23.2,14.489Z" style="fill:#e1bd51;fill-rule:nonzero;"/><path d="M168.805,44.98c1.18,-9.683 -1.98,-19.071 -6.23,-26.881c2.45,-5.58 3.7,-10.528 3.44,-14.629c-3.74,-2.228 -7.03,-3.466 -9.4,-3.466c-1.18,-0 -2.14,0.311 -2.79,0.966c-0.66,0.643 -0.97,1.602 -0.97,2.804c-0,-1.202 0.31,-2.161 0.97,-2.804c0.65,-0.655 1.61,-0.966 2.79,-0.966c2.37,-0 5.66,1.238 9.4,3.466c4.27,2.521 9.09,6.32 13.8,11.019c5.45,5.455 9.7,11.094 12.14,15.791c1.52,2.925 2.35,5.49 2.35,7.424c-0,1.18 -0.31,2.125 -0.96,2.774c-0.66,0.652 -1.61,0.964 -2.79,0.964c-0.68,-0 -1.44,-0.103 -2.26,-0.304c-4.73,0.681 -12.13,1.916 -19.49,3.842Z" style="fill:#edca37;fill-rule:nonzero;"/><path d="M143.655,79.995c2.48,-2.478 6.51,-2.467 8.98,-0c2.48,2.49 2.48,6.516 -0,8.995l-87.22,87.22c-5.12,5.12 -13.29,5.38 -18.72,0.758l96.96,-96.973Zm-105.91,68.56c-3.66,3.659 -5.97,8.182 -6.91,12.934c-0.92,4.623 -0.55,9.483 1.14,13.934l-17.53,17.532c-4.2,1.201 -8.67,1.97 -11.4,2.359c-1.13,-0.281 -2.02,-0.206 -2.56,0.337c-0.87,0.875 -0.53,2.77 0.71,5.184c1.24,2.371 3.4,5.239 6.17,8.01c5.53,5.531 11.44,8.605 13.19,6.862c0.52,-0.52 0.61,-1.407 0.33,-2.565c0.46,-3.139 1.4,-8.625 2.98,-13.346l14.68,-14.675c9.92,9.089 25.39,8.841 35,-0.77l87.23,-87.232c6.97,-6.96 6.97,-18.282 -0,-25.262c-6.96,-6.962 -18.28,-6.95 -25.25,-0l-93.64,93.66c0.21,-3.227 1.54,-6.376 3.99,-8.833l46.45,-46.447c0.28,-0.281 0.53,-0.573 0.74,-0.908l63.25,-63.246l-8.04,-8.053l-110.53,110.525Z" style="fill:#e1bd51;fill-rule:nonzero;"/><path d="M69.565,108.614c-0.4,-0.412 -2.24,0.79 -4.1,2.662c-1.88,1.863 -3.07,3.713 -2.68,4.114l-0.05,0.065c-0,-0 0.04,-0 0.13,-0.011c0.12,0.044 0.27,0.033 0.47,-0.033c1.54,-0.075 5.53,-0.053 7.3,2.154l1.05,-1.049c-2.15,-1.722 -2.23,-5.575 -2.16,-7.177c0.15,-0.335 0.17,-0.605 0.04,-0.725Z" style="fill:#e1bd51;fill-rule:nonzero;"/><path d="M77.465,100.724c-0.41,-0.4 -2.24,0.79 -4.12,2.662c-1.88,1.873 -3.07,3.723 -2.67,4.125l-0.06,0.064c-0,-0 0.05,-0.011 0.14,-0.011c0.12,0.043 0.27,0.022 0.48,-0.043c1.52,-0.076 5.52,-0.054 7.29,2.165l1.05,-1.05c-2.15,-1.733 -2.23,-5.574 -2.16,-7.176c0.14,-0.347 0.16,-0.607 0.05,-0.736Z" style="fill:#e1bd51;fill-rule:nonzero;"/><path d="M85.035,93.157c-0.41,-0.39 -2.25,0.791 -4.13,2.663c-1.88,1.872 -3.06,3.724 -2.66,4.124l-0.05,0.054c-0,-0 0.04,-0 0.14,-0.011c0.1,0.055 0.26,0.044 0.46,-0.032c1.53,-0.065 5.52,-0.054 7.3,2.165l1.05,-1.051c-2.16,-1.731 -2.23,-5.585 -2.17,-7.175c0.15,-0.358 0.18,-0.607 0.06,-0.737Z" style="fill:#e1bd51;fill-rule:nonzero;"/><path d="M73.455,114.763l9.57,9.59l-4.55,4.556l-9.59,-9.579l4.57,-4.567Z" style="fill:#83702c;fill-rule:nonzero;"/><path d="M91.195,132.524l21.75,21.735l-4.56,4.547l-21.74,-21.713l4.55,-4.569Z" style="fill:#83702c;fill-rule:nonzero;"/><path d="M81.335,106.882l9.58,9.59l-4.56,4.547l-9.58,-9.59l4.56,-4.547Z" style="fill:#83702c;fill-rule:nonzero;"/><path d="M99.085,124.634l21.73,21.746l-4.55,4.557l-21.73,-21.735l4.55,-4.568Z" style="fill:#83702c;fill-rule:nonzero;"/><path d="M88.905,99.316l9.57,9.58l-4.55,4.556l-9.59,-9.589l4.57,-4.547Z" style="fill:#83702c;fill-rule:nonzero;"/><path d="M73.455,114.763l9.57,9.59l-2.93,2.933l-9.58,-9.591l2.94,-2.932Z" style="fill:#c6a848;fill-rule:nonzero;"/><path d="M81.335,106.882l9.58,9.59l-2.93,2.924l-9.59,-9.591l2.94,-2.923Z" style="fill:#c6a848;fill-rule:nonzero;"/><path d="M88.905,99.316l9.57,9.58l-2.92,2.933l-9.6,-9.58l2.95,-2.933Z" style="fill:#c6a848;fill-rule:nonzero;"/><path d="M106.655,117.079l21.75,21.735l-4.57,4.556l-21.74,-21.734l4.56,-4.557Z" style="fill:#83702c;fill-rule:nonzero;"/><path d="M91.195,132.524l21.75,21.735l-2.94,2.933l-21.74,-21.734l2.93,-2.934Z" style="fill:#c6a848;fill-rule:nonzero;"/><path d="M99.085,124.634l21.73,21.746l-2.92,2.922l-21.74,-21.725l2.93,-2.943Z" style="fill:#c6a848;fill-rule:nonzero;"/><path d="M106.655,117.079l21.75,21.735l-2.95,2.911l-21.73,-21.721l2.93,-2.925Z" style="fill:#c6a848;fill-rule:nonzero;"/><path d="M55.645,191.754l0.01,-0l-0.01,-0Zm-0.01,-0c-6.01,-0.004 -12.02,-2.127 -16.8,-6.369c4.78,4.241 10.79,6.365 16.8,6.369Zm-36.6,-3.383c-0.01,-0.002 -0.01,-0.003 -0.01,-0.005l11.05,-11.051l-0,0.001l-11.04,11.055Zm19.77,-3.017c-0.09,-0.076 -0.18,-0.155 -0.26,-0.233c0.08,0.078 0.17,0.157 0.26,0.233Zm34.74,-1.003l8.69,-8.69c-0,-0.001 -0,-0.002 0.01,-0.003l-8.7,8.693Z" style="fill:#e1bd51;fill-rule:nonzero;"/><path d="M27.095,196.56c-2.95,-2.997 -5.8,-5.893 -8.06,-8.189l11.04,-11.055c5.38,3.179 12.46,5.56 21.6,5.56c8.37,-0 18.47,-2 30.56,-7.215l-8.69,8.69c-4.93,4.933 -11.41,7.4 -17.89,7.403l-0.02,-0c-6.01,-0.004 -12.02,-2.128 -16.8,-6.369c-0.01,-0.01 -0.02,-0.02 -0.03,-0.031c-0.09,-0.076 -0.18,-0.155 -0.26,-0.233l-11.45,11.439Z" style="fill:#edca37;fill-rule:nonzero;"/><path d="M68.205,157.831l-29.76,29.766l-9.84,-9.85l29.76,-29.755l9.84,9.839Z" style="fill:#dea14d;fill-rule:nonzero;"/><path d="M65.275,155.851l-29.76,29.765l-4.94,-4.935l29.78,-29.756l4.92,4.926Z" style="fill:#e1b750;fill-rule:nonzero;"/><path d="M149.875,91.756c-0.01,-0.002 -0.01,-0.003 -0.01,-0.005l2.77,-2.761l-2.76,2.766Zm-11.68,-6.294c-0,-0.001 -0,-0.002 -0.01,-0.003l5.47,-5.464l-5.46,5.467Zm16.3,-0.965c-0,-1.628 -0.62,-3.257 -1.86,-4.502c-1.23,-1.23 -2.85,-1.85 -4.47,-1.855c1.62,0.005 3.24,0.625 4.47,1.855c1.24,1.245 1.86,2.874 1.86,4.502Zm-6.37,-6.357l0.02,-0l-0.02,-0Zm12.53,-6.401c-0.01,-0.018 -0.03,-0.037 -0.05,-0.055c0.02,0.018 0.04,0.037 0.05,0.055Zm-24.94,-0.07c0.01,-0.012 0.03,-0.025 0.04,-0.037c-0.01,0.012 -0.03,0.025 -0.04,0.037Zm24.73,-0.137c-3.43,-3.257 -7.85,-4.887 -12.27,-4.892c4.42,0.004 8.84,1.634 12.27,4.892Zm-12.31,-4.892l0.02,-0l-0.02,-0Z" style="fill:#e1bd51;fill-rule:nonzero;"/><path d="M157.295,100.594c-2.31,-3.71 -4.82,-6.598 -7.42,-8.838l2.76,-2.766c1.24,-1.239 1.86,-2.866 1.86,-4.493c-0,-1.628 -0.62,-3.257 -1.86,-4.502c-1.23,-1.23 -2.85,-1.85 -4.47,-1.855l-0.04,-0c-1.62,0.005 -3.24,0.622 -4.47,1.855l-5.47,5.464c-2.83,-0.761 -5.54,-1.031 -7.96,-1.031c-3.68,-0 -6.67,0.632 -8.36,1.109l13.66,-13.68c0.06,-0.064 0.13,-0.126 0.19,-0.188c0.01,-0.012 0.03,-0.025 0.04,-0.037c3.45,-3.322 7.92,-4.987 12.38,-4.992l0.04,-0c4.42,0.005 8.84,1.635 12.27,4.892c0.05,0.05 0.11,0.101 0.16,0.152c0.02,0.018 0.04,0.037 0.05,0.055c0.04,0.039 0.08,0.078 0.12,0.118c3.49,3.49 5.23,8.066 5.23,12.639c-0,4.573 -1.74,9.143 -5.23,12.623l-3.48,3.475Z" style="fill:#edca37;fill-rule:nonzero;"/><path d="M37.745,148.555l31.89,-31.888l-0,0.002l-31.89,31.886Zm33.04,-33.037l-0,-0.002l6.74,-6.737l-0,0.002l-6.74,6.737Zm7.89,-7.888l-0,-0.003l6.41,-6.413l-0,0.002l-6.41,6.414Z" style="fill:#e1bd51;fill-rule:nonzero;"/><path d="M30.835,161.489c0.94,-4.752 3.25,-9.275 6.91,-12.934l31.89,-31.886c0.38,0.249 0.71,0.545 1,0.896l1.05,-1.049c-0.35,-0.282 -0.65,-0.621 -0.9,-0.998l6.74,-6.737c0.37,0.249 0.71,0.546 1,0.898l-0.13,0.126l-0,0.003l-1.62,1.621l4.05,4.059c-1.13,1.099 -2.26,2.186 -3.39,3.264l-3.98,-3.989l-2.94,2.932l-0,0.003l-1.63,1.632l3.88,3.875c-18.66,17.708 -34.75,31.955 -41.93,38.284Zm54.62,-50.488l-4.12,-4.119l-1.76,1.752c-0.35,-0.285 -0.65,-0.626 -0.9,-1.004l6.41,-6.414c0.38,0.249 0.72,0.547 1,0.9l-0.13,0.133l-0,0.001l-1.62,1.613l4.16,4.158c-1.02,0.999 -2.03,1.994 -3.04,2.98Z" style="fill:#edca37;fill-rule:nonzero;"/><path d="M70.635,117.565c-0.29,-0.351 -0.62,-0.647 -1,-0.896l-0,-0.002l1.15,-1.151l-0,0.002c0.25,0.377 0.55,0.716 0.9,0.998l-1.05,1.049Z" style="fill:#edca37;fill-rule:nonzero;"/><path d="M78.525,109.679c-0.29,-0.352 -0.63,-0.649 -1,-0.898l-0,-0.002l1.15,-1.152l-0,0.003c0.25,0.378 0.55,0.719 0.9,1.004l-1.05,1.045Z" style="fill:#edca37;fill-rule:nonzero;"/><path d="M86.245,100.062l-0,-0.002l54.5,-54.506c-0.02,0.018 -0.03,0.036 -0.05,0.054l-54.45,54.454Z" style="fill:#e1bd51;fill-rule:nonzero;"/><path d="M140.695,45.608c0.02,-0.018 0.03,-0.036 0.05,-0.054c7.24,-8.66 11.01,-29.788 12.42,-39.53c-0.17,-0.693 -0.27,-1.331 -0.3,-1.905c2.99,3.515 6.64,8.335 9.71,13.98c-2.82,6.421 -7.24,13.68 -12.78,21.447l-0,0.001l-1.52,-1.517l-7.58,7.578Z" style="fill:#edca37;fill-rule:nonzero;"/><path d="M162.575,18.099c-3.07,-5.645 -6.72,-10.465 -9.71,-13.98c-0,-0.117 -0.01,-0.232 -0.01,-0.345c-0,-1.202 0.31,-2.161 0.97,-2.804c0.65,-0.655 1.61,-0.966 2.79,-0.966c2.37,-0 5.66,1.238 9.4,3.466c0.26,4.101 -0.99,9.049 -3.44,14.629Z" style="fill:#f4d31e;fill-rule:nonzero;"/><path d="M93.075,103.491l-4.17,-4.175l-1.76,1.751c-0.35,-0.285 -0.65,-0.626 -0.9,-1.005l54.45,-54.454l7.58,-7.578l1.52,1.517c-2.3,3.215 -4.79,6.548 -7.46,9.914c-13.66,17.389 -31.61,36.473 -49.26,54.03Z" style="fill:#edca37;fill-rule:nonzero;"/><path d="M86.085,102.116c-0.28,-0.353 -0.62,-0.651 -1,-0.9l-0,-0.002l1.16,-1.154l-0,0.002c0.25,0.379 0.55,0.72 0.9,1.005l-1.06,1.049Z" style="fill:#edca37;fill-rule:nonzero;"/><path d="M72.765,123.205l-3.88,-3.875l1.63,-1.632l3.92,3.921c-0.56,0.531 -1.12,1.062 -1.67,1.586Z" style="fill:#b09929;fill-rule:nonzero;"/><path d="M80.825,115.488l-4.05,-4.059l1.62,-1.621l4.09,4.082c-0.56,0.535 -1.11,1.067 -1.66,1.598Z" style="fill:#b09929;fill-rule:nonzero;"/><path d="M88.495,108.021l-4.16,-4.158l1.62,-1.613l4.17,4.163c-0.54,0.537 -1.09,1.074 -1.63,1.608Z" style="fill:#b09929;fill-rule:nonzero;"/><path d="M74.435,121.619l-3.92,-3.921l-0,-0.003l2.94,-2.932l3.98,3.989c-1.01,0.964 -2.01,1.921 -3,2.867Z" style="fill:#dcbd34;fill-rule:nonzero;"/><path d="M82.485,113.89l-4.09,-4.082l-0,-0.003l0.13,-0.126l1.05,-1.045l1.76,-1.752l4.12,4.119c-1,0.971 -1.99,1.932 -2.97,2.889Z" style="fill:#dcbd34;fill-rule:nonzero;"/><path d="M90.125,106.413l-4.17,-4.163l-0,-0.001l0.13,-0.133l1.06,-1.049l1.76,-1.751l4.17,4.175c-0.98,0.981 -1.96,1.952 -2.95,2.922Z" style="fill:#dcbd34;fill-rule:nonzero;"/></g></g></g></svg>