<?xml version="1.0" encoding="UTF-8" standalone="no"?><!DOCTYPE svg PUBLIC "-//W3C//DTD SVG 1.1//EN" "http://www.w3.org/Graphics/SVG/1.1/DTD/svg11.dtd"><svg width="100%" height="100%" viewBox="0 0 134 217" version="1.1" xmlns="http://www.w3.org/2000/svg" xmlns:xlink="http://www.w3.org/1999/xlink" xml:space="preserve" xmlns:serif="http://www.serif.com/" style="fill-rule:evenodd;clip-rule:evenodd;stroke-linejoin:round;stroke-miterlimit:2;"><g><g><g><path d="M121.572,30.028l-3.729,-1.65l0.633,-1.42l3.723,1.66l-0.627,1.41Z" style="fill:#834e3a;fill-rule:nonzero;"/><path d="M121.334,29.088c-0.184,0.41 -0.163,1.08 0.06,1.73c0.276,0.76 0.816,1.49 1.617,1.85c1.521,0.66 3.215,0.15 3.789,-1.17c0.281,-0.62 0.266,-1.3 -0.012,-1.91c-0.269,-0.71 -0.865,-1.31 -1.661,-1.67c-1.511,-0.67 -3.392,0.25 -3.793,1.17Z" style="fill:#919396;fill-rule:nonzero;"/><path d="M124.373,32.958c-0.447,0 -0.912,-0.09 -1.362,-0.29c-0.801,-0.36 -1.341,-1.09 -1.617,-1.85c0.771,0.26 1.453,0.37 2.055,0.37c1.717,0 2.775,-0.88 3.339,-1.6c0.143,0.31 0.216,0.65 0.215,0.98c0,0.32 -0.067,0.63 -0.203,0.93c-0.405,0.93 -1.364,1.46 -2.427,1.46Z" style="fill:#bbbdbf;fill-rule:nonzero;"/><path d="M128.418,20.988l-3.717,-1.64l0.616,-1.43l3.733,1.65l-0.632,1.42Z" style="fill:#834e3a;fill-rule:nonzero;"/><path d="M128.191,20.028c-0.196,0.42 -0.167,1.09 0.06,1.74c0.276,0.76 0.812,1.51 1.622,1.85c1.51,0.68 3.204,0.15 3.784,-1.16c0.271,-0.62 0.26,-1.29 -0.011,-1.91c-0.286,-0.71 -0.867,-1.32 -1.672,-1.67c-1.506,-0.68 -3.389,0.25 -3.783,1.15Z" style="fill:#919396;fill-rule:nonzero;"/><path d="M131.233,23.918c-0.446,0 -0.911,-0.1 -1.36,-0.3c-0.81,-0.34 -1.346,-1.09 -1.622,-1.85c0.773,0.26 1.458,0.37 2.059,0.37c1.714,0 2.764,-0.87 3.336,-1.59c0.141,0.32 0.21,0.65 0.209,0.98c-0.002,0.32 -0.067,0.63 -0.198,0.93c-0.408,0.92 -1.366,1.46 -2.424,1.46Z" style="fill:#bbbdbf;fill-rule:nonzero;"/><path d="M96.817,19.528l3.724,1.65l0.634,-1.42l-3.729,-1.65l-0.629,1.42Z" style="fill:#834e3a;fill-rule:nonzero;"/><path d="M97.678,19.048c-0.19,0.43 -0.698,0.87 -1.336,1.13c-0.737,0.3 -1.641,0.4 -2.453,0.04c-1.516,-0.67 -2.263,-2.27 -1.678,-3.58c0.277,-0.63 0.784,-1.06 1.418,-1.28c0.714,-0.28 1.564,-0.25 2.36,0.1c1.512,0.67 2.095,2.7 1.689,3.59Z" style="fill:#919396;fill-rule:nonzero;"/><path d="M95.011,20.448c-0.377,0 -0.759,-0.07 -1.122,-0.23c-1.159,-0.51 -1.87,-1.57 -1.877,-2.63c-0.001,-0.32 0.062,-0.64 0.199,-0.95c0.277,-0.63 0.784,-1.06 1.418,-1.28c-0.2,1.23 -0.021,3.28 2.713,4.82c-0.408,0.17 -0.865,0.27 -1.331,0.27Z" style="fill:#bbbdbf;fill-rule:nonzero;"/><path d="M98.912,8.368l3.728,1.65l0.629,-1.4l-3.731,-1.66l-0.626,1.41Z" style="fill:#834e3a;fill-rule:nonzero;"/><path d="M99.777,7.908c-0.19,0.43 -0.693,0.86 -1.331,1.11c-0.736,0.32 -1.651,0.41 -2.468,0.05c-1.504,-0.67 -2.256,-2.27 -1.678,-3.59c0.288,-0.62 0.797,-1.05 1.43,-1.27c0.719,-0.27 1.557,-0.26 2.364,0.11c1.505,0.67 2.078,2.69 1.683,3.59Z" style="fill:#919396;fill-rule:nonzero;"/><path d="M97.114,9.308c-0.382,0 -0.769,-0.08 -1.136,-0.24c-1.162,-0.51 -1.877,-1.59 -1.873,-2.66c0.001,-0.32 0.065,-0.63 0.195,-0.93c0.288,-0.62 0.797,-1.05 1.43,-1.27c-0.195,1.22 -0.023,3.29 2.716,4.81c-0.405,0.18 -0.865,0.29 -1.332,0.29Z" style="fill:#bbbdbf;fill-rule:nonzero;"/><path d="M126.605,17.908c-1.782,3.84 -4.119,7.6 -6.948,10.78c-1.554,1.77 -3.319,3.31 -5.013,4.93c-0.249,0.25 -0.508,0.5 -0.758,0.74l-14.265,-6.32c-0.087,-1.18 -0.158,-2.37 -0.222,-3.55c-0.102,-1.56 -0.417,-3.11 -0.325,-4.68c0.065,-1.21 0.38,-2.38 0.649,-3.56c0.991,-4.3 2.122,-8.59 4.369,-12.46c0.54,-0.94 1.201,-2.23 2.24,-2.73c1.51,-0.7 2.516,0.86 3.692,1.49c0.355,0.18 0.734,0.35 1.13,0.47c0.563,0.18 1.159,0.23 1.742,-0.02c1.126,-0.44 1.998,-1.56 3.025,-2.21c1.244,-0.79 2.642,-1.07 4.022,-0.45c1.391,0.62 2.267,1.74 2.662,3.18c0.562,2.07 -0.211,4.9 2.376,5.8c0.807,0.26 1.879,-0.06 2.572,0.47c0.546,0.39 0.902,1.33 0.968,1.97c0.086,0.91 -0.238,1.81 -0.51,2.65c-0.4,1.19 -0.88,2.34 -1.406,3.5Z" style="fill:#b66d53;fill-rule:nonzero;"/><path d="M113.886,34.358l-14.265,-6.32c-0.087,-1.18 -0.158,-2.37 -0.222,-3.55c-0.09,-1.37 -0.341,-2.72 -0.341,-4.09c-0,-0.2 0.005,-0.39 0.016,-0.59c0.065,-1.21 0.38,-2.38 0.649,-3.56c0.991,-4.3 2.122,-8.59 4.369,-12.46c0.54,-0.94 1.201,-2.23 2.24,-2.73c0.268,-0.12 0.52,-0.17 0.761,-0.17c1.112,0 1.965,1.14 2.931,1.66c0.355,0.18 0.734,0.35 1.13,0.47c-2.106,6.84 -5.272,20.88 3.49,30.6c-0.249,0.25 -0.508,0.5 -0.758,0.74Z" style="fill:#7b3b2a;fill-rule:nonzero;"/><path d="M88.283,190.858c-4.769,12.18 -16.35,23.23 -27.672,25.03c-8.118,1.28 -15.922,-1.61 -22.98,-4.83c-7.258,-3.33 -15.12,-6.69 -21.145,-12.12c-8.026,-7.26 -9.979,-19.61 -7.928,-30.83c2.57,-14.05 11.56,-21.17 20.998,-30.41c2.636,-2.59 5.271,-5.23 6.344,-8.95c1.007,-3.48 0.594,-7.1 1.525,-10.59c1.008,-3.76 2.995,-7.48 5.104,-10.73c5.688,-8.78 12.972,-12.69 20.863,-13.31c5.354,-0.41 10.977,0.68 16.572,2.81c0.904,0.35 1.813,0.72 2.722,1.12c2.235,0.98 4.515,2.13 6.739,3.39c1.159,0.67 2.293,1.35 3.393,2.08c1.256,0.79 2.461,1.67 3.615,2.53c8.345,6.39 9.66,17.05 6.998,27.14c-0.162,0.58 -0.32,1.16 -0.503,1.73c-1.289,4.19 -3.243,8.25 -5.651,11.79l-0.112,0.15c-2.567,3.46 -5.852,6.11 -6.664,10.58c-1.445,7.98 0.455,15.78 0.005,23.71c-0.183,3.22 -0.961,6.51 -2.223,9.71Z" style="fill:#8a4439;fill-rule:nonzero;"/><path d="M50.063,214.478c-0.975,0 -1.944,-0.06 -2.911,-0.15c-5.873,-0.59 -11.518,-2.88 -16.263,-5.05l-1.115,-0.51c-2.637,-1.19 -5.343,-2.43 -7.989,-3.76c-5.206,-2.61 -9.086,-5.15 -12.205,-7.97c-7.457,-6.78 -10.477,-18.6 -8.079,-31.63c2.348,-12.73 9.985,-20.1 18.071,-27.9c1.195,-1.13 2.207,-2.11 3.224,-3.11c2.528,-2.51 5.148,-5.09 6.203,-8.72c0.492,-1.72 0.633,-3.47 0.78,-5.32c0.141,-1.74 0.281,-3.54 0.753,-5.31c0.903,-3.35 2.661,-7.05 5.237,-11.01c5.44,-8.42 12.654,-13.05 21.443,-13.76c0.786,-0.06 1.581,-0.1 2.375,-0.1c4.531,0 9.406,0.99 14.505,2.93c0.963,0.38 1.862,0.74 2.755,1.12c2.284,1 4.573,2.16 6.812,3.44c1.159,0.67 2.301,1.38 3.417,2.09c1.277,0.83 2.495,1.7 3.652,2.57c7.718,5.94 10.338,16.15 7.193,28.02c-0.162,0.6 -0.324,1.18 -0.514,1.77c-1.321,4.25 -3.318,8.41 -5.786,12.06c-0.8,1.08 -1.515,1.93 -2.224,2.77c-2.003,2.37 -3.896,4.6 -4.469,7.78c-0.846,4.63 -0.547,9.31 -0.261,13.84c0.199,3.23 0.412,6.58 0.216,9.92c-0.2,3.25 -0.979,6.61 -2.306,9.98c-5.027,12.83 -17.198,23.88 -28.303,25.68c-1.419,0.22 -2.82,0.33 -4.211,0.33Z" style="fill:#b66d53;fill-rule:nonzero;"/><path d="M59.587,89.488c-0.816,0 -1.628,0.03 -2.429,0.09c-9.017,0.73 -16.409,5.47 -21.973,14.09c-2.609,4.01 -4.405,7.78 -5.325,11.2c-0.481,1.83 -0.628,3.67 -0.768,5.44c-0.146,1.81 -0.282,3.52 -0.758,5.19c-1.008,3.44 -3.556,5.96 -6.024,8.41c-1.012,0.99 -2.02,1.96 -3.019,2.91c-8.368,8.07 -16.081,15.51 -18.472,28.47c-2.446,13.26 0.661,25.32 8.296,32.26c3.167,2.87 7.095,5.44 12.361,8.08c2.647,1.34 5.369,2.57 8.01,3.78l1.115,0.5c4.801,2.19 10.51,4.51 16.479,5.11c0.991,0.1 1.983,0.14 2.983,0.14c1.456,0 2.905,-0.1 4.313,-0.33c11.523,-1.86 23.651,-12.85 28.846,-26.11c1.354,-3.43 2.149,-6.86 2.354,-10.18c0.201,-3.39 -0.016,-6.76 -0.221,-10.02c-0.292,-4.69 -0.573,-9.13 0.255,-13.67c0.54,-3 2.375,-5.16 4.311,-7.46c0.721,-0.85 1.447,-1.71 2.127,-2.62c2.648,-3.9 4.682,-8.13 6.025,-12.44c0.183,-0.6 0.356,-1.19 0.519,-1.8c3.221,-12.15 0.509,-22.63 -7.437,-28.74c-1.179,-0.9 -2.412,-1.77 -3.691,-2.61c-1.14,-0.72 -2.289,-1.43 -3.463,-2.11c-2.256,-1.3 -4.573,-2.46 -6.872,-3.47c-0.911,-0.4 -1.813,-0.76 -2.708,-1.1c-5.259,-2.01 -10.217,-3.01 -14.834,-3.01Zm0,1.39c4.651,0 9.466,1.05 14.256,2.88l0.082,0.03c0.875,0.34 1.764,0.7 2.646,1.08c2.24,0.98 4.513,2.13 6.743,3.41c1.153,0.66 2.283,1.36 3.388,2.06c1.255,0.82 2.463,1.68 3.611,2.55c8.345,6.41 9.633,17.11 6.936,27.28c-0.156,0.59 -0.318,1.16 -0.501,1.75c-1.317,4.22 -3.287,8.3 -5.698,11.87l-0.116,0.15c-2.581,3.48 -5.871,6.15 -6.689,10.66c-1.461,8.02 0.417,15.87 -0.054,23.85c-0.2,3.23 -0.986,6.54 -2.257,9.76c-4.801,12.25 -16.43,23.41 -27.774,25.25c-1.375,0.22 -2.738,0.32 -4.097,0.32c-0.953,0 -1.9,-0.04 -2.841,-0.14c-5.624,-0.57 -11.02,-2.7 -16.047,-4.99c-2.971,-1.36 -6.067,-2.74 -9.076,-4.26c-4.33,-2.17 -8.514,-4.66 -12.053,-7.87c-8.014,-7.28 -9.941,-19.71 -7.863,-30.98c2.326,-12.61 9.758,-19.7 18.06,-27.71c1.008,-0.96 2.018,-1.93 3.042,-2.94c2.635,-2.61 5.291,-5.28 6.38,-9.01c1.001,-3.5 0.606,-7.14 1.537,-10.65c1.022,-3.8 3.02,-7.54 5.147,-10.81c5.709,-8.84 13.015,-12.81 20.917,-13.45c0.769,-0.06 1.542,-0.09 2.321,-0.09Z" style="fill:#fff;fill-rule:nonzero;"/><path d="M50.063,213.778c-0.491,0 -0.978,-0.01 -1.465,-0.04c-0.459,-0.02 -0.919,-0.06 -1.376,-0.1c0.213,-4.71 1.354,-10.27 3.623,-16.56l5.377,2.39l0.492,-1.74l2.641,-9.41l-3.951,-1.75c2.373,-4.73 5.309,-9.75 8.871,-15.03c13.338,-19.77 14.901,-41.81 13.138,-58.89l4.429,0.22l0.034,0c0.281,0 0.534,-0.18 0.643,-0.44l4.722,-11.73c1.062,0.71 2.088,1.44 3.072,2.19c5.818,4.47 8.206,11.03 8.204,18.03c-0.001,3.05 -0.451,6.17 -1.268,9.25c-0.156,0.59 -0.318,1.16 -0.501,1.75c-1.317,4.22 -3.287,8.3 -5.698,11.87l-0.116,0.15c-2.581,3.48 -5.871,6.15 -6.689,10.66c-0.422,2.32 -0.566,4.63 -0.567,6.92c-0.003,4.72 0.591,9.41 0.591,14.13c0,0.93 -0.023,1.86 -0.078,2.8c-0.2,3.23 -0.986,6.54 -2.257,9.76c-4.801,12.25 -16.43,23.41 -27.774,25.25c-0.369,0.06 -0.735,0.11 -1.102,0.15c-1.003,0.12 -2,0.17 -2.995,0.17Z" style="fill:#bd6849;fill-rule:nonzero;"/><path d="M50.059,213.778c-0.488,0 -0.975,-0.01 -1.461,-0.04c0.487,0.03 0.974,0.04 1.465,0.04c0.995,0 1.992,-0.05 2.995,-0.17c-1.005,0.12 -2.005,0.17 -2.999,0.17Zm4.101,-0.32c11.344,-1.84 22.973,-13 27.774,-25.25c1.271,-3.22 2.057,-6.53 2.257,-9.76c0.055,-0.94 0.078,-1.87 0.078,-2.8c0,0.93 -0.023,1.86 -0.078,2.8c-0.2,3.23 -0.986,6.54 -2.257,9.76c-4.801,12.25 -16.43,23.41 -27.774,25.25Zm29.518,-51.94c0.001,-2.29 0.145,-4.6 0.567,-6.92c0.818,-4.51 4.108,-7.18 6.689,-10.66l0.116,-0.15c2.411,-3.57 4.381,-7.65 5.698,-11.87c0.183,-0.59 0.345,-1.16 0.501,-1.75c0.817,-3.08 1.267,-6.2 1.268,-9.25c-0.001,3.05 -0.451,6.17 -1.268,9.25c-0.156,0.59 -0.318,1.16 -0.501,1.75c-1.317,4.22 -3.287,8.3 -5.698,11.87l-0.116,0.15c-2.581,3.48 -5.871,6.15 -6.689,10.66c-0.422,2.32 -0.566,4.63 -0.567,6.92Z" style="fill:#fff;fill-rule:nonzero;"/><path d="M72.198,144.998c-1.013,2.29 -2.517,4.22 -4.325,5.71c-1.413,1.16 -3.003,2.06 -4.703,2.66c-3.62,1.29 -7.722,1.24 -11.516,-0.44c-5.58,-2.47 -8.968,-7.81 -9.239,-13.49c-0.125,-2.35 0.303,-4.77 1.31,-7.06c3.497,-7.87 12.696,-11.42 20.555,-7.92c4.216,1.86 7.187,5.37 8.508,9.45l0.004,0.03c1.133,3.51 1.018,7.43 -0.594,11.06Z" style="fill:#310d00;fill-rule:nonzero;"/><path d="M72.198,144.998c-1.013,2.29 -2.517,4.22 -4.325,5.71c-1.413,1.16 -3.003,2.06 -4.703,2.66c-3.078,0.65 -6.364,0.36 -9.448,-1.02c-5.575,-2.44 -8.979,-7.79 -9.244,-13.5c0.102,-1.66 0.515,-3.34 1.218,-4.95c3.318,-7.48 12.062,-10.86 19.552,-7.54c3.498,1.55 6.095,4.3 7.54,7.55l0.004,0.03c1.133,3.51 1.018,7.43 -0.594,11.06Z" style="fill:#4d2500;fill-rule:nonzero;"/><path d="M70.092,111.948l-8.794,-8.52l37.235,-73.78l14.184,5.93l-12.279,31.39l-18.244,45.33c-0.049,0.13 -0.179,0.22 -0.318,0.22l-11.784,-0.57Z" style="fill:#3f2200;fill-rule:nonzero;"/><path d="M98.842,29.108c-0.255,0 -0.499,0.14 -0.618,0.38l-37.299,73.37c-0.141,0.27 -0.088,0.6 0.129,0.82l8.569,8.42c0.122,0.12 0.28,0.18 0.448,0.19l4.298,0.22l7.473,0.36l0.034,0c0.281,0 0.534,-0.18 0.643,-0.44l18.243,-45.33l12.458,-30.94c0.136,-0.35 -0.022,-0.75 -0.36,-0.9l-13.737,-6.09c-0.091,-0.04 -0.184,-0.06 -0.281,-0.06Zm-0,0.69l13.734,6.1l-12.457,30.94l-18.243,45.33l-7.476,-0.35l-4.29,-0.22l-8.568,-8.42l37.3,-73.38Z" style="fill:#3f2200;fill-rule:nonzero;"/><path d="M83.444,108.328l-20.019,-8.88c-0.174,-0.08 -0.38,0 -0.458,0.18c-0.077,0.17 0.002,0.38 0.177,0.46l20.019,8.87c0.174,0.08 0.38,0 0.457,-0.18c0.078,-0.17 -0.002,-0.37 -0.176,-0.45Z" style="fill:#c2c4c6;fill-rule:nonzero;"/><path d="M86.81,99.948l-19.294,-8.55c-0.174,-0.08 -0.38,0 -0.457,0.18c-0.078,0.17 0.001,0.37 0.176,0.45l19.294,8.55c0.175,0.08 0.38,0 0.457,-0.17c0.078,-0.18 -0.001,-0.38 -0.176,-0.46Z" style="fill:#c2c4c6;fill-rule:nonzero;"/><path d="M90.101,91.778l-18.595,-8.25c-0.176,-0.08 -0.38,0 -0.458,0.18c-0.078,0.17 0.002,0.38 0.176,0.45l18.597,8.25c0.174,0.08 0.378,0 0.457,-0.17c0.077,-0.18 -0.001,-0.38 -0.177,-0.46Z" style="fill:#c2c4c6;fill-rule:nonzero;"/><path d="M93.634,83.018l-17.838,-7.91c-0.175,-0.08 -0.38,0 -0.457,0.17c-0.078,0.18 0.001,0.39 0.176,0.46l17.838,7.91c0.175,0.08 0.38,0 0.458,-0.17c0.078,-0.18 -0.002,-0.38 -0.177,-0.46Z" style="fill:#c2c4c6;fill-rule:nonzero;"/><path d="M97.369,73.718l-17.032,-7.55c-0.175,-0.08 -0.38,0 -0.456,0.17c-0.078,0.18 0,0.38 0.175,0.46l17.031,7.56c0.175,0.07 0.38,0 0.458,-0.18c0.078,-0.17 -0.002,-0.38 -0.176,-0.46Z" style="fill:#c2c4c6;fill-rule:nonzero;"/><path d="M101.553,63.328l-16.133,-7.15c-0.176,-0.08 -0.38,0 -0.458,0.17c-0.078,0.18 0.001,0.38 0.177,0.46l16.132,7.16c0.175,0.07 0.381,0 0.457,-0.18c0.078,-0.18 -0.001,-0.38 -0.175,-0.46Z" style="fill:#c2c4c6;fill-rule:nonzero;"/><path d="M106.483,51.048l-15.074,-6.68c-0.174,-0.08 -0.38,0 -0.457,0.17c-0.078,0.18 0.002,0.38 0.177,0.46l15.073,6.68c0.175,0.08 0.379,0 0.457,-0.18c0.079,-0.17 -0.001,-0.38 -0.176,-0.45Z" style="fill:#c2c4c6;fill-rule:nonzero;"/><path d="M56.222,199.468l-40.899,-18.13l0.931,-1.56l4.997,-8.33l38.104,16.87l-2.641,9.41l-0.492,1.74Z" style="fill:#200000;fill-rule:nonzero;"/><path d="M56.714,197.728l-40.461,-17.95l4.996,-8.33l38.106,16.87l-2.641,9.41Z" style="fill:#4d2500;fill-rule:nonzero;"/><path d="M26.158,177.648l24.062,10.67c0.175,0.08 0.38,0 0.458,-0.17c0.078,-0.18 -0.002,-0.38 -0.177,-0.46l-24.062,-10.67c-0.175,-0.08 -0.38,0 -0.458,0.17c-0.077,0.18 0.002,0.38 0.177,0.46Z" style="fill:#c2c4c6;fill-rule:nonzero;"/><path d="M81.876,112.168l-7.476,-0.35l2.502,-5.63l6.261,2.77l0.003,0l-1.29,3.21Zm1.549,-3.85l-6.241,-2.77l3.382,-7.61l5.963,2.64c0.003,0 0.006,0.01 0.008,0.01l-3.112,7.73Z" style="fill:#300a00;fill-rule:nonzero;"/><path d="M83.166,108.958l-0.003,0l-6.261,-2.77l0.282,-0.64l6.241,2.77l-0.259,0.64Z" style="fill:#84674f;fill-rule:nonzero;"/><path d="M86.796,99.938l-5.948,-2.63l3.296,-7.42l5.677,2.52l0.006,0l-3.031,7.53Z" style="fill:#300a00;fill-rule:nonzero;"/><path d="M90.086,91.768l-5.661,-2.51l3.551,-7.99l5.377,2.38l-3.267,8.12Z" style="fill:#300a00;fill-rule:nonzero;"/><path d="M90.086,91.768l3.266,-8.12l0.001,0l-3.267,8.12Z" style="fill:#300a00;fill-rule:nonzero;"/><path d="M93.611,83.008l-5.353,-2.37l3.785,-8.52l5.044,2.24l0.006,0l-3.482,8.65Z" style="fill:#300a00;fill-rule:nonzero;"/><path d="M97.352,73.718l-5.026,-2.23l4.264,-9.6l4.648,2.06l-1.119,2.89l-2.767,6.88Z" style="fill:#300a00;fill-rule:nonzero;"/><path d="M101.488,63.298l-4.617,-2.04l5.091,-11.46l4.054,1.8l-4.528,11.7Zm4.778,-12.35l-4.022,-1.78l6.63,-14.92l3.288,1.46l-5.896,15.24Z" style="fill:#300a00;fill-rule:nonzero;"/><path d="M112.162,35.708l-3.289,-1.46l0.001,0l0.163,-0.37l3.276,1.45l-0.147,0.37l-0.004,0.01Z" style="fill:#300a00;fill-rule:nonzero;"/><path d="M86.537,100.588c-0.002,0 -0.005,-0.01 -0.008,-0.01l-5.963,-2.64l0.282,-0.63l5.948,2.63l-0.259,0.65Z" style="fill:#84674f;fill-rule:nonzero;"/><path d="M89.827,92.408l-0.006,0l-5.677,-2.52l0.281,-0.63l5.661,2.51l-0.259,0.64Z" style="fill:#84674f;fill-rule:nonzero;"/><path d="M93.353,83.648l-5.377,-2.38l0.282,-0.63l5.353,2.37l-0.259,0.64" style="fill:#84674f;fill-rule:nonzero;"/><path d="M97.093,74.358l-0.006,0l-5.044,-2.24l0.283,-0.63l5.026,2.23l-0.259,0.64Z" style="fill:#84674f;fill-rule:nonzero;"/><path d="M101.238,63.948l-4.648,-2.06l0.281,-0.63l4.617,2.04l-0.25,0.65Z" style="fill:#84674f;fill-rule:nonzero;"/><path d="M106.016,51.598l-4.054,-1.8l0.282,-0.63l4.022,1.78l-0.25,0.65Z" style="fill:#84674f;fill-rule:nonzero;"/><path d="M110.446,34.488l-68.388,156.83l0.477,0.21l68.386,-156.83" style="fill:#fff;fill-rule:nonzero;"/><path d="M106.511,32.758l-69.031,156.53l0.476,0.21l69.029,-156.53" style="fill:#fff;fill-rule:nonzero;"/><path d="M34.139,187.808l69.383,-155.67l-0.475,-0.21l-69.382,155.67" style="fill:#fff;fill-rule:nonzero;"/><path d="M100.271,30.428l-71.005,155.22l0.473,0.21l71.005,-155.21" style="fill:#fff;fill-rule:nonzero;"/><path d="M111.415,12.188c-0.559,1.26 -2.031,1.81 -3.297,1.27c-1.25,-0.55 -1.82,-2.03 -1.261,-3.29c0.558,-1.27 2.029,-1.83 3.29,-1.28c1.255,0.57 1.823,2.03 1.268,3.3Z" style="fill:#919396;fill-rule:nonzero;"/><path d="M110.921,11.958c-0.444,0.99 -1.602,1.43 -2.576,1.01c-0.99,-0.45 -1.433,-1.59 -1.002,-2.59c0.439,-0.98 1.598,-1.42 2.587,-0.98c0.98,0.43 1.423,1.58 0.991,2.56Z" style="fill:#828487;fill-rule:nonzero;"/><path d="M107.046,22.038c-0.558,1.26 -2.025,1.82 -3.29,1.27c-1.257,-0.56 -1.831,-2.04 -1.267,-3.29c0.564,-1.27 2.03,-1.83 3.29,-1.28c1.256,0.57 1.831,2.05 1.267,3.3Z" style="fill:#919396;fill-rule:nonzero;"/><path d="M106.548,21.808c-0.433,0.99 -1.586,1.44 -2.571,1c-0.979,-0.43 -1.435,-1.59 -0.989,-2.58c0.432,-0.97 1.579,-1.43 2.575,-0.97c0.974,0.42 1.43,1.58 0.985,2.55Z" style="fill:#828487;fill-rule:nonzero;"/><path d="M121.459,16.638c-0.559,1.26 -2.036,1.83 -3.297,1.27c-1.255,-0.57 -1.825,-2.03 -1.255,-3.29c0.541,-1.26 2.024,-1.83 3.274,-1.27c1.266,0.56 1.834,2.02 1.278,3.29Z" style="fill:#919396;fill-rule:nonzero;"/><path d="M120.96,16.418c-0.439,0.98 -1.591,1.43 -2.571,0.99c-0.985,-0.42 -1.429,-1.59 -0.995,-2.57c0.433,-0.99 1.591,-1.44 2.576,-0.99c0.979,0.42 1.424,1.59 0.99,2.57Z" style="fill:#828487;fill-rule:nonzero;"/><path d="M120.154,16.058c-0.239,0.56 -0.871,0.79 -1.406,0.56c-0.547,-0.25 -0.791,-0.89 -0.547,-1.43c0.242,-0.54 0.865,-0.78 1.412,-0.54c0.541,0.25 0.779,0.88 0.541,1.41Z" style="fill:#67686b;fill-rule:nonzero;"/><path d="M117.09,26.488c-0.563,1.26 -2.034,1.83 -3.29,1.27c-1.255,-0.57 -1.824,-2.03 -1.266,-3.29c0.551,-1.26 2.024,-1.82 3.29,-1.27c1.256,0.55 1.825,2.02 1.266,3.29Z" style="fill:#919396;fill-rule:nonzero;"/><path d="M116.592,26.258c-0.438,1 -1.596,1.45 -2.575,1c-0.985,-0.43 -1.435,-1.59 -0.99,-2.58c0.432,-0.97 1.586,-1.43 2.58,-0.99c0.975,0.45 1.425,1.59 0.985,2.57Z" style="fill:#828487;fill-rule:nonzero;"/><path d="M113.107,36.378l-14.981,-6.64l0.958,-2.16l14.987,6.63l-0.964,2.17Z" style="fill:#fff;fill-rule:nonzero;"/><path d="M103.627,31.888l5.749,-20.64l-0.502,-0.14l-5.748,20.64" style="fill:#fff;fill-rule:nonzero;"/><path d="M110.115,11.608c-0.239,0.54 -0.877,0.78 -1.418,0.55c-0.535,-0.24 -0.78,-0.89 -0.547,-1.43c0.239,-0.53 0.877,-0.78 1.418,-0.53c0.542,0.25 0.779,0.87 0.547,1.41Z" style="fill:#67686b;fill-rule:nonzero;"/><path d="M100.908,30.278l4.103,-9.14l-0.474,-0.21l-4.104,9.13" style="fill:#fff;fill-rule:nonzero;"/><path d="M105.748,21.468c-0.245,0.53 -0.877,0.78 -1.418,0.53c-0.538,-0.24 -0.78,-0.87 -0.538,-1.4c0.235,-0.56 0.873,-0.79 1.409,-0.56c0.547,0.25 0.779,0.89 0.547,1.43Z" style="fill:#67686b;fill-rule:nonzero;"/><path d="M107.077,32.738l12.313,-16.96l-0.421,-0.31l-12.312,16.96" style="fill:#fff;fill-rule:nonzero;"/><path d="M111.04,34.428l4.003,-8.85l-0.474,-0.21l-4.003,8.85" style="fill:#fff;fill-rule:nonzero;"/><path d="M115.791,25.918c-0.249,0.54 -0.876,0.78 -1.413,0.54c-0.546,-0.24 -0.789,-0.88 -0.546,-1.41c0.239,-0.55 0.872,-0.78 1.408,-0.55c0.551,0.24 0.79,0.89 0.551,1.42Z" style="fill:#67686b;fill-rule:nonzero;"/><path d="M52.21,195.978l-32,-14.18l1.596,-3.59l32.007,14.18l-1.603,3.59Z" style="fill:#200000;fill-rule:nonzero;"/><path d="M22.099,204.388c-4.33,-2.17 -8.514,-4.66 -12.053,-7.87c-6.058,-5.5 -8.638,-13.94 -8.639,-22.61c0,-2.8 0.269,-5.62 0.776,-8.37c2.326,-12.61 9.758,-19.7 18.06,-27.71c-6.749,21.56 -9.347,46.08 1.856,66.56Z" style="fill:#7b3b2a;fill-rule:nonzero;"/></g></g></g></svg>