<?xml version="1.0" encoding="UTF-8" standalone="no"?><!DOCTYPE svg PUBLIC "-//W3C//DTD SVG 1.1//EN" "http://www.w3.org/Graphics/SVG/1.1/DTD/svg11.dtd"><svg width="100%" height="100%" viewBox="0 0 213 217" version="1.1" xmlns="http://www.w3.org/2000/svg" xmlns:xlink="http://www.w3.org/1999/xlink" xml:space="preserve" xmlns:serif="http://www.serif.com/" style="fill-rule:evenodd;clip-rule:evenodd;stroke-linejoin:round;stroke-miterlimit:2;"><g><g><g><path d="M205.143,18.594l-3.66,-3.67l1.78,-1.785l3.67,3.669l-1.79,1.786Z" style="fill:#310d00;fill-rule:nonzero;"/><path d="M209.823,21.494c-0.63,0.639 -1.41,1.039 -2.25,1.213c-0.27,0.043 -0.55,0.065 -0.83,0.065c-1.13,-0 -2.25,-0.422 -3.1,-1.278c-1.39,-1.384 2.4,-5.681 4.79,-6.385c0.58,-0.173 1.08,-0.141 1.4,0.194c0.86,0.845 1.28,1.971 1.28,3.096c0,1.126 -0.42,2.23 -1.29,3.095Z" style="fill:#4d2500;fill-rule:nonzero;"/><path d="M207.573,22.707c-0.27,0.043 -0.55,0.065 -0.83,0.065c-1.13,-0 -2.25,-0.422 -3.1,-1.278c-1.39,-1.384 2.4,-5.681 4.79,-6.385c-1.53,1.807 -2.91,4.579 -0.86,7.598Z" style="fill:#3b1600;fill-rule:nonzero;"/><path d="M197.843,26.571l-3.67,-3.659l1.79,-1.797l3.67,3.67l-1.79,1.786Z" style="fill:#310d00;fill-rule:nonzero;"/><path d="M202.523,29.472c-0.64,0.649 -1.42,1.05 -2.24,1.223c-0.29,0.033 -0.56,0.065 -0.85,0.065c-1.13,0 -2.24,-0.411 -3.09,-1.277c-1.39,-1.385 2.39,-5.694 4.79,-6.397c0.57,-0.162 1.07,-0.141 1.4,0.194c0.85,0.856 1.29,1.982 1.27,3.119c0.02,1.103 -0.42,2.228 -1.28,3.073Z" style="fill:#4d2500;fill-rule:nonzero;"/><path d="M200.283,30.695c-0.29,0.033 -0.56,0.065 -0.85,0.065c-1.13,0 -2.24,-0.411 -3.09,-1.277c-1.39,-1.385 2.39,-5.694 4.79,-6.397c-1.54,1.807 -2.92,4.578 -0.85,7.609Z" style="fill:#3b1600;fill-rule:nonzero;"/><path d="M205.783,12.846l-0.07,-0.075l-13.56,15.229l-2.29,2.565l-8.19,-8.194l18.23,-15.489c-0.83,-1.212 -0.64,-2.954 0.56,-4.145c1.32,-1.321 3.36,-1.418 4.54,-0.227c0.1,0.086 0.16,0.194 0.25,0.313l0.16,-0.163c0.77,-0.789 1.64,-1.352 2.51,-1.709c1.58,-0.661 3.15,-0.574 4.1,0.378c1.45,1.45 0.86,4.417 -1.33,6.603l-0.13,0.119l0,0.012c1.2,1.189 1.09,3.236 -0.23,4.544c-1.32,1.332 -3.36,1.44 -4.55,0.239Z" style="fill:#b64f2b;fill-rule:nonzero;"/><path d="M117.553,193.91c-0.401,-0.238 -6.99,-3.734 -19.42,6.149c-0.97,0.855 -1.94,1.691 -2.93,2.468l-0.05,0.032c-1.76,1.407 -3.58,2.706 -5.44,3.896c-10.673,6.852 -22.742,10.109 -34.308,9.721c-0.113,0 -0.206,-0.012 -0.324,-0.021c-12.242,-0.499 -23.911,-5.121 -32.803,-14.018c-0.232,-0.228 -0.455,-0.477 -0.672,-0.715c-0.237,-0.227 -0.492,-0.433 -0.718,-0.671c-8.969,-8.973 -13.602,-20.782 -14.024,-33.132c-0.41,-11.571 2.857,-23.618 9.699,-34.312c1.196,-1.862 2.501,-3.67 3.903,-5.444l0.026,-0.033c0.796,-0.996 1.624,-1.959 2.479,-2.934c9.872,-12.437 6.386,-19.017 6.159,-19.408c2.662,4.298 10.028,6.311 14.666,6.464c14.396,0.486 21.761,-9.7 29.339,-19.776c1.401,-2.176 2.959,-6.365 -4.346,-7.556c0,-0 11.55,-2.046 14.667,-4.35c0.178,-0.174 0.34,-0.326 0.53,-0.498c6.827,-5.813 15.407,-10.034 23.877,-11.139c2.74,-0.358 5.47,-0.389 8.14,-0.033c9.019,1.191 17.55,5.964 24.18,12.837c0.24,0.228 0.46,0.477 0.69,0.726c7.24,6.722 12.33,15.532 13.57,24.862c1.42,10.836 -3.49,22.969 -11.21,32.018c-1.35,1.592 -2.85,3.075 -4.45,4.504c-2,4.187 -3.631,13.4 -3.631,13.4c-1.169,-7.123 -5.159,-5.824 -7.38,-4.461c-0.509,0.315 -0.919,0.63 -1.179,0.845l1.3,-1.135l0.73,-0.629c-0.23,0.174 -0.461,0.357 -0.69,0.519c-9.021,6.885 -17.3,14.147 -16.87,27.137c0.089,2.651 0.78,6.17 2.16,9.211c0.34,0.758 0.74,1.494 1.17,2.176c0.86,1.352 1.91,2.533 3.16,3.3Z" style="fill:#963f1e;fill-rule:nonzero;"/><path d="M126.473,153.418c-0.14,0.141 -0.24,0.217 -0.24,0.217l0.24,-0.217Z" style="fill:#963f1e;fill-rule:nonzero;"/><path d="M110.723,186.907c-0.4,-0.216 -6.99,-3.712 -19.43,6.16c-0.95,0.865 -1.93,1.688 -2.92,2.478l-0.05,0.032c-1.761,1.397 -3.568,2.709 -5.441,3.886c-10.672,6.851 -22.725,10.131 -34.301,9.72c-0.109,-0 -0.217,-0.011 -0.325,-0.011c-12.238,-0.508 -23.921,-5.131 -32.802,-14.017c-0.233,-0.238 -0.439,-0.487 -0.672,-0.725c-0.238,-0.227 -0.492,-0.433 -0.724,-0.671c-8.969,-8.974 -13.59,-20.77 -14.024,-33.132c-0.41,-11.561 2.858,-23.629 9.71,-34.312c1.191,-1.862 2.495,-3.67 3.907,-5.434l0.022,-0.033c0.791,-0.996 1.618,-1.969 2.478,-2.933c9.862,-12.427 6.381,-19.019 6.149,-19.419c2.662,4.309 10.028,6.311 14.678,6.473c14.384,0.49 21.75,-9.719 29.331,-19.785c1.397,-2.188 2.962,-6.344 -4.345,-7.545c0,0 11.545,-2.046 14.667,-4.373c0.168,-0.162 0.352,-0.315 0.524,-0.465c6.831,-5.824 15.418,-10.045 23.878,-11.139c2.75,-0.367 5.49,-0.422 8.14,-0.053c9.03,1.19 17.56,5.974 24.19,12.848c0.23,0.227 0.46,0.476 0.679,0.714c7.251,6.721 12.331,15.532 13.571,24.874c1.42,10.834 -3.49,22.957 -11.2,32.017c-1.36,1.59 -2.86,3.063 -4.45,4.481c-2.01,4.211 -3.64,13.411 -3.64,13.411c-1.161,-7.111 -5.151,-5.812 -7.37,-4.46c-0.51,0.315 -0.921,0.618 -1.19,0.845l1.31,-1.126l0.73,-0.627c-0.23,0.183 -0.46,0.335 -0.69,0.52c-9.03,6.882 -17.3,14.136 -16.88,27.125c0.09,2.651 0.81,6.179 2.16,9.232c0.34,0.746 0.74,1.461 1.17,2.143c0.86,1.385 1.91,2.533 3.16,3.301Z" style="fill:#f26a3c;fill-rule:nonzero;"/><path d="M119.652,146.436c-0.159,0.131 -0.24,0.195 -0.24,0.195l0.24,-0.195Z" style="fill:#f26a3c;fill-rule:nonzero;"/><path d="M121.073,145.213l0.04,-0.107c0.23,-0.185 0.46,-0.337 0.69,-0.52l-0.73,0.627Z" style="fill:#f68629;fill-rule:nonzero;"/><path d="M128.323,149.954c-0.7,-4.295 -2.44,-5.522 -4.19,-5.522c-1.15,0 -2.3,0.527 -3.18,1.062c0.03,-0.098 0.079,-0.194 0.12,-0.281l0.73,-0.627c-0.23,0.183 -0.46,0.335 -0.69,0.52c9.01,-22.232 11.96,-42.596 12.39,-58.534l5.67,-5.835c4.47,5.717 7.52,12.365 8.44,19.308c0.16,1.27 0.24,2.557 0.24,3.855c-0.01,9.778 -4.63,20.164 -11.44,28.162c-1.36,1.59 -2.86,3.063 -4.45,4.481c-2.01,4.211 -3.64,13.411 -3.64,13.411Z" style="fill:#f68629;fill-rule:nonzero;"/><path d="M190.353,8.636l3.67,3.669l1.79,-1.785l-3.67,-3.67l-1.79,1.786Z" style="fill:#310d00;fill-rule:nonzero;"/><path d="M187.453,3.959c-0.65,0.639 -1.04,1.418 -1.2,2.241c-0.06,0.282 -0.08,0.552 -0.08,0.845c0,1.136 0.42,2.24 1.28,3.096c1.37,1.385 5.69,-2.393 6.4,-4.795c0.16,-0.574 0.12,-1.083 -0.2,-1.397c-0.86,-0.844 -1.98,-1.277 -3.11,-1.277c-1.11,-0 -2.24,0.433 -3.09,1.287Z" style="fill:#4d2500;fill-rule:nonzero;"/><path d="M186.253,6.2c-0.06,0.282 -0.08,0.552 -0.08,0.845c0,1.136 0.42,2.24 1.28,3.096c1.37,1.385 5.69,-2.393 6.4,-4.795c-1.82,1.536 -4.59,2.911 -7.6,0.854Z" style="fill:#3b1600;fill-rule:nonzero;"/><path d="M182.363,15.942l3.67,3.658l1.79,-1.775l-3.67,-3.669l-1.79,1.786Z" style="fill:#310d00;fill-rule:nonzero;"/><path d="M179.463,11.255c-0.64,0.649 -1.04,1.418 -1.19,2.251c-0.06,0.271 -0.09,0.563 -0.09,0.845c0,1.126 0.43,2.251 1.27,3.106c1.4,1.375 5.69,-2.402 6.41,-4.816c0.16,-0.574 0.13,-1.061 -0.2,-1.397c-0.86,-0.843 -1.97,-1.277 -3.11,-1.277c-1.11,0 -2.23,0.434 -3.09,1.288Z" style="fill:#4d2500;fill-rule:nonzero;"/><path d="M178.273,13.506c-0.06,0.271 -0.09,0.563 -0.09,0.845c0,1.126 0.43,2.251 1.27,3.106c1.4,1.375 5.69,-2.402 6.41,-4.816c-1.8,1.547 -4.57,2.933 -7.59,0.865Z" style="fill:#3b1600;fill-rule:nonzero;"/><path d="M205.253,12.326l-0.05,-0.076l-13.57,15.231l-2.29,2.564l-8.2,-8.204l18.24,-15.478c-0.83,-1.212 -0.64,-2.955 0.54,-4.146c1.33,-1.32 3.37,-1.429 4.57,-0.227c0.08,0.097 0.15,0.184 0.24,0.303l0.15,-0.174c0.78,-0.757 1.65,-1.342 2.51,-1.699c1.58,-0.649 3.16,-0.563 4.11,0.379c1.46,1.461 0.86,4.427 -1.33,6.625l-0.14,0.107c1.21,1.192 1.09,3.249 -0.22,4.557c-1.33,1.332 -3.37,1.43 -4.56,0.238Z" style="fill:#f26a3c;fill-rule:nonzero;"/><path d="M191.633,27.49c0,-0.006 0.01,-0.013 0.01,-0.02l13.56,-15.22l0.03,0.048l-0.03,-0.036l-13.57,15.228Z" style="fill:#b54222;fill-rule:nonzero;"/><path d="M191.643,27.47c0.27,-1.244 0.65,-2.516 1.11,-3.799l4.72,-6.164l3.06,-3.525l-1.85,-1.843c2.7,-4.193 5.58,-7.92 7.69,-10.484c0.37,-0.444 0.71,-0.856 1.02,-1.235c0.68,-0.277 1.35,-0.42 1.98,-0.42c-0.63,0 -1.3,0.143 -1.98,0.42c-0.31,0.379 -0.65,0.791 -1.02,1.235c1.17,3.03 2.02,7.132 0.78,11.494c-0.71,-0.043 -1.37,-0.303 -1.89,-0.823l-0.03,-0.028l-0.03,-0.048l-13.56,15.22Zm1.54,-4.929c0.02,-0.064 0.05,-0.127 0.07,-0.19l0.58,-0.664l-0.65,0.854Z" style="fill:#f15832;fill-rule:nonzero;"/><path d="M99.283,121.833l-10.49,-10.488l92.98,-88.876l7.09,7.078l-89.58,92.286Z" style="fill:#4d2500;fill-rule:nonzero;"/><path d="M26.132,187.731c-0.293,0.226 -0.59,0.507 -0.862,0.789c-2.613,2.587 -4.632,6.137 -5.628,9.525c0.027,0.228 -0.032,0.433 -0.178,0.617l-0.011,0.055l-0.027,-0.012c-0.292,0.303 -0.79,0.303 -1.099,-0l-8.042,-8.053c-0.314,-0.292 -0.314,-0.789 0,-1.103l0.021,-0.012l0.017,-0.009c0.178,-0.163 0.406,-0.218 0.622,-0.185c3.405,-0.996 6.95,-2.977 9.564,-5.585c3.744,-3.756 4.107,-9.06 6.147,-13.628c1.023,-2.316 4.357,-5.878 7.658,-9.038c3.865,-3.723 7.707,-6.894 7.707,-6.894l13,13.009c0,0 -10.97,12.936 -16.031,15.155c-4.275,1.861 -9.168,2.316 -12.858,5.369Z" style="fill:#4d2500;fill-rule:nonzero;"/><path d="M39.591,162.77c-0.52,0.508 -1.348,0.508 -1.861,0c-0.514,-0.52 -0.514,-1.342 0,-1.861c0.513,-0.499 1.341,-0.499 1.851,0c0.519,0.519 0.519,1.341 0.01,1.861Z" style="fill:#fff;fill-rule:nonzero;"/><path d="M42.497,165.67c-0.52,0.531 -1.336,0.52 -1.861,0c-0.504,-0.508 -0.504,-1.342 0,-1.84c0.525,-0.52 1.341,-0.52 1.861,-0c0.515,0.498 0.515,1.332 0,1.84Z" style="fill:#fff;fill-rule:nonzero;"/><path d="M45.452,168.637c-0.508,0.519 -1.342,0.519 -1.85,-0c-0.52,-0.498 -0.52,-1.343 0,-1.852c0.508,-0.519 1.342,-0.519 1.85,0c0.519,0.509 0.519,1.354 0,1.852Z" style="fill:#fff;fill-rule:nonzero;"/><path d="M48.943,172.133c-0.514,0.508 -1.342,0.508 -1.856,0c-0.514,-0.519 -0.514,-1.342 0,-1.862c0.514,-0.509 1.342,-0.509 1.856,-0c0.509,0.52 0.509,1.343 0,1.862Z" style="fill:#fff;fill-rule:nonzero;"/><path d="M18.883,198.932c-0.2,0 -0.402,-0.075 -0.556,-0.227l-8.042,-8.053c-0.157,-0.146 -0.235,-0.343 -0.235,-0.543c0,-0.2 0.078,-0.403 0.235,-0.56l0.021,-0.012l0.006,-0.003c1.151,1.467 2.399,2.878 3.746,4.225c0.232,0.238 0.486,0.444 0.724,0.671c0.233,0.238 0.439,0.487 0.672,0.725c1.271,1.272 2.601,2.457 3.984,3.555l-0.007,-0.002l-0.005,-0.003c-0.085,0.089 -0.188,0.151 -0.298,0.188c-0.079,0.026 -0.162,0.039 -0.245,0.039Z" style="fill:#390700;fill-rule:nonzero;"/><path d="M187.853,28.563l-5.2,-5.217l14.57,-12.664l3.31,3.3l-12.68,14.581Z" style="fill:#310d00;fill-rule:nonzero;"/><path d="M90.743,172.858c0.05,-0.465 0.01,-0.942 -0.11,-1.375c0.24,-0.833 0.05,-1.732 -0.6,-2.37c-0.94,-0.942 -2.45,-0.942 -3.395,0c-0.936,0.93 -0.936,2.446 0,3.387c0.168,0.174 0.365,0.304 0.565,0.401c-0.15,0.238 -0.413,0.476 -0.782,0.682c-0.731,0.401 -1.678,0.185 -2.159,0.022c-1.191,-0.379 -2.355,-1.288 -2.765,-2.144c-0.449,-0.952 -0.596,-2.035 -0.476,-3.096l0.058,-0c0.559,-4.339 4.698,-6.677 9.084,-9.146c3.61,-2.013 7.34,-4.102 9.37,-7.533c1.57,-2.619 1.71,-5.996 0.38,-8.789c-0.82,-1.689 -2.68,-3.215 -4.76,-3.897c-1.73,-0.574 -3.44,-0.476 -4.8,0.26c-1.55,0.836 -2.56,2.222 -2.73,3.691c-0.02,0.314 -0.01,0.617 0.03,0.931c-0.24,0.823 -0.04,1.721 0.59,2.359c0.94,0.943 2.47,0.943 3.4,-0c0.94,-0.941 0.94,-2.457 0,-3.398l-0.25,-0.206c0.15,-0.141 0.32,-0.281 0.57,-0.422c0.73,-0.379 1.66,-0.174 2.14,-0.011c1.19,0.368 2.36,1.278 2.77,2.154c0.84,1.753 0.75,3.951 -0.25,5.618c-1.56,2.651 -4.74,4.426 -8.1,6.31c-3.606,2.025 -7.557,4.243 -9.559,7.902l-0.012,-0c-1.596,2.673 -1.774,6.017 -0.486,8.713c0.297,0.638 0.752,1.245 1.305,1.796c0.919,0.92 2.136,1.69 3.447,2.114c1.731,0.56 3.441,0.474 4.805,-0.262c1.54,-0.834 2.56,-2.209 2.72,-3.691Z" style="fill:#4d2500;fill-rule:nonzero;"/><path d="M36.891,119.02c0.481,-0.055 0.93,-0.012 1.39,0.107c0.807,-0.238 1.727,-0.054 2.366,0.585c0.942,0.942 0.942,2.457 0,3.409c-0.931,0.932 -2.457,0.932 -3.4,-0c-0.167,-0.183 -0.291,-0.367 -0.4,-0.562c-0.227,0.151 -0.476,0.4 -0.682,0.779c-0.394,0.736 -0.184,1.667 -0.022,2.164c0.386,1.18 1.289,2.328 2.155,2.75c0.941,0.443 2.035,0.605 3.084,0.477l0,-0.044c4.368,-0.563 6.684,-4.698 9.146,-9.092c2.02,-3.615 4.109,-7.339 7.534,-9.374c2.642,-1.547 6.007,-1.7 8.795,-0.379c1.699,0.822 3.22,2.684 3.902,4.763c0.568,1.743 0.47,3.442 -0.26,4.796c-0.844,1.536 -2.219,2.564 -3.696,2.738c-0.314,0.021 -0.628,0.009 -0.937,-0.022c-0.807,0.227 -1.71,0.031 -2.353,-0.607c-0.942,-0.941 -0.942,-2.457 0,-3.387c0.947,-0.942 2.461,-0.942 3.398,-0l0.211,0.239c0.147,-0.153 0.293,-0.315 0.411,-0.553c0.396,-0.737 0.185,-1.678 0.023,-2.164c-0.374,-1.178 -1.299,-2.35 -2.15,-2.761c-1.764,-0.833 -3.967,-0.747 -5.618,0.227c-2.656,1.581 -4.437,4.752 -6.326,8.129c-2.014,3.594 -4.248,7.545 -7.891,9.547l0.011,0.01c-2.69,1.602 -6.028,1.787 -8.735,0.51c-0.621,-0.315 -1.233,-0.758 -1.78,-1.311c-0.937,-0.93 -1.7,-2.164 -2.127,-3.453c-0.563,-1.742 -0.466,-3.441 0.276,-4.804c0.834,-1.537 2.203,-2.555 3.675,-2.717Z" style="fill:#4d2500;fill-rule:nonzero;"/><path d="M73.914,153.613l-17.605,-17.611l1.651,-1.646l17.605,17.601l-1.651,1.656Z" style="fill:#fff;fill-rule:nonzero;"/><path d="M188.863,29.558l-7.07,-7.068l0.55,-0.562l7.08,7.078l-0.56,0.552Z" style="fill:#fff;fill-rule:nonzero;"/><path d="M183.693,23.285l14.29,-11.516l0.02,-0.244l-0.24,-0.026l-14.29,11.517l-0.03,0.243l0.25,0.026Z" style="fill:#fff;fill-rule:nonzero;"/><path d="M185.453,25.039l13.04,-12.772l0,-0.246l-0.24,-0.002l-13.04,12.772l-0.01,0.245l0.25,0.003Z" style="fill:#fff;fill-rule:nonzero;"/><path d="M187.013,27.14l12.36,-14.027l-0.02,-0.245l-0.24,0.016l-12.36,14.027l0.02,0.244l0.24,-0.015Z" style="fill:#fff;fill-rule:nonzero;"/><path d="M199.923,13.726l-11.43,14.937l0.03,0.242l0.25,-0.032l11.43,-14.936l-0.03,-0.244l-0.25,0.033Z" style="fill:#fff;fill-rule:nonzero;"/><path d="M48.256,209.172c-5.548,-0.222 -10.978,-1.303 -16.081,-3.238c5.107,1.933 10.537,3.008 16.081,3.238Zm-16.091,-3.241c-0.024,-0.009 -0.048,-0.018 -0.072,-0.027c0.024,0.009 0.048,0.018 0.072,0.027Z" style="fill:#963715;fill-rule:nonzero;"/><path d="M48.256,209.172c-5.544,-0.23 -10.974,-1.305 -16.081,-3.238c-0.004,-0.001 -0.007,-0.002 -0.01,-0.003c-0.024,-0.009 -0.048,-0.018 -0.072,-0.027c-2.574,-0.981 -5.064,-2.179 -7.445,-3.594c1.765,0.249 3.55,0.411 5.353,0.487c-0.733,-5.507 -0.906,-11.223 -0.61,-17.069c3.06,-1.404 6.493,-2.014 9.599,-3.366c2.854,-1.252 7.587,-5.911 11.172,-9.737c-2.533,12.631 -3.44,25.042 -1.906,36.547Zm3.809,-44.923l-10.044,-10.051c0,-0 -3.842,3.171 -7.707,6.894c-0.552,0.528 -1.105,1.068 -1.648,1.612c2.287,-10.238 5.586,-20.581 9.467,-30.671c1.199,-0.185 2.376,-0.599 3.449,-1.238l-0.011,-0.01c3.643,-2.002 5.877,-5.953 7.891,-9.547c1.889,-3.377 3.67,-6.548 6.326,-8.129c0.897,-0.529 1.957,-0.796 3.021,-0.796c0.894,-0 1.791,0.189 2.597,0.569c0.851,0.411 1.776,1.583 2.15,2.761c0.162,0.486 0.373,1.427 -0.023,2.164c-0.118,0.238 -0.264,0.4 -0.411,0.553l-0.211,-0.239c-0.468,-0.471 -1.081,-0.707 -1.695,-0.707c-0.614,-0 -1.229,0.236 -1.703,0.707c-0.942,0.93 -0.942,2.446 0,3.387c0.472,0.468 1.083,0.698 1.694,0.698c0.222,0 0.444,-0.03 0.659,-0.091c0.201,0.021 0.404,0.033 0.608,0.033c0.11,-0 0.219,-0.004 0.329,-0.011c0.146,-0.018 0.292,-0.043 0.436,-0.077c-2.243,4.956 -4.396,10.03 -6.402,15.173l-2.877,-2.877l-1.651,1.646l3.612,3.613c-3.08,8.119 -5.772,16.392 -7.856,24.634Z" style="fill:#f15e31;fill-rule:nonzero;"/><path d="M29.391,185.728c0.347,-6.862 1.341,-13.902 2.837,-21.008c0.68,-1.284 1.382,-2.495 2.086,-3.628c-0.552,0.528 -1.105,1.068 -1.648,1.612c0.543,-0.544 1.096,-1.084 1.648,-1.612c3.865,-3.723 7.707,-6.894 7.707,-6.894l10.044,10.051c-0.708,2.8 -1.344,5.59 -1.903,8.376c-3.585,3.826 -8.318,8.485 -11.172,9.737c-3.106,1.352 -6.539,1.962 -9.599,3.366Zm18.624,-15.839c-0.336,0 -0.671,0.127 -0.928,0.382c-0.514,0.52 -0.514,1.343 0,1.862c0.257,0.254 0.592,0.381 0.928,0.381c0.335,0 0.671,-0.127 0.928,-0.381c0.509,-0.519 0.509,-1.342 0,-1.862c-0.257,-0.255 -0.593,-0.382 -0.928,-0.382Zm-3.488,-3.493c-0.335,-0 -0.671,0.129 -0.925,0.389c-0.52,0.509 -0.52,1.354 0,1.852c0.254,0.26 0.59,0.39 0.925,0.39c0.336,-0 0.671,-0.13 0.925,-0.39c0.519,-0.498 0.519,-1.343 0,-1.852c-0.254,-0.26 -0.589,-0.389 -0.925,-0.389Zm-2.959,-2.956c-0.334,-0 -0.67,0.13 -0.932,0.39c-0.504,0.498 -0.504,1.332 0,1.84c0.264,0.261 0.601,0.394 0.938,0.394c0.333,-0 0.665,-0.13 0.923,-0.394c0.515,-0.508 0.515,-1.342 0,-1.84c-0.26,-0.26 -0.594,-0.39 -0.929,-0.39Zm-2.911,-2.905c-0.335,0 -0.671,0.124 -0.927,0.374c-0.514,0.519 -0.514,1.341 0,1.861c0.256,0.254 0.592,0.381 0.928,0.381c0.336,0 0.673,-0.127 0.933,-0.381c0.509,-0.52 0.509,-1.342 -0.01,-1.861c-0.255,-0.25 -0.589,-0.374 -0.924,-0.374Z" style="fill:#4c1d00;fill-rule:nonzero;"/><path d="M67.458,82.31c0.073,-0.623 0.012,-1.258 -0.266,-1.857c0.001,-0.001 0.001,-0.002 0.002,-0.003c0.281,0.599 0.341,1.234 0.264,1.86Z" style="fill:#fed0a0;fill-rule:nonzero;"/><path d="M43.735,127.965c4.963,-12.333 10.72,-24.207 16.471,-34.956c-3.713,4.368 -7.796,8.144 -12.98,10.235c5.184,-2.091 9.267,-5.867 12.98,-10.235c2.105,-2.478 4.101,-5.153 6.103,-7.825c0.506,-0.772 1.025,-1.807 1.149,-2.874c0.077,-0.626 0.017,-1.261 -0.264,-1.86c0.898,-1.557 1.78,-3.083 2.655,-4.565c2.761,-0.736 5.5,-1.645 6.782,-2.619c0.168,-0.162 0.352,-0.315 0.524,-0.465c6.831,-5.824 15.418,-10.045 23.878,-11.139c-7.66,11.535 -19.62,30.714 -30.29,52.894c-0.689,-2.06 -2.2,-3.9 -3.886,-4.716c-1.265,-0.599 -2.648,-0.895 -4.029,-0.895c-1.663,-0 -3.323,0.429 -4.766,1.274c-3.425,2.035 -5.514,5.759 -7.534,9.374c-1.978,3.532 -3.863,6.895 -6.793,8.372Z" style="fill:#f15e31;fill-rule:nonzero;"/><path d="M38.658,163.151c-0.336,0 -0.672,-0.127 -0.928,-0.381c-0.514,-0.52 -0.514,-1.342 0,-1.861c0.256,-0.25 0.592,-0.374 0.927,-0.374c0.335,0 0.669,0.124 0.924,0.374c0.519,0.519 0.519,1.341 0.01,1.861c-0.26,0.254 -0.597,0.381 -0.933,0.381Z" style="fill:#fed0a0;fill-rule:nonzero;"/><path d="M41.574,166.064c-0.337,-0 -0.674,-0.133 -0.938,-0.394c-0.504,-0.508 -0.504,-1.342 0,-1.84c0.262,-0.26 0.598,-0.39 0.932,-0.39c0.335,-0 0.669,0.13 0.929,0.39c0.515,0.498 0.515,1.332 0,1.84c-0.258,0.264 -0.59,0.394 -0.923,0.394Z" style="fill:#fed0a0;fill-rule:nonzero;"/><path d="M44.527,169.027c-0.335,-0 -0.671,-0.13 -0.925,-0.39c-0.52,-0.498 -0.52,-1.343 0,-1.852c0.254,-0.26 0.59,-0.389 0.925,-0.389c0.336,-0 0.671,0.129 0.925,0.389c0.519,0.509 0.519,1.354 0,1.852c-0.254,0.26 -0.589,0.39 -0.925,0.39Z" style="fill:#fed0a0;fill-rule:nonzero;"/><path d="M48.015,172.514c-0.336,0 -0.671,-0.127 -0.928,-0.381c-0.514,-0.519 -0.514,-1.342 0,-1.862c0.257,-0.255 0.592,-0.382 0.928,-0.382c0.335,0 0.671,0.127 0.928,0.382c0.509,0.52 0.509,1.343 0,1.862c-0.257,0.254 -0.593,0.381 -0.928,0.381Z" style="fill:#fed0a0;fill-rule:nonzero;"/><path d="M32.228,164.72c0.141,-0.671 0.288,-1.345 0.438,-2.016c0.543,-0.544 1.096,-1.084 1.648,-1.612c-0.704,1.133 -1.406,2.344 -2.086,3.628Z" style="fill:#390400;fill-rule:nonzero;"/><path d="M42.133,132.033c0.524,-1.36 1.058,-2.717 1.602,-4.068c2.93,-1.477 4.815,-4.84 6.793,-8.372c2.02,-3.615 4.109,-7.339 7.534,-9.374c1.443,-0.845 3.103,-1.274 4.766,-1.274c1.381,-0 2.764,0.296 4.029,0.895c1.686,0.816 3.197,2.656 3.886,4.716c-1.186,2.466 -2.357,4.971 -3.504,7.504c-0.144,0.034 -0.29,0.059 -0.436,0.077c-0.11,0.007 -0.219,0.011 -0.329,0.011c-0.204,-0 -0.407,-0.012 -0.608,-0.033c-0.215,0.061 -0.437,0.091 -0.659,0.091c-0.611,0 -1.222,-0.23 -1.694,-0.698c-0.942,-0.941 -0.942,-2.457 0,-3.387c0.474,-0.471 1.089,-0.707 1.703,-0.707c0.614,-0 1.227,0.236 1.695,0.707l0.211,0.239c0.147,-0.153 0.293,-0.315 0.411,-0.553c0.396,-0.737 0.185,-1.678 0.023,-2.164c-0.374,-1.178 -1.299,-2.35 -2.15,-2.761c-0.806,-0.38 -1.703,-0.569 -2.597,-0.569c-1.064,-0 -2.124,0.267 -3.021,0.796c-2.656,1.581 -4.437,4.752 -6.326,8.129c-2.014,3.594 -4.248,7.545 -7.891,9.547l0.011,0.01c-1.073,0.639 -2.25,1.053 -3.449,1.238Z" style="fill:#4c1d00;fill-rule:nonzero;"/><path d="M62.071,77.619c0.256,-0.05 0.954,-0.179 1.918,-0.375c-0.964,0.198 -1.662,0.328 -1.918,0.375Z" style="fill:#fed0a0;fill-rule:nonzero;"/><path d="M59.921,139.615l-3.612,-3.613l1.651,-1.646l2.877,2.877c-0.309,0.793 -0.614,1.586 -0.916,2.382Z" style="fill:#fed0a0;fill-rule:nonzero;"/><path d="M67.192,80.453c-0.347,-0.732 -1.026,-1.415 -2.191,-1.954c0.107,0.05 0.211,0.1 0.31,0.152c0.977,0.513 1.566,1.137 1.881,1.802Zm-5.228,-2.814c0,0 0.037,-0.007 0.107,-0.02c-0.006,0.001 -0.011,0.002 -0.017,0.003c-0.059,0.011 -0.09,0.017 -0.09,0.017Z" style="fill:#fbc0a3;fill-rule:nonzero;"/><path d="M65.311,78.651c-0.099,-0.052 -0.203,-0.102 -0.31,-0.152c-0.78,-0.36 -1.777,-0.656 -3.037,-0.86c0,0 0.031,-0.006 0.09,-0.017c-0.038,0.008 -0.065,0.013 -0.079,0.017c1.428,0.232 2.518,0.583 3.336,1.012Z" style="fill:#f15832;fill-rule:nonzero;"/><path d="M63.989,77.244c1.381,-0.281 3.307,-0.699 5.267,-1.204c-0.967,0.251 -1.926,0.48 -2.815,0.681c-0.912,0.206 -1.752,0.382 -2.452,0.523Z" style="fill:#fbc0a3;fill-rule:nonzero;"/><path d="M66.441,76.721c0.889,-0.201 1.848,-0.43 2.815,-0.681c0.198,-0.051 0.396,-0.103 0.593,-0.155c-1.164,0.313 -2.336,0.595 -3.408,0.836Z" style="fill:#f15832;fill-rule:nonzero;"/><path d="M67.192,80.453c-0.315,-0.665 -0.904,-1.289 -1.881,-1.802c0.981,0.511 1.569,1.132 1.883,1.799c-0.001,0.001 -0.001,0.002 -0.002,0.003Zm-5.138,-2.831c0.006,-0.001 0.011,-0.002 0.017,-0.003c0.256,-0.047 0.954,-0.177 1.918,-0.375c0.7,-0.141 1.54,-0.317 2.452,-0.523c-2.203,0.499 -3.976,0.827 -4.387,0.901Z" style="fill:#f8a26f;fill-rule:nonzero;"/><path d="M67.194,80.45c-0.314,-0.667 -0.902,-1.288 -1.883,-1.799c-0.818,-0.429 -1.908,-0.78 -3.336,-1.012c0.014,-0.004 0.041,-0.009 0.079,-0.017c0.411,-0.074 2.184,-0.402 4.387,-0.901c1.072,-0.241 2.244,-0.523 3.408,-0.836c-0.875,1.482 -1.757,3.008 -2.655,4.565Z" style="fill:#f04f2b;fill-rule:nonzero;"/><path d="M30.001,202.797c-1.803,-0.076 -3.588,-0.238 -5.353,-0.487c-1.804,-1.076 -3.545,-2.276 -5.21,-3.6l0.015,0.007l0.011,-0.055c0.123,-0.155 0.184,-0.326 0.184,-0.512c0.001,-0.034 -0.001,-0.069 -0.006,-0.105c0.996,-3.388 3.015,-6.938 5.628,-9.525c0.272,-0.282 0.569,-0.563 0.862,-0.789c1.009,-0.835 2.108,-1.475 3.259,-2.003c-0.296,5.846 -0.123,11.562 0.61,17.069Z" style="fill:#f1552c;fill-rule:nonzero;"/><path d="M26.132,187.731c0.067,-8.979 2.827,-16.838 6.096,-23.011c-1.496,7.106 -2.49,14.146 -2.837,21.008c-1.151,0.528 -2.25,1.168 -3.259,2.003Z" style="fill:#592100;fill-rule:nonzero;"/><path d="M37.966,104.986c-0.325,-0 -0.656,-0.006 -0.988,-0.017c0.33,0.011 0.658,0.017 0.982,0.017c3.44,-0 6.471,-0.625 9.198,-1.715c-2.725,1.091 -5.753,1.715 -9.192,1.715Zm9.23,-1.73c0.01,-0.004 0.02,-0.008 0.03,-0.012c-0.01,0.004 -0.02,0.008 -0.03,0.012Z" style="fill:#f9a671;fill-rule:nonzero;"/><path d="M10.312,189.534c-6.516,-8.303 -9.909,-18.401 -10.278,-28.907c-0.022,-0.632 -0.034,-1.266 -0.034,-1.901c-0.008,-10.975 3.266,-22.312 9.744,-32.411c1.191,-1.862 2.495,-3.67 3.907,-5.434l0.022,-0.033c0.791,-0.996 1.618,-1.969 2.478,-2.933c5.682,-7.16 6.935,-12.383 6.932,-15.6c-0.003,-2.367 -0.685,-3.649 -0.783,-3.819c2.662,4.309 10.028,6.311 14.678,6.473c0.332,0.011 0.663,0.017 0.988,0.017c3.439,-0 6.467,-0.624 9.192,-1.715c0.013,-0.005 0.025,-0.01 0.038,-0.015c0.01,-0.004 0.02,-0.008 0.03,-0.012c5.184,-2.091 9.267,-5.867 12.98,-10.235c-5.751,10.749 -11.508,22.623 -16.471,34.956c-0.716,0.361 -1.495,0.609 -2.353,0.72l0,0.044c-0.233,0.028 -0.468,0.042 -0.704,0.042c-0.824,-0 -1.648,-0.174 -2.38,-0.519c-0.866,-0.422 -1.769,-1.57 -2.155,-2.75c-0.162,-0.497 -0.372,-1.428 0.022,-2.164c0.206,-0.379 0.455,-0.628 0.682,-0.779c0.109,0.195 0.233,0.379 0.4,0.562c0.471,0.466 1.088,0.699 1.704,0.699c0.616,-0 1.23,-0.233 1.696,-0.699c0.942,-0.952 0.942,-2.467 0,-3.409c-0.461,-0.46 -1.068,-0.685 -1.673,-0.685c-0.234,-0 -0.468,0.034 -0.693,0.1c-0.326,-0.085 -0.648,-0.131 -0.979,-0.131c-0.135,-0 -0.272,0.008 -0.411,0.024c-1.472,0.162 -2.841,1.18 -3.675,2.717c-0.742,1.363 -0.839,3.062 -0.276,4.804c0.427,1.289 1.19,2.523 2.127,3.453c0.547,0.553 1.159,0.996 1.78,1.311c1.19,0.562 2.502,0.841 3.828,0.841c0.486,-0 0.974,-0.038 1.458,-0.113c-3.881,10.09 -7.18,20.433 -9.467,30.671c-2.704,2.705 -5.158,5.497 -6.01,7.426c-2.04,4.568 -2.403,9.872 -6.147,13.628c-2.614,2.608 -6.159,4.589 -9.564,5.585c-0.039,-0.006 -0.079,-0.009 -0.119,-0.009c-0.178,-0 -0.358,0.06 -0.503,0.194l-0.011,0.006Z" style="fill:#f1552c;fill-rule:nonzero;"/><path d="M19.453,198.717l-0.015,-0.007c-1.383,-1.098 -2.713,-2.283 -3.984,-3.555c-0.233,-0.238 -0.439,-0.487 -0.672,-0.725c-0.238,-0.227 -0.492,-0.433 -0.724,-0.671c-1.347,-1.347 -2.595,-2.758 -3.746,-4.225l0.011,-0.006c0.145,-0.134 0.325,-0.194 0.503,-0.194c0.04,-0 0.08,0.003 0.119,0.009c3.405,-0.996 6.95,-2.977 9.564,-5.585c3.744,-3.756 4.107,-9.06 6.147,-13.628c0.852,-1.929 3.306,-4.721 6.01,-7.426c-0.15,0.671 -0.297,1.345 -0.438,2.016c-3.269,6.173 -6.029,14.032 -6.096,23.011c-0.293,0.226 -0.59,0.507 -0.862,0.789c-2.613,2.587 -4.632,6.137 -5.628,9.525c0.005,0.036 0.007,0.071 0.006,0.105c0,0.186 -0.061,0.357 -0.184,0.512l-0.011,0.055Z" style="fill:#410300;fill-rule:nonzero;"/><path d="M40.675,132.146c-1.326,-0 -2.638,-0.279 -3.828,-0.841c-0.621,-0.315 -1.233,-0.758 -1.78,-1.311c-0.937,-0.93 -1.7,-2.164 -2.127,-3.453c-0.563,-1.742 -0.466,-3.441 0.276,-4.804c0.834,-1.537 2.203,-2.555 3.675,-2.717c0.139,-0.016 0.276,-0.024 0.411,-0.024c0.331,-0 0.653,0.046 0.979,0.131c0.225,-0.066 0.459,-0.1 0.693,-0.1c0.605,-0 1.212,0.225 1.673,0.685c0.942,0.942 0.942,2.457 0,3.409c-0.466,0.466 -1.08,0.699 -1.696,0.699c-0.616,-0 -1.233,-0.233 -1.704,-0.699c-0.167,-0.183 -0.291,-0.367 -0.4,-0.562c-0.227,0.151 -0.476,0.4 -0.682,0.779c-0.394,0.736 -0.184,1.667 -0.022,2.164c0.386,1.18 1.289,2.328 2.155,2.75c0.732,0.345 1.556,0.519 2.38,0.519c0.236,-0 0.471,-0.014 0.704,-0.042l0,-0.044c0.858,-0.111 1.637,-0.359 2.353,-0.72c-0.544,1.351 -1.078,2.708 -1.602,4.068c-0.484,0.075 -0.972,0.113 -1.458,0.113Z" style="fill:#592100;fill-rule:nonzero;"/><path d="M99.283,121.833l-4.02,-4.026l90.92,-90.922l0.02,0.018l1.65,1.66l0.01,-0.006l0.99,0.996l0,0.002l-49.68,51.182l-5.67,5.835l-34.22,35.261Z" style="fill:#350200;fill-rule:nonzero;"/><path d="M187.853,28.563l-1.65,-1.66l0.9,0.897l0.76,0.757l-0.01,0.006Z" style="fill:#270000;fill-rule:nonzero;"/><path d="M188.853,29.553l-0.99,-0.996l-0.76,-0.757l1.76,1.747l-0.01,0.006Z" style="fill:#815a39;fill-rule:nonzero;"/><path d="M96.223,124.832l-10.456,-10.467l3.026,-3.02l10.48,10.467l-3.05,3.02Z" style="fill:#080d00;fill-rule:nonzero;"/><path d="M54.956,167.251l-12.957,-12.934l3.031,-3.032l12.946,12.946l-3.02,3.02Z" style="fill:#080d00;fill-rule:nonzero;"/><path d="M184.643,25.343l-143.198,139.295l-0.003,0.245l0.245,0.003l143.206,-139.295l0,-0.245l-0.25,-0.003Z" style="fill:#fff;fill-rule:nonzero;"/><path d="M182.923,23.621l-144.388,138.093l-0.005,0.245l0.245,0.005l144.388,-138.093l0.01,-0.245l-0.25,-0.005Z" style="fill:#fff;fill-rule:nonzero;"/><path d="M188.223,28.928l-140.329,142.142l0.002,0.245l0.245,-0.002l140.332,-142.141l0,-0.245l-0.25,0.001Z" style="fill:#fff;fill-rule:nonzero;"/><path d="M186.473,27.173l-142.069,140.421l-0.001,0.245l0.245,0.001l142.075,-140.421l0,-0.245l-0.25,-0.001Z" style="fill:#fff;fill-rule:nonzero;"/><path d="M208.723,12.845c0.39,-0.178 0.76,-0.43 1.09,-0.757c1.31,-1.308 1.43,-3.365 0.22,-4.557l0.01,0c0.56,0.564 0.83,1.312 0.83,2.084c0,0.874 -0.36,1.778 -1.06,2.473c-0.33,0.329 -0.7,0.581 -1.09,0.757Z" style="fill:#b4371f;fill-rule:nonzero;"/><path d="M211.503,0.799c-0.54,-0.54 -1.29,-0.799 -2.13,-0.799c0.84,0 1.59,0.259 2.13,0.799Z" style="fill:#f69780;fill-rule:nonzero;"/><path d="M207.313,13.152c-0.06,-0 -0.11,-0.001 -0.16,-0.003c1.24,-4.362 0.39,-8.464 -0.78,-11.494c0.37,-0.444 0.71,-0.856 1.02,-1.235c0.68,-0.277 1.35,-0.42 1.98,-0.42c0.84,-0 1.59,0.259 2.13,0.799c0.54,0.542 0.8,1.292 0.79,2.132c0,1.425 -0.75,3.111 -2.12,4.493l-0.14,0.107c1.21,1.192 1.09,3.249 -0.22,4.557c-0.33,0.327 -0.7,0.579 -1.09,0.757c-0.45,0.206 -0.94,0.307 -1.41,0.307Z" style="fill:#f04b2e;fill-rule:nonzero;"/></g></g></g></svg>