<?xml version="1.0" encoding="UTF-8" standalone="no"?><!DOCTYPE svg PUBLIC "-//W3C//DTD SVG 1.1//EN" "http://www.w3.org/Graphics/SVG/1.1/DTD/svg11.dtd"><svg width="100%" height="100%" viewBox="0 0 217 176" version="1.1" xmlns="http://www.w3.org/2000/svg" xmlns:xlink="http://www.w3.org/1999/xlink" xml:space="preserve" xmlns:serif="http://www.serif.com/" style="fill-rule:evenodd;clip-rule:evenodd;stroke-linejoin:round;stroke-miterlimit:2;"><g><g><g><path d="M65.35,167.36l-61.481,-0c-2.137,-0 -3.869,-1.74 -3.869,-3.88l0,-147.9c0,-1.06 0.433,-2.03 1.131,-2.73c0.703,-0.7 1.678,-1.14 2.738,-1.14l61.481,0c2.127,0 3.875,1.74 3.875,3.87l-0,147.9c-0,2.14 -1.748,3.88 -3.875,3.88Z" style="fill:#200000;fill-rule:nonzero;"/><path d="M0,81.15l0,-65.57c0,-1.06 0.433,-2.03 1.131,-2.73c0.703,-0.7 1.678,-1.14 2.738,-1.14l53.276,0c-13.524,8.3 -42.652,29.94 -57.145,69.44Z" style="fill:#4a4b4c;fill-rule:nonzero;"/><rect x="6.408" y="16.35" width="41.369" height="142.64" style="fill:#c9cacc;fill-rule:nonzero;"/><rect x="6.408" y="16.35" width="39.231" height="9.63" style="fill:#b7b9bc;fill-rule:nonzero;"/><rect x="8.551" y="16.35" width="39.226" height="9.63" style="fill:#fff;fill-rule:nonzero;"/><rect x="6.408" y="26.6" width="39.231" height="9.62" style="fill:#b7b9bc;fill-rule:nonzero;"/><rect x="8.551" y="26.6" width="39.226" height="9.62" style="fill:#fff;fill-rule:nonzero;"/><rect x="6.408" y="37.2" width="39.231" height="9.63" style="fill:#b7b9bc;fill-rule:nonzero;"/><rect x="8.551" y="37.21" width="39.226" height="9.63" style="fill:#fff;fill-rule:nonzero;"/><rect x="6.408" y="47.56" width="39.231" height="9.64" style="fill:#b7b9bc;fill-rule:nonzero;"/><rect x="8.551" y="47.56" width="39.226" height="9.64" style="fill:#fff;fill-rule:nonzero;"/><rect x="6.408" y="58.04" width="39.231" height="9.63" style="fill:#b7b9bc;fill-rule:nonzero;"/><rect x="8.551" y="58.04" width="39.226" height="9.63" style="fill:#fff;fill-rule:nonzero;"/><rect x="6.408" y="68.52" width="39.231" height="9.63" style="fill:#b7b9bc;fill-rule:nonzero;"/><rect x="8.551" y="68.52" width="39.226" height="9.63" style="fill:#fff;fill-rule:nonzero;"/><rect x="6.408" y="78.94" width="39.231" height="9.65" style="fill:#b7b9bc;fill-rule:nonzero;"/><rect x="8.551" y="78.94" width="39.226" height="9.65" style="fill:#fff;fill-rule:nonzero;"/><rect x="6.408" y="89.43" width="39.231" height="9.63" style="fill:#b7b9bc;fill-rule:nonzero;"/><rect x="8.551" y="89.43" width="39.226" height="9.63" style="fill:#fff;fill-rule:nonzero;"/><rect x="6.408" y="100.18" width="39.231" height="9.61" style="fill:#b7b9bc;fill-rule:nonzero;"/><rect x="8.551" y="100.18" width="39.226" height="9.61" style="fill:#fff;fill-rule:nonzero;"/><rect x="6.408" y="110.63" width="39.231" height="9.65" style="fill:#b7b9bc;fill-rule:nonzero;"/><rect x="8.551" y="110.64" width="39.226" height="9.64" style="fill:#fff;fill-rule:nonzero;"/><rect x="6.408" y="121.04" width="39.231" height="9.62" style="fill:#b7b9bc;fill-rule:nonzero;"/><rect x="8.551" y="121.04" width="39.226" height="9.62" style="fill:#fff;fill-rule:nonzero;"/><rect x="6.408" y="131.5" width="39.231" height="9.63" style="fill:#b7b9bc;fill-rule:nonzero;"/><rect x="8.551" y="131.51" width="39.226" height="9.62" style="fill:#fff;fill-rule:nonzero;"/><rect x="6.408" y="141.75" width="39.231" height="9.64" style="fill:#b7b9bc;fill-rule:nonzero;"/><rect x="8.551" y="141.76" width="39.226" height="9.63" style="fill:#fff;fill-rule:nonzero;"/><rect x="6.408" y="152.24" width="39.231" height="9.62" style="fill:#b7b9bc;fill-rule:nonzero;"/><rect x="8.551" y="152.24" width="39.226" height="9.62" style="fill:#fff;fill-rule:nonzero;"/><path d="M23.84,25.98l-15.289,-0l-0,-9.63l27.742,-0c-2.759,1.19 -5.747,3.4 -8.668,7.31l-3.785,0l-0,2.32Z" style="fill:#d0d2d3;fill-rule:nonzero;"/><path d="M21.053,36.22l-12.502,0l-0,-9.62l15.289,-0l-0,1.69l0.822,-0c-1.248,2.25 -2.462,4.87 -3.609,7.93Z" style="fill:#d0d2d3;fill-rule:nonzero;"/><path d="M17.762,46.84l-9.211,0l-0,-9.63l12.133,0c-1.028,2.83 -2.013,6.03 -2.922,9.63Z" style="fill:#d0d2d3;fill-rule:nonzero;"/><path d="M15.549,57.2l-6.998,0l-0,-9.64l9.028,-0c-0.715,2.95 -1.397,6.15 -2.03,9.64Z" style="fill:#d0d2d3;fill-rule:nonzero;"/><path d="M13.979,67.67l-5.428,-0l-0,-9.63l6.862,-0c-0.524,3.01 -1.012,6.21 -1.434,9.63Z" style="fill:#d0d2d3;fill-rule:nonzero;"/><path d="M12.886,78.15l-4.335,0l-0,-9.63l5.314,0c-0.363,3.05 -0.703,6.25 -0.979,9.63Z" style="fill:#d0d2d3;fill-rule:nonzero;"/><path d="M12.139,88.59l-3.588,0l-0,-9.65l4.254,0c-0.249,3.08 -0.477,6.29 -0.666,9.65Z" style="fill:#d0d2d3;fill-rule:nonzero;"/><path d="M11.705,99.06l-3.154,-0l-0,-9.63l3.551,-0c-0.174,3.07 -0.299,6.29 -0.397,9.63Z" style="fill:#d0d2d3;fill-rule:nonzero;"/><path d="M11.5,109.79l-2.949,-0l-0,-9.61l3.117,-0c-0.087,3.08 -0.146,6.3 -0.168,9.61Z" style="fill:#d0d2d3;fill-rule:nonzero;"/><path d="M11.516,120.28l-2.965,0l-0,-9.64l2.949,0c-0.027,3.1 -0.027,6.33 0.016,9.64Z" style="fill:#d0d2d3;fill-rule:nonzero;"/><path d="M11.705,130.66l-3.154,0l-0,-9.62l2.965,-0c0.039,3.11 0.098,6.32 0.189,9.62Z" style="fill:#d0d2d3;fill-rule:nonzero;"/><path d="M12.047,141.13l-3.496,0l-0,-9.62l3.166,0c0.092,3.12 0.2,6.31 0.33,9.62Z" style="fill:#d0d2d3;fill-rule:nonzero;"/><path d="M12.512,151.39l-3.961,0l-0,-9.63l3.518,0c0.125,3.12 0.275,6.35 0.443,9.63Z" style="fill:#d0d2d3;fill-rule:nonzero;"/><path d="M13.118,161.86l-4.567,-0l-0,-9.62l4.005,-0c0.173,3.13 0.351,6.33 0.562,9.62Z" style="fill:#d0d2d3;fill-rule:nonzero;"/><rect x="23.84" y="23.66" width="23.504" height="4.63" style="fill:#4f4b4a;fill-rule:nonzero;"/><rect x="25.577" y="23.66" width="23.494" height="4.63" style="fill:#282525;fill-rule:nonzero;"/><rect x="25.577" y="27.42" width="23.494" height="0.28" style="fill:#e6e7e8;fill-rule:nonzero;"/><path d="M27.016,28.29l-1.439,-0l-0,-0.59l2.53,0c-0.385,0.19 -0.749,0.38 -1.091,0.59Z" style="fill:#090909;fill-rule:nonzero;"/><path d="M28.715,27.42l-3.138,-0l-0,-3.76l23.494,0c-0,0 -13.104,0.56 -20.356,3.76Z" style="fill:#090909;fill-rule:nonzero;"/><path d="M28.107,27.7l-2.53,0l-0,-0.28l3.138,-0c-0.208,0.09 -0.411,0.18 -0.608,0.28Z" style="fill:#676b70;fill-rule:nonzero;"/><rect x="23.84" y="33.9" width="23.504" height="4.65" style="fill:#4f4b4a;fill-rule:nonzero;"/><rect x="25.577" y="33.9" width="23.494" height="4.65" style="fill:#282525;fill-rule:nonzero;"/><rect x="25.577" y="37.67" width="23.494" height="0.27" style="fill:#e6e7e8;fill-rule:nonzero;"/><path d="M27.016,38.55l-1.439,-0l-0,-0.61l2.568,0c-0.399,0.19 -0.776,0.39 -1.129,0.61Z" style="fill:#090909;fill-rule:nonzero;"/><path d="M28.729,37.67l-3.152,-0l-0,-3.77l23.494,0c-0,0 -13.088,0.56 -20.342,3.77Z" style="fill:#090909;fill-rule:nonzero;"/><path d="M28.145,37.94l-2.568,0l-0,-0.27l3.152,-0c-0.199,0.09 -0.394,0.18 -0.584,0.27Z" style="fill:#676b70;fill-rule:nonzero;"/><rect x="23.84" y="54.88" width="23.504" height="4.64" style="fill:#4f4b4a;fill-rule:nonzero;"/><rect x="25.577" y="54.88" width="23.494" height="4.64" style="fill:#282525;fill-rule:nonzero;"/><rect x="25.577" y="58.65" width="23.494" height="0.27" style="fill:#e6e7e8;fill-rule:nonzero;"/><path d="M27.016,59.52l-1.439,0l-0,-0.6l2.568,-0c-0.398,0.19 -0.776,0.39 -1.129,0.6Z" style="fill:#090909;fill-rule:nonzero;"/><path d="M28.732,58.65l-3.155,0l-0,-3.77l23.494,0c-0,0 -13.083,0.57 -20.339,3.77Z" style="fill:#090909;fill-rule:nonzero;"/><path d="M28.145,58.92l-2.568,-0l-0,-0.27l3.155,0c-0.2,0.08 -0.395,0.17 -0.587,0.27Z" style="fill:#676b70;fill-rule:nonzero;"/><rect x="23.84" y="66.21" width="23.504" height="4.62" style="fill:#4f4b4a;fill-rule:nonzero;"/><rect x="25.577" y="66.2" width="23.494" height="4.63" style="fill:#282525;fill-rule:nonzero;"/><rect x="25.577" y="69.97" width="23.494" height="0.26" style="fill:#e6e7e8;fill-rule:nonzero;"/><path d="M27.016,70.83l-1.439,0l-0,-0.6l2.575,-0c-0.402,0.19 -0.781,0.39 -1.136,0.6Z" style="fill:#090909;fill-rule:nonzero;"/><path d="M28.716,69.97l-3.139,0l-0,-3.77l23.494,0c-0,0 -13.103,0.57 -20.355,3.77Z" style="fill:#090909;fill-rule:nonzero;"/><path d="M28.152,70.23l-2.575,-0l-0,-0.26l3.139,0c-0.192,0.08 -0.381,0.17 -0.564,0.26Z" style="fill:#676b70;fill-rule:nonzero;"/><rect x="23.84" y="76.65" width="23.504" height="4.62" style="fill:#4f4b4a;fill-rule:nonzero;"/><rect x="25.577" y="76.64" width="23.494" height="4.63" style="fill:#282525;fill-rule:nonzero;"/><rect x="25.577" y="80.39" width="23.494" height="0.28" style="fill:#e6e7e8;fill-rule:nonzero;"/><path d="M27.016,81.27l-1.439,0l-0,-0.6l2.552,-0c-0.393,0.19 -0.765,0.39 -1.113,0.6Z" style="fill:#090909;fill-rule:nonzero;"/><path d="M28.739,80.39l-3.162,0l-0,-3.75l23.494,0c-0,0 -13.075,0.57 -20.332,3.75Z" style="fill:#090909;fill-rule:nonzero;"/><path d="M28.129,80.67l-2.552,-0l-0,-0.28l3.162,0c-0.208,0.09 -0.411,0.19 -0.61,0.28Z" style="fill:#676b70;fill-rule:nonzero;"/><rect x="23.84" y="96.74" width="23.504" height="4.63" style="fill:#4f4b4a;fill-rule:nonzero;"/><rect x="25.577" y="96.74" width="23.494" height="4.63" style="fill:#282525;fill-rule:nonzero;"/><rect x="25.577" y="100.49" width="23.494" height="0.29" style="fill:#e6e7e8;fill-rule:nonzero;"/><path d="M27.016,101.37l-1.439,-0l-0,-0.59l2.529,0c-0.384,0.19 -0.749,0.39 -1.09,0.59Z" style="fill:#090909;fill-rule:nonzero;"/><path d="M28.738,100.49l-3.161,-0l-0,-3.75l23.494,-0c-0,-0 -13.076,0.57 -20.333,3.75Z" style="fill:#090909;fill-rule:nonzero;"/><path d="M28.106,100.78l-2.529,0l-0,-0.29l3.161,-0c-0.216,0.1 -0.427,0.19 -0.632,0.29Z" style="fill:#676b70;fill-rule:nonzero;"/><rect x="23.84" y="107.49" width="23.504" height="4.62" style="fill:#4f4b4a;fill-rule:nonzero;"/><rect x="25.577" y="107.49" width="23.494" height="4.62" style="fill:#282525;fill-rule:nonzero;"/><rect x="25.577" y="111.24" width="23.494" height="0.27" style="fill:#e6e7e8;fill-rule:nonzero;"/><path d="M27.016,112.11l-1.439,-0l-0,-0.6l2.552,0c-0.392,0.19 -0.765,0.39 -1.113,0.6Z" style="fill:#090909;fill-rule:nonzero;"/><path d="M28.717,111.24l-3.14,-0l-0,-3.75l23.494,-0c-0,-0 -13.102,0.56 -20.354,3.75Z" style="fill:#090909;fill-rule:nonzero;"/><path d="M28.129,111.51l-2.552,0l-0,-0.27l3.14,-0c-0.201,0.09 -0.396,0.18 -0.588,0.27Z" style="fill:#676b70;fill-rule:nonzero;"/><rect x="23.84" y="129.19" width="23.504" height="4.63" style="fill:#4f4b4a;fill-rule:nonzero;"/><rect x="25.577" y="129.19" width="23.494" height="4.63" style="fill:#282525;fill-rule:nonzero;"/><rect x="25.577" y="132.94" width="23.494" height="0.28" style="fill:#e6e7e8;fill-rule:nonzero;"/><path d="M27.016,133.82l-1.439,0l-0,-0.6l2.552,0c-0.393,0.19 -0.765,0.39 -1.113,0.6Z" style="fill:#090909;fill-rule:nonzero;"/><path d="M28.741,132.94l-3.164,0l-0,-3.75l23.494,0c-0,0 -13.074,0.57 -20.33,3.75Z" style="fill:#090909;fill-rule:nonzero;"/><path d="M28.129,133.22l-2.552,0l-0,-0.28l3.164,0c-0.209,0.09 -0.413,0.19 -0.612,0.28Z" style="fill:#676b70;fill-rule:nonzero;"/><rect x="23.84" y="139.44" width="23.504" height="4.63" style="fill:#4f4b4a;fill-rule:nonzero;"/><rect x="25.577" y="139.44" width="23.494" height="4.63" style="fill:#282525;fill-rule:nonzero;"/><rect x="25.577" y="143.19" width="23.494" height="0.28" style="fill:#e6e7e8;fill-rule:nonzero;"/><path d="M27.016,144.07l-1.439,0l-0,-0.6l2.552,0c-0.393,0.19 -0.765,0.39 -1.113,0.6Z" style="fill:#090909;fill-rule:nonzero;"/><path d="M28.741,143.19l-3.164,0l-0,-3.75l23.494,0c-0,0 -13.074,0.57 -20.33,3.75Z" style="fill:#090909;fill-rule:nonzero;"/><path d="M28.129,143.47l-2.552,0l-0,-0.28l3.164,0c-0.209,0.09 -0.413,0.19 -0.612,0.28Z" style="fill:#676b70;fill-rule:nonzero;"/><rect x="23.84" y="149.08" width="23.504" height="4.62" style="fill:#4f4b4a;fill-rule:nonzero;"/><rect x="25.577" y="149.08" width="23.494" height="4.62" style="fill:#282525;fill-rule:nonzero;"/><rect x="25.577" y="152.83" width="23.494" height="0.28" style="fill:#e6e7e8;fill-rule:nonzero;"/><path d="M27.016,153.7l-1.439,0l-0,-0.59l2.551,-0c-0.392,0.19 -0.764,0.39 -1.112,0.59Z" style="fill:#090909;fill-rule:nonzero;"/><path d="M28.74,152.83l-3.163,0l-0,-3.75l23.494,0c-0,0 -13.074,0.56 -20.331,3.75Z" style="fill:#090909;fill-rule:nonzero;"/><path d="M28.128,153.11l-2.551,-0l-0,-0.28l3.163,0c-0.209,0.09 -0.413,0.18 -0.612,0.28Z" style="fill:#676b70;fill-rule:nonzero;"/><path d="M48.08,161.94c-0.601,0 -1.088,-0.49 -1.088,-1.09l0,-143.45c0,-0.61 0.487,-1.11 1.088,-1.11c0.601,-0 1.094,0.5 1.094,1.11l-0,143.45c-0,0.6 -0.493,1.09 -1.094,1.09Z" style="fill:#919396;fill-rule:nonzero;"/><path d="M65.35,167.36l-5.845,-0l0,-150.48c0,-2 0.763,-3.81 2.008,-5.17l3.837,0c2.127,0 3.875,1.74 3.875,3.87l-0,147.9c-0,2.14 -1.748,3.88 -3.875,3.88Z" style="fill:#4a4b4c;fill-rule:nonzero;"/><path d="M89.834,36l-0,135.4l11.279,-28.15l-0,-135.38l-11.279,28.13Z" style="fill:#200000;fill-rule:nonzero;"/><path d="M112.391,36l-0,135.4l11.287,-28.15l-0,-135.38l-11.287,28.13Z" style="fill:#200000;fill-rule:nonzero;"/><path d="M79.536,15.2l-0,128.05l10.298,28.15l-0,-135.4l-10.298,-20.8Z" style="fill:#4a4b4c;fill-rule:nonzero;"/><path d="M123.678,7.87l-0,135.38l11.28,28.15l0,-135.4l-11.28,-28.13Z" style="fill:#4a4b4c;fill-rule:nonzero;"/><path d="M134.988,35.83l-0,135.39l11.279,-28.15l-0,-135.38l-11.279,28.14Z" style="fill:#200000;fill-rule:nonzero;"/><path d="M146.267,7.69l-0,135.38l11.281,28.15l-0,-135.39l-11.281,-28.14Z" style="fill:#4a4b4c;fill-rule:nonzero;"/><path d="M157.548,36l-0,135.4l11.29,-28.15l0,-135.38l-11.29,28.13Z" style="fill:#200000;fill-rule:nonzero;"/><path d="M168.838,7.87l0,135.38l11.27,28.15l0,-135.4l-11.27,-28.13Z" style="fill:#4a4b4c;fill-rule:nonzero;"/><path d="M101.113,7.87l-0,135.38l11.278,28.15l-0,-135.4l-11.278,-28.13Z" style="fill:#4a4b4c;fill-rule:nonzero;"/><path d="M88.351,27.81l-0,123.5c-0.017,8.89 -7.733,16.09 -17.238,16.09c-2.446,0 -4.767,-0.48 -6.866,-1.35l-0,-153.04c2.099,-0.85 4.42,-1.34 6.866,-1.34c9.515,-0 17.238,7.23 17.238,16.14Z" style="fill:#991f22;fill-rule:nonzero;"/><path d="M216.188,18.16l-0,139.01c-0,4 -1.63,7.69 -4.42,10.69c-4.17,4.51 -10.91,7.46 -18.53,7.46c-6.34,0 -12.07,-2.04 -16.23,-5.33c-4.15,-3.29 -6.72,-7.81 -6.72,-12.82l-0,-139.01c-0,-4.86 2.4,-9.25 6.33,-12.52c4.19,-3.46 10.07,-5.64 16.62,-5.64c6.35,0 12.07,2.04 16.23,5.33c4.16,3.29 6.72,7.83 6.72,12.83Z" style="fill:#991f22;fill-rule:nonzero;"/><path d="M193.238,175.32c-6.34,0 -12.07,-2.04 -16.23,-5.33c-4.15,-3.29 -6.72,-7.81 -6.72,-12.82l-0,-139.01c-0,-4.86 2.4,-9.25 6.33,-12.52c-2.39,23.23 -5.7,73.32 8.46,116.22c-0.56,0.03 -1.09,0.2 -1.54,0.45l-0,0.01c-0.99,0.59 -1.66,1.67 -1.66,2.9c-0,1.86 1.5,3.38 3.36,3.38c0.62,-0 1.2,-0.17 1.69,-0.47c0.1,-0.06 0.2,-0.13 0.29,-0.2c1.1,2.91 2.28,5.77 3.55,8.59c-0.38,0.54 -0.6,1.21 -0.6,1.93c-0,1.78 1.39,3.22 3.14,3.34c4.88,9.58 10.95,18.43 18.46,26.07c-4.17,4.51 -10.91,7.46 -18.53,7.46Z" style="fill:#530c0e;fill-rule:nonzero;"/><path d="M188.728,47.78c0,1.25 -0.68,2.34 -1.68,2.92c-0.5,0.29 -1.07,0.45 -1.69,0.45c-1.85,0 -3.35,-1.5 -3.35,-3.37c-0,-1.22 0.66,-2.32 1.65,-2.89c0.5,-0.3 1.09,-0.47 1.7,-0.47c1.87,-0 3.37,1.51 3.37,3.36Z" style="fill:#fff;fill-rule:nonzero;"/><path d="M185.358,51.15c-1.85,0 -3.35,-1.5 -3.35,-3.37c-0,-1.22 0.66,-2.32 1.65,-2.89c-0.18,1.45 -0.06,3.97 3.39,5.81c-0.5,0.29 -1.07,0.45 -1.69,0.45Z" style="fill:#d0d2d3;fill-rule:nonzero;"/><path d="M196.878,36.89c-0,1.26 -0.66,2.32 -1.67,2.9c-0.49,0.29 -1.07,0.46 -1.69,0.46c-1.85,0 -3.36,-1.5 -3.36,-3.36c-0,-1.24 0.67,-2.33 1.67,-2.9c0.5,-0.29 1.08,-0.46 1.69,-0.46c1.87,0 3.36,1.51 3.36,3.36Z" style="fill:#fff;fill-rule:nonzero;"/><path d="M193.518,40.25c-1.85,0 -3.36,-1.5 -3.36,-3.36c-0,-1.24 0.67,-2.33 1.67,-2.9c-0.19,1.46 -0.06,3.96 3.38,5.8c-0.49,0.29 -1.07,0.46 -1.69,0.46Z" style="fill:#d0d2d3;fill-rule:nonzero;"/><path d="M205.818,47.78c-0,1.25 -0.67,2.34 -1.67,2.92c-0.49,0.29 -1.07,0.45 -1.68,0.45c-1.87,0 -3.37,-1.5 -3.37,-3.37c0,-1.22 0.68,-2.32 1.67,-2.89c0.49,-0.3 1.08,-0.47 1.7,-0.47c1.86,-0 3.35,1.51 3.35,3.36Z" style="fill:#fff;fill-rule:nonzero;"/><path d="M202.468,51.15c-1.87,0 -3.37,-1.5 -3.37,-3.37c0,-1.22 0.68,-2.32 1.67,-2.89c-0.2,1.45 -0.07,3.97 3.38,5.81c-0.49,0.29 -1.07,0.45 -1.68,0.45Z" style="fill:#d0d2d3;fill-rule:nonzero;"/><path d="M196.878,56.18c-0,1.24 -0.66,2.34 -1.67,2.91c-0.49,0.3 -1.07,0.46 -1.69,0.46c-1.85,-0 -3.36,-1.51 -3.36,-3.37c-0,-1.24 0.67,-2.32 1.67,-2.9c0.5,-0.29 1.08,-0.46 1.69,-0.46c1.87,0 3.36,1.52 3.36,3.36Z" style="fill:#fff;fill-rule:nonzero;"/><path d="M193.518,59.55c-1.85,-0 -3.36,-1.51 -3.36,-3.37c-0,-1.24 0.67,-2.32 1.67,-2.9c-0.19,1.46 -0.06,3.97 3.38,5.81c-0.49,0.3 -1.07,0.46 -1.69,0.46Z" style="fill:#d0d2d3;fill-rule:nonzero;"/><path d="M188.728,63.79c0,1.23 -0.68,2.31 -1.68,2.9c-0.5,0.28 -1.07,0.45 -1.69,0.45c-1.85,0 -3.35,-1.5 -3.35,-3.35c-0,-1.25 0.66,-2.34 1.65,-2.91c0.5,-0.3 1.09,-0.47 1.7,-0.47c1.87,0 3.37,1.52 3.37,3.38Z" style="fill:#fff;fill-rule:nonzero;"/><path d="M185.358,67.14c-1.85,0 -3.35,-1.5 -3.35,-3.35c-0,-1.25 0.66,-2.34 1.65,-2.91c-0.18,1.45 -0.06,3.97 3.39,5.81c-0.5,0.28 -1.07,0.45 -1.69,0.45Z" style="fill:#d0d2d3;fill-rule:nonzero;"/><path d="M205.298,65.23c-0,1.24 -0.67,2.31 -1.68,2.91c-0.48,0.28 -1.07,0.44 -1.69,0.44c-1.85,0 -3.35,-1.49 -3.35,-3.35c0,-1.26 0.66,-2.33 1.67,-2.91c0.49,-0.29 1.07,-0.46 1.68,-0.46c1.87,-0 3.37,1.51 3.37,3.37Z" style="fill:#fff;fill-rule:nonzero;"/><path d="M201.928,68.58c-1.85,0 -3.35,-1.49 -3.35,-3.35c0,-1.26 0.66,-2.33 1.67,-2.91c-0.2,1.46 -0.08,3.97 3.37,5.82c-0.48,0.28 -1.07,0.44 -1.69,0.44Z" style="fill:#d0d2d3;fill-rule:nonzero;"/><path d="M196.878,73.62c-0,1.24 -0.66,2.32 -1.67,2.91c-0.49,0.29 -1.07,0.44 -1.69,0.44c-1.85,0 -3.36,-1.49 -3.36,-3.35c-0,-1.24 0.67,-2.33 1.67,-2.9c0.5,-0.31 1.08,-0.48 1.69,-0.48c1.87,-0 3.36,1.51 3.36,3.38Z" style="fill:#fff;fill-rule:nonzero;"/><path d="M193.518,76.97c-1.85,0 -3.36,-1.49 -3.36,-3.35c-0,-1.24 0.67,-2.33 1.67,-2.9c-0.19,1.44 -0.06,3.96 3.38,5.81c-0.49,0.29 -1.07,0.44 -1.69,0.44Z" style="fill:#d0d2d3;fill-rule:nonzero;"/><path d="M188.728,82.98c0,1.24 -0.68,2.33 -1.68,2.91c-0.5,0.3 -1.07,0.45 -1.69,0.45c-1.85,0 -3.35,-1.5 -3.35,-3.36c-0,-1.23 0.66,-2.32 1.65,-2.9c0.5,-0.28 1.09,-0.46 1.7,-0.46c1.87,-0 3.37,1.52 3.37,3.36Z" style="fill:#fff;fill-rule:nonzero;"/><path d="M185.358,86.34c-1.85,0 -3.35,-1.5 -3.35,-3.36c-0,-1.23 0.66,-2.32 1.65,-2.9c-0.18,1.46 -0.06,3.97 3.39,5.81c-0.5,0.3 -1.07,0.45 -1.69,0.45Z" style="fill:#d0d2d3;fill-rule:nonzero;"/><path d="M205.298,83.22c-0,1.24 -0.67,2.31 -1.68,2.91c-0.48,0.28 -1.07,0.44 -1.69,0.44c-1.85,0 -3.35,-1.49 -3.35,-3.35c0,-1.25 0.66,-2.33 1.67,-2.92c0.49,-0.28 1.07,-0.45 1.68,-0.45c1.87,-0 3.37,1.51 3.37,3.37Z" style="fill:#fff;fill-rule:nonzero;"/><path d="M201.928,86.57c-1.85,0 -3.35,-1.49 -3.35,-3.35c0,-1.25 0.66,-2.33 1.67,-2.92c-0.2,1.47 -0.08,3.98 3.37,5.83c-0.48,0.28 -1.07,0.44 -1.69,0.44Z" style="fill:#d0d2d3;fill-rule:nonzero;"/><path d="M197.728,92.79c0,1.25 -0.67,2.33 -1.67,2.92c-0.49,0.27 -1.06,0.44 -1.69,0.44c-1.85,0 -3.36,-1.5 -3.36,-3.36c-0,-1.24 0.67,-2.32 1.66,-2.92c0.51,-0.27 1.09,-0.44 1.7,-0.44c1.87,-0 3.36,1.5 3.36,3.36Z" style="fill:#fff;fill-rule:nonzero;"/><path d="M194.368,96.15c-1.85,0 -3.36,-1.5 -3.36,-3.36c-0,-1.24 0.67,-2.32 1.66,-2.92c-0.18,1.48 -0.05,3.99 3.39,5.84c-0.49,0.27 -1.06,0.44 -1.69,0.44Z" style="fill:#d0d2d3;fill-rule:nonzero;"/><path d="M188.728,103.3c0,1.24 -0.68,2.32 -1.68,2.9c-0.5,0.29 -1.07,0.44 -1.69,0.44c-1.85,0 -3.35,-1.49 -3.35,-3.34c-0,-1.25 0.66,-2.34 1.65,-2.92c0.5,-0.29 1.09,-0.45 1.7,-0.45c1.87,-0 3.37,1.5 3.37,3.37Z" style="fill:#fff;fill-rule:nonzero;"/><path d="M185.358,106.64c-1.85,0 -3.35,-1.49 -3.35,-3.34c-0,-1.25 0.66,-2.34 1.65,-2.92c-0.18,1.46 -0.06,3.98 3.39,5.82c-0.5,0.29 -1.07,0.44 -1.69,0.44Z" style="fill:#d0d2d3;fill-rule:nonzero;"/><path d="M205.298,103.3c-0,1.24 -0.67,2.32 -1.68,2.9c-0.48,0.29 -1.07,0.44 -1.69,0.44c-1.85,0 -3.35,-1.49 -3.35,-3.34c0,-1.25 0.66,-2.34 1.67,-2.92c0.49,-0.29 1.07,-0.45 1.68,-0.45c1.87,-0 3.37,1.5 3.37,3.37Z" style="fill:#fff;fill-rule:nonzero;"/><path d="M201.928,106.64c-1.85,0 -3.35,-1.49 -3.35,-3.34c0,-1.25 0.66,-2.34 1.67,-2.92c-0.2,1.46 -0.08,3.98 3.37,5.82c-0.48,0.29 -1.07,0.44 -1.69,0.44Z" style="fill:#d0d2d3;fill-rule:nonzero;"/><path d="M188.608,125.22c0,1.25 -0.69,2.33 -1.68,2.91c-0.49,0.3 -1.07,0.47 -1.69,0.47c-1.86,-0 -3.36,-1.52 -3.36,-3.38c-0,-1.23 0.67,-2.31 1.66,-2.9l-0,-0.01c0.5,-0.28 1.08,-0.45 1.7,-0.45c1.85,-0 3.37,1.5 3.37,3.36Z" style="fill:#fff;fill-rule:nonzero;"/><path d="M185.238,128.6c-1.86,-0 -3.36,-1.52 -3.36,-3.38c-0,-1.23 0.67,-2.31 1.66,-2.9c-0.19,1.45 -0.07,3.97 3.39,5.81c-0.49,0.3 -1.07,0.47 -1.69,0.47Z" style="fill:#d0d2d3;fill-rule:nonzero;"/><path d="M205.168,125.22c-0,1.25 -0.67,2.33 -1.68,2.91c-0.49,0.3 -1.06,0.47 -1.68,0.47c-1.86,-0 -3.35,-1.52 -3.35,-3.38c0,-1.23 0.66,-2.31 1.66,-2.9l-0,-0.01c0.49,-0.28 1.07,-0.45 1.69,-0.45c1.86,-0 3.36,1.5 3.36,3.36Z" style="fill:#fff;fill-rule:nonzero;"/><path d="M201.808,128.6c-1.86,-0 -3.35,-1.52 -3.35,-3.38c0,-1.23 0.66,-2.31 1.66,-2.9c-0.19,1.45 -0.07,3.97 3.37,5.81c-0.49,0.3 -1.06,0.47 -1.68,0.47Z" style="fill:#d0d2d3;fill-rule:nonzero;"/><path d="M196.888,138.45c-0,1.25 -0.67,2.32 -1.67,2.89c-0.5,0.29 -1.07,0.46 -1.68,0.46c-1.86,-0 -3.37,-1.5 -3.37,-3.35c-0,-1.25 0.67,-2.34 1.67,-2.92c0.5,-0.28 1.08,-0.47 1.7,-0.47c1.86,-0 3.35,1.52 3.35,3.39Z" style="fill:#fff;fill-rule:nonzero;"/><path d="M193.538,141.8c-0.08,-0 -0.16,-0.01 -0.23,-0.01c-1.75,-0.12 -3.14,-1.56 -3.14,-3.34c-0,-1.25 0.67,-2.34 1.67,-2.92c-0.19,1.47 -0.07,3.97 3.38,5.81c-0.5,0.29 -1.07,0.46 -1.68,0.46Z" style="fill:#d0d2d3;fill-rule:nonzero;"/><path d="M196.888,114.34c-0,1.24 -0.67,2.32 -1.67,2.91c-0.5,0.29 -1.07,0.45 -1.68,0.45c-1.86,0 -3.37,-1.49 -3.37,-3.36c-0,-1.24 0.67,-2.32 1.67,-2.91c0.5,-0.28 1.08,-0.45 1.7,-0.45c1.86,-0 3.35,1.49 3.35,3.36Z" style="fill:#fff;fill-rule:nonzero;"/><path d="M193.538,117.7c-1.86,0 -3.37,-1.49 -3.37,-3.36c-0,-1.24 0.67,-2.32 1.67,-2.91c-0.19,1.48 -0.07,3.98 3.38,5.82c-0.5,0.29 -1.07,0.45 -1.68,0.45Z" style="fill:#d0d2d3;fill-rule:nonzero;"/><path d="M71.113,167.4c-1.389,0 -2.739,-0.16 -4.031,-0.45c-0.981,-0.22 -1.929,-0.52 -2.835,-0.9l-0,-100.57l0.113,-0.03c-0,0 5.216,55.72 23.991,85.86c-0.006,3.18 -0.998,6.15 -2.705,8.64c-3.064,4.48 -8.429,7.45 -14.533,7.45Z" style="fill:#530c0e;fill-rule:nonzero;"/></g></g></g></svg>