<?xml version="1.0" encoding="UTF-8" standalone="no"?><!DOCTYPE svg PUBLIC "-//W3C//DTD SVG 1.1//EN" "http://www.w3.org/Graphics/SVG/1.1/DTD/svg11.dtd"><svg width="100%" height="100%" viewBox="0 0 217 204" version="1.1" xmlns="http://www.w3.org/2000/svg" xmlns:xlink="http://www.w3.org/1999/xlink" xml:space="preserve" xmlns:serif="http://www.serif.com/" style="fill-rule:evenodd;clip-rule:evenodd;stroke-linejoin:round;stroke-miterlimit:2;"><g><g><g><path d="M202.625,13.743c-5.68,-5.671 -10.15,-8.616 -14.99,-11.192c-4.85,-2.597 -8.71,-3.344 -10.43,-1.623c-0.42,0.422 -0.68,0.952 -0.81,1.613c-0.2,0.942 -0.11,2.143 0.25,3.528c-0.61,4.806 -3.1,10.835 -4.92,18.303c-1.85,7.654 -4.42,15.241 -7.94,19.798c-0.49,0.639 -0.99,1.202 -1.51,1.709l8.21,8.205c0.38,-0.389 0.78,-0.757 1.21,-1.094c8.7,-7.218 28.53,-13.074 38.43,-14.329c0.71,0.194 1.37,0.302 1.97,0.345c0.62,0.055 1.18,0.012 1.67,-0.107c0.61,-0.141 1.11,-0.4 1.5,-0.801c1.96,-1.949 0.74,-6.69 -2.79,-12.492c-2.65,-4.395 -4.97,-6.98 -9.85,-11.863Z" style="fill:#919396;fill-rule:nonzero;"/><path d="M199.465,17.012c-5.97,-5.975 -10.75,-9.146 -15.85,-11.851c-2.79,-1.506 -5.26,-2.426 -7.22,-2.62c-0.2,0.942 -0.11,2.143 0.25,3.528c-0.61,4.806 -3.1,10.835 -4.92,18.303c-0.79,3.302 -1.73,6.592 -2.82,9.634l-168.905,168.908c-0,0 6.105,0.228 12.908,0c1.347,-0.042 2.722,-0.097 4.086,-0.194c0.806,-0.044 1.596,-0.098 2.386,-0.151c1.527,-0.131 3.004,-0.303 4.379,-0.498c2.289,-0.336 4.259,-0.79 5.596,-1.408c0.222,-0.118 0.525,-0.335 0.828,-0.617c1.018,-0.931 2.23,-2.446 2.23,-2.446l29.192,-29.689l2.512,-2.555l93.928,-95.252l3.28,-3.345l9.41,-9.546l8.33,-8.464c10.25,-4.384 23.34,-9.104 31.06,-10.088c0.71,0.194 1.37,0.302 1.97,0.345c0.62,0.055 1.18,0.012 1.67,-0.107c-0.03,-0.304 -0.09,-0.618 -0.17,-0.94c-0.03,-0.165 -0.06,-0.328 -0.11,-0.49l-0.01,-0.064c-0.04,-0.162 -0.08,-0.325 -0.13,-0.477c-0.1,-0.367 -0.21,-0.715 -0.36,-1.093c-0.09,-0.304 -0.21,-0.596 -0.34,-0.909c-0.08,-0.217 -0.17,-0.4 -0.26,-0.628c-0.1,-0.249 -0.22,-0.495 -0.33,-0.736c-0.1,-0.237 -0.22,-0.452 -0.33,-0.682c-0.08,-0.163 -0.16,-0.313 -0.23,-0.463c-0.18,-0.338 -0.36,-0.684 -0.55,-1.042c-0.14,-0.216 -0.27,-0.443 -0.39,-0.681c-0.21,-0.355 -0.42,-0.715 -0.64,-1.073l-0.07,-0.128c-0.17,-0.282 -0.35,-0.563 -0.52,-0.835l-0.07,-0.097c-0.15,-0.238 -0.3,-0.476 -0.45,-0.703c-0.56,-0.856 -1.12,-1.645 -1.72,-2.436c-0.13,-0.183 -0.27,-0.357 -0.4,-0.53l-0.02,-0.032l-0.13,-0.153c-0.3,-0.4 -0.64,-0.801 -0.96,-1.189c-1.63,-1.949 -3.54,-3.93 -6.11,-6.506Z" style="fill:#200000;fill-rule:nonzero;"/><path d="M135.375,67.538l33.53,-33.532l0,0.001l-33.52,33.528c-0.01,0.001 -0.01,0.002 -0.01,0.003Z" style="fill:#8d8f91;fill-rule:nonzero;"/><path d="M212.635,34.897c-0.08,-0.205 -0.17,-0.382 -0.25,-0.599c0.08,0.207 0.17,0.394 0.25,0.599Zm-3.31,-6.239l-0.07,-0.097c-0.1,-0.156 -0.2,-0.311 -0.3,-0.464c0.13,0.187 0.25,0.372 0.37,0.561Z" style="fill:#656769;fill-rule:nonzero;"/><path d="M135.385,67.535l33.52,-33.529c1.09,-3.042 2.03,-6.332 2.82,-9.634c1.82,-7.468 4.31,-13.497 4.92,-18.303c-0.24,-0.909 -0.36,-1.739 -0.36,-2.468c0.01,-0.382 0.04,-0.737 0.11,-1.06c1.96,0.194 4.43,1.114 7.22,2.62c5.1,2.705 9.88,5.876 15.85,11.851c2.57,2.576 4.48,4.557 6.11,6.506c0.32,0.388 0.65,0.789 0.96,1.189l0.13,0.154c-10.12,3.994 -23.13,11.149 -35.79,23.8c-1.05,1.04 -2.08,2.132 -3.12,3.259c-0.16,0.172 -0.34,0.357 -0.51,0.551l-7.32,7.322c-1.76,0.461 -3.56,0.95 -5.42,1.49c-5.95,1.687 -12.36,3.743 -19.12,6.252Zm32.61,-9.723l2.4,-2.396c1.86,-2.035 3.73,-3.929 5.61,-5.693l0,-0.012c11.87,-11.235 23.97,-17.599 33.25,-21.15c-0.1,-0.156 -0.2,-0.311 -0.3,-0.464c0.1,0.153 0.2,0.308 0.3,0.464l0.07,0.097c0.17,0.272 0.35,0.553 0.52,0.835l0.07,0.128c0.22,0.358 0.43,0.718 0.64,1.073c0.12,0.238 0.25,0.465 0.39,0.681c0.19,0.358 0.37,0.704 0.55,1.042c0.07,0.15 0.15,0.3 0.23,0.463c0.11,0.23 0.23,0.445 0.33,0.682c0.11,0.241 0.23,0.487 0.33,0.736c0.08,0.217 0.17,0.394 0.25,0.599c0,0.01 0.01,0.019 0.01,0.029c0.13,0.313 0.25,0.605 0.34,0.909c0.15,0.378 0.26,0.726 0.36,1.093c0.05,0.152 0.09,0.315 0.13,0.477l0.01,0.064c0.05,0.162 0.08,0.325 0.11,0.49c0.08,0.322 0.14,0.636 0.17,0.94c-0.35,0.084 -0.73,0.131 -1.15,0.131c-0.17,0 -0.34,-0.008 -0.52,-0.024c-0.6,-0.043 -1.26,-0.151 -1.97,-0.345c-7.72,0.984 -20.81,5.704 -31.06,10.088l-8.33,8.464c-0.89,0.189 -1.81,0.388 -2.74,0.599Z" style="fill:#36271c;fill-rule:nonzero;"/><path d="M206.665,24.86c-10.12,3.994 -23.13,11.148 -35.79,23.801c-1.05,1.04 -2.08,2.132 -3.12,3.259c-0.16,0.172 -0.34,0.357 -0.51,0.551l-150.251,150.249c0.806,-0.044 1.596,-0.098 2.386,-0.151c1.527,-0.131 3.004,-0.303 4.379,-0.498l146.636,-146.655c1.86,-2.035 3.73,-3.929 5.61,-5.693l0,-0.012c11.87,-11.235 23.97,-17.599 33.25,-21.15c-0.15,-0.238 -0.3,-0.476 -0.45,-0.703c-0.56,-0.856 -1.12,-1.645 -1.72,-2.436c-0.13,-0.183 -0.27,-0.357 -0.4,-0.53l-0.02,-0.032Z" style="fill:#7a7c7f;fill-rule:nonzero;"/><path d="M27.683,190.337c-2.933,-2.944 -6.267,-4.924 -9.32,-5.801l-2.522,2.533c3.041,0.855 6.381,2.846 9.32,5.779c2.267,2.273 3.977,4.773 5.022,7.198c0.622,-0.562 1.321,-1.364 1.759,-1.893l0.011,0c0.276,-0.325 0.46,-0.553 0.46,-0.553l0.212,-0.217l0.009,-0.01c-1.054,-2.371 -2.732,-4.828 -4.951,-7.036Z" style="fill:#d8d9da;fill-rule:nonzero;"/><path d="M27.683,190.337c-2.933,-2.944 -6.267,-4.924 -9.32,-5.801l-1.64,1.656c3.026,0.865 6.327,2.846 9.234,5.758c2.267,2.262 3.966,4.763 5.021,7.187c0.315,-0.292 0.651,-0.639 0.964,-0.984l0.011,0c0.249,-0.282 0.482,-0.541 0.672,-0.77l0.009,-0.01c-1.054,-2.371 -2.732,-4.828 -4.951,-7.036Z" style="fill:#adb0b2;fill-rule:nonzero;"/><path d="M37.029,179.545c-2.592,-2.576 -5.492,-4.437 -8.232,-5.422l-2.522,2.511c2.75,0.995 5.641,2.847 8.238,5.445c2.537,2.533 4.362,5.369 5.358,8.052l2.521,-2.521c-0.996,-2.685 -2.819,-5.531 -5.363,-8.065Z" style="fill:#d8d9da;fill-rule:nonzero;"/><path d="M37.029,179.545c-2.592,-2.576 -5.492,-4.437 -8.232,-5.422l-1.948,1.948c2.739,0.985 5.634,2.836 8.233,5.433c2.543,2.534 4.367,5.359 5.368,8.054l1.942,-1.948c-0.996,-2.685 -2.819,-5.531 -5.363,-8.065Z" style="fill:#adb0b2;fill-rule:nonzero;"/><path d="M58.834,157.53c-2.533,-2.534 -5.379,-4.373 -8.069,-5.379l-2.522,2.521c2.684,1.006 5.536,2.836 8.075,5.379c2.468,2.469 4.27,5.239 5.287,7.86l0.596,-0.596l1.916,-1.959c-1.018,-2.619 -2.825,-5.369 -5.283,-7.826Z" style="fill:#d8d9da;fill-rule:nonzero;"/><path d="M58.834,157.53c-2.533,-2.534 -5.379,-4.373 -8.069,-5.379l-1.922,1.937c2.685,0.985 5.537,2.825 8.071,5.358c2.478,2.478 4.269,5.228 5.287,7.869l1.916,-1.959c-1.018,-2.619 -2.825,-5.369 -5.283,-7.826Z" style="fill:#adb0b2;fill-rule:nonzero;"/><path d="M123.185,81.762c-0.53,-0.519 -1.39,-0.519 -1.9,0l-41.869,41.867c-0.536,0.53 -0.536,1.397 0,1.926c0.525,0.531 1.375,0.531 1.9,0l41.869,-41.867c0.529,-0.541 0.529,-1.394 0,-1.926Z" style="fill:#adb0b2;fill-rule:nonzero;"/><path d="M131.905,99.102c-0.171,-0.162 -0.37,-0.281 -0.59,-0.336c-0.461,-0.141 -0.971,-0.021 -1.331,0.336l-41.859,41.878c-0.532,0.519 -0.532,1.374 0,1.905c0.52,0.529 1.38,0.529 1.9,0l41.88,-41.857c0.52,-0.541 0.52,-1.397 0,-1.926Z" style="fill:#adb0b2;fill-rule:nonzero;"/><path d="M117.354,84.543c-0.539,-0.53 -1.399,-0.53 -1.919,0l-41.869,41.878c-0.52,0.531 -0.52,1.386 0,1.916c0.52,0.52 1.38,0.52 1.916,0l41.872,-41.867c0.51,-0.53 0.51,-1.396 0,-1.927Z" style="fill:#adb0b2;fill-rule:nonzero;"/><path d="M146.595,76.61c-1.01,-1.018 -2.64,-1.018 -3.66,0c-1,1.006 -1,2.64 0,3.636c1.02,1.018 2.65,1.018 3.66,0c1.01,-0.996 1.01,-2.63 -0,-3.636Z" style="fill:#adb0b2;fill-rule:nonzero;"/><path d="M145.855,77.345c-0.6,-0.606 -1.58,-0.606 -2.18,0c-0.6,0.596 -0.6,1.569 0,2.179c0.6,0.592 1.58,0.592 2.18,0c0.61,-0.61 0.61,-1.583 -0,-2.179Z" style="fill:#939598;fill-rule:nonzero;"/><path d="M138.915,68.707c-1.07,-1.06 -2.79,-1.06 -3.86,0c-1.071,1.073 -1.071,2.804 0,3.875c1.07,1.061 2.79,1.061 3.86,0c1.07,-1.06 1.07,-2.802 0,-3.875Z" style="fill:#adb0b2;fill-rule:nonzero;"/><path d="M138.075,69.552c-0.6,-0.606 -1.58,-0.606 -2.18,0c-0.61,0.595 -0.61,1.58 0,2.187c0.6,0.595 1.58,0.595 2.18,0c0.61,-0.607 0.61,-1.592 0,-2.187Z" style="fill:#939598;fill-rule:nonzero;"/><path d="M156.805,61.153c-2.77,-2.75 -5.8,-4.882 -8.78,-6.256l-3.29,3.29c2.97,1.386 6.01,3.507 8.77,6.278c1.8,1.785 3.32,3.712 4.54,5.639l0.77,-0.769l2.51,-2.576c-1.21,-1.927 -2.74,-3.799 -4.52,-5.606Z" style="fill:#fff;fill-rule:nonzero;"/><path d="M156.805,61.153c-2.77,-2.75 -5.8,-4.882 -8.78,-6.256l-2.52,2.521c2.97,1.385 6.01,3.507 8.76,6.278c1.8,1.797 3.33,3.702 4.55,5.639l2.51,-2.576c-1.21,-1.927 -2.74,-3.799 -4.52,-5.606Z" style="fill:#adb0b2;fill-rule:nonzero;"/><path d="M131.905,99.102l-43.78,43.783c0.52,0.529 1.38,0.529 1.9,0l41.88,-41.857c0.52,-0.541 0.52,-1.397 0,-1.926Z" style="fill:#cfd0d2;fill-rule:nonzero;"/><path d="M134.785,93.378c-0.13,-0.132 -0.29,-0.241 -0.46,-0.295c-0.49,-0.194 -1.05,-0.108 -1.44,0.295l-41.87,41.855c-0.39,0.402 -0.5,0.984 -0.3,1.449c0.06,0.185 0.15,0.339 0.29,0.466c0.53,0.542 1.4,0.542 1.92,0l41.87,-41.867c0.52,-0.531 0.52,-1.365 -0.01,-1.903Z" style="fill:#adb0b2;fill-rule:nonzero;"/><path d="M134.325,93.083c-0.49,-0.194 -1.05,-0.108 -1.44,0.295l-41.87,41.855c-0.39,0.402 -0.5,0.984 -0.3,1.449c0.49,0.206 1.05,0.098 1.45,-0.303l41.86,-41.856c0.4,-0.401 0.5,-0.964 0.3,-1.44Z" style="fill:#cfd0d2;fill-rule:nonzero;"/><path d="M123.354,82.097c-0.49,-0.194 -1.059,-0.087 -1.439,0.304l-41.876,41.855c-0.39,0.401 -0.498,0.975 -0.309,1.451c0.492,0.184 1.061,0.086 1.456,-0.293l41.869,-41.867c0.39,-0.4 0.5,-0.963 0.299,-1.45Z" style="fill:#cfd0d2;fill-rule:nonzero;"/><path d="M87.301,133.057c-1.104,0 -2.143,-0.433 -2.923,-1.219c-0.475,-0.475 -0.816,-1.039 -0.99,-1.629c-0.498,-1.476 -0.124,-3.1 0.99,-4.214c0.78,-0.786 1.819,-1.219 2.923,-1.219c1.105,0 2.134,0.433 2.914,1.219c0.28,0.275 0.52,0.594 0.71,0.941c0.87,1.596 0.58,3.609 -0.71,4.902c-0.78,0.786 -1.809,1.219 -2.914,1.219Z" style="fill:#adb0b2;fill-rule:nonzero;"/><path d="M87.301,124.43c-1.196,0 -2.321,0.465 -3.17,1.32c-1.202,1.208 -1.614,2.966 -1.073,4.585c0.19,0.622 0.562,1.228 1.073,1.747c0.849,0.856 1.974,1.321 3.17,1.321c1.196,0 2.314,-0.471 3.164,-1.321c1.39,-1.396 1.71,-3.582 0.77,-5.314c-0.21,-0.379 -0.47,-0.72 -0.77,-1.018c-0.85,-0.855 -1.968,-1.32 -3.164,-1.32Zm0,0.693c0.969,0 1.934,0.373 2.674,1.114c0.26,0.26 0.48,0.553 0.65,0.867c0.78,1.428 0.57,3.268 -0.65,4.491c-0.74,0.741 -1.705,1.115 -2.674,1.115c-0.969,0 -1.937,-0.374 -2.678,-1.115c-0.428,-0.433 -0.743,-0.941 -0.905,-1.484c-0.443,-1.319 -0.14,-2.823 0.905,-3.874c0.741,-0.741 1.709,-1.114 2.678,-1.114Z" style="fill:#fff;fill-rule:nonzero;"/><path d="M86.779,131.606c-0.997,0 -1.994,-0.379 -2.757,-1.137c-0.109,-0.107 -0.217,-0.248 -0.304,-0.358c-0.131,-0.391 -0.197,-0.799 -0.197,-1.207c-0.001,-0.965 0.367,-1.928 1.102,-2.667c0.01,-0.01 0.02,-0.02 0.03,-0.03c0.004,-0.004 0.008,-0.008 0.012,-0.012c0.006,-0.006 0.012,-0.011 0.018,-0.017c0.008,-0.007 0.015,-0.014 0.023,-0.021c0.003,-0.003 0.006,-0.006 0.009,-0.009c0.01,-0.01 0.02,-0.019 0.031,-0.029l0.001,-0.001c0.107,-0.097 0.217,-0.188 0.332,-0.271c0.002,-0.001 0.004,-0.003 0.006,-0.005c0.009,-0.006 0.018,-0.013 0.028,-0.02c0.005,-0.004 0.011,-0.008 0.016,-0.011c0.006,-0.004 0.012,-0.008 0.018,-0.012c0.009,-0.007 0.019,-0.014 0.029,-0.02c0.001,-0.002 0.003,-0.003 0.004,-0.004c0.639,-0.433 1.38,-0.65 2.121,-0.65c0.968,0 1.934,0.371 2.674,1.112c0.26,0.26 0.48,0.553 0.65,0.867c0.18,1.18 -0.17,2.445 -1.09,3.365c-0.76,0.758 -1.759,1.137 -2.756,1.137Z" style="fill:#808285;fill-rule:nonzero;"/><path d="M83.718,130.111c-0.131,-0.391 -0.197,-0.799 -0.197,-1.207c-0,0.408 0.066,0.816 0.197,1.207Zm0.935,-3.904c0.004,-0.004 0.008,-0.008 0.012,-0.012c-0.004,0.004 -0.008,0.008 -0.012,0.012Zm0.03,-0.029c0.008,-0.007 0.015,-0.014 0.023,-0.021c-0.008,0.007 -0.015,0.014 -0.023,0.021Zm0.032,-0.03c0.01,-0.01 0.02,-0.019 0.031,-0.029c-0.011,0.01 -0.021,0.019 -0.031,0.029Zm0.032,-0.03c0.107,-0.098 0.217,-0.188 0.332,-0.271c-0.115,0.083 -0.225,0.174 -0.332,0.271Zm0.338,-0.276c0.009,-0.006 0.018,-0.013 0.028,-0.02c-0.01,0.007 -0.019,0.014 -0.028,0.02Zm0.044,-0.031c0.006,-0.005 0.012,-0.008 0.018,-0.012c-0.006,0.004 -0.012,0.008 -0.018,0.012Zm0.047,-0.032c0.001,-0.002 0.003,-0.003 0.004,-0.004c-0.001,0.001 -0.003,0.002 -0.004,0.004Z" style="fill:#adb0b2;fill-rule:nonzero;"/><path d="M97.495,122.85c-1.1,0 -2.14,-0.434 -2.92,-1.219c-0.48,-0.465 -0.81,-1.012 -1,-1.629c-0.49,-1.476 -0.11,-3.09 1,-4.193c0.78,-0.785 1.82,-1.219 2.92,-1.219c1.11,0 2.14,0.434 2.92,1.219c0.28,0.27 0.53,0.6 0.7,0.952c0.88,1.58 0.59,3.588 -0.7,4.87c-0.78,0.785 -1.81,1.219 -2.92,1.219Z" style="fill:#adb0b2;fill-rule:nonzero;"/><path d="M97.495,114.245c-1.2,0 -2.32,0.47 -3.17,1.32c-1.2,1.196 -1.61,2.944 -1.07,4.556c0.19,0.656 0.56,1.256 1.08,1.765c0.84,0.839 1.96,1.31 3.16,1.31c1.2,0 2.32,-0.471 3.17,-1.321c1.4,-1.385 1.7,-3.566 0.75,-5.293c-0.18,-0.363 -0.45,-0.724 -0.76,-1.028c-0.84,-0.839 -1.96,-1.309 -3.16,-1.309Zm-0,0.692c0.97,0 1.94,0.374 2.68,1.115c0.26,0.249 0.48,0.552 0.63,0.866c0.8,1.428 0.58,3.258 -0.63,4.47c-0.74,0.741 -1.71,1.116 -2.68,1.116c-0.97,0 -1.93,-0.375 -2.68,-1.116c-0.43,-0.422 -0.74,-0.92 -0.91,-1.483c-0.43,-1.309 -0.13,-2.814 0.91,-3.853c0.75,-0.741 1.71,-1.115 2.68,-1.115Z" style="fill:#fff;fill-rule:nonzero;"/><path d="M96.965,121.41c-0.99,0 -1.99,-0.378 -2.74,-1.136c-0.12,-0.11 -0.22,-0.238 -0.32,-0.369c-0.13,-0.389 -0.19,-0.795 -0.19,-1.2c0,-0.961 0.37,-1.922 1.1,-2.653c0.01,-0.007 0.02,-0.014 0.03,-0.021c0.19,-0.193 0.4,-0.36 0.62,-0.502c0.01,-0.002 0.01,-0.005 0.02,-0.008c0,-0.003 0.01,-0.006 0.01,-0.009c0.61,-0.381 1.31,-0.572 2,-0.572c0.97,0 1.94,0.371 2.68,1.112c0.26,0.249 0.48,0.552 0.63,0.866c0.19,1.18 -0.16,2.446 -1.08,3.356c-0.76,0.758 -1.76,1.136 -2.76,1.136Z" style="fill:#808285;fill-rule:nonzero;"/><path d="M93.905,119.905c-0.13,-0.389 -0.19,-0.795 -0.19,-1.2c0,0.405 0.06,0.811 0.19,1.2Zm0.94,-3.874c0.19,-0.193 0.4,-0.36 0.62,-0.502c-0.22,0.142 -0.43,0.309 -0.62,0.502Zm0.64,-0.51c0,-0.003 0.01,-0.006 0.01,-0.009c-0,0.003 -0.01,0.006 -0.01,0.009Z" style="fill:#adb0b2;fill-rule:nonzero;"/><path d="M106.985,113.725c-1.11,0 -2.15,-0.428 -2.93,-1.207c-0.46,-0.46 -0.8,-1.017 -0.99,-1.623c-0.5,-1.489 -0.12,-3.113 0.99,-4.223c0.78,-0.779 1.82,-1.206 2.93,-1.206c1.1,0 2.13,0.427 2.91,1.206c0.29,0.287 0.52,0.607 0.7,0.975c0.88,1.57 0.59,3.583 -0.7,4.871c-0.78,0.779 -1.81,1.207 -2.91,1.207Z" style="fill:#adb0b2;fill-rule:nonzero;"/><path d="M106.985,105.12c-1.2,0 -2.32,0.465 -3.17,1.304c-1.21,1.207 -1.63,2.966 -1.08,4.584c0.2,0.65 0.58,1.256 1.07,1.754c0.86,0.844 1.98,1.309 3.18,1.309c1.19,0 2.31,-0.465 3.15,-1.304c1.41,-1.401 1.72,-3.583 0.76,-5.298c-0.18,-0.379 -0.44,-0.725 -0.76,-1.039c-0.84,-0.845 -1.97,-1.31 -3.15,-1.31Zm0,0.693c0.96,0 1.93,0.367 2.67,1.104c0.26,0.259 0.47,0.552 0.64,0.887c0.79,1.429 0.57,3.258 -0.64,4.47c-0.74,0.736 -1.71,1.104 -2.67,1.104c-0.97,0 -1.94,-0.368 -2.68,-1.104c-0.44,-0.432 -0.75,-0.952 -0.91,-1.483c-0.44,-1.309 -0.14,-2.824 0.91,-3.874c0.74,-0.737 1.71,-1.104 2.68,-1.104Z" style="fill:#fff;fill-rule:nonzero;"/><path d="M106.455,112.296c-1,0 -1.99,-0.379 -2.75,-1.136c-0.11,-0.119 -0.22,-0.249 -0.31,-0.369c-0.13,-0.389 -0.2,-0.795 -0.2,-1.203c0,-0.965 0.37,-1.933 1.11,-2.671c0.74,-0.737 1.71,-1.104 2.68,-1.104c0.3,0 0.6,0.036 0.9,0.107c0.64,0.159 1.26,0.491 1.77,0.997c0.26,0.259 0.47,0.552 0.64,0.887c0.19,1.179 -0.17,2.413 -1.09,3.356c-0.76,0.757 -1.75,1.136 -2.75,1.136Z" style="fill:#808285;fill-rule:nonzero;"/><path d="M103.395,110.791c-0.13,-0.389 -0.2,-0.795 -0.2,-1.203c0,0.408 0.07,0.814 0.2,1.203Zm0.91,-3.874c0.74,-0.737 1.71,-1.105 2.67,-1.105c0.31,0 0.61,0.036 0.91,0.108c-0.3,-0.071 -0.6,-0.107 -0.9,-0.107c-0.97,0 -1.94,0.367 -2.68,1.104Z" style="fill:#adb0b2;fill-rule:nonzero;"/><path d="M116.925,103.555c-1.1,0 -2.14,-0.432 -2.91,-1.212c-0.46,-0.46 -0.81,-1.007 -1,-1.618c-0.5,-1.494 -0.12,-3.111 1,-4.226c0.77,-0.78 1.81,-1.207 2.92,-1.207c1.1,0 2.13,0.427 2.909,1.207c0.27,0.27 0.5,0.574 0.711,0.935c0.87,1.607 0.59,3.627 -0.711,4.909c-0.779,0.78 -1.809,1.212 -2.919,1.212Z" style="fill:#adb0b2;fill-rule:nonzero;"/><path d="M116.935,94.946c-1.201,0 -2.321,0.465 -3.17,1.308c-1.21,1.207 -1.62,2.967 -1.08,4.579c0.21,0.665 0.58,1.256 1.09,1.759c0.829,0.839 1.949,1.31 3.15,1.31c1.2,0 2.32,-0.466 3.169,-1.31c1.401,-1.397 1.711,-3.582 0.76,-5.32c-0.229,-0.401 -0.469,-0.725 -0.76,-1.018c-0.849,-0.843 -1.969,-1.308 -3.159,-1.308Zm0,0.692c0.97,0 1.929,0.368 2.669,1.104c0.271,0.27 0.471,0.563 0.641,0.866c0.8,1.439 0.58,3.279 -0.641,4.492c-0.74,0.736 -1.709,1.109 -2.679,1.109c-0.97,0 -1.93,-0.373 -2.67,-1.109c-0.44,-0.434 -0.74,-0.942 -0.911,-1.482c-0.439,-1.311 -0.139,-2.827 0.911,-3.876c0.74,-0.736 1.709,-1.104 2.68,-1.104Z" style="fill:#fff;fill-rule:nonzero;"/><path d="M116.405,102.114c-1,0 -1.99,-0.377 -2.76,-1.129c-0.11,-0.108 -0.21,-0.248 -0.301,-0.367c-0.13,-0.389 -0.199,-0.797 -0.189,-1.204c0,-0.966 0.37,-1.934 1.1,-2.672c0.18,-0.172 0.359,-0.325 0.56,-0.457c0.63,-0.431 1.38,-0.647 2.12,-0.647c0.1,0 0.21,0.004 0.31,0.013c0.33,0.028 0.66,0.099 0.979,0.212l-0,0.002c-0,0 -0,0.001 0.01,0.002c0.5,0.182 0.971,0.474 1.37,0.875c0.271,0.27 0.471,0.563 0.641,0.866c0.19,1.201 -0.17,2.446 -1.09,3.377c-0.76,0.752 -1.75,1.129 -2.75,1.129Z" style="fill:#808285;fill-rule:nonzero;"/><path d="M113.344,100.618c-0.13,-0.389 -0.199,-0.797 -0.189,-1.204c-0.01,0.407 0.059,0.815 0.189,1.204Zm6.26,-3.876c-0.399,-0.401 -0.87,-0.693 -1.37,-0.875c0.5,0.182 0.971,0.474 1.37,0.875Zm-4.789,-0.457c0.63,-0.431 1.38,-0.647 2.12,-0.647c0.1,0 0.21,0.004 0.31,0.013c-0.1,-0.009 -0.21,-0.013 -0.31,-0.013c-0.74,0 -1.49,0.216 -2.12,0.647Zm3.409,-0.42l-0,-0.002l-0,0.002Z" style="fill:#adb0b2;fill-rule:nonzero;"/><path d="M127.245,93.235c-1.1,0 -2.141,-0.433 -2.91,-1.217c-0.45,-0.418 -0.8,-0.98 -1,-1.625c-0.491,-1.466 -0.101,-3.122 1,-4.215c0.769,-0.774 1.81,-1.201 2.91,-1.201c1.109,0 2.15,0.427 2.92,1.206c0.29,0.287 0.52,0.6 0.699,0.947c0.891,1.603 0.62,3.572 -0.699,4.888c-0.77,0.784 -1.811,1.217 -2.92,1.217Z" style="fill:#adb0b2;fill-rule:nonzero;"/><path d="M127.245,84.629c-1.19,0 -2.31,0.466 -3.151,1.311c-1.199,1.179 -1.63,2.97 -1.089,4.567c0.219,0.693 0.599,1.31 1.099,1.775c0.831,0.828 1.951,1.3 3.141,1.3c1.2,0 2.32,-0.466 3.17,-1.322c1.42,-1.427 1.72,-3.56 0.76,-5.303c-0.201,-0.363 -0.451,-0.708 -0.75,-1.017c-0.86,-0.845 -1.98,-1.311 -3.18,-1.311Zm-0,0.694c0.969,0 1.94,0.368 2.68,1.103c0.27,0.272 0.48,0.564 0.64,0.866c0.799,1.441 0.57,3.259 -0.64,4.482c-0.74,0.741 -1.711,1.115 -2.68,1.115c-0.97,0 -1.93,-0.374 -2.67,-1.115c-0.44,-0.412 -0.74,-0.932 -0.91,-1.483c-0.441,-1.31 -0.14,-2.826 0.91,-3.865c0.74,-0.735 1.7,-1.103 2.67,-1.103Z" style="fill:#fff;fill-rule:nonzero;"/><path d="M126.734,91.797c-1,-0.001 -2,-0.385 -2.76,-1.149c-0.12,-0.097 -0.219,-0.228 -0.309,-0.357c-0.13,-0.389 -0.201,-0.796 -0.191,-1.203c-0,-0.965 0.37,-1.931 1.101,-2.662c0.74,-0.735 1.7,-1.103 2.67,-1.103c0.969,0 1.94,0.368 2.68,1.103c0.27,0.272 0.48,0.564 0.64,0.866c0.19,1.191 -0.16,2.447 -1.081,3.356c-0.76,0.767 -1.76,1.149 -2.75,1.149Z" style="fill:#808285;fill-rule:nonzero;"/><path d="M123.665,90.291c-0.13,-0.389 -0.201,-0.796 -0.191,-1.203c-0.01,0.407 0.061,0.814 0.191,1.203Zm6.26,-3.865c-0.74,-0.735 -1.711,-1.103 -2.68,-1.103c-0.97,0 -1.93,0.368 -2.67,1.103c0.74,-0.736 1.71,-1.104 2.67,-1.104c0.969,0 1.94,0.368 2.68,1.104Z" style="fill:#adb0b2;fill-rule:nonzero;"/></g></g></g></svg>