<?xml version="1.0" encoding="UTF-8" standalone="no"?><!DOCTYPE svg PUBLIC "-//W3C//DTD SVG 1.1//EN" "http://www.w3.org/Graphics/SVG/1.1/DTD/svg11.dtd"><svg width="100%" height="100%" viewBox="0 0 165 217" version="1.1" xmlns="http://www.w3.org/2000/svg" xmlns:xlink="http://www.w3.org/1999/xlink" xml:space="preserve" xmlns:serif="http://www.serif.com/" style="fill-rule:evenodd;clip-rule:evenodd;stroke-linejoin:round;stroke-miterlimit:2;"><g><g><g><path d="M8.79,46.104c-0.03,0.005 -1.22,0.19 -2.56,0.54c-0.67,0.177 -1.38,0.392 -2.03,0.671c-0.32,0.14 -0.63,0.296 -0.93,0.493c-0.3,0.2 -0.6,0.433 -0.86,0.811l0,0.006c-0.95,1.442 -1.52,3.236 -1.89,5.28c-0.37,2.045 -0.52,4.347 -0.52,6.803c0,7.078 1.24,15.454 2.48,22.098c1.23,6.64 2.46,11.531 2.47,11.55c0.19,0.743 0.94,1.193 1.68,1.006c0.75,-0.187 1.2,-0.941 1.01,-1.683c0,-0.001 -0.02,-0.072 -0.05,-0.215c-0.27,-1.075 -1.48,-6.079 -2.61,-12.413c-1.14,-6.33 -2.21,-14.004 -2.2,-20.343c-0.01,-2.342 0.14,-4.499 0.47,-6.314c0.32,-1.816 0.83,-3.281 1.47,-4.238l-0,0.005l-0.29,-0.195l0.26,0.233l0.03,-0.038l-0.29,-0.195l0.26,0.233c0.04,-0.053 0.41,-0.272 0.87,-0.442c0.7,-0.271 1.64,-0.51 2.38,-0.669c0.37,-0.08 0.7,-0.142 0.93,-0.183c0.11,-0.02 0.2,-0.036 0.26,-0.046l0.09,-0.014c0.76,-0.119 1.27,-0.828 1.16,-1.584c-0.12,-0.757 -0.83,-1.275 -1.59,-1.157Z" style="fill:#919396;fill-rule:nonzero;"/><path d="M9.82,86.895l-4.62,11.788l4.62,20.045l3.24,2.263l-3.24,-34.096Z" style="fill:#4a4b4c;fill-rule:nonzero;"/><path d="M8.53,86.39l-4.62,11.788c-0.1,0.258 -0.12,0.546 -0.06,0.816l4.62,20.045c0.07,0.335 0.27,0.63 0.55,0.826l3.25,2.263c0.62,0.438 1.49,0.285 1.93,-0.343c0.44,-0.628 0.28,-1.493 -0.35,-1.931l-2.8,-1.957l-4.4,-19.107l4.46,-11.389c0.28,-0.713 -0.07,-1.517 -0.79,-1.797c-0.71,-0.279 -1.51,0.072 -1.79,0.786Z" style="fill:#4a4b4c;fill-rule:nonzero;"/><path d="M155.03,51.519l0.04,0.007c0.23,0.035 1.35,0.224 2.46,0.525c0.55,0.149 1.1,0.329 1.49,0.507c0.2,0.088 0.36,0.176 0.45,0.238l0.08,0.064l0.01,-0.014l-0.01,0.012l-0,0.002l0.01,-0.014l-0.01,0.012l0.27,-0.233l-0.3,0.197l0.03,0.036l0.27,-0.233l-0.3,0.197l-0,-0.003c0.64,0.957 1.16,2.423 1.48,4.24c0.33,1.817 0.47,3.975 0.47,6.318c0,6.762 -1.21,15.039 -2.43,21.588c-0.61,3.276 -1.22,6.126 -1.68,8.153c-0.22,1.014 -0.41,1.822 -0.55,2.376c-0.06,0.276 -0.12,0.49 -0.15,0.633c-0.04,0.143 -0.05,0.214 -0.05,0.215c-0.19,0.742 0.26,1.496 1,1.683c0.74,0.188 1.5,-0.263 1.69,-1.005c-0,-0.02 1.23,-4.909 2.47,-11.548c1.23,-6.642 2.47,-15.017 2.47,-22.095c0,-2.457 -0.15,-4.761 -0.51,-6.807c-0.37,-2.045 -0.95,-3.841 -1.9,-5.284l-0,-0.003c-0.26,-0.38 -0.56,-0.615 -0.85,-0.815c-0.53,-0.342 -1.1,-0.575 -1.7,-0.781c-1.77,-0.603 -3.8,-0.901 -3.84,-0.91c-0.76,-0.115 -1.46,0.407 -1.58,1.164c-0.11,0.757 0.41,1.464 1.17,1.578Z" style="fill:#919396;fill-rule:nonzero;"/><path d="M154.42,89.559l4.62,11.787l-4.62,20.068l-3.24,2.24l3.24,-34.095Z" style="fill:#4a4b4c;fill-rule:nonzero;"/><path d="M153.13,90.064l4.46,11.388l-4.4,19.127l-2.79,1.935c-0.63,0.436 -0.79,1.3 -0.36,1.929c0.44,0.63 1.3,0.787 1.93,0.351l3.24,-2.24c0.28,-0.196 0.49,-0.495 0.56,-0.829l4.62,-20.068c0.07,-0.27 0.04,-0.56 -0.06,-0.818l-4.62,-11.787c-0.28,-0.713 -1.08,-1.064 -1.8,-0.784c-0.71,0.279 -1.06,1.084 -0.78,1.796Z" style="fill:#4a4b4c;fill-rule:nonzero;"/><path d="M155.07,75.465c-0,3.324 -0.05,6.582 -0.13,9.797c-0.29,9.481 -0.93,18.519 -1.95,27.091c-1.11,9.44 -2.67,18.315 -4.6,26.595c-7.7,32.916 -21.52,56.341 -38.56,68.271c-8.45,5.91 -17.69,8.98 -27.39,8.98c-37.01,0 -67.55,-44.865 -72.05,-120.915c-0.38,-6.398 -0.58,-12.999 -0.58,-19.819c0,-17.35 1.27,-34.052 3.62,-49.693l138.02,-0c2.34,15.641 3.62,32.343 3.62,49.693Z" style="fill:#dd995e;fill-rule:nonzero;"/><path d="M82.44,216.209c-22.95,0 -43.41,-17.26 -56.72,-48.502c13.31,31.242 33.77,48.492 56.72,48.492c4.78,0 9.44,-0.75 13.96,-2.21c-4.52,1.47 -9.18,2.22 -13.96,2.22Z" style="fill:#e5b487;fill-rule:nonzero;"/><path d="M82.44,216.199c-22.95,0 -43.41,-17.25 -56.72,-48.492c-8.15,-19.142 -13.62,-43.533 -15.33,-72.423c12.25,40.785 39.85,94.715 99.45,111.925c-4.291,3 -8.791,5.27 -13.44,6.78c-4.52,1.46 -9.18,2.21 -13.96,2.21Z" style="fill:#cc7840;fill-rule:nonzero;"/><path d="M148.39,138.948c-4.45,-28.907 -13.54,-53.7 -23.13,-73.356c0.43,-0.12 0.86,-0.242 1.29,-0.365c2.91,-0.834 5.68,-1.731 8.28,-2.705l0.01,0.009c1.12,-0.413 2.21,-0.837 3.27,-1.272c1.75,-0.711 3.42,-1.452 5,-2.214c4.4,-2.11 8.15,-4.379 11.19,-6.712c0.51,7.552 0.77,15.275 0.77,23.132c-0,3.324 -0.05,6.582 -0.13,9.797c-0.03,0.996 -0.06,1.987 -0.1,2.974c-0.07,1.859 -0.16,3.702 -0.26,5.526c-0.35,6.418 -0.88,12.618 -1.59,18.591c-0.37,3.141 -0.79,6.219 -1.26,9.234c-0.17,1.16 -0.36,2.312 -0.55,3.454c-0.81,4.805 -1.75,9.442 -2.79,13.907Zm3.59,-109.528l-48.13,0c-0.92,-1.299 -1.811,-2.516 -2.65,-3.648l50.25,-0c0.19,1.21 0.36,2.426 0.53,3.648Z" style="fill:#e7a850;fill-rule:nonzero;"/><path d="M134.84,62.531l-0.01,-0.009c0.01,-0.001 0.01,-0.002 0.01,-0.003c1.12,-0.408 2.21,-0.828 3.27,-1.26c-1.06,0.435 -2.15,0.859 -3.27,1.272Z" style="fill:#f18736;fill-rule:nonzero;"/><path d="M158.45,29.42c0,0 -0.87,9.211 -1.98,21.14c-3.36,2.953 -7.85,5.844 -13.36,8.485c-2.54,1.223 -5.3,2.392 -8.27,3.474c-2.61,0.975 -5.37,1.873 -8.29,2.708c-2.92,0.843 -6.01,1.622 -9.23,2.293c-3.2,0.661 -6.55,1.256 -10.021,1.743c-3.28,0.487 -6.669,0.856 -10.179,1.137c-4.69,0.4 -9.581,0.584 -14.66,0.584c-8.141,0 -15.71,-0.443 -22.69,-1.256c-4.49,-0.53 -8.73,-1.208 -12.72,-2.023c-18.42,-3.702 -31.38,-10.109 -37.87,-16.853l-2.42,-18.586l-0.33,-2.846l152.02,0Z" style="fill:#4a4b4c;fill-rule:nonzero;"/><path d="M59.77,69.728c-4.49,-0.53 -8.73,-1.208 -12.72,-2.023l-31.06,-38.285l11.1,0l32.68,40.308Z" style="fill:#333132;fill-rule:nonzero;"/><path d="M97.51,29.42l-11.09,0l-1.59,-1.98l11.08,0l1.6,1.98Z" style="fill:#e8bd8f;fill-rule:nonzero;"/><path d="M117.32,67.52l-30.9,-38.1l11.09,0l29.04,35.807c-0.43,0.123 -0.86,0.245 -1.29,0.365c-2.54,0.703 -5.19,1.355 -7.94,1.928Z" style="fill:#333132;fill-rule:nonzero;"/><path d="M158.45,29.409c0,16.249 -34.03,29.411 -76.01,29.411c-41.99,0 -76.02,-13.162 -76.02,-29.411c0,-16.235 34.03,-29.409 76.02,-29.409c41.98,0 76.01,13.174 76.01,29.409Z" style="fill:#200000;fill-rule:nonzero;"/><path d="M151.18,28.305c0,1.169 -0.21,2.328 -0.63,3.442c-1.93,5.152 -8.11,9.796 -17.21,13.454c-12.12,4.893 -29.45,8.01 -48.771,8.216c-0.619,0.011 -1.239,0.011 -1.879,0.011c-0.621,-0 -1.25,-0 -1.871,-0.011c-19.309,-0.206 -36.639,-3.323 -48.779,-8.216c-9.09,-3.658 -15.26,-8.302 -17.18,-13.454c-0.43,-1.114 -0.64,-2.273 -0.64,-3.442c-0,-13.876 30.66,-25.112 68.47,-25.112c37.83,-0 68.49,11.236 68.49,25.112Z" style="fill:#d4b6a1;fill-rule:nonzero;"/><path d="M147.84,25.772c-0,1.126 -0.21,2.208 -0.61,3.281c-1.82,4.902 -7.71,9.33 -16.35,12.804c-10.96,4.405 -26.341,7.317 -43.571,7.739c-0.939,0.033 -1.889,0.043 -2.829,0.065c-0.59,0.011 -1.181,0.011 -1.79,0.011c-0.59,-0 -1.19,-0 -1.78,-0.011c-18.361,-0.173 -34.85,-3.149 -46.39,-7.804c-8.63,-3.474 -14.51,-7.902 -16.35,-12.804c-0.4,-1.073 -0.61,-2.155 -0.61,-3.281c0,-6.495 7.11,-12.393 18.61,-16.712c11.82,-4.438 28.3,-7.187 46.52,-7.187c35.99,0 65.15,10.705 65.15,23.899Z" style="fill:#f8d2b9;fill-rule:nonzero;"/><path d="M66.84,70.4c-0,0 13.07,6.906 13.07,16.495l10.95,0c-0,0 2.709,-15.565 13.07,-17.167" style="fill:#4a4b4c;fill-rule:nonzero;"/><path d="M86.279,51.22c-0.929,0.032 -1.869,0.044 -2.829,0.053c-0.59,0.012 -1.171,0.012 -1.78,0.012c-0.59,0 -1.19,0 -1.78,-0.012c-18.361,-0.183 -34.86,-3.16 -46.41,-7.793c-8.62,-3.507 -14.5,-7.912 -16.34,-12.826c-0.39,-1.06 -0.6,-2.154 -0.6,-3.269c0,-6.484 7.1,-12.405 18.61,-16.723c4.85,13.801 17.62,32.31 51.129,40.558Z" style="fill:#fcc9a6;fill-rule:nonzero;"/><path d="M92.35,118.728l-15.061,0l-0,19.246l0.101,-0c-0.03,0.206 -0.04,0.412 -0.04,0.627c-0,4.124 3.34,7.458 7.48,7.458c4.12,0 7.459,-3.334 7.459,-7.458c-0,-0.215 -0.02,-0.421 -0.029,-0.627l0.09,-0l-0,-19.246Z" style="fill:#4a4b4c;fill-rule:nonzero;"/><path d="M83.44,72.326l0,59.066c0,0.766 0.619,1.387 1.39,1.387c0.76,-0 1.38,-0.621 1.38,-1.387l0,-59.066c0,-0.766 -0.62,-1.387 -1.38,-1.387c-0.771,-0 -1.39,0.621 -1.39,1.387Z" style="fill:#919396;fill-rule:nonzero;"/></g></g></g></svg>