<?xml version="1.0" encoding="UTF-8" standalone="no"?><!DOCTYPE svg PUBLIC "-//W3C//DTD SVG 1.1//EN" "http://www.w3.org/Graphics/SVG/1.1/DTD/svg11.dtd"><svg width="100%" height="100%" viewBox="0 0 109 236" version="1.1" xmlns="http://www.w3.org/2000/svg" xmlns:xlink="http://www.w3.org/1999/xlink" xml:space="preserve" xmlns:serif="http://www.serif.com/" style="fill-rule:evenodd;clip-rule:evenodd;stroke-linejoin:round;stroke-miterlimit:2;"><g><g><g><path d="M108.43,168.445c-0.72,0.216 -6.57,2.207 -8.11,14.244c-0.05,1.017 -0.15,2.013 -0.28,3.009l0,0.032c-0.22,1.775 -0.53,3.517 -0.95,5.216c-2.24,9.364 -7.3,17.601 -14.18,23.739c-0.31,0.269 -0.61,0.529 -0.91,0.801l-0.2,0.162c-7.82,6.549 -17.81,4.254 -28.73,4.254c-0.29,0 -0.58,-0.012 -0.86,-0.021c-0.28,0.009 -0.56,0.021 -0.86,0.021c-10.99,0 -21.07,2.218 -28.93,-4.416c-7.35,-6.225 -12.75,-14.776 -15.1,-24.54c-0.41,-1.699 -0.72,-3.441 -0.94,-5.216l-0.02,-0.032c-0.11,-0.996 -0.21,-1.992 -0.27,-3.009c-1.52,-12.037 -7.37,-14.028 -8.09,-14.244c4.27,0.876 10,-2.09 12.93,-4.579c9.12,-7.761 7.39,-17.525 5.86,-27.374c-0.48,-2.002 -2.08,-5.185 -7.3,-1.797c0,0 5.83,-7.555 6.32,-10.586c0,-0.196 0.01,-0.379 0.03,-0.574c0.54,-6.137 2.64,-12.34 6.17,-17.362c0.51,-0.736 1.06,-1.471 1.65,-2.142c1.45,-1.743 3.11,-3.281 4.95,-4.569c2.04,-1.418 4.28,-2.586 6.65,-3.528c6.17,-4.937 9.43,-10.564 11.13,-15.067c0.99,-2.577 1.46,-4.795 1.7,-6.343c0.22,-1.461 0.22,-2.338 0.22,-2.338l10.17,1.505l0,0.194c0.07,1.635 0.93,13.032 11.8,22.515c1.96,0.865 3.81,1.872 5.52,3.062c7.53,5.24 11.96,14.743 12.77,24.073c0.14,1.656 0.14,3.312 0.02,4.99c1.35,3.464 6.01,9.504 6.01,9.504c-5.09,-3.313 -6.75,-0.379 -7.27,1.634c-0.12,0.454 -0.17,0.844 -0.21,1.126l0.1,-1.375l0.07,-0.746c-0.03,0.226 -0.07,0.455 -0.1,0.67c-0.42,2.815 -0.77,5.628 -0.78,8.368c-0.04,5.844 1.46,11.386 7.07,16.16c1.68,1.429 4.28,3.008 6.99,3.928c0.66,0.228 1.36,0.422 2.04,0.563c1.36,0.282 2.68,0.347 3.92,0.088Z" style="fill:#892f16;fill-rule:nonzero;"/><path d="M89.1,140.897c0,0.151 -0.02,0.26 -0.02,0.26l0.02,-0.26Z" style="fill:#f26a3c;fill-rule:nonzero;"/><path d="M88.41,147.706c-5.18,-17.789 -17.17,-36.754 -27.5,-50.858l-0.35,-21.989c0.34,3.336 2.14,13.182 11.72,21.541c1.96,0.865 3.81,1.872 5.52,3.062c7.53,5.24 11.96,14.743 12.77,24.073c0.07,0.854 0.11,1.708 0.11,2.565c0,0.805 -0.03,1.612 -0.09,2.425c1.35,3.464 6.01,9.504 6.01,9.504c-1.66,-1.081 -2.96,-1.497 -3.97,-1.497c-2.08,-0 -2.95,1.775 -3.3,3.131c-0.12,0.454 -0.17,0.844 -0.21,1.126l0.1,-1.375l0.07,-0.746c-0.03,0.226 -0.07,0.455 -0.1,0.67c-0.42,2.815 -0.77,5.628 -0.78,8.368Z" style="fill:#9a4914;fill-rule:nonzero;"/><path d="M49.9,82.683c-0.53,-0.641 -1.04,-1.246 -1.51,-1.816c0.99,-2.577 1.46,-4.795 1.7,-6.343l0.01,-0.001l-0.2,8.16Z" style="fill:#9a4914;fill-rule:nonzero;"/><path d="M68.01,220.291c-3.47,0.001 -7.1,-0.278 -10.86,-0.364c0.49,-3.984 3.11,-7.206 4.55,-10.871c0.26,-0.644 0.45,-1.504 0.59,-2.503c6.42,4.042 13.91,6.897 22.62,8.132c-0.31,0.269 -0.61,0.529 -0.91,0.801l-0.2,0.162c-4.6,3.85 -9.95,4.643 -15.79,4.643Z" style="fill:#630400;fill-rule:nonzero;"/><path d="M40.66,220.258c-6.03,0 -11.53,-0.796 -16.24,-4.772c-7.35,-6.225 -12.75,-14.776 -15.1,-24.54c-0.41,-1.699 -0.72,-3.441 -0.94,-5.216l-0.02,-0.032c-0.11,-0.996 -0.21,-1.992 -0.27,-3.009c-1.52,-12.037 -7.37,-14.028 -8.09,-14.244c0.53,0.107 1.07,0.157 1.63,0.157c4,0 8.73,-2.552 11.3,-4.736c5.56,-4.73 7.09,-10.203 7.09,-15.986c0,-3.707 -0.63,-7.541 -1.23,-11.388c-0.33,-1.367 -1.17,-3.285 -3.35,-3.285c-1,0 -2.3,0.413 -3.95,1.488c0,0 5.83,-7.555 6.32,-10.586c0,-0.196 0.01,-0.379 0.03,-0.574c0.54,-6.137 2.64,-12.34 6.17,-17.362c0.05,12.318 1.16,32.419 6.65,52.037c-0.73,0.898 -1.28,1.951 -1.57,3.09c-0.85,3.345 0.16,6.916 1.12,10.369c1.19,4.211 2.31,8.184 -0.03,11.193l0.04,0.021c-0.59,0.737 -1.33,1.299 -2.19,1.612c-0.26,0.091 -0.57,0.134 -0.91,0.134c-0.68,0 -1.46,-0.176 -2.09,-0.501c-0.41,-0.206 -1.11,-0.66 -1.32,-1.353c-0.11,-0.346 -0.11,-0.649 -0.07,-0.899c0.19,0.066 0.38,0.109 0.59,0.109c1.15,-0 2.09,-0.941 2.09,-2.089c0,-1.158 -0.94,-2.078 -2.09,-2.078c-0.78,-0 -1.47,0.443 -1.81,1.082c-0.35,0.206 -0.66,0.466 -0.92,0.779c-0.81,0.996 -1.03,2.479 -0.6,3.93c0.4,1.299 1.38,2.402 2.78,3.117c1.07,0.541 2.29,0.834 3.42,0.834c0.69,0 1.33,-0.109 1.9,-0.315c2.46,-0.855 4.39,-3.04 5.05,-5.65l-0.01,0c1.02,-3.474 -0.04,-7.273 -1.01,-10.716c-0.88,-3.115 -1.71,-6.07 -1.16,-8.598c3.27,10.438 7.86,20.571 14.28,29.141c-0.12,1.661 -0.3,4.488 -0.36,7.459c-0.02,0.666 -0.02,1.339 -0.02,2.008c0,3.314 0.21,6.53 0.87,8.231c1.4,3.66 4.01,6.845 4.5,10.809c-3.62,0.082 -7.13,0.329 -10.48,0.329Z" style="fill:#630400;fill-rule:nonzero;"/><rect x="58.62" y="12.621" width="4.51" height="2.187" style="fill:#310d00;fill-rule:nonzero;"/><path d="M67.77,13.726c0,0.779 -0.23,1.504 -0.63,2.11c-0.15,0.194 -0.3,0.401 -0.47,0.574c-0.7,0.693 -1.65,1.104 -2.69,1.104c-1.71,0 -2.03,-4.958 -0.98,-6.874c0.25,-0.443 0.58,-0.736 0.98,-0.736c1.04,0 1.99,0.433 2.69,1.127c0.68,0.681 1.1,1.633 1.1,2.695Z" style="fill:#4d2500;fill-rule:nonzero;"/><path d="M67.14,15.836c-0.15,0.195 -0.3,0.401 -0.47,0.574c-0.7,0.693 -1.65,1.104 -2.69,1.104c-1.71,0 -2.03,-4.958 -0.98,-6.874c0.16,2.057 1.02,4.611 4.14,5.196Z" style="fill:#3b1600;fill-rule:nonzero;"/><rect x="59.04" y="21.995" width="4.5" height="2.208" style="fill:#310d00;fill-rule:nonzero;"/><path d="M68.19,23.099c0,0.79 -0.23,1.516 -0.65,2.121c-0.13,0.195 -0.28,0.391 -0.46,0.574c-0.69,0.682 -1.64,1.116 -2.68,1.116c-1.71,0 -2.02,-4.98 -0.98,-6.873c0.24,-0.455 0.57,-0.748 0.98,-0.748c1.04,0 1.99,0.433 2.68,1.126c0.69,0.682 1.11,1.634 1.11,2.684Z" style="fill:#4d2500;fill-rule:nonzero;"/><path d="M67.54,25.22c-0.13,0.195 -0.28,0.391 -0.46,0.574c-0.69,0.682 -1.64,1.116 -2.68,1.116c-1.71,0 -2.02,-4.98 -0.98,-6.873c0.16,2.045 1.01,4.599 4.12,5.183Z" style="fill:#3b1600;fill-rule:nonzero;"/><path d="M61.09,31.543l-0.64,0l-0.17,-2.989l-0.25,-4.351l0.64,0l0.25,4.351l0.17,2.989Zm-0.55,-9.548l-0.64,-0l-0.41,-7.187l0.64,-0l0.41,7.187Zm-0.54,-9.374l-0.64,0l-0.1,-1.731l0.13,0c0.01,-0.001 0.01,-0.001 0.02,-0.001l0.01,0c0.01,-0.001 0.03,-0.001 0.04,-0.002l0.01,0c0.01,-0.001 0.01,-0.001 0.02,-0.001c0,-0.001 0.01,-0.001 0.01,-0.001c0.01,0 0.01,-0.001 0.02,-0.002c0.17,-0.012 0.34,-0.043 0.5,-0.091c0.01,-0.001 0.01,-0.002 0.01,-0.003c0.01,-0.001 0.01,-0.002 0.01,-0.003c0.01,-0.002 0.02,-0.004 0.03,-0.007l0,-0.001c0.35,-0.11 0.67,-0.297 0.94,-0.538c0.59,-0.515 0.96,-1.317 0.98,-2.197l0,-0.076c0,-1.634 -1.19,-2.944 -2.64,-2.944l-0.01,0l0.01,-0.162c0,-0.021 0,-0.042 -0.01,-0.063c-0.02,-2.494 -1.29,-4.534 -2.92,-4.774c0.1,-0.016 0.21,-0.024 0.32,-0.024c1.8,-0 3.24,2.176 3.24,4.861l0,0.173l0,-0.011c1.46,0 2.65,1.31 2.65,2.944c0,1.612 -1.19,2.923 -2.65,2.923l-0.08,0l0.1,1.731Zm-7.14,-7.565c-0.02,-0.002 -0.04,-0.004 -0.05,-0.006c0.01,-0.003 0.03,-0.005 0.05,-0.007l0,0.013Z" style="fill:#be9533;fill-rule:nonzero;"/><path d="M60.13,14.808l-0.64,-0l-0.13,-2.187l0.64,0l0.13,2.187Z" style="fill:#3e2100;fill-rule:nonzero;"/><path d="M60.67,24.203l-0.64,0l-0.13,-2.208l0.64,-0l0.13,2.208Z" style="fill:#3e2100;fill-rule:nonzero;"/><rect x="47.93" y="15.587" width="4.51" height="2.187" style="fill:#310d00;fill-rule:nonzero;"/><path d="M43.28,16.681c0,0.801 0.23,1.504 0.64,2.121c0.13,0.205 0.29,0.39 0.47,0.563c0.7,0.693 1.64,1.126 2.69,1.126c1.69,0 2.02,-4.98 0.97,-6.874c-0.25,-0.465 -0.57,-0.736 -0.97,-0.736c-1.05,0 -1.99,0.422 -2.69,1.115c-0.69,0.682 -1.11,1.634 -1.11,2.685Z" style="fill:#4d2500;fill-rule:nonzero;"/><path d="M43.92,18.802c0.13,0.205 0.29,0.39 0.47,0.563c0.7,0.693 1.64,1.126 2.69,1.126c1.69,0 2.02,-4.98 0.97,-6.874c-0.16,2.047 -1.02,4.59 -4.13,5.185Z" style="fill:#3b1600;fill-rule:nonzero;"/><rect x="47.52" y="24.96" width="4.5" height="2.198" style="fill:#310d00;fill-rule:nonzero;"/><path d="M42.86,26.065c0,0.779 0.23,1.515 0.64,2.11c0.14,0.206 0.3,0.412 0.47,0.574c0.7,0.693 1.65,1.116 2.69,1.116c1.7,-0 2.02,-4.969 0.98,-6.864c-0.25,-0.455 -0.58,-0.746 -0.98,-0.746c-1.04,0 -1.99,0.422 -2.69,1.115c-0.69,0.692 -1.11,1.634 -1.11,2.695Z" style="fill:#4d2500;fill-rule:nonzero;"/><path d="M43.5,28.175c0.14,0.206 0.3,0.412 0.47,0.574c0.7,0.693 1.65,1.116 2.69,1.116c1.7,-0 2.02,-4.969 0.98,-6.864c-0.16,2.036 -1.02,4.601 -4.14,5.174Z" style="fill:#3b1600;fill-rule:nonzero;"/><path d="M59.35,10.89l-0.09,0l1.02,17.664l0.17,2.989l-10.06,0l1.68,-20.697c-1.24,-0.235 -2.2,-1.439 -2.2,-2.879c0,-1.634 1.19,-2.944 2.65,-2.944c0.13,0 0.23,0.021 0.34,0.033l-0.01,-0.195c0,-0.953 0.19,-1.84 0.5,-2.576c0.58,-1.363 1.59,-2.285 2.75,-2.285c1.78,-0 3.25,2.176 3.25,4.861l-0.02,0.162l0.02,0c1.45,0 2.64,1.31 2.64,2.944c0,1.612 -1.19,2.923 -2.64,2.923Z" style="fill:#892f16;fill-rule:nonzero;"/><path d="M59.38,10.89l-0.12,0l0.12,0Zm0.01,0c0.01,-0.001 0.01,-0.001 0.02,-0.001c-0.01,0 -0.01,0 -0.02,0.001Zm0.03,-0.001c0.01,-0.001 0.01,-0.001 0.02,-0.001c-0.01,0 -0.01,0 -0.02,0.001Zm0.04,-0.002l0.01,0l-0.01,0Zm0.03,-0.001c0,-0.001 0.01,-0.001 0.01,-0.001c0,0 -0.01,0 -0.01,0.001Zm0.53,-0.094c0.01,-0.001 0.01,-0.002 0.01,-0.003c0,0.001 0,0.002 -0.01,0.003Zm0.02,-0.006c0.01,-0.002 0.02,-0.004 0.03,-0.007c-0.01,0.003 -0.02,0.005 -0.03,0.007Zm0.03,-0.008c0.35,-0.109 0.67,-0.296 0.94,-0.541l0,0.003c-0.27,0.241 -0.59,0.428 -0.94,0.538Z" style="fill:#cba520;fill-rule:nonzero;"/><path d="M60.28,28.554c-0.58,-0.892 -1.1,-1.861 -1.59,-2.886l-1,-7.56l-0.23,-3.3l-2.26,-0c-0.92,-4.224 -1.44,-8.284 -1.72,-11.16c2.57,1.148 5.62,3.149 7.53,6.589c-0.27,0.245 -0.59,0.432 -0.94,0.541l0,0.001c-0.01,0.003 -0.02,0.005 -0.03,0.007c0,0.001 0,0.002 -0.01,0.003c0,0.001 0,0.002 -0.01,0.003c-0.16,0.048 -0.33,0.079 -0.5,0.091c-0.01,0.001 -0.01,0.002 -0.02,0.002c-0,0 -0.01,0 -0.01,0.001c-0.01,-0 -0.01,-0 -0.02,0.001l-0.01,0c-0.01,0.001 -0.03,0.001 -0.04,0.002l-0.01,0c-0.01,0 -0.01,0 -0.02,0.001l-0.13,0l1.02,17.664Zm-2.13,-4.09c-0.01,-0.019 -0.02,-0.039 -0.03,-0.058l-0.01,-0.27l0.04,0.328Zm-4.79,-22.179c0.57,-1.363 1.58,-2.285 2.74,-2.285c-1.16,0 -2.17,0.922 -2.74,2.285Z" style="fill:#9a4914;fill-rule:nonzero;"/><path d="M61.51,133.71l-12.87,0l2.52,-102.167l8.69,0l1.66,102.167Z" style="fill:#4d2500;fill-rule:nonzero;"/><path d="M57.11,220.226c-0.03,0.347 -0.06,0.693 -0.06,1.028c0.01,3.194 0.94,6.615 2.41,9.31c0.16,0.107 0.25,0.269 0.27,0.476l0.02,0.044l-0.02,-0c0,0.366 -0.3,0.681 -0.68,0.681l-9.86,0c-0.38,0 -0.68,-0.315 -0.68,-0.681l0.01,-0.034l0,-0.01c0.01,-0.207 0.1,-0.379 0.27,-0.476c1.48,-2.707 2.44,-6.106 2.44,-9.31c0,-4.6 -3.04,-8.075 -4.59,-12.134c-0.8,-2.044 -0.94,-6.277 -0.85,-10.239c0.09,-4.665 0.48,-8.973 0.48,-8.973l15.98,0c0,0 1.21,14.699 -0.55,19.148c-1.47,3.756 -4.19,7.047 -4.59,11.17Z" style="fill:#4d2500;fill-rule:nonzero;"/><path d="M50,204.888c0,0.617 -0.51,1.137 -1.14,1.137c-0.63,0 -1.15,-0.52 -1.15,-1.137c0,-0.639 0.52,-1.147 1.15,-1.147c0.63,0 1.14,0.508 1.14,1.147Z" style="fill:#fff;fill-rule:nonzero;"/><path d="M53.57,204.888c0,0.617 -0.51,1.137 -1.13,1.137c-0.63,0 -1.15,-0.52 -1.15,-1.137c0,-0.639 0.52,-1.146 1.15,-1.146c0.62,0 1.13,0.507 1.13,1.146Z" style="fill:#fff;fill-rule:nonzero;"/><path d="M57.21,204.888c0,0.617 -0.52,1.137 -1.14,1.137c-0.63,0 -1.14,-0.52 -1.15,-1.137c0,-0.639 0.52,-1.146 1.15,-1.146c0.63,0 1.14,0.507 1.14,1.146Z" style="fill:#fff;fill-rule:nonzero;"/><path d="M61.49,204.888c0,0.617 -0.52,1.137 -1.14,1.137c-0.63,0 -1.14,-0.52 -1.14,-1.137c0,-0.639 0.51,-1.146 1.14,-1.146c0.62,0 1.14,0.507 1.14,1.146Z" style="fill:#fff;fill-rule:nonzero;"/><path d="M59.05,231.765l-9.86,0c-0.38,0 -0.68,-0.315 -0.68,-0.681l0.01,-0.034l0,-0.01c0.01,-0.207 0.1,-0.379 0.27,-0.476c1.48,-2.707 2.44,-6.106 2.44,-9.31c0,-0.452 -0.03,-0.893 -0.09,-1.325c-0.49,-3.964 -3.1,-7.149 -4.5,-10.809c-0.66,-1.701 -0.87,-4.917 -0.87,-8.231c0,-0.669 0,-1.342 0.02,-2.008c1.52,6.548 4.71,14.646 11.32,21.345c-0.03,0.347 -0.06,0.693 -0.06,1.028c0.01,3.194 0.94,6.615 2.41,9.31c0.16,0.107 0.25,0.269 0.27,0.476l0.02,0.044l-0.02,-0c0,0.366 -0.3,0.681 -0.68,0.681Z" style="fill:#390700;fill-rule:nonzero;"/><path d="M58.62,31.543l-6.39,0l1.17,-16.735l4.06,-0l1.16,16.735Z" style="fill:#310d00;fill-rule:nonzero;"/><path d="M81.8,187.54c-0.61,0 -1.2,-0.107 -1.72,-0.295c-2.45,-0.855 -4.39,-3.04 -5.06,-5.65l0.01,0c-1.01,-3.474 0.06,-7.273 1.03,-10.716c0.9,-3.225 1.76,-6.278 1.1,-8.864c-0.41,-1.624 -1.71,-3.02 -3.31,-3.583c-0.26,-0.095 -0.59,-0.141 -0.93,-0.141c-0.68,0 -1.46,0.175 -2.08,0.497c-0.41,0.218 -1.11,0.661 -1.32,1.354c-0.06,0.217 -0.08,0.422 -0.08,0.596c0.08,-0.012 0.19,-0.022 0.28,-0.022c1.15,0 2.08,0.93 2.08,2.066c0,1.159 -0.93,2.101 -2.08,2.101c-0.79,0 -1.46,-0.444 -1.82,-1.083c-0.22,-0.162 -0.41,-0.345 -0.58,-0.562c-0.8,-1.018 -1.03,-2.479 -0.59,-3.939c0.39,-1.278 1.37,-2.383 2.78,-3.108c1.06,-0.537 2.28,-0.818 3.42,-0.818c0.67,0 1.32,0.097 1.89,0.298c2.53,0.899 4.51,3.042 5.17,5.629c0.85,3.345 -0.14,6.916 -1.12,10.369c-1.18,4.211 -2.31,8.184 0.03,11.193l-0.03,0.021c0.57,0.737 1.33,1.299 2.17,1.612c0.27,0.091 0.58,0.134 0.92,0.134c0.68,0 1.46,-0.176 2.1,-0.501c0.41,-0.206 1.1,-0.66 1.31,-1.353c0.1,-0.346 0.12,-0.649 0.08,-0.899c-0.2,0.066 -0.4,0.109 -0.6,0.109c-1.15,-0 -2.09,-0.941 -2.09,-2.089c0,-1.158 0.94,-2.078 2.09,-2.078c0.78,-0 1.46,0.443 1.82,1.082c0.35,0.206 0.65,0.466 0.91,0.779c0.81,0.996 1.03,2.479 0.6,3.93c-0.4,1.299 -1.38,2.402 -2.79,3.117c-1.07,0.541 -2.28,0.811 -3.41,0.811c-0.06,0.002 -0.12,0.003 -0.18,0.003Z" style="fill:#2f0000;fill-rule:nonzero;"/><path d="M39.36,164.883c-1.15,0 -2.08,-0.942 -2.08,-2.101c0,-1.136 0.93,-2.066 2.08,-2.066c0.1,0 0.19,0.01 0.29,0.022c-0.02,-0.174 -0.03,-0.379 -0.09,-0.596c-0.21,-0.693 -0.92,-1.136 -1.32,-1.354c-0.63,-0.322 -1.4,-0.497 -2.08,-0.497c-0.34,0 -0.66,0.046 -0.93,0.141c-1.59,0.563 -2.9,1.959 -3.3,3.583c-0.02,0.088 -0.04,0.177 -0.06,0.266c-0.42,-1.353 -0.83,-2.711 -1.21,-4.071c0.94,-1.143 2.18,-2.036 3.6,-2.539c0.57,-0.201 1.22,-0.298 1.89,-0.298c1.14,0 2.36,0.281 3.43,0.818c1.4,0.725 2.39,1.83 2.78,3.108c0.43,1.46 0.21,2.921 -0.59,3.939c-0.18,0.217 -0.38,0.4 -0.59,0.562c-0.35,0.639 -1.04,1.083 -1.82,1.083Z" style="fill:#2f0000;fill-rule:nonzero;"/><path d="M27.1,187.56c-1.13,0 -2.35,-0.293 -3.42,-0.834c-1.4,-0.715 -2.38,-1.818 -2.78,-3.117c-0.43,-1.451 -0.21,-2.934 0.6,-3.93c0.26,-0.313 0.57,-0.573 0.92,-0.779c0.34,-0.639 1.03,-1.082 1.81,-1.082c1.15,-0 2.09,0.92 2.09,2.078c0,1.148 -0.94,2.089 -2.09,2.089c-0.21,-0 -0.4,-0.043 -0.59,-0.109c-0.04,0.25 -0.04,0.553 0.07,0.899c0.21,0.693 0.91,1.147 1.32,1.353c0.63,0.325 1.41,0.501 2.09,0.501c0.34,0 0.65,-0.043 0.91,-0.134c0.86,-0.313 1.6,-0.875 2.19,-1.612l-0.04,-0.021c2.34,-3.009 1.22,-6.982 0.03,-11.193c-0.96,-3.453 -1.97,-7.024 -1.12,-10.369c0.29,-1.139 0.84,-2.192 1.57,-3.09c0.38,1.36 0.79,2.718 1.21,4.071c-0.55,2.528 0.28,5.483 1.16,8.598c0.97,3.443 2.03,7.242 1.01,10.716l0.01,0c-0.66,2.61 -2.59,4.795 -5.05,5.65c-0.57,0.206 -1.21,0.315 -1.9,0.315Z" style="fill:#200;fill-rule:nonzero;"/><rect x="44.27" y="166.539" width="21.6" height="2.025" style="fill:#fff;fill-rule:nonzero;"/><rect x="51.18" y="30.849" width="8.67" height="0.694" style="fill:#fff;fill-rule:nonzero;"/><path d="M52.88,30.869l1.7,-15.846c0.01,-0.103 -0.07,-0.196 -0.17,-0.207c-0.11,-0.012 -0.2,0.064 -0.21,0.167l-1.69,15.846c-0.01,0.104 0.06,0.197 0.16,0.208c0.11,0.011 0.2,-0.064 0.21,-0.168Z" style="fill:#fff;fill-rule:nonzero;"/><path d="M55.04,30.851l0.15,-15.846c0,-0.104 -0.08,-0.19 -0.19,-0.191c-0.1,-0.001 -0.19,0.083 -0.19,0.188l-0.15,15.845c0,0.105 0.08,0.19 0.19,0.191c0.1,0.001 0.18,-0.083 0.19,-0.187Z" style="fill:#fff;fill-rule:nonzero;"/><path d="M57.28,31.173l-1.03,-16.181c0,-0.105 -0.09,-0.184 -0.2,-0.177c-0.1,0.006 -0.18,0.096 -0.17,0.2l1.02,16.182c0.01,0.104 0.1,0.183 0.2,0.176c0.11,-0.006 0.18,-0.096 0.18,-0.2Z" style="fill:#fff;fill-rule:nonzero;"/><path d="M56.9,15.028l2.14,16.182c0.02,0.103 0.11,0.176 0.22,0.162c0.1,-0.013 0.17,-0.108 0.16,-0.212l-2.15,-16.182c-0.01,-0.103 -0.11,-0.176 -0.21,-0.162c-0.1,0.014 -0.18,0.109 -0.16,0.212Z" style="fill:#fff;fill-rule:nonzero;"/><path d="M61.51,133.71l-4.94,0l0,-102.167l3.28,0l1.66,102.167Z" style="fill:#350200;fill-rule:nonzero;"/><rect x="48.64" y="133.71" width="12.85" height="3.41" style="fill:#080d00;fill-rule:nonzero;"/><rect x="46.27" y="186.65" width="15.88" height="3.713" style="fill:#080d00;fill-rule:nonzero;"/><path d="M54.66,31.54l-2.41,173.345c-0.01,0.105 0.08,0.191 0.18,0.192c0.11,0.001 0.19,-0.082 0.19,-0.186l2.42,-173.346c0,-0.104 -0.09,-0.19 -0.19,-0.191c-0.1,-0.002 -0.19,0.082 -0.19,0.186Z" style="fill:#fff;fill-rule:nonzero;"/><path d="M52.53,31.538l-3.86,173.346c0,0.104 0.08,0.191 0.19,0.193c0.1,0.002 0.19,-0.08 0.19,-0.185l3.86,-173.345c0,-0.105 -0.08,-0.191 -0.19,-0.193c-0.1,-0.003 -0.19,0.08 -0.19,0.184Z" style="fill:#fff;fill-rule:nonzero;"/><path d="M59.04,31.544l1.12,173.345c0,0.105 0.08,0.189 0.19,0.188c0.1,-0.001 0.19,-0.086 0.19,-0.19l-1.12,-173.346c0,-0.104 -0.09,-0.188 -0.19,-0.187c-0.1,0 -0.19,0.085 -0.19,0.19Z" style="fill:#fff;fill-rule:nonzero;"/><path d="M56.89,31.541l-1.01,173.346c0,0.104 0.08,0.189 0.18,0.19c0.11,0.001 0.19,-0.083 0.19,-0.188l1.02,-173.345c0,-0.105 -0.08,-0.19 -0.19,-0.19c-0.1,-0.001 -0.18,0.083 -0.19,0.187Z" style="fill:#fff;fill-rule:nonzero;"/><path d="M61.01,10.24l0,-0.003c0.58,-0.522 0.96,-1.31 0.98,-2.194c-0.02,0.88 -0.39,1.682 -0.98,2.197Zm0.98,-2.198l0,-0.036l0,0.036Zm0,-0.039l0,-0.036l0,0.036Zm-2.65,-2.98l-0.01,0l0.02,-0.162l-0.01,0.162Z" style="fill:#c6821f;fill-rule:nonzero;"/><path d="M56.42,0.024c-0.11,-0.015 -0.22,-0.024 -0.32,-0.024c0.11,0 0.21,0.008 0.32,0.024Z" style="fill:#ba752b;fill-rule:nonzero;"/><path d="M59.34,4.798c-0.02,-2.494 -1.3,-4.534 -2.92,-4.774c1.63,0.24 2.9,2.28 2.92,4.774Z" style="fill:#c6821f;fill-rule:nonzero;"/><path d="M61.01,10.237c-1.91,-3.44 -4.96,-5.441 -7.53,-6.589c-0.04,-0.487 -0.09,-0.952 -0.12,-1.363c0.57,-1.363 1.58,-2.285 2.74,-2.285c0.1,0 0.21,0.009 0.32,0.024c1.62,0.24 2.9,2.28 2.92,4.774c0.01,0.021 0.01,0.042 0.01,0.063l-0.02,0.162l0.02,0c1.45,0 2.64,1.31 2.64,2.944l0,0.076c-0.02,0.884 -0.4,1.672 -0.98,2.194Z" style="fill:#993b11;fill-rule:nonzero;"/><path d="M34.52,201.998l-12.35,32.678" style="fill:none;fill-rule:nonzero;"/><path d="M23.94,235.337l-3.53,-1.31l12.34,-32.71l3.53,1.343l-12.34,32.677Z" style="fill:#080d00;fill-rule:nonzero;"/><path d="M72.49,201.847l12.33,32.689" style="fill:none;fill-rule:nonzero;"/><path d="M83.06,235.196l-12.33,-32.678l3.51,-1.331l12.35,32.688l-3.53,1.321Z" style="fill:#080d00;fill-rule:nonzero;"/><path d="M33.02,201.317l-12.34,32.71" style="fill:none;fill-rule:nonzero;"/><path d="M22.45,234.676l-3.52,-1.32l12.33,-32.699l3.53,1.341l-12.34,32.678Z" style="fill:#4d2500;fill-rule:nonzero;"/><path d="M71.28,202.258l12.33,32.678" style="fill:none;fill-rule:nonzero;"/><path d="M81.86,235.607l-12.34,-32.688l3.52,-1.321l12.34,32.678l-3.52,1.331Z" style="fill:#4d2500;fill-rule:nonzero;"/></g></g></g></svg>