<?xml version="1.0" encoding="UTF-8" standalone="no"?><!DOCTYPE svg PUBLIC "-//W3C//DTD SVG 1.1//EN" "http://www.w3.org/Graphics/SVG/1.1/DTD/svg11.dtd"><svg width="100%" height="100%" viewBox="0 0 167 217" version="1.1" xmlns="http://www.w3.org/2000/svg" xmlns:xlink="http://www.w3.org/1999/xlink" xml:space="preserve" xmlns:serif="http://www.serif.com/" style="fill-rule:evenodd;clip-rule:evenodd;stroke-linejoin:round;stroke-miterlimit:2;"><g><g><g><path d="M81.026,7.93l0.021,202.55c-0,1.15 0.932,2.08 2.081,2.08c1.149,-0 2.08,-0.94 2.08,-2.08l-0.022,-202.55c-0,-1.15 -0.931,-2.08 -2.08,-2.08c-1.149,0 -2.08,0.93 -2.08,2.08Z" style="fill:#636466;fill-rule:nonzero;"/><path d="M0,38.91c0,16.34 37.212,29.61 83.106,29.61c45.909,-0 83.12,-13.27 83.12,-29.61c0,-16.37 -37.211,-29.63 -83.12,-29.63c-45.894,-0 -83.106,13.26 -83.106,29.63Z" style="fill:#c19344;fill-rule:nonzero;"/><path d="M162.136,37.55c-0,11.91 -20.65,22.08 -49.85,26.26c-9.11,1.3 -19.07,2.01 -29.477,2.01c-43.821,-0 -79.345,-12.65 -79.345,-28.27c-0,-15.62 35.524,-28.27 79.345,-28.27c24.677,-0 46.747,4.02 61.297,10.34c11.26,4.87 18.03,11.12 18.03,17.93Z" style="fill:#dfa84e;fill-rule:nonzero;"/><path d="M112.286,63.81c4.11,-2.76 7.72,-5.6 10.89,-8.48c1.58,-0.43 3.109,-0.89 4.56,-1.37c3.63,-1.21 6.82,-2.55 9.49,-4.02c12.2,-3.97 20.96,-9.26 24.51,-15.24c0.26,0.94 0.4,1.89 0.4,2.85c-0,11.91 -20.65,22.08 -49.85,26.26Zm11.45,-9c0.61,-0.56 1.21,-1.13 1.789,-1.71c3.451,-0.76 6.711,-1.62 9.781,-2.55c-3.25,1.59 -7.151,3.02 -11.57,4.26Z" style="fill:#e9b338;fill-rule:nonzero;"/><path d="M82.809,60.13c-23.697,0 -44.362,-4.29 -55.328,-10.7c0.592,0.21 1.193,0.41 1.803,0.6c2.495,1.3 5.414,2.51 8.692,3.6c11.465,3.8 27.322,6.15 44.833,6.15l0.037,-0c15.59,-0 29.86,-1.87 40.89,-4.97c-0.19,0.18 -0.37,0.35 -0.56,0.52c-10.98,3 -25.04,4.8 -40.367,4.8Z" style="fill:#e7bf80;fill-rule:nonzero;"/><path d="M123.176,55.33c0.19,-0.17 0.37,-0.34 0.56,-0.52c4.419,-1.24 8.32,-2.67 11.57,-4.26c0.65,-0.2 1.29,-0.41 1.92,-0.61c-2.67,1.47 -5.86,2.81 -9.49,4.02c-1.451,0.48 -2.98,0.94 -4.56,1.37Z" style="fill:#f0c775;fill-rule:nonzero;"/><path d="M42.544,41.82c0,9.07 18.168,16.44 40.562,16.44c22.42,-0 40.57,-7.37 40.57,-16.44c-0,-9.08 -18.15,-16.43 -40.57,-16.43c-22.394,-0 -40.562,7.35 -40.562,16.43Z" style="fill:#c89846;fill-rule:nonzero;"/><path d="M59.673,34.2c-0,5.9 10.488,10.68 23.433,10.68c12.96,0 23.45,-4.78 23.45,-10.68c-0,-5.9 -10.49,-10.69 -23.45,-10.69c-12.945,-0 -23.433,4.79 -23.433,10.69Z" style="fill:#dea84e;fill-rule:nonzero;"/><path d="M163.486,28.71c0,15.86 -35.99,28.71 -80.38,28.71c-44.378,-0 -80.368,-12.85 -80.368,-28.71c-0,-15.86 35.99,-28.71 80.368,-28.71c44.39,0 80.38,12.85 80.38,28.71Z" style="fill:#c19344;fill-rule:nonzero;"/><path d="M81.583,129.95l-60.657,67.26c-0.77,0.85 -0.702,2.17 0.151,2.94c0.853,0.77 2.169,0.7 2.938,-0.15l60.657,-67.26c0.77,-0.86 0.702,-2.17 -0.151,-2.94c-0.853,-0.77 -2.169,-0.7 -2.938,0.15Z" style="fill:#636466;fill-rule:nonzero;"/><path d="M81.583,132.74l60.663,67.26c0.76,0.85 2.08,0.92 2.93,0.15c0.86,-0.77 0.92,-2.09 0.15,-2.94l-60.654,-67.26c-0.769,-0.85 -2.084,-0.92 -2.937,-0.15c-0.854,0.77 -0.921,2.08 -0.152,2.94Z" style="fill:#636466;fill-rule:nonzero;"/><path d="M55.396,162.21l26.399,22.02c0.771,0.65 1.894,0.65 2.665,0.01l26.406,-22.03c0.88,-0.74 1,-2.05 0.27,-2.93c-0.74,-0.88 -2.05,-1 -2.93,-0.27l-25.078,20.92l-25.067,-20.92c-0.882,-0.73 -2.194,-0.61 -2.93,0.27c-0.736,0.88 -0.617,2.19 0.265,2.93Z" style="fill:#636466;fill-rule:nonzero;"/><path d="M16.831,204.07l8.691,-0l-0,-8.86l-8.691,8.86Z" style="fill:#24282a;fill-rule:nonzero;"/><path d="M16.831,204.07l-0,2.08l8.691,-0c0.548,-0 1.084,-0.22 1.471,-0.61c0.387,-0.39 0.609,-0.92 0.609,-1.47l-0,-8.86c-0,-0.84 -0.508,-1.6 -1.293,-1.92c-0.784,-0.32 -1.678,-0.14 -2.271,0.47l-8.692,8.85c-0.585,0.6 -0.756,1.49 -0.433,2.26c0.323,0.77 1.083,1.28 1.918,1.28l-0,-2.08l1.484,1.46l5.127,-5.23l-0,1.69l-6.611,-0l-0,2.08l1.484,1.46l-1.484,-1.46Z" style="fill:#24282a;fill-rule:nonzero;"/><path d="M149.396,203.03l-8.69,-0l-0,-8.85l8.69,8.85Z" style="fill:#24282a;fill-rule:nonzero;"/><path d="M149.396,203.03l-0,-2.08l-6.61,-0l-0,-1.69l5.12,5.23l1.49,-1.46l-0,-2.08l-0,2.08l1.48,-1.46l-8.69,-8.85c-0.59,-0.61 -1.49,-0.79 -2.27,-0.47c-0.79,0.32 -1.29,1.08 -1.29,1.93l0,8.85c0,0.55 0.22,1.08 0.6,1.47c0.39,0.39 0.929,0.61 1.48,0.61l8.69,-0c0.83,-0 1.59,-0.51 1.92,-1.27c0.32,-0.77 0.15,-1.67 -0.44,-2.27l-1.48,1.46Z" style="fill:#24282a;fill-rule:nonzero;"/><path d="M87.1,212.31c-0,2.14 -1.736,3.9 -3.884,3.9c-2.161,-0 -3.898,-1.76 -3.898,-3.9l-0,-6.75c-0,-2.14 1.737,-3.88 3.898,-3.88c2.148,-0 3.884,1.74 3.884,3.88l-0,6.75Z" style="fill:#24282a;fill-rule:nonzero;"/><path d="M160.136,27.4c-0,10.44 -16.34,19.52 -40.38,24.15c-10.82,2.08 -23.19,3.27 -36.346,3.27c-42.366,-0 -76.716,-12.28 -76.716,-27.42c-0,-6.29 5.938,-12.09 15.928,-16.71c14.028,-6.51 36.039,-10.69 60.788,-10.69c42.375,-0 76.726,12.27 76.726,27.4Z" style="fill:#dfa84e;fill-rule:nonzero;"/><path d="M83.41,46.46c-10.004,-0 -19.448,-0.79 -27.798,-2.2c-0.505,-0.21 -0.999,-0.41 -1.491,-0.62c8.701,1.58 18.681,2.47 29.289,2.47l0.036,-0c25.38,-0 47.17,-5.14 56.41,-12.42c3.09,-2.42 4.76,-5.06 4.76,-7.81c0,-2.74 -1.67,-5.38 -4.76,-7.8c-3.081,-2.42 -7.56,-4.62 -13.1,-6.46c-11.08,-3.68 -26.41,-5.97 -43.346,-5.97l-0.036,-0c-25.375,-0 -47.164,5.15 -56.41,12.43c-0.378,0.29 -0.734,0.59 -1.069,0.9c-0.055,-0.11 -0.108,-0.22 -0.162,-0.32c0.321,-0.29 0.66,-0.57 1.017,-0.85c3.13,-2.46 7.641,-4.67 13.208,-6.52c11.132,-3.7 26.491,-5.98 43.452,-5.98c25.446,-0 47.276,5.13 56.666,12.5c3.13,2.45 4.89,5.18 4.89,8.07c0,2.9 -1.76,5.63 -4.89,8.09c-3.13,2.46 -7.64,4.66 -13.21,6.51c-11.13,3.7 -26.49,5.98 -43.456,5.98Z" style="fill:#e7bf80;fill-rule:nonzero;"/><path d="M83.41,38.23c-20.895,-0 -38.806,-3.63 -46.52,-8.86c-2.569,-1.74 -4.031,-3.68 -4.035,-5.77c0.004,-2.08 1.466,-4.03 4.035,-5.77c2.573,-1.74 6.276,-3.31 10.846,-4.62c9.138,-2.62 21.745,-4.24 35.674,-4.25c20.896,0.01 38.816,3.64 46.536,8.87c2.569,1.74 4.03,3.69 4.03,5.77c0,2.09 -1.461,4.03 -4.03,5.77c-2.58,1.75 -6.28,3.31 -10.85,4.62c-9.14,2.63 -21.76,4.24 -35.686,4.24Zm-0.037,-28.92c-20.833,-0 -38.712,3.66 -46.288,8.81c-2.529,1.71 -3.886,3.57 -3.883,5.48c-0.003,1.91 1.354,3.77 3.883,5.49c2.524,1.71 6.199,3.26 10.746,4.57c9.095,2.61 21.678,4.23 35.579,4.23l0.037,-0c20.839,-0 38.719,-3.65 46.299,-8.8c2.529,-1.72 3.889,-3.58 3.889,-5.49c-0,-1.91 -1.36,-3.77 -3.889,-5.48c-2.52,-1.72 -6.2,-3.27 -10.75,-4.58c-9.1,-2.61 -21.68,-4.23 -35.586,-4.23l-0.037,-0Z" style="fill:#e7bf80;fill-rule:nonzero;"/><path d="M122.456,19.71c-0,8.8 -18.16,15.95 -40.562,15.95c-22.405,0 -40.573,-7.15 -40.573,-15.95c-0,-8.8 18.168,-15.94 40.573,-15.94c22.402,-0 40.562,7.14 40.562,15.94Z" style="fill:#dd994c;fill-rule:nonzero;"/><path d="M105.326,12.33c-0,5.73 -10.49,10.36 -23.432,10.36c-12.945,0 -23.439,-4.63 -23.439,-10.36c-0,-5.71 10.494,-10.35 23.439,-10.35c12.942,-0 23.432,4.64 23.432,10.35Z" style="fill:#dea84e;fill-rule:nonzero;"/><path d="M85.49,12.33l-0,-8.56c-0,-1.15 -0.931,-2.08 -2.08,-2.08c-1.149,0 -2.08,0.93 -2.08,2.08l-0,8.56c-0,1.15 0.931,2.08 2.08,2.08c1.149,0 2.08,-0.93 2.08,-2.08Z" style="fill:#636466;fill-rule:nonzero;"/><path d="M83.41,54.82c-42.366,-0 -76.716,-12.28 -76.716,-27.42c-0,-6.29 5.938,-12.09 15.928,-16.71c0.733,2.54 1.74,5.23 3.111,7.97c-2.491,2.23 -3.874,4.66 -3.875,7.22c0.002,2.9 1.763,5.63 4.891,8.09c5.697,4.47 15.977,8.11 28.863,10.29c11.843,4.73 27.653,7.79 48.724,7.79c4.85,-0 9.99,-0.16 15.42,-0.5c-10.82,2.08 -23.19,3.27 -36.346,3.27Zm-29.289,-11.18c-5.185,-0.93 -9.916,-2.11 -14.054,-3.49c-5.542,-1.84 -10.021,-4.03 -13.103,-6.46c-3.086,-2.42 -4.76,-5.06 -4.759,-7.81c-0,-2.4 1.289,-4.73 3.69,-6.9c4.535,8.87 12.929,18.19 28.226,24.66Z" style="fill:#e9b338;fill-rule:nonzero;"/><path d="M55.612,44.26c-12.886,-2.18 -23.166,-5.82 -28.863,-10.29c-3.128,-2.46 -4.889,-5.19 -4.891,-8.09c0.001,-2.56 1.384,-4.99 3.875,-7.22c0.054,0.1 0.107,0.21 0.162,0.32c-2.401,2.17 -3.69,4.5 -3.69,6.9c-0.001,2.75 1.673,5.39 4.759,7.81c3.082,2.43 7.561,4.62 13.103,6.46c4.138,1.38 8.869,2.56 14.054,3.49c0.492,0.21 0.986,0.41 1.491,0.62Z" style="fill:#efc566;fill-rule:nonzero;"/><path d="M79.318,105.3l7.782,-0c1.149,-0 2.08,-0.93 2.08,-2.08c-0,-1.15 -0.931,-2.08 -2.08,-2.08l-7.782,-0c-1.149,-0 -2.08,0.93 -2.08,2.08c-0,1.15 0.931,2.08 2.08,2.08Z" style="fill:#24282a;fill-rule:nonzero;"/></g></g></g></svg>