<?xml version="1.0" encoding="UTF-8" standalone="no"?><!DOCTYPE svg PUBLIC "-//W3C//DTD SVG 1.1//EN" "http://www.w3.org/Graphics/SVG/1.1/DTD/svg11.dtd"><svg width="100%" height="100%" viewBox="0 0 217 206" version="1.1" xmlns="http://www.w3.org/2000/svg" xmlns:xlink="http://www.w3.org/1999/xlink" xml:space="preserve" xmlns:serif="http://www.serif.com/" style="fill-rule:evenodd;clip-rule:evenodd;stroke-linejoin:round;stroke-miterlimit:2;"><g><g><g><path d="M216.21,123.7c0,3.81 -0.48,7.52 -1.35,11.07l-0,65.65c-0,2.95 -2.4,5.35 -5.36,5.35l-204.13,-0c-1.48,-0 -2.82,-0.59 -3.79,-1.56c-0.97,-0.98 -1.57,-2.31 -1.57,-3.79l0,-66.08c0,-0.16 -0.01,-0.32 -0.01,-0.45l-0,-87.36c-0,-19.41 16.63,-36.05 40.27,-43.03c7.63,-2.26 16.01,-3.5 24.78,-3.5c35.92,-0 65.05,20.83 65.05,46.53l-0,30.64l39.57,-0c25.69,-0 46.54,20.83 46.54,46.53Z" style="fill:#200000;fill-rule:nonzero;"/><path d="M95.87,205.77l-90.5,-0c-1.48,-0 -2.82,-0.59 -3.79,-1.56c-0.96,-0.98 -1.57,-2.31 -1.57,-3.79l0,-73.54c11.46,18.68 41.32,58.89 95.86,78.89Z" style="fill:#1c1f21;fill-rule:nonzero;"/><rect x="6.42" y="139.83" width="196.87" height="57.09" style="fill:#c9cacc;fill-rule:nonzero;"/><rect x="6.42" y="142.79" width="13.29" height="54.13" style="fill:#b7b9bc;fill-rule:nonzero;"/><rect x="6.42" y="139.83" width="13.29" height="54.14" style="fill:#fff;fill-rule:nonzero;"/><rect x="20.57" y="142.79" width="13.28" height="54.13" style="fill:#b7b9bc;fill-rule:nonzero;"/><rect x="20.57" y="139.83" width="13.28" height="54.14" style="fill:#fff;fill-rule:nonzero;"/><rect x="35.21" y="142.79" width="13.29" height="54.13" style="fill:#b7b9bc;fill-rule:nonzero;"/><rect x="35.21" y="139.83" width="13.29" height="54.14" style="fill:#fff;fill-rule:nonzero;"/><rect x="49.52" y="142.79" width="13.28" height="54.13" style="fill:#b7b9bc;fill-rule:nonzero;"/><rect x="49.52" y="139.83" width="13.28" height="54.14" style="fill:#fff;fill-rule:nonzero;"/><rect x="63.97" y="142.79" width="13.29" height="54.13" style="fill:#b7b9bc;fill-rule:nonzero;"/><rect x="63.97" y="139.83" width="13.3" height="54.14" style="fill:#fff;fill-rule:nonzero;"/><rect x="78.43" y="142.79" width="13.28" height="54.13" style="fill:#b7b9bc;fill-rule:nonzero;"/><rect x="78.43" y="139.83" width="13.28" height="54.14" style="fill:#fff;fill-rule:nonzero;"/><rect x="92.82" y="142.79" width="13.29" height="54.13" style="fill:#b7b9bc;fill-rule:nonzero;"/><rect x="92.82" y="139.83" width="13.29" height="54.14" style="fill:#fff;fill-rule:nonzero;"/><rect x="107.28" y="142.79" width="13.3" height="54.13" style="fill:#b7b9bc;fill-rule:nonzero;"/><rect x="107.27" y="139.83" width="13.31" height="54.14" style="fill:#fff;fill-rule:nonzero;"/><rect x="122.11" y="142.79" width="13.29" height="54.13" style="fill:#b7b9bc;fill-rule:nonzero;"/><rect x="122.11" y="139.83" width="13.29" height="54.14" style="fill:#fff;fill-rule:nonzero;"/><rect x="136.56" y="142.79" width="13.3" height="54.13" style="fill:#b7b9bc;fill-rule:nonzero;"/><rect x="136.56" y="139.83" width="13.3" height="54.14" style="fill:#fff;fill-rule:nonzero;"/><rect x="150.9" y="142.79" width="13.3" height="54.13" style="fill:#b7b9bc;fill-rule:nonzero;"/><rect x="150.91" y="139.83" width="13.29" height="54.14" style="fill:#fff;fill-rule:nonzero;"/><rect x="165.37" y="142.79" width="13.28" height="54.13" style="fill:#b7b9bc;fill-rule:nonzero;"/><rect x="165.37" y="139.83" width="13.28" height="54.14" style="fill:#fff;fill-rule:nonzero;"/><rect x="179.51" y="142.79" width="13.29" height="54.13" style="fill:#b7b9bc;fill-rule:nonzero;"/><rect x="179.51" y="139.83" width="13.29" height="54.14" style="fill:#fff;fill-rule:nonzero;"/><rect x="193.97" y="142.79" width="13.29" height="54.13" style="fill:#b7b9bc;fill-rule:nonzero;"/><rect x="193.97" y="139.83" width="13.29" height="54.14" style="fill:#fff;fill-rule:nonzero;"/><path d="M19.71,193.97l-13.29,-0l0,-38.29c1.64,3.79 4.69,7.93 10.08,11.96l0,2.83l0.01,-0l0,2.39l3.2,-0l0,21.11Z" style="fill:#d0d2d3;fill-rule:nonzero;"/><path d="M33.85,193.97l-13.28,-0l0,-21.11l2.33,-0l0,-1.12c3.11,1.71 6.74,3.38 10.95,4.98l-0,17.25Z" style="fill:#d0d2d3;fill-rule:nonzero;"/><path d="M48.5,193.97l-13.29,-0l0,-16.76c3.92,1.44 8.33,2.78 13.29,4.05l0,12.71Z" style="fill:#d0d2d3;fill-rule:nonzero;"/><path d="M62.8,193.97l-13.28,-0l0,-12.47c4.06,1 8.48,1.94 13.28,2.8l0,9.67Z" style="fill:#d0d2d3;fill-rule:nonzero;"/><path d="M77.27,193.97l-13.3,-0l-0,-9.47c4.14,0.71 8.57,1.38 13.3,1.98l0,7.49Z" style="fill:#d0d2d3;fill-rule:nonzero;"/><path d="M91.71,193.97l-13.28,-0l0,-7.34c4.19,0.51 8.61,0.96 13.28,1.36l0,5.98Z" style="fill:#d0d2d3;fill-rule:nonzero;"/><path d="M106.11,193.97l-13.29,-0l0,-5.87c4.24,0.36 8.66,0.65 13.29,0.92l-0,4.95Z" style="fill:#d0d2d3;fill-rule:nonzero;"/><path d="M120.58,193.97l-13.31,-0l0,-4.89c4.26,0.21 8.7,0.41 13.31,0.54l0,4.35Z" style="fill:#d0d2d3;fill-rule:nonzero;"/><path d="M135.4,193.97l-13.29,-0l-0,-4.31c4.29,0.13 8.71,0.21 13.29,0.23l0,4.08Z" style="fill:#d0d2d3;fill-rule:nonzero;"/><path d="M149.86,193.97l-13.3,-0l0,-4.07c1.79,0.02 3.61,0.03 5.45,0.03c2.57,-0 5.18,-0.02 7.85,-0.05l-0,4.09Z" style="fill:#d0d2d3;fill-rule:nonzero;"/><path d="M164.2,193.97l-13.29,-0l0,-4.09c4.3,-0.05 8.73,-0.13 13.29,-0.26l0,4.35Z" style="fill:#d0d2d3;fill-rule:nonzero;"/><path d="M178.65,193.97l-13.28,-0l-0,-4.37c4.31,-0.13 8.74,-0.27 13.28,-0.45l0,4.82Z" style="fill:#d0d2d3;fill-rule:nonzero;"/><path d="M192.8,193.97l-13.29,-0l0,-4.86c4.33,-0.17 8.75,-0.38 13.29,-0.61l0,5.47Z" style="fill:#d0d2d3;fill-rule:nonzero;"/><path d="M207.26,193.97l-13.29,-0l-0,-5.52c4.33,-0.26 8.76,-0.49 13.29,-0.79l0,6.31Z" style="fill:#d0d2d3;fill-rule:nonzero;"/><rect x="16.51" y="140.43" width="6.39" height="32.43" style="fill:#4f4b4a;fill-rule:nonzero;"/><rect x="16.5" y="138.04" width="6.4" height="32.43" style="fill:#282525;fill-rule:nonzero;"/><rect x="21.69" y="138.04" width="0.39" height="32.43" style="fill:#e6e7e8;fill-rule:nonzero;"/><path d="M22.9,170.47l-6.39,-0l6.39,-0Z" style="fill:#252526;fill-rule:nonzero;"/><path d="M22.9,170.47l-0.82,-0l0,-3.53c0.26,0.54 0.53,1.06 0.82,1.54l0,1.99Zm-1.21,-0l-5.19,-0l0,-32.43c0,-0 0.78,18.05 5.19,28.06l0,4.37Z" style="fill:#090909;fill-rule:nonzero;"/><path d="M22.08,170.47l-0.39,-0l0,-4.37c0.12,0.29 0.25,0.57 0.39,0.84l0,3.53Z" style="fill:#676b70;fill-rule:nonzero;"/><rect x="30.66" y="140.43" width="6.39" height="32.43" style="fill:#4f4b4a;fill-rule:nonzero;"/><rect x="30.66" y="138.04" width="6.39" height="32.43" style="fill:#282525;fill-rule:nonzero;"/><rect x="35.84" y="138.04" width="0.39" height="32.43" style="fill:#e6e7e8;fill-rule:nonzero;"/><path d="M37.05,170.47l-6.39,-0l6.39,-0Z" style="fill:#252526;fill-rule:nonzero;"/><path d="M37.05,170.47l-0.82,-0l-0,-3.54c0.26,0.55 0.53,1.07 0.82,1.55l0,1.99Zm-1.21,-0l-5.18,-0l0,-32.43c0,-0 0.78,18.05 5.18,28.06l0,4.37Z" style="fill:#090909;fill-rule:nonzero;"/><path d="M36.23,170.47l-0.39,-0l0,-4.37c0.13,0.28 0.25,0.56 0.39,0.83l-0,3.54Z" style="fill:#676b70;fill-rule:nonzero;"/><rect x="59.61" y="140.43" width="6.39" height="32.43" style="fill:#4f4b4a;fill-rule:nonzero;"/><rect x="59.6" y="138.04" width="6.4" height="32.43" style="fill:#282525;fill-rule:nonzero;"/><rect x="64.78" y="138.04" width="0.39" height="32.43" style="fill:#e6e7e8;fill-rule:nonzero;"/><path d="M66,170.47l-6.39,-0l6.39,-0Z" style="fill:#252526;fill-rule:nonzero;"/><path d="M66,170.47l-0.83,-0l0,-3.54c0.27,0.55 0.54,1.07 0.83,1.55l0,1.99Zm-1.22,-0l-5.18,-0l-0,-32.43c-0,-0 0.78,18.03 5.18,28.05l0,4.38Z" style="fill:#090909;fill-rule:nonzero;"/><path d="M65.17,170.47l-0.39,-0l0,-4.38c0.13,0.29 0.26,0.57 0.39,0.84l0,3.54Z" style="fill:#676b70;fill-rule:nonzero;"/><rect x="75.24" y="140.43" width="6.39" height="32.43" style="fill:#4f4b4a;fill-rule:nonzero;"/><rect x="75.24" y="138.04" width="6.39" height="32.43" style="fill:#282525;fill-rule:nonzero;"/><rect x="80.41" y="138.04" width="0.39" height="32.43" style="fill:#e6e7e8;fill-rule:nonzero;"/><path d="M81.63,170.47l-6.39,-0l6.39,-0Z" style="fill:#252526;fill-rule:nonzero;"/><path d="M81.63,170.47l-0.83,-0l0,-3.54c0.27,0.55 0.54,1.07 0.83,1.55l0,1.99Zm-1.22,-0l-5.17,-0l-0,-32.43c-0,-0 0.78,18.04 5.17,28.05l0,4.38Z" style="fill:#090909;fill-rule:nonzero;"/><path d="M80.8,170.47l-0.39,-0l0,-4.38c0.13,0.29 0.26,0.57 0.39,0.84l0,3.54Z" style="fill:#676b70;fill-rule:nonzero;"/><rect x="89.64" y="140.43" width="6.39" height="32.43" style="fill:#4f4b4a;fill-rule:nonzero;"/><rect x="89.63" y="138.04" width="6.4" height="32.43" style="fill:#282525;fill-rule:nonzero;"/><rect x="94.82" y="138.04" width="0.38" height="32.43" style="fill:#e6e7e8;fill-rule:nonzero;"/><path d="M96.03,170.47l-6.39,-0l6.39,-0Z" style="fill:#252526;fill-rule:nonzero;"/><path d="M96.03,170.47l-0.83,-0l0,-3.54c0.26,0.55 0.54,1.07 0.83,1.55l0,1.99Zm-1.21,-0l-5.19,-0l0,-32.43c0,-0 0.78,18.05 5.19,28.06l0,4.37Z" style="fill:#090909;fill-rule:nonzero;"/><path d="M95.2,170.47l-0.38,-0l0,-4.37c0.12,0.29 0.25,0.56 0.38,0.83l0,3.54Z" style="fill:#676b70;fill-rule:nonzero;"/><rect x="117.38" y="140.43" width="6.4" height="32.43" style="fill:#4f4b4a;fill-rule:nonzero;"/><rect x="117.38" y="138.04" width="6.4" height="32.43" style="fill:#282525;fill-rule:nonzero;"/><rect x="122.56" y="138.04" width="0.38" height="32.43" style="fill:#e6e7e8;fill-rule:nonzero;"/><path d="M123.78,170.47l-6.4,-0l6.4,-0Z" style="fill:#252526;fill-rule:nonzero;"/><path d="M123.78,170.47l-0.84,-0l0,-3.55c0.27,0.55 0.55,1.07 0.84,1.56l0,1.99Zm-1.22,-0l-5.18,-0l0,-32.43c0,-0 0.77,18.04 5.18,28.06l0,4.37Z" style="fill:#090909;fill-rule:nonzero;"/><path d="M122.94,170.47l-0.38,-0l0,-4.37c0.13,0.28 0.25,0.55 0.38,0.82l0,3.55Z" style="fill:#676b70;fill-rule:nonzero;"/><rect x="132.21" y="140.43" width="6.4" height="32.43" style="fill:#4f4b4a;fill-rule:nonzero;"/><rect x="132.21" y="138.04" width="6.4" height="32.43" style="fill:#282525;fill-rule:nonzero;"/><rect x="137.39" y="138.04" width="0.39" height="32.43" style="fill:#e6e7e8;fill-rule:nonzero;"/><path d="M138.61,170.47l-6.4,-0l6.4,-0Z" style="fill:#252526;fill-rule:nonzero;"/><path d="M138.61,170.47l-0.83,-0l0,-3.55c0.26,0.55 0.54,1.07 0.83,1.56l-0,1.99Zm-1.22,-0l-5.18,-0l0,-32.43c0,-0 0.78,18.03 5.18,28.05l0,4.38Z" style="fill:#090909;fill-rule:nonzero;"/><path d="M137.78,170.47l-0.39,-0l0,-4.38c0.13,0.28 0.25,0.56 0.39,0.83l0,3.55Z" style="fill:#676b70;fill-rule:nonzero;"/><rect x="162.16" y="140.43" width="6.4" height="32.43" style="fill:#4f4b4a;fill-rule:nonzero;"/><rect x="162.16" y="138.04" width="6.4" height="32.43" style="fill:#282525;fill-rule:nonzero;"/><rect x="167.35" y="138.04" width="0.39" height="32.43" style="fill:#e6e7e8;fill-rule:nonzero;"/><path d="M168.56,170.47l-6.4,-0l6.4,-0Z" style="fill:#252526;fill-rule:nonzero;"/><path d="M168.56,170.47l-0.82,-0l-0,-3.53c0.26,0.55 0.53,1.06 0.82,1.54l0,1.99Zm-1.21,-0l-5.19,-0l0,-32.43c0,-0 0.79,18.06 5.19,28.07l-0,4.36Z" style="fill:#090909;fill-rule:nonzero;"/><path d="M167.74,170.47l-0.39,-0l-0,-4.36c0.13,0.28 0.26,0.56 0.39,0.83l-0,3.53Z" style="fill:#676b70;fill-rule:nonzero;"/><rect x="176.31" y="140.43" width="6.4" height="32.43" style="fill:#4f4b4a;fill-rule:nonzero;"/><rect x="176.31" y="138.04" width="6.4" height="32.43" style="fill:#282525;fill-rule:nonzero;"/><rect x="181.5" y="138.04" width="0.39" height="32.43" style="fill:#e6e7e8;fill-rule:nonzero;"/><path d="M182.71,170.47l-6.4,-0l6.4,-0Z" style="fill:#252526;fill-rule:nonzero;"/><path d="M182.71,170.47l-0.82,-0l0,-3.52c0.26,0.54 0.54,1.05 0.82,1.53l0,1.99Zm-1.21,-0l-5.19,-0l0,-32.43c0,-0 0.79,18.06 5.19,28.07l0,4.36Z" style="fill:#090909;fill-rule:nonzero;"/><path d="M181.89,170.47l-0.39,-0l-0,-4.36c0.13,0.29 0.26,0.56 0.39,0.84l0,3.52Z" style="fill:#676b70;fill-rule:nonzero;"/><rect x="189.61" y="140.43" width="6.4" height="32.43" style="fill:#4f4b4a;fill-rule:nonzero;"/><rect x="189.6" y="138.04" width="6.41" height="32.43" style="fill:#282525;fill-rule:nonzero;"/><rect x="194.79" y="138.04" width="0.38" height="32.43" style="fill:#e6e7e8;fill-rule:nonzero;"/><path d="M196.01,170.47l-6.4,-0l6.4,-0Z" style="fill:#252526;fill-rule:nonzero;"/><path d="M196.01,170.47l-0.84,-0l0,-3.55c0.27,0.55 0.55,1.07 0.84,1.56l0,1.99Zm-1.22,-0l-5.19,-0l-0,-32.43c-0,-0 0.79,18.04 5.19,28.05l0,4.38Z" style="fill:#090909;fill-rule:nonzero;"/><path d="M195.17,170.47l-0.38,-0l0,-4.38c0.13,0.28 0.25,0.56 0.38,0.83l0,3.55Z" style="fill:#676b70;fill-rule:nonzero;"/><path d="M207.36,139.4c-0,0.84 -0.67,1.52 -1.5,1.52l-198.01,-0c-0.83,-0 -1.5,-0.68 -1.5,-1.52c-0,-0.83 0.67,-1.5 1.5,-1.5l198.01,-0c0.83,-0 1.5,0.67 1.5,1.5Z" style="fill:#919396;fill-rule:nonzero;"/><rect x="0.01" y="126.88" width="214.85" height="23.63" style="fill:#200000;fill-rule:nonzero;"/><path d="M0.01,150.51l0,-103.98c0,-19.41 16.62,-36.05 40.26,-43.03c-0.31,31.61 8.05,91.86 70.8,123.38c18.91,9.52 42.76,16.42 72.81,19.14c12.31,1.11 22.55,2.63 30.98,4.49l-214.85,0Z" style="fill:#1c1f21;fill-rule:nonzero;"/></g></g></g></svg>