<?xml version="1.0" encoding="UTF-8" standalone="no"?><!DOCTYPE svg PUBLIC "-//W3C//DTD SVG 1.1//EN" "http://www.w3.org/Graphics/SVG/1.1/DTD/svg11.dtd"><svg width="100%" height="100%" viewBox="0 0 217 202" version="1.1" xmlns="http://www.w3.org/2000/svg" xmlns:xlink="http://www.w3.org/1999/xlink" xml:space="preserve" xmlns:serif="http://www.serif.com/" style="fill-rule:evenodd;clip-rule:evenodd;stroke-linejoin:round;stroke-miterlimit:2;"><g><g><g><path d="M208.565,129.186c-10.17,10.174 -26.67,10.174 -36.846,0c-10.167,-10.175 -10.167,-26.671 -0,-36.856c10.176,-10.175 26.676,-10.175 36.846,0c10.18,10.185 10.18,26.681 -0,36.856Z" style="fill:#dd995e;fill-rule:nonzero;"/><path d="M162.589,75.106c-4.678,-0.953 -9.138,-3.243 -12.766,-6.871c-3.727,-3.731 -6.042,-8.337 -6.946,-13.154c2.719,1.745 5.296,3.692 7.709,5.818c3.194,2.824 6.102,5.96 8.676,9.362c-1.503,0.659 -3.115,1.199 -4.849,1.601c2.549,1.574 5.318,2.652 8.169,3.234c0.002,0.002 0.005,0.007 0.007,0.01Zm30.246,-24.689c-0.001,-6.448 -2.46,-12.895 -7.379,-17.815c-1.684,-1.674 -3.547,-3.076 -5.519,-4.187c1.978,1.105 3.838,2.498 5.519,4.177c4.92,4.926 7.379,11.375 7.379,17.825Zm-13.837,-13.708c-3.288,-2.732 -7.326,-4.098 -11.362,-4.098c-3.178,0 -6.356,0.847 -9.166,2.54c-2.216,-1.497 -4.498,-2.895 -6.849,-4.191c4.639,-3.826 10.329,-5.739 16.019,-5.739c4.084,0 8.167,0.986 11.862,2.956c0.003,0.098 0.091,3.569 -0.504,8.532Z" style="fill:#dd995f;fill-rule:nonzero;"/><path d="M118.948,51.835c2.55,-1.042 4.97,-2.491 7.166,-4.348l0.001,0c-2.195,1.857 -4.617,3.307 -7.167,4.348Zm-24.322,-2.002c-1.169,-0.721 -2.295,-1.54 -3.366,-2.457c3.951,-1.108 8.057,-1.844 12.279,-2.168c0.335,0.095 0.672,0.18 1.01,0.257c-2.814,1.962 -6.095,3.481 -9.923,4.368Zm40.891,-25.773c-0.628,-5.905 -3.205,-11.642 -7.731,-16.169c-1.922,-1.92 -4.063,-3.486 -6.344,-4.719c2.28,1.221 4.422,2.794 6.344,4.719c4.526,4.527 7.103,10.264 7.731,16.169Zm-53.53,-0.002c0.628,-5.904 3.204,-11.64 7.731,-16.167c5.26,-5.26 12.151,-7.891 19.039,-7.891c4.36,0 8.719,1.054 12.664,3.161c-0,0.025 0.104,3.751 -0.536,9.108c-3.508,-2.909 -7.82,-4.364 -12.131,-4.364c-4.868,0 -9.736,1.854 -13.451,5.561c-2.409,2.415 -4.034,5.314 -4.878,8.384c-2.868,0.601 -5.679,1.339 -8.438,2.208Z" style="fill:#dd995f;fill-rule:nonzero;"/><path d="M23.929,170.425c-0.267,-6.665 2.029,-13.414 6.89,-18.642c1.294,2.347 2.69,4.626 4.184,6.837c-1.208,1.651 -2.103,3.459 -2.687,5.342c-3.282,-3.98 -5.118,-7.024 -5.118,-7.024c-1.223,2.155 -2.133,4.547 -2.685,7.111c-0.467,2.142 -0.654,4.28 -0.584,6.376Zm50.748,-7.848c-6.163,-3.874 -11.616,-8.775 -16.116,-14.46c-0.996,-1.254 -1.945,-2.547 -2.844,-3.876c4.508,1.065 8.783,3.353 12.297,6.863c3.3,3.301 5.521,7.272 6.663,11.473Z" style="fill:#dd995f;fill-rule:nonzero;"/><path d="M24.272,136.774c-6.06,-0.417 -12.003,-2.943 -16.633,-7.578c-10.185,-10.174 -10.185,-26.681 -0,-36.877c4.332,-4.327 9.811,-6.812 15.462,-7.455c-0.638,2.276 -1.187,4.592 -1.644,6.937c-2.868,0.837 -5.572,2.384 -7.833,4.642c-2.51,2.514 -4.143,5.57 -4.9,8.79c-3.363,-4.065 -5.247,-7.188 -5.247,-7.188c-1.228,2.197 -2.143,4.6 -2.712,7.155c-3.068,14.082 5.857,27.968 19.939,31.032c1.19,0.258 2.38,0.43 3.561,0.521c0.002,0.005 0.005,0.015 0.007,0.021Zm22.193,-13.78c-0.839,-3.649 -1.364,-7.418 -1.547,-11.275c0.198,-1.613 0.183,-3.246 -0.046,-4.857c0.032,-1.127 0.094,-2.248 0.185,-3.352c0.107,-1.336 0.255,-2.661 0.442,-3.972c0.001,-0.002 0.001,-0.006 0.001,-0.008c0.005,-0.03 0.009,-0.059 0.013,-0.089c0.001,-0.002 0.001,-0.004 0.001,-0.006c0.004,-0.024 0.007,-0.048 0.011,-0.072c0.001,-0.01 0.002,-0.018 0.004,-0.027c0.003,-0.023 0.006,-0.046 0.01,-0.069c0.001,-0.008 0.002,-0.017 0.004,-0.025c0.002,-0.016 0.005,-0.034 0.007,-0.05c0.237,-1.592 0.532,-3.164 0.885,-4.715c6.36,7.95 7.399,18.751 3.117,27.624c-1.04,0.363 -2.067,0.659 -3.087,0.893Z" style="fill:#dd995f;fill-rule:nonzero;"/><path d="M61.553,71.104c-1.272,-0.295 -2.484,-0.663 -3.635,-1.096c1.65,-2.155 3.434,-4.202 5.341,-6.128c0.868,-0.876 1.76,-1.726 2.677,-2.55c2.224,-2 4.588,-3.844 7.077,-5.518c-1.153,4.223 -3.389,8.214 -6.708,11.536c-1.472,1.461 -3.069,2.717 -4.752,3.756Zm-39.725,-22.176c-0,-6.662 2.542,-13.322 7.626,-18.404c1.879,-1.872 3.945,-3.399 6.154,-4.578c3.825,-2.04 8.05,-3.061 12.272,-3.061c6.666,0 13.329,2.543 18.425,7.639c0.044,0.044 0.087,0.087 0.13,0.131c-2.337,1.267 -4.611,2.635 -6.815,4.099c-3.399,-2.82 -7.571,-4.23 -11.742,-4.23c-4.176,0 -8.351,1.413 -11.749,4.238c-0.624,-5.202 -0.521,-8.816 -0.521,-8.816c-2.209,1.179 -4.275,2.706 -6.154,4.578c-5.084,5.082 -7.626,11.742 -7.626,18.404Z" style="fill:#dd995f;fill-rule:nonzero;"/><path d="M55.132,73.949c0.88,-1.35 1.809,-2.665 2.786,-3.941c1.151,0.433 2.363,0.801 3.635,1.096c-2.026,1.252 -4.19,2.201 -6.421,2.845Zm-25.252,-6.185c-0.144,-0.137 -0.285,-0.275 -0.426,-0.416c-5.084,-5.093 -7.626,-11.758 -7.626,-18.42c-0,-6.662 2.542,-13.322 7.626,-18.404c1.879,-1.872 3.945,-3.399 6.154,-4.578c-0,0 -0.103,3.614 0.521,8.816c-0.434,0.361 -0.856,0.745 -1.263,1.153c-6.837,6.852 -7.165,17.727 -0.985,24.964c-1.432,2.228 -2.769,4.527 -4.001,6.885Z" style="fill:#e8ab7a;fill-rule:nonzero;"/><path d="M108.747,53.836c-4.903,-0.001 -9.809,-1.333 -14.127,-4.001c0.002,-0.001 0.004,-0.001 0.006,-0.002c4.318,2.665 9.225,3.998 14.131,3.998c3.467,0 6.933,-0.665 10.191,-1.996c-3.262,1.334 -6.731,2.001 -10.201,2.001Zm12.695,-50.664c-0.007,-0.004 -0.014,-0.007 -0.021,-0.011c0.007,0.004 0.014,0.007 0.021,0.011Z" style="fill:#fee7d7;fill-rule:nonzero;"/><path d="M108.757,53.831c-4.906,0 -9.813,-1.333 -14.131,-3.998c3.828,-0.887 7.109,-2.406 9.923,-4.368c1.383,0.311 2.794,0.467 4.205,0.467c1.715,0 3.43,-0.23 5.095,-0.691c4.218,0.351 8.32,1.113 12.265,2.246c-2.196,1.857 -4.616,3.306 -7.166,4.348c-3.258,1.331 -6.724,1.996 -10.191,1.996Zm26.76,-29.771c-2.753,-0.868 -5.57,-1.608 -8.432,-2.208c-0.845,-3.07 -2.473,-5.971 -4.885,-8.386c-0.424,-0.423 -0.863,-0.822 -1.315,-1.197c0.64,-5.357 0.536,-9.083 0.536,-9.108c0.007,0.004 0.014,0.007 0.021,0.011c2.281,1.233 4.422,2.799 6.344,4.719c4.526,4.527 7.103,10.264 7.731,16.169Z" style="fill:#e8ab7a;fill-rule:nonzero;"/><path d="M186.978,66.572c-0.001,-0.002 0.001,0.001 -0,-0.001c3.904,-4.667 5.856,-10.411 5.857,-16.154c-0,5.745 -1.952,11.491 -5.857,16.155Zm-7.041,-38.157c-0.144,-0.081 -0.289,-0.16 -0.435,-0.238l-0,-0.002c0.146,0.078 0.291,0.158 0.435,0.24Z" style="fill:#fee7d7;fill-rule:nonzero;"/><path d="M162.582,75.096c-2.851,-0.582 -5.62,-1.66 -8.169,-3.234c1.734,-0.402 3.346,-0.942 4.849,-1.601c1.179,1.558 2.287,3.17 3.32,4.835Zm24.396,-8.525c-1.279,-2.359 -2.665,-4.659 -4.145,-6.883c4.194,-6.859 3.325,-15.936 -2.606,-21.857c-0.396,-0.397 -0.807,-0.771 -1.229,-1.122c0.595,-4.963 0.507,-8.434 0.504,-8.532c0.146,0.078 0.291,0.157 0.435,0.238c1.972,1.111 3.835,2.513 5.519,4.187c4.919,4.92 7.378,11.367 7.379,17.815c-0.001,5.743 -1.953,11.487 -5.857,16.154Z" style="fill:#e8ab7a;fill-rule:nonzero;"/><path d="M193.135,137.031c0.045,-0.134 0.088,-0.266 0.132,-0.401c5.593,-0.671 11.008,-3.152 15.298,-7.444c5.041,-5.038 7.585,-11.628 7.634,-18.232c0.05,6.733 -2.495,13.48 -7.634,18.61c-4.324,4.327 -9.791,6.817 -15.43,7.467Z" style="fill:#fee7d7;fill-rule:nonzero;"/><path d="M193.267,136.63c0.999,-3.048 1.838,-6.167 2.507,-9.351c2.873,-0.837 5.581,-2.388 7.844,-4.654c7.193,-7.186 7.193,-18.834 -0,-26.02c-0.493,-0.493 -1.008,-0.953 -1.541,-1.379c0.411,-4.243 0.33,-7.064 0.33,-7.064c2.219,1.169 4.285,2.696 6.158,4.557c5.041,5.038 7.585,11.63 7.634,18.235c-0.049,6.604 -2.593,13.194 -7.634,18.232c-4.29,4.292 -9.705,6.773 -15.298,7.444Z" style="fill:#e8ab7a;fill-rule:nonzero;"/><path d="M47.28,126.158c-0.016,-0.055 -0.031,-0.11 -0.047,-0.165c0.896,-1.241 1.669,-2.545 2.319,-3.892c0.066,-0.023 0.133,-0.047 0.198,-0.07c-0.7,1.464 -1.529,2.844 -2.47,4.127Z" style="fill:#fee7d7;fill-rule:nonzero;"/><path d="M24.265,136.753c-1.181,-0.091 -2.371,-0.263 -3.561,-0.521c-14.082,-3.064 -23.007,-16.95 -19.939,-31.032c0.569,-2.555 1.484,-4.958 2.712,-7.155c-0,0 1.884,3.123 5.247,7.188c-1.41,6.002 0.223,12.572 4.9,17.242c2.325,2.329 5.119,3.904 8.077,4.726c0.681,3.255 1.538,6.439 2.564,9.552Zm22.968,-10.76c-0.28,-0.99 -0.535,-1.99 -0.768,-2.999c1.02,-0.234 2.047,-0.53 3.087,-0.893c-0.65,1.347 -1.423,2.651 -2.319,3.892Z" style="fill:#e8ab7a;fill-rule:nonzero;"/><path d="M49.796,195.379c-1.825,0 -3.677,-0.195 -5.534,-0.6c-11.802,-2.565 -19.951,-12.819 -20.333,-24.354c0.25,6.263 2.765,12.452 7.545,17.232c5.044,5.044 11.657,7.566 18.27,7.566c6.521,0 13.042,-2.452 18.059,-7.357c0.037,0.02 0.075,0.039 0.112,0.059c-4.747,4.682 -11.233,7.454 -18.119,7.454Z" style="fill:#fee7d7;fill-rule:nonzero;"/><path d="M49.744,195.223c-6.613,0 -13.226,-2.522 -18.27,-7.566c-4.78,-4.78 -7.295,-10.969 -7.545,-17.232c-0.07,-2.096 0.117,-4.234 0.584,-6.376c0.552,-2.564 1.462,-4.956 2.685,-7.111c-0,0 1.836,3.044 5.118,7.024c-1.943,6.266 -0.434,13.371 4.527,18.325c3.56,3.567 8.233,5.35 12.906,5.35c3.928,0 7.856,-1.259 11.123,-3.778c2.245,1.436 4.554,2.773 6.931,4.007c-5.017,4.905 -11.538,7.357 -18.059,7.357Z" style="fill:#e8ab7a;fill-rule:nonzero;"/><path d="M57.556,181.63c-4.576,-1.055 -8.791,-3.174 -12.531,-5.748c0.543,-0.129 1.058,-0.403 1.483,-0.825l1.344,-1.344c3.041,2.858 6.284,5.505 9.704,7.917Zm-16.393,-8.685c-3.564,-2.974 -6.558,-6.207 -8.847,-8.983c0.584,-1.883 1.479,-3.691 2.687,-5.342c2.54,3.762 5.364,7.321 8.435,10.643l-1.357,1.357c-0.638,0.638 -0.945,1.486 -0.918,2.325Z" style="fill:#c56b37;fill-rule:nonzero;"/><path d="M49.749,187.637c-4.673,0 -9.346,-1.783 -12.906,-5.35c-4.961,-4.954 -6.47,-12.059 -4.527,-18.325c2.289,2.776 5.283,6.009 8.847,8.983c0.025,0.767 0.331,1.528 0.918,2.112c0.617,0.607 1.418,0.91 2.218,0.91c0.244,0 0.488,-0.028 0.726,-0.085c3.74,2.574 7.955,4.693 12.531,5.748c1.088,0.767 2.192,1.509 3.316,2.229c-3.267,2.519 -7.195,3.778 -11.123,3.778Z" style="fill:#ce743c;fill-rule:nonzero;"/><path d="M20.111,116.194c-4.682,-3.457 -8.558,-7.542 -11.387,-10.961c0.757,-3.22 2.39,-6.276 4.9,-8.79c2.261,-2.258 4.965,-3.805 7.833,-4.642c-0.885,4.542 -1.423,9.201 -1.588,13.961l-0.864,0c-1.739,0 -3.145,1.418 -3.145,3.129c-0,1.742 1.406,3.149 3.145,3.149l0.865,0c0.048,1.391 0.129,2.78 0.241,4.154Zm24.807,-4.475c-0.047,-1.013 -0.072,-2.031 -0.072,-3.056c-0,-0.601 0.009,-1.202 0.026,-1.801c0.229,1.611 0.244,3.244 0.046,4.857Z" style="fill:#c56b37;fill-rule:nonzero;"/><path d="M21.701,127.201c-2.958,-0.822 -5.752,-2.397 -8.077,-4.726c-4.677,-4.67 -6.31,-11.24 -4.9,-17.242c2.829,3.419 6.705,7.504 11.387,10.961c0.304,3.739 0.839,7.413 1.59,11.007Z" style="fill:#ce743c;fill-rule:nonzero;"/><path d="M40.479,51.901c-2.542,-5.996 -3.765,-12.265 -4.35,-17.139c3.398,-2.825 7.573,-4.238 11.749,-4.238c4.171,0 8.343,1.41 11.742,4.23c-4.083,2.711 -7.933,5.754 -11.504,9.084l-0.617,-0.617c-0.612,-0.612 -1.413,-0.917 -2.215,-0.917c-0.802,0 -1.605,0.305 -2.219,0.917c-1.222,1.223 -1.222,3.203 -0,4.427l0.621,0.621c-1.101,1.181 -2.171,2.393 -3.207,3.632Z" style="fill:#c56b37;fill-rule:nonzero;"/><path d="M33.881,60.879c-6.18,-7.237 -5.852,-18.112 0.985,-24.964c0.407,-0.408 0.829,-0.792 1.263,-1.153c0.585,4.874 1.808,11.143 4.35,17.139c-2.381,2.849 -4.584,5.845 -6.598,8.978Z" style="fill:#ce743c;fill-rule:nonzero;"/><path d="M104.549,45.465c-0.338,-0.077 -0.675,-0.162 -1.01,-0.257c0.472,-0.037 0.946,-0.068 1.421,-0.094l0.004,0c0.027,-0.001 0.055,-0.003 0.082,-0.004c-0.163,0.119 -0.33,0.238 -0.497,0.355Z" style="fill:#c56b37;fill-rule:nonzero;"/><path d="M108.754,45.932c-1.411,0 -2.822,-0.156 -4.205,-0.467c0.167,-0.117 0.334,-0.236 0.497,-0.355c0.034,-0.002 0.066,-0.004 0.099,-0.006l0.01,0c0.028,-0.002 0.057,-0.003 0.086,-0.004c0.002,-0.001 0.006,-0.001 0.008,-0.001c0.025,-0.001 0.052,-0.002 0.078,-0.004c0.006,0 0.015,0 0.021,-0.001c0.026,-0.001 0.052,-0.002 0.077,-0.003c0.006,-0.001 0.01,-0.001 0.016,-0.001c0.023,-0.001 0.049,-0.002 0.072,-0.004c0.008,0 0.02,0 0.028,-0.001c0.022,-0.001 0.044,-0.002 0.066,-0.003c0.01,0 0.019,-0.001 0.029,-0.001c0.022,-0.001 0.043,-0.002 0.065,-0.003c0.01,0 0.022,-0.001 0.032,-0.001c0.022,-0.001 0.044,-0.002 0.066,-0.003c0.008,0 0.019,-0.001 0.027,-0.001c0.022,-0.001 0.044,-0.002 0.065,-0.003c0.013,0 0.022,-0.001 0.034,-0.001c0.021,-0.001 0.042,-0.002 0.063,-0.003c0.01,0 0.021,0 0.031,-0.001c0.021,-0.001 0.042,-0.001 0.063,-0.002c0.012,-0.001 0.023,-0.001 0.036,-0.001c0.02,-0.001 0.04,-0.002 0.061,-0.003c0.012,0 0.019,0 0.031,-0.001c0.022,-0.001 0.042,-0.001 0.064,-0.002c0.012,0 0.023,-0.001 0.035,-0.001c0.02,-0.001 0.039,-0.002 0.059,-0.002c0.012,-0.001 0.025,-0.001 0.037,-0.001c0.019,-0.001 0.039,-0.002 0.057,-0.002c0.015,-0.001 0.028,-0.001 0.042,-0.001c0.018,-0.001 0.037,-0.002 0.055,-0.002c0.012,0 0.027,-0.001 0.039,-0.001c0.019,-0.001 0.037,-0.001 0.056,-0.002c0.014,0 0.029,-0.001 0.043,-0.001c0.018,-0.001 0.035,-0.001 0.053,-0.001c0.014,-0.001 0.028,-0.001 0.042,-0.002c0.018,0 0.036,-0.001 0.054,-0.001c0.014,0 0.03,-0.001 0.044,-0.001c0.017,-0.001 0.036,-0.001 0.053,-0.001c0.014,-0.001 0.026,-0.001 0.04,-0.001c0.018,-0.001 0.038,-0.001 0.055,-0.002c0.015,0 0.032,0 0.046,-0.001c0.016,0 0.034,0 0.049,-0.001c0.017,0 0.033,0 0.05,-0.001c0.014,0 0.031,0 0.046,-0.001c0.016,0 0.034,0 0.051,-0.001l0.047,0c0.014,-0.001 0.027,-0.001 0.041,-0.001c0.019,0 0.038,-0.001 0.057,-0.001c0.014,0 0.026,0 0.041,-0.001c0.017,0 0.036,0 0.054,-0.001l0.042,0c0.019,0 0.036,-0.001 0.055,-0.001c0.015,0 0.031,0 0.045,-0.001l0.05,0c0.02,0 0.037,-0.001 0.057,-0.001l0.037,0c0.023,0 0.047,-0.001 0.069,-0.001l0.028,0c0.023,0 0.047,0 0.069,-0.001l0.099,0c0.009,0 0.017,-0.001 0.026,-0.001l0.195,0c0.02,-0.001 0.037,-0.001 0.058,-0.001l0.136,0c1.806,0 3.595,0.075 5.363,0.223c-1.665,0.461 -3.38,0.691 -5.095,0.691Z" style="fill:#ce743c;fill-rule:nonzero;"/><path d="M90.425,21.85c0.844,-3.07 2.469,-5.969 4.878,-8.384c3.715,-3.707 8.583,-5.561 13.451,-5.561c4.311,0 8.623,1.455 12.131,4.364c-0.298,2.492 -0.756,5.336 -1.461,8.325c-3.5,-0.419 -7.061,-0.635 -10.673,-0.635c-6.281,0 -12.414,0.653 -18.326,1.891Z" style="fill:#c56b37;fill-rule:nonzero;"/><path d="M127.085,21.852c-2.517,-0.527 -5.071,-0.948 -7.661,-1.258c0.705,-2.989 1.163,-5.833 1.461,-8.325c0.452,0.375 0.891,0.774 1.315,1.197c2.412,2.415 4.04,5.316 4.885,8.386Z" style="fill:#ce743c;fill-rule:nonzero;"/><path d="M175.858,50.544c-5.092,-5.852 -10.941,-11.036 -17.388,-15.393c2.81,-1.693 5.988,-2.54 9.166,-2.54c4.036,0 8.074,1.366 11.362,4.098c-0.477,3.976 -1.391,8.909 -3.14,13.835Z" style="fill:#c56b37;fill-rule:nonzero;"/><path d="M182.833,59.688c-2.13,-3.201 -4.459,-6.252 -6.975,-9.144c1.749,-4.926 2.663,-9.859 3.14,-13.835c0.422,0.351 0.833,0.725 1.229,1.122c5.931,5.921 6.8,14.998 2.606,21.857Z" style="fill:#ce743c;fill-rule:nonzero;"/><path d="M197.522,114.166c0.103,-1.747 0.154,-3.503 0.154,-5.275c-0,-5.76 -0.547,-11.391 -1.594,-16.846c2.135,0.663 4.172,1.723 5.995,3.181c-0.49,5.073 -1.683,12.181 -4.555,18.94Z" style="fill:#c56b37;fill-rule:nonzero;"/><path d="M195.774,127.279c0.896,-4.264 1.487,-8.648 1.748,-13.113c2.872,-6.759 4.065,-13.867 4.555,-18.94c0.533,0.426 1.048,0.886 1.541,1.379c7.193,7.186 7.193,18.834 -0,26.02c-2.263,2.266 -4.971,3.817 -7.844,4.654Z" style="fill:#ce743c;fill-rule:nonzero;"/><path d="M164.084,191.592c-4.832,0 -9.664,-1.326 -13.906,-3.978c2.737,-1.444 5.39,-3.027 7.948,-4.738c1.931,0.652 3.947,0.978 5.964,0.978c4.75,0 9.501,-1.81 13.129,-5.43c5.088,-5.08 6.612,-12.372 4.57,-18.78c1.756,-2.523 3.383,-5.139 4.875,-7.843c6.042,10.096 4.714,23.384 -3.985,32.079c-5.138,5.141 -11.867,7.712 -18.595,7.712Zm-26.294,-26.446c0.036,-6.682 2.604,-13.353 7.703,-18.447c5.136,-5.136 11.863,-7.704 18.591,-7.704c0.119,0 0.238,0 0.357,0.002c-1.615,2.968 -3.46,5.795 -5.509,8.453c-2.918,0.84 -5.671,2.408 -7.972,4.704c-2.217,2.217 -3.757,4.851 -4.621,7.649c-2.694,1.997 -5.551,3.785 -8.549,5.343Z" style="fill:#dd995f;fill-rule:nonzero;"/><path d="M164.09,183.854c-2.017,0 -4.033,-0.326 -5.964,-0.978c9.266,-6.197 17.3,-14.087 23.663,-23.232c2.042,6.408 0.518,13.7 -4.57,18.78c-3.628,3.62 -8.379,5.43 -13.129,5.43Zm-17.751,-24.051c0.864,-2.798 2.404,-5.432 4.621,-7.649c2.301,-2.296 5.054,-3.864 7.972,-4.704c-1.793,2.326 -3.743,4.522 -5.834,6.576c-2.114,2.077 -4.373,4.009 -6.759,5.777Z" style="fill:#c56b37;fill-rule:nonzero;"/><path d="M108.486,172.297c-20.241,0 -38.273,-9.46 -49.925,-24.18c-8.6,-10.835 -13.715,-24.56 -13.715,-39.454c-0,-1.732 0.071,-3.463 0.211,-5.153c2.609,-32.742 30.004,-58.492 63.429,-58.492c16.134,0 30.881,5.996 42.1,15.881c13.221,11.687 21.546,28.746 21.546,47.764c-0,17.773 -7.295,33.835 -19.034,45.363c-11.48,11.29 -27.24,18.271 -44.612,18.271Zm0.265,-152.338c-49.119,0 -88.936,39.834 -88.936,88.932c-0,49.129 39.817,88.941 88.936,88.941c49.115,0 88.925,-39.812 88.925,-88.941c-0,-49.098 -39.81,-88.932 -88.925,-88.932Z" style="fill:#da7f58;fill-rule:nonzero;"/><path d="M108.64,172.297l0.015,0l-0.015,0Z" style="fill:#7e482e;fill-rule:nonzero;"/><path d="M45.499,99.538c0.001,-0.002 0.001,-0.006 0.001,-0.008c-0,0.002 -0,0.006 -0.001,0.008Z" style="fill:#7e482e;fill-rule:nonzero;"/><path d="M45.513,99.441c0.001,-0.002 0.001,-0.004 0.001,-0.006c-0,0.002 -0,0.004 -0.001,0.006Z" style="fill:#7e482e;fill-rule:nonzero;"/><path d="M45.525,99.363c0.001,-0.009 0.002,-0.018 0.004,-0.027c-0.002,0.009 -0.003,0.017 -0.004,0.027Z" style="fill:#7e482e;fill-rule:nonzero;"/><path d="M45.539,99.267c0.001,-0.009 0.002,-0.016 0.004,-0.025c-0.002,0.008 -0.003,0.017 -0.004,0.025Z" style="fill:#7e482e;fill-rule:nonzero;"/><path d="M45.55,99.192c2.033,-13.676 8.415,-25.932 17.709,-35.312c-9.288,9.381 -15.675,21.633 -17.709,35.312Z" style="fill:#7e482e;fill-rule:nonzero;"/><path d="M104.96,45.114l0.004,0l-0.004,0Z" style="fill:#7e482e;fill-rule:nonzero;"/><path d="M105.145,45.104l0.01,0l-0.01,0Z" style="fill:#7e482e;fill-rule:nonzero;"/><path d="M105.241,45.1c0.003,-0.001 0.005,-0.001 0.008,-0.001c-0.002,0 -0.006,0 -0.008,0.001Z" style="fill:#7e482e;fill-rule:nonzero;"/><path d="M105.327,45.095c0.007,0 0.015,0 0.021,-0.001c-0.006,0.001 -0.015,0.001 -0.021,0.001Z" style="fill:#7e482e;fill-rule:nonzero;"/><path d="M105.425,45.091c0.006,-0.001 0.01,-0.001 0.016,-0.001c-0.006,0 -0.01,0 -0.016,0.001Z" style="fill:#7e482e;fill-rule:nonzero;"/><path d="M105.513,45.086c0.01,0 0.018,0 0.028,-0.001c-0.008,0.001 -0.02,0.001 -0.028,0.001Z" style="fill:#7e482e;fill-rule:nonzero;"/><path d="M105.607,45.082c0.009,0 0.02,-0.001 0.029,-0.001c-0.01,0 -0.019,0.001 -0.029,0.001Z" style="fill:#7e482e;fill-rule:nonzero;"/><path d="M105.701,45.078c0.01,0 0.022,-0.001 0.032,-0.001c-0.01,0 -0.022,0.001 -0.032,0.001Z" style="fill:#7e482e;fill-rule:nonzero;"/><path d="M105.799,45.074c0.009,0 0.017,-0.001 0.027,-0.001c-0.008,0 -0.019,0.001 -0.027,0.001Z" style="fill:#7e482e;fill-rule:nonzero;"/><path d="M105.891,45.07c0.011,0 0.024,-0.001 0.034,-0.001c-0.012,0 -0.021,0.001 -0.034,0.001Z" style="fill:#7e482e;fill-rule:nonzero;"/><path d="M105.988,45.066c0.011,0 0.02,0 0.031,-0.001c-0.01,0.001 -0.021,0.001 -0.031,0.001Z" style="fill:#7e482e;fill-rule:nonzero;"/><path d="M106.082,45.063c0.012,-0.001 0.024,-0.001 0.036,-0.001c-0.013,0 -0.024,0 -0.036,0.001Z" style="fill:#7e482e;fill-rule:nonzero;"/><path d="M106.179,45.059c0.01,0 0.021,0 0.031,-0.001c-0.012,0.001 -0.019,0.001 -0.031,0.001Z" style="fill:#7e482e;fill-rule:nonzero;"/><path d="M106.274,45.056c0.011,0 0.024,-0.001 0.035,-0.001c-0.012,0 -0.023,0.001 -0.035,0.001Z" style="fill:#7e482e;fill-rule:nonzero;"/><path d="M106.368,45.053c0.013,-0.001 0.024,-0.001 0.037,-0.001c-0.012,0 -0.025,0 -0.037,0.001Z" style="fill:#7e482e;fill-rule:nonzero;"/><path d="M106.462,45.05c0.014,-0.001 0.029,-0.001 0.042,-0.001c-0.014,0 -0.027,0 -0.042,0.001Z" style="fill:#7e482e;fill-rule:nonzero;"/><path d="M106.559,45.047c0.013,0 0.026,-0.001 0.039,-0.001c-0.012,0 -0.027,0.001 -0.039,0.001Z" style="fill:#7e482e;fill-rule:nonzero;"/><path d="M106.654,45.044c0.015,0 0.028,-0.001 0.043,-0.001c-0.014,0 -0.029,0.001 -0.043,0.001Z" style="fill:#7e482e;fill-rule:nonzero;"/><path d="M106.75,45.042c0.014,-0.001 0.028,-0.001 0.042,-0.002c-0.014,0.001 -0.028,0.001 -0.042,0.002Z" style="fill:#7e482e;fill-rule:nonzero;"/><path d="M106.846,45.039c0.015,0 0.029,-0.001 0.044,-0.001c-0.014,0 -0.03,0.001 -0.044,0.001Z" style="fill:#7e482e;fill-rule:nonzero;"/><path d="M106.943,45.037c0.014,-0.001 0.026,-0.001 0.04,-0.001c-0.014,0 -0.026,0 -0.04,0.001Z" style="fill:#7e482e;fill-rule:nonzero;"/><path d="M107.038,45.034c0.016,0 0.03,0 0.046,-0.001c-0.014,0.001 -0.031,0.001 -0.046,0.001Z" style="fill:#7e482e;fill-rule:nonzero;"/><path d="M107.133,45.032c0.017,0 0.033,0 0.05,-0.001c-0.017,0.001 -0.033,0.001 -0.05,0.001Z" style="fill:#7e482e;fill-rule:nonzero;"/><path d="M107.229,45.03c0.016,0 0.034,0 0.051,-0.001c-0.017,0.001 -0.035,0.001 -0.051,0.001Z" style="fill:#7e482e;fill-rule:nonzero;"/><path d="M107.327,45.029c0.014,-0.001 0.027,-0.001 0.041,-0.001c-0.014,0 -0.027,0 -0.041,0.001Z" style="fill:#7e482e;fill-rule:nonzero;"/><path d="M107.425,45.027c0.014,0 0.027,-0.001 0.041,-0.001c-0.015,0.001 -0.027,0.001 -0.041,0.001Z" style="fill:#7e482e;fill-rule:nonzero;"/><path d="M107.52,45.025l0.042,0l-0.042,0Z" style="fill:#7e482e;fill-rule:nonzero;"/><path d="M107.617,45.024c0.015,0 0.03,0 0.045,-0.001c-0.014,0.001 -0.03,0.001 -0.045,0.001Z" style="fill:#7e482e;fill-rule:nonzero;"/><path d="M107.712,45.023c0.019,0 0.038,-0.001 0.057,-0.001c-0.02,0 -0.037,0.001 -0.057,0.001Z" style="fill:#7e482e;fill-rule:nonzero;"/><path d="M107.806,45.022c0.023,0 0.046,-0.001 0.069,-0.001c-0.022,0 -0.046,0.001 -0.069,0.001Z" style="fill:#7e482e;fill-rule:nonzero;"/><path d="M107.903,45.021c0.023,0 0.046,0 0.069,-0.001c-0.022,0.001 -0.046,0.001 -0.069,0.001Z" style="fill:#7e482e;fill-rule:nonzero;"/><path d="M108,45.02l0.071,0l-0.071,0Z" style="fill:#7e482e;fill-rule:nonzero;"/><path d="M108.097,45.019l0.064,0l-0.064,0Z" style="fill:#7e482e;fill-rule:nonzero;"/><path d="M108.195,45.019l0.064,0l-0.064,0Z" style="fill:#7e482e;fill-rule:nonzero;"/><path d="M108.292,45.019c0.019,-0.001 0.039,-0.001 0.058,-0.001c-0.021,0 -0.038,0 -0.058,0.001Z" style="fill:#7e482e;fill-rule:nonzero;"/><path d="M105.618,191.529c-20.602,-0.766 -39.277,-9.072 -53.346,-22.236l5.233,-5.232c0.36,-0.358 0.614,-0.785 0.761,-1.24c12.499,11.71 29.077,19.115 47.38,19.869c-0.018,0.138 -0.028,0.278 -0.028,0.421l-0,8.418Zm6.256,-0.001l-0,-8.417c-0,-0.143 -0.01,-0.283 -0.028,-0.421c7.67,-0.316 15.035,-1.796 21.925,-4.277c10.12,-3.648 19.224,-9.446 26.746,-16.842c13.622,-13.387 22.081,-32.039 22.081,-52.658c-0,-22.07 -9.66,-41.858 -25.004,-55.42c-13.015,-11.473 -30.133,-18.444 -48.853,-18.444c-16.09,0 -30.973,5.141 -43.096,13.877c-2.403,1.73 -4.699,3.601 -6.874,5.601c-0.086,-0.115 -0.182,-0.226 -0.286,-0.331l-5.944,-5.938c14.747,-13.681 34.495,-22.042 56.2,-22.042c45.66,0 82.689,37.007 82.689,82.697c-0,44.618 -35.345,80.97 -79.556,82.615Zm-64.014,-26.687c-10.48,-11.404 -17.798,-25.76 -20.564,-41.674c-0.51,-2.933 -0.856,-5.931 -1.056,-8.952c-0.049,-0.722 -0.086,-1.447 -0.113,-2.175l8.409,0c0.143,0 0.283,-0.01 0.421,-0.028c0.664,16.096 6.478,30.874 15.848,42.697c1.129,1.427 2.31,2.812 3.539,4.15c-0.467,0.146 -0.907,0.404 -1.277,0.774l-5.207,5.208Zm-12.897,-59.05c-0.14,-0.019 -0.282,-0.029 -0.427,-0.029l-8.408,0c0.026,-0.725 0.063,-1.447 0.112,-2.165c0.179,-2.922 0.524,-5.855 1.022,-8.68c2.748,-16.157 10.179,-30.714 20.846,-42.224l5.949,5.952c0.102,0.101 0.209,0.193 0.319,0.277c-10.837,11.786 -17.89,27.106 -19.233,44.026c-0.078,0.945 -0.138,1.894 -0.18,2.843Zm73.427,-60.773l0.096,0l-0.096,0Z" style="fill:#7e482e;fill-rule:nonzero;"/><path d="M46.508,175.057c-1.223,1.213 -3.193,1.213 -4.427,0c-1.229,-1.223 -1.223,-3.215 -0,-4.437l10.986,-10.987c1.223,-1.222 3.209,-1.222 4.438,0c1.218,1.223 1.218,3.215 -0,4.428l-10.997,10.996Z" style="fill:#c5c6c8;fill-rule:nonzero;"/><path d="M162.455,59.122c-1.229,1.222 -3.21,1.222 -4.427,0c-1.228,-1.235 -1.228,-3.215 -0,-4.428l10.975,-11.008c1.234,-1.212 3.22,-1.212 4.438,0c1.224,1.235 1.224,3.215 -0,4.438l-10.986,10.998Z" style="fill:#c5c6c8;fill-rule:nonzero;"/><path d="M19.005,112.04c-1.739,0 -3.145,-1.407 -3.145,-3.149c-0,-1.711 1.406,-3.129 3.145,-3.129l15.531,0c1.732,0 3.135,1.418 3.135,3.129c-0,1.742 -1.403,3.149 -3.135,3.149l-15.531,0Z" style="fill:#c5c6c8;fill-rule:nonzero;"/><path d="M182.967,112.04c-1.732,0 -3.14,-1.407 -3.145,-3.15c-0,-1.71 1.407,-3.128 3.145,-3.128l15.532,0c1.732,0 3.128,1.418 3.134,3.128c-0.006,1.743 -1.402,3.15 -3.134,3.15l-15.532,0Z" style="fill:#c5c6c8;fill-rule:nonzero;"/><path d="M43.065,47.648c-1.222,-1.224 -1.222,-3.204 -0,-4.427c1.229,-1.223 3.21,-1.223 4.434,0l10.986,10.975c1.223,1.234 1.223,3.226 -0,4.449c-1.224,1.213 -3.205,1.213 -4.428,0l-10.992,-10.997Z" style="fill:#c5c6c8;fill-rule:nonzero;"/><path d="M159.008,163.594c-1.23,-1.233 -1.23,-3.213 -0,-4.437c1.228,-1.212 3.213,-1.212 4.432,0l10.981,10.986c1.234,1.235 1.234,3.215 -0,4.439c-1.218,1.222 -3.203,1.222 -4.427,0l-10.986,-10.988Z" style="fill:#c5c6c8;fill-rule:nonzero;"/><path d="M105.618,19.159c-0,-1.742 1.396,-3.15 3.128,-3.15c1.731,0 3.128,1.408 3.128,3.14l-0,15.543c-0,1.721 -1.397,3.128 -3.128,3.128c-1.732,0 -3.128,-1.407 -3.128,-3.128l-0,-15.533Z" style="fill:#c5c6c8;fill-rule:nonzero;"/><path d="M105.618,183.111c-0,-1.722 1.396,-3.14 3.128,-3.14c1.731,0 3.128,1.418 3.128,3.14l-0,15.543c-0,1.731 -1.397,3.14 -3.128,3.14c-1.732,0 -3.128,-1.409 -3.128,-3.14l-0,-15.543Z" style="fill:#c5c6c8;fill-rule:nonzero;"/><path d="M153.098,154.026c-9.185,9.027 -21.102,15.295 -34.4,17.438c-3.322,0.541 -6.737,0.833 -10.212,0.833c-20.241,0 -38.273,-9.46 -49.925,-24.18c-8.6,-10.835 -13.715,-24.56 -13.715,-39.454c-0,-1.732 0.071,-3.463 0.211,-5.153c1.332,-16.712 9.114,-31.605 20.879,-42.18c11.28,-10.142 26.19,-16.312 42.55,-16.312c16.134,0 30.881,5.996 42.1,15.881c13.221,11.687 21.546,28.746 21.546,47.764c-0,17.773 -7.295,33.835 -19.034,45.363Zm4.496,-100.533c-13.015,-11.473 -30.133,-18.444 -48.853,-18.444c-16.09,0 -30.973,5.141 -43.096,13.877c-17.113,12.317 -28.738,31.79 -30.502,54.022c-0.162,1.981 -0.25,3.973 -0.25,5.965c-0,17.296 5.944,33.218 15.912,45.796c13.519,17.091 34.442,28.044 57.936,28.044c8.789,0 17.215,-1.526 25.03,-4.34c10.12,-3.648 19.224,-9.446 26.746,-16.842c13.622,-13.387 22.081,-32.039 22.081,-52.658c-0,-22.07 -9.66,-41.858 -25.004,-55.42Z" style="fill:#fcc9a6;fill-rule:nonzero;"/><path d="M108.741,182.753c-19.526,0 -37.275,-7.565 -50.475,-19.932c-1.356,-1.271 -2.665,-2.593 -3.922,-3.962c-1.229,-1.338 -2.41,-2.723 -3.539,-4.15c-9.37,-11.823 -15.184,-26.601 -15.848,-42.697c-0.042,-1.028 -0.064,-2.061 -0.064,-3.099c-0,-1.992 0.088,-3.984 0.25,-5.965c1.764,-22.232 13.389,-41.705 30.502,-54.022c-0.011,3.723 0.065,7.879 0.291,12.404c-11.765,10.575 -19.547,25.468 -20.879,42.18c-0.14,1.69 -0.211,3.421 -0.211,5.153c-0,14.894 5.115,28.619 13.715,39.454c11.652,14.72 29.684,24.18 49.925,24.18c3.475,0 6.89,-0.292 10.212,-0.833c4.623,2.706 9.629,5.023 15.073,6.949c-7.815,2.814 -16.241,4.34 -25.03,4.34Z" style="fill:#f9a375;fill-rule:nonzero;"/></g></g></g></svg>