<?xml version="1.0" encoding="UTF-8" standalone="no"?><!DOCTYPE svg PUBLIC "-//W3C//DTD SVG 1.1//EN" "http://www.w3.org/Graphics/SVG/1.1/DTD/svg11.dtd"><svg width="100%" height="100%" viewBox="0 0 217 138" version="1.1" xmlns="http://www.w3.org/2000/svg" xmlns:xlink="http://www.w3.org/1999/xlink" xml:space="preserve" xmlns:serif="http://www.serif.com/" style="fill-rule:evenodd;clip-rule:evenodd;stroke-linejoin:round;stroke-miterlimit:2;"><g><g><g><path d="M137.587,74.486c-3.071,37.92 -36.311,66.17 -74.24,63.09c-37.93,-3.07 -66.18,-36.3 -63.12,-74.24c2.23,-27.35 20.15,-49.68 44.2,-58.84c9.28,-3.54 19.49,-5.12 30.05,-4.27c16.12,1.32 30.48,8.07 41.44,18.3c14.839,13.87 23.44,34.13 21.67,55.96Z" style="fill:#4b4e50;fill-rule:nonzero;"/><path d="M136.087,74.346c-2.99,36.8 -34.98,64.27 -71.69,61.79c-0.31,-0 -0.62,-0.03 -0.92,-0.05c-9.78,-0.81 -18.88,-3.63 -26.96,-8.05c-22.58,-12.4 -36.99,-37.23 -34.77,-64.56c0.63,-7.88 2.58,-15.32 5.64,-22.12c2.03,-4.55 4.55,-8.79 7.47,-12.71c7.64,-10.22 18.08,-18.16 30.1,-22.75c9.09,-3.47 19.07,-5 29.39,-4.16c15.77,1.27 29.81,7.88 40.55,17.89c14.51,13.57 22.92,33.39 21.19,54.72Z" style="fill:#18131b;fill-rule:nonzero;"/><path d="M68.987,131.866c-1.71,-0 -3.43,-0.07 -5.16,-0.21c-32.93,-2.68 -57.87,-30.22 -57.87,-62.7c-0,-1.7 0.07,-3.42 0.21,-5.15c2.03,-24.98 18.41,-45.39 40.37,-53.76c6.99,-2.66 14.55,-4.1 22.39,-4.1c1.67,-0 3.36,0.06 5.06,0.2c10.77,0.88 20.67,4.41 29.13,9.9c-0.091,0.08 -0.19,0.16 -0.28,0.23c-8.39,-5.42 -18.21,-8.91 -28.88,-9.79c-1.69,-0.13 -3.36,-0.2 -5.03,-0.2c-7.8,-0 -15.31,1.44 -22.27,4.09c-21.84,8.32 -38.13,28.61 -40.14,53.46c-0.14,1.72 -0.21,3.43 -0.21,5.12c-0,32.3 24.8,59.69 57.55,62.36c1.72,0.14 3.43,0.2 5.13,0.2c12.37,-0 24.029,-3.64 33.84,-9.98c0.1,0.08 0.189,0.16 0.28,0.24c-9.89,6.41 -21.64,10.09 -34.12,10.09Z" style="fill:#61626b;fill-rule:nonzero;"/><path d="M88.227,120.456l-0.13,-0.32c3.08,-1.15 6.02,-2.57 8.82,-4.24c0.08,0.09 0.16,0.17 0.24,0.26c-2.83,1.69 -5.81,3.14 -8.93,4.3Zm-54.79,-9.46c-12.04,-10.16 -19.56,-25.34 -19.56,-42.01c-0,-1.5 0.06,-3.01 0.19,-4.53c1.76,-21.85 16.07,-39.68 35.29,-47c0.66,-0.25 1.33,-0.5 2.01,-0.72l0.11,0.32c-0.67,0.23 -1.34,0.47 -2,0.72c-19.1,7.28 -33.32,24.99 -35.07,46.71c-0.12,1.51 -0.18,3.01 -0.18,4.5c-0,16.56 7.48,31.65 19.44,41.75l-0.23,0.26Z" style="fill:#61626b;fill-rule:nonzero;"/><path d="M84.387,111.066l-0.13,-0.32c2.15,-0.79 4.24,-1.75 6.24,-2.85c0.059,0.09 0.13,0.19 0.19,0.28c-2.01,1.12 -4.12,2.09 -6.3,2.89Zm-44.2,-7.65c-9.94,-8.29 -16.17,-20.76 -16.17,-34.46c-0,-1.21 0.05,-2.44 0.15,-3.67c1.44,-17.83 13.11,-32.4 28.78,-38.35c0.59,-0.22 1.18,-0.43 1.78,-0.63l0.11,0.32c-0.59,0.2 -1.18,0.41 -1.76,0.63c-15.55,5.91 -27.13,20.36 -28.56,38.05c-0.1,1.23 -0.15,2.45 -0.15,3.65c-0,13.59 6.18,25.97 16.05,34.21l-0.23,0.25Z" style="fill:#61626b;fill-rule:nonzero;"/><path d="M79.687,99.586l-0.14,-0.32c1.69,-0.59 3.32,-1.32 4.87,-2.18c0.05,0.1 0.1,0.21 0.15,0.32c-1.56,0.85 -3.19,1.59 -4.88,2.18Zm-31.25,-5.42c-7.39,-6 -12.03,-15.14 -12.03,-25.21c-0,-0.88 0.03,-1.77 0.11,-2.67c1.05,-12.91 9.5,-23.45 20.85,-27.78c0.48,-0.18 0.97,-0.35 1.47,-0.51l0.11,0.32c-0.49,0.16 -0.98,0.33 -1.46,0.51c-11.23,4.29 -19.59,14.71 -20.63,27.49c-0.07,0.89 -0.1,1.77 -0.1,2.64c-0,9.96 4.59,19.02 11.91,24.95l-0.23,0.26Z" style="fill:#61626b;fill-rule:nonzero;"/><path d="M80.747,51.046c-2.92,-1.93 -6.36,-3.18 -10.11,-3.48c-0.6,-0.05 -1.19,-0.07 -1.78,-0.07c-2.2,-0 -4.33,0.33 -6.34,0.96l-3.57,-10.14c3.14,-1.01 6.48,-1.56 9.93,-1.56c0.87,-0 1.75,0.03 2.63,0.1c4.68,0.38 9.05,1.74 12.91,3.87c-1.48,3.3 -2.71,6.75 -3.67,10.32Zm3.81,-10.64c-3.9,-2.14 -8.3,-3.51 -13.02,-3.89c-0.89,-0.07 -1.78,-0.11 -2.66,-0.11c-3.49,-0 -6.87,0.56 -10.04,1.59l-4,-11.37c4.42,-1.47 9.12,-2.27 13.99,-2.27c1.22,-0 2.45,0.05 3.68,0.15c6.52,0.53 12.6,2.44 17.97,5.42c-2.26,3.29 -4.25,6.79 -5.92,10.48Zm6.12,-10.77c-5.42,-3.01 -11.56,-4.94 -18.14,-5.47c-1.25,-0.1 -2.48,-0.15 -3.71,-0.15c-4.91,-0 -9.65,0.8 -14.1,2.29l-3.25,-9.25c5.47,-1.84 11.32,-2.84 17.35,-2.84c1.49,-0 2.99,0.06 4.5,0.19c8.63,0.69 16.62,3.35 23.59,7.51c-2.26,2.41 -4.34,4.99 -6.24,7.72Zm6.48,-7.98c-7.02,-4.21 -15.09,-6.9 -23.8,-7.6c-1.52,-0.13 -3.03,-0.19 -4.53,-0.19c-6.07,-0 -11.96,1.01 -17.46,2.87l-0.82,-2.32c6.01,-2.31 12.52,-3.57 19.28,-3.57c1.49,-0 3,0.06 4.51,0.19c9.23,0.74 17.719,3.74 25,8.41c-0.74,0.72 -1.47,1.46 -2.18,2.21Z" style="fill:#36353d;fill-rule:nonzero;"/><path d="M96.917,21.916c-6.97,-4.16 -14.96,-6.82 -23.59,-7.51c-1.51,-0.13 -3.01,-0.19 -4.5,-0.19c-6.03,-0 -11.88,1 -17.35,2.84l-0.11,-0.32c5.5,-1.86 11.39,-2.87 17.46,-2.87c1.5,-0 3.01,0.06 4.53,0.19c8.71,0.7 16.78,3.39 23.8,7.6c-0.08,0.09 -0.16,0.17 -0.24,0.26Z" style="fill:#6f7079;fill-rule:nonzero;"/><path d="M90.477,29.926c-5.37,-2.98 -11.45,-4.89 -17.97,-5.42c-1.23,-0.1 -2.46,-0.15 -3.68,-0.15c-4.87,-0 -9.57,0.8 -13.99,2.27l-0.11,-0.32c4.45,-1.49 9.19,-2.29 14.1,-2.29c1.23,-0 2.46,0.05 3.71,0.15c6.58,0.53 12.72,2.46 18.14,5.47c-0.06,0.1 -0.131,0.19 -0.2,0.29Z" style="fill:#6f7079;fill-rule:nonzero;"/><path d="M84.417,40.726c-3.86,-2.13 -8.23,-3.49 -12.91,-3.87c-0.88,-0.07 -1.76,-0.1 -2.63,-0.1c-3.45,-0 -6.79,0.55 -9.93,1.56l-0.11,-0.32c3.17,-1.03 6.55,-1.59 10.04,-1.59c0.88,-0 1.77,0.04 2.66,0.11c4.72,0.38 9.12,1.75 13.02,3.89c-0.05,0.11 -0.1,0.21 -0.14,0.32Z" style="fill:#6f7079;fill-rule:nonzero;"/><path d="M69.967,127.826c-1.51,-0 -3.03,-0.06 -4.56,-0.18c-13.06,-1.05 -24.7,-6.54 -33.59,-14.83l1.62,-1.82c8.46,7.14 19.15,11.8 31.03,12.76c1.52,0.12 3.04,0.19 4.54,0.19c6.73,-0 13.21,-1.23 19.22,-3.49l1.529,3.73c-6.179,2.36 -12.859,3.64 -19.789,3.64Zm-0.96,-4.23c-1.49,-0 -3,-0.06 -4.51,-0.18c-11.8,-0.96 -22.42,-5.59 -30.83,-12.68l6.52,-7.32c6.87,5.73 15.51,9.47 25.1,10.24c1.24,0.1 2.47,0.15 3.69,0.15c5.38,-0 10.58,-0.96 15.41,-2.74l3.71,9.07c-5.97,2.24 -12.41,3.46 -19.09,3.46Zm-0.03,-10.13c-1.21,-0 -2.43,-0.05 -3.66,-0.15c-9.51,-0.77 -18.08,-4.47 -24.9,-10.15l8.02,-9c4.92,3.99 11.05,6.59 17.84,7.14c0.9,0.07 1.79,0.11 2.68,0.11c3.74,-0 7.35,-0.64 10.73,-1.83l4.57,11.16c-4.79,1.76 -9.94,2.72 -15.28,2.72Zm-0.02,-12.4c-0.88,-0 -1.76,-0.03 -2.65,-0.1c-6.71,-0.55 -12.78,-3.11 -17.64,-7.06l7.16,-8.02c3.17,2.45 7.06,4.03 11.35,4.38c0.58,0.05 1.16,0.07 1.73,0.07c2.28,-0 4.49,-0.36 6.57,-1.03l4.07,9.96c-3.33,1.17 -6.9,1.8 -10.59,1.8Z" style="fill:#36353d;fill-rule:nonzero;"/><path d="M69.007,123.946c-1.5,-0 -3.02,-0.07 -4.54,-0.19c-11.88,-0.96 -22.57,-5.62 -31.03,-12.76l0.23,-0.26c8.41,7.09 19.03,11.72 30.83,12.68c1.51,0.12 3.02,0.18 4.51,0.18c6.68,-0 13.12,-1.22 19.09,-3.46l0.13,0.32c-6.01,2.26 -12.49,3.49 -19.22,3.49Z" style="fill:#6f7079;fill-rule:nonzero;"/><path d="M68.977,113.806c-1.22,-0 -2.45,-0.05 -3.69,-0.15c-9.59,-0.77 -18.23,-4.51 -25.1,-10.24l0.23,-0.25c6.82,5.68 15.39,9.38 24.9,10.15c1.23,0.1 2.45,0.15 3.66,0.15c5.34,-0 10.49,-0.96 15.28,-2.72l0.13,0.32c-4.83,1.78 -10.03,2.74 -15.41,2.74Z" style="fill:#6f7079;fill-rule:nonzero;"/><path d="M68.957,101.416c-0.89,-0 -1.78,-0.04 -2.68,-0.11c-6.79,-0.55 -12.92,-3.15 -17.84,-7.14l0.23,-0.26c4.86,3.95 10.93,6.51 17.64,7.06c0.89,0.07 1.77,0.1 2.65,0.1c3.69,-0 7.26,-0.63 10.59,-1.8l0.14,0.32c-3.38,1.19 -6.99,1.83 -10.73,1.83Z" style="fill:#6f7079;fill-rule:nonzero;"/><path d="M90.266,70.636c-0.949,11.81 -11.289,20.57 -23.089,19.63c-11.79,-0.95 -20.58,-11.29 -19.62,-23.09c0.96,-11.79 11.29,-20.58 23.08,-19.61c11.8,0.94 20.59,11.29 19.629,23.07Z" style="fill:#7a1214;fill-rule:nonzero;"/><path d="M86.897,70.366c-0.81,9.92 -9.52,17.33 -19.44,16.52c-9.93,-0.81 -17.33,-9.51 -16.52,-19.43c0.8,-9.94 9.51,-17.32 19.43,-16.52c9.93,0.81 17.32,9.5 16.53,19.43Z" style="fill:#9e2024;fill-rule:nonzero;"/><path d="M73.497,69.266c-0.19,2.54 -2.41,4.43 -4.94,4.22c-2.55,-0.19 -4.43,-2.42 -4.24,-4.94c0.21,-2.55 2.43,-4.43 4.97,-4.22c2.53,0.2 4.41,2.41 4.21,4.94Z" style="fill:#fff;fill-rule:nonzero;"/><path d="M215.977,74.486c-3.06,37.92 -36.31,66.17 -74.24,63.09c-37.931,-3.07 -66.18,-36.3 -63.1,-74.24c2.21,-27.36 20.129,-49.68 44.19,-58.85c9.27,-3.53 19.48,-5.11 30.04,-4.26c16.12,1.32 30.48,8.07 41.44,18.3c14.84,13.87 23.44,34.13 21.67,55.96Z" style="fill:#4b4e50;fill-rule:nonzero;"/><path d="M214.477,74.346c-2.98,36.8 -34.98,64.27 -71.69,61.79c-0.31,-0 -0.62,-0.03 -0.93,-0.05c-9.77,-0.81 -18.88,-3.63 -26.95,-8.06c-22.58,-12.39 -36.99,-37.22 -34.78,-64.55c0.64,-7.88 2.61,-15.32 5.66,-22.12c2.03,-4.55 4.54,-8.79 7.45,-12.71c7.65,-10.22 18.1,-18.17 30.12,-22.75c9.08,-3.47 19.05,-5 29.4,-4.16c15.76,1.27 29.81,7.88 40.53,17.89c14.51,13.57 22.92,33.39 21.19,54.72Z" style="fill:#18131b;fill-rule:nonzero;"/><path d="M147.367,131.866c-1.7,-0 -3.42,-0.07 -5.15,-0.21c-16.171,-1.31 -30.411,-8.62 -40.72,-19.57c-0.35,-0.54 -0.691,-1.09 -1.02,-1.63c10.329,11.65 25.01,19.49 41.77,20.86c1.72,0.13 3.43,0.2 5.12,0.2c32.28,-0 59.68,-24.79 62.34,-57.54c0.14,-1.73 0.21,-3.44 0.21,-5.14c-0,-17.85 -7.59,-34.2 -19.9,-45.7c-9.96,-9.31 -23.01,-15.45 -37.65,-16.65c-1.69,-0.13 -3.37,-0.2 -5.04,-0.2c-7.8,-0 -15.321,1.44 -22.271,4.09c-20.01,7.62 -35.339,25.27 -39.339,47.26c-0.02,-0.5 -0.04,-1 -0.06,-1.49c4.41,-21.45 19.599,-38.6 39.28,-46.1c6.99,-2.66 14.55,-4.1 22.39,-4.1c1.68,-0 3.37,0.06 5.07,0.2c14.72,1.2 27.84,7.38 37.85,16.73c12.38,11.57 20.01,28.01 20.01,45.96c-0,1.71 -0.07,3.43 -0.21,5.17c-2.67,32.93 -30.22,57.86 -62.68,57.86Z" style="fill:#61626b;fill-rule:nonzero;"/><path d="M166.617,120.466l-0.14,-0.32c19.23,-7.21 33.58,-25 35.35,-46.83c0.12,-1.5 0.18,-2.99 0.18,-4.46c-0,-15.59 -6.63,-29.9 -17.39,-39.93c-0.42,-0.39 -0.84,-0.77 -1.26,-1.14l0.24,-0.25c0.42,0.37 0.84,0.75 1.25,1.13c10.84,10.1 17.5,24.5 17.5,40.19c-0,1.48 -0.06,2.98 -0.18,4.49c-1.78,21.96 -16.21,39.86 -35.55,47.12Zm-54.78,-9.47c-12.051,-10.17 -19.571,-25.36 -19.571,-42.03c-0,-1.49 0.061,-3 0.181,-4.51c1.77,-21.85 16.089,-39.69 35.29,-47c0.67,-0.26 1.34,-0.5 2.019,-0.72l0.111,0.32c-0.67,0.23 -1.341,0.47 -2,0.72c-19.091,7.26 -33.321,24.99 -35.071,46.71c-0.129,1.5 -0.189,3 -0.189,4.48c-0,16.57 7.49,31.67 19.46,41.77l-0.23,0.26Z" style="fill:#61626b;fill-rule:nonzero;"/><path d="M162.767,111.076l-0.13,-0.33c15.8,-5.8 27.62,-20.36 29.07,-38.24c0.1,-1.23 0.15,-2.46 0.15,-3.67c-0,-12.69 -5.4,-24.31 -14.16,-32.5c-0.47,-0.43 -0.94,-0.86 -1.43,-1.28l0.24,-0.25c0.49,0.42 0.96,0.84 1.43,1.28c8.82,8.25 14.27,19.96 14.27,32.75c-0,1.22 -0.05,2.46 -0.15,3.69c-1.47,18.02 -13.37,32.7 -29.29,38.55Zm-44.18,-7.65c-9.95,-8.3 -16.18,-20.77 -16.18,-34.46c-0,-1.22 0.05,-2.45 0.149,-3.68c1.45,-17.83 13.121,-32.4 28.791,-38.35c0.59,-0.22 1.179,-0.43 1.77,-0.63l0.12,0.32c-0.59,0.2 -1.181,0.41 -1.76,0.63c-15.56,5.91 -27.14,20.36 -28.57,38.05c-0.101,1.23 -0.151,2.45 -0.151,3.66c-0,13.59 6.181,25.97 16.061,34.2l-0.23,0.26Z" style="fill:#61626b;fill-rule:nonzero;"/><path d="M158.067,99.596l-0.13,-0.33c11.62,-4.07 20.36,-14.69 21.42,-27.76c0.07,-0.88 0.11,-1.76 0.11,-2.63c-0,-9.17 -3.9,-17.58 -10.22,-23.49c-0.54,-0.49 -1.08,-0.97 -1.65,-1.43l0.25,-0.25c0.56,0.46 1.1,0.94 1.63,1.43c6.4,5.97 10.33,14.47 10.33,23.74c-0,0.88 -0.03,1.77 -0.1,2.66c-1.08,13.2 -9.9,23.93 -21.64,28.06Zm-31.23,-5.43c-7.4,-6 -12.041,-15.15 -12.041,-25.22c-0,-0.88 0.031,-1.77 0.101,-2.66c1.06,-12.91 9.52,-23.45 20.86,-27.78c0.48,-0.18 0.98,-0.36 1.47,-0.52l0.12,0.33c-0.5,0.16 -0.98,0.33 -1.47,0.51c-11.22,4.29 -19.591,14.71 -20.63,27.49c-0.07,0.88 -0.11,1.76 -0.11,2.63c-0,9.97 4.6,19.02 11.93,24.96l-0.23,0.26Z" style="fill:#61626b;fill-rule:nonzero;"/><path d="M146.827,65.286l-9.48,-26.97c3.13,-1.01 6.47,-1.56 9.92,-1.56c0.87,-0 1.75,0.03 2.63,0.1c6.75,0.55 12.83,3.14 17.7,7.1l-20.77,21.33Zm21.02,-21.58c-4.93,-4.02 -11.09,-6.64 -17.92,-7.19c-0.89,-0.07 -1.78,-0.11 -2.66,-0.11c-3.49,-0 -6.87,0.56 -10.04,1.58l-3.99,-11.36c4.41,-1.47 9.12,-2.27 13.98,-2.27c1.22,-0 2.45,0.05 3.69,0.15c9.72,0.79 18.48,4.65 25.36,10.55l-8.42,8.65Zm8.66,-8.9c-6.93,-5.95 -15.76,-9.85 -25.58,-10.64c-1.24,-0.1 -2.48,-0.15 -3.71,-0.15c-4.9,-0 -9.65,0.8 -14.1,2.29l-3.25,-9.25c5.48,-1.84 11.32,-2.84 17.35,-2.84c1.49,-0 2.99,0.06 4.5,0.19c12.19,0.97 23.12,5.88 31.64,13.38l-6.85,7.02Zm7.09,-7.27c-8.58,-7.55 -19.58,-12.5 -31.85,-13.48c-1.52,-0.13 -3.03,-0.19 -4.53,-0.19c-6.07,-0 -11.951,1.01 -17.461,2.87l-0.819,-2.32c6.03,-2.31 12.54,-3.57 19.29,-3.57c1.49,-0 2.99,0.06 4.5,0.19c12.77,1.03 24.15,6.37 32.82,14.49l-1.95,2.01Z" style="fill:#36353d;fill-rule:nonzero;"/><path d="M183.357,27.786c-8.52,-7.5 -19.45,-12.41 -31.64,-13.38c-1.51,-0.13 -3.01,-0.19 -4.5,-0.19c-6.03,-0 -11.87,1 -17.35,2.84l-0.111,-0.32c5.51,-1.86 11.391,-2.87 17.461,-2.87c1.5,-0 3.01,0.06 4.53,0.19c12.27,0.98 23.27,5.93 31.85,13.48l-0.24,0.25Z" style="fill:#6f7079;fill-rule:nonzero;"/><path d="M176.267,35.056c-6.88,-5.9 -15.64,-9.76 -25.36,-10.55c-1.24,-0.1 -2.47,-0.15 -3.69,-0.15c-4.86,-0 -9.57,0.8 -13.98,2.27l-0.12,-0.32c4.45,-1.49 9.2,-2.29 14.1,-2.29c1.23,-0 2.47,0.05 3.71,0.15c9.82,0.79 18.65,4.69 25.58,10.64l-0.24,0.25Z" style="fill:#6f7079;fill-rule:nonzero;"/><path d="M167.597,43.956c-4.87,-3.96 -10.95,-6.55 -17.7,-7.1c-0.88,-0.07 -1.76,-0.1 -2.63,-0.1c-3.45,-0 -6.79,0.55 -9.92,1.56l-0.12,-0.33c3.17,-1.02 6.55,-1.58 10.04,-1.58c0.88,-0 1.77,0.04 2.66,0.11c6.83,0.55 12.99,3.17 17.92,7.19l-0.25,0.25Z" style="fill:#6f7079;fill-rule:nonzero;"/><path d="M148.357,127.826c-1.51,-0 -3.03,-0.06 -4.56,-0.18c-13.06,-1.05 -24.7,-6.54 -33.58,-14.83l1.62,-1.82c8.459,7.14 19.14,11.8 31.02,12.76c1.52,0.12 3.04,0.19 4.54,0.19c6.72,-0 13.21,-1.23 19.22,-3.48l1.52,3.72c-6.17,2.36 -12.85,3.64 -19.78,3.64Zm-0.96,-4.23c-1.49,-0 -3,-0.06 -4.51,-0.18c-11.8,-0.96 -22.42,-5.59 -30.82,-12.68l6.52,-7.31c6.86,5.72 15.5,9.46 25.09,10.23c1.24,0.1 2.47,0.15 3.69,0.15c5.38,-0 10.58,-0.96 15.4,-2.73l3.71,9.07c-5.96,2.23 -12.4,3.45 -19.08,3.45Zm-0.03,-10.14c-1.21,-0 -2.43,-0.04 -3.66,-0.14c-9.51,-0.77 -18.08,-4.47 -24.89,-10.15l8.02,-9c4.919,3.99 11.05,6.59 17.85,7.14c0.89,0.07 1.79,0.11 2.67,0.11c3.73,-0 7.34,-0.64 10.71,-1.82l4.57,11.15c-4.78,1.76 -9.93,2.71 -15.27,2.71Z" style="fill:#36353d;fill-rule:nonzero;"/><path d="M147.397,123.946c-1.5,-0 -3.02,-0.07 -4.54,-0.19c-11.88,-0.96 -22.561,-5.62 -31.02,-12.76l0.23,-0.26c8.4,7.09 19.02,11.72 30.82,12.68c1.51,0.12 3.02,0.18 4.51,0.18c6.68,-0 13.12,-1.22 19.08,-3.45l0.14,0.32c-6.01,2.25 -12.5,3.48 -19.22,3.48Z" style="fill:#6f7079;fill-rule:nonzero;"/><path d="M147.367,113.806c-1.22,-0 -2.45,-0.05 -3.69,-0.15c-9.59,-0.77 -18.23,-4.51 -25.09,-10.23l0.23,-0.26c6.81,5.68 15.38,9.38 24.89,10.15c1.23,0.1 2.45,0.14 3.66,0.14c5.34,-0 10.49,-0.95 15.27,-2.71l0.13,0.33c-4.82,1.77 -10.02,2.73 -15.4,2.73Z" style="fill:#6f7079;fill-rule:nonzero;"/><path d="M147.357,101.066c-0.88,-0 -1.76,-0.03 -2.64,-0.1c-6.72,-0.55 -12.79,-3.11 -17.65,-7.06l19.65,-22.05l11.22,27.41c-3.33,1.17 -6.89,1.8 -10.58,1.8Z" style="fill:#36353d;fill-rule:nonzero;"/><path d="M147.357,101.416c-0.88,-0 -1.78,-0.04 -2.67,-0.11c-6.8,-0.55 -12.931,-3.15 -17.85,-7.14l0.23,-0.26c4.86,3.95 10.93,6.51 17.65,7.06c0.88,0.07 1.76,0.1 2.64,0.1c3.69,-0 7.25,-0.63 10.58,-1.8l0.13,0.33c-3.37,1.18 -6.98,1.82 -10.71,1.82Z" style="fill:#6f7079;fill-rule:nonzero;"/><path d="M168.667,70.636c-0.97,11.81 -11.3,20.57 -23.08,19.63c-11.811,-0.96 -20.59,-11.29 -19.63,-23.09c0.95,-11.79 11.29,-20.58 23.08,-19.62c11.79,0.95 20.58,11.3 19.63,23.08Z" style="fill:#7a1214;fill-rule:nonzero;"/><path d="M165.277,70.366c-0.8,9.92 -9.5,17.33 -19.43,16.52c-9.93,-0.81 -17.321,-9.51 -16.52,-19.43c0.81,-9.94 9.52,-17.32 19.43,-16.52c9.94,0.81 17.33,9.5 16.52,19.43Z" style="fill:#9e2024;fill-rule:nonzero;"/><path d="M151.897,69.266c-0.21,2.54 -2.43,4.43 -4.97,4.22c-2.52,-0.19 -4.41,-2.42 -4.21,-4.94c0.21,-2.55 2.43,-4.43 4.96,-4.22c2.53,0.2 4.42,2.41 4.22,4.94Z" style="fill:#fff;fill-rule:nonzero;"/><path d="M114.907,128.026c-21.04,-11.54 -34.98,-33.88 -35,-58.98c-0,-1.84 0.07,-3.7 0.22,-5.57c0.64,-7.88 2.61,-15.32 5.66,-22.12c-0.24,4.58 -0.33,9.56 -0.13,14.79c-0.52,2.5 -0.88,5.06 -1.1,7.66c-0.14,1.74 -0.21,3.46 -0.21,5.17c-0,16.52 6.47,31.77 17.15,43.11c3.65,5.67 8.07,11.05 13.41,15.94Zm-14.43,-17.57c-9.87,-11.12 -15.78,-25.72 -15.78,-41.48c-0,-1.7 0.07,-3.42 0.21,-5.14c0.17,-2.1 0.44,-4.17 0.81,-6.2c0.789,16.82 4.5,36.02 14.76,52.82Z" style="fill:#36353d;fill-rule:nonzero;"/><path d="M101.497,112.086c-10.68,-11.34 -17.15,-26.59 -17.15,-43.11c-0,-1.71 0.07,-3.43 0.21,-5.17c0.22,-2.6 0.58,-5.16 1.1,-7.66c0.02,0.49 0.04,0.99 0.06,1.49c-0.37,2.03 -0.64,4.1 -0.81,6.2c-0.14,1.72 -0.21,3.44 -0.21,5.14c-0,15.76 5.91,30.36 15.78,41.48c0.329,0.54 0.67,1.09 1.02,1.63Z" style="fill:#6f7079;fill-rule:nonzero;"/></g></g></g></svg>