<?xml version="1.0" encoding="UTF-8" standalone="no"?><!DOCTYPE svg PUBLIC "-//W3C//DTD SVG 1.1//EN" "http://www.w3.org/Graphics/SVG/1.1/DTD/svg11.dtd"><svg width="100%" height="100%" viewBox="0 0 217 189" version="1.1" xmlns="http://www.w3.org/2000/svg" xmlns:xlink="http://www.w3.org/1999/xlink" xml:space="preserve" xmlns:serif="http://www.serif.com/" style="fill-rule:evenodd;clip-rule:evenodd;stroke-linejoin:round;stroke-miterlimit:2;"><g><g><g><path d="M196.905,90.175l-0,66.091l-6.331,0.52l-182.727,15.435l0,-96.259l189.058,14.213Z" style="fill:#7a1b0c;fill-rule:nonzero;"/><path d="M190.574,100.988l0,55.798l-182.727,15.435l0,-85.434l182.727,14.201Z" style="fill:#4c1800;fill-rule:nonzero;"/><path d="M78.35,83.788l0,93.877c0,2.09 1.629,3.789 3.681,3.908l0,0.022l23.216,0l0,-0.034c1.997,-0.183 3.561,-1.849 3.561,-3.896l-0,-93.877l-30.458,0Z" style="fill:#400000;fill-rule:nonzero;"/><path d="M108.749,67.142l-0,104.365c-0,2.035 -1.57,3.713 -3.561,3.875l-0,0.054l-23.218,0l0,-0.022c-2.061,-0.13 -3.68,-1.819 -3.68,-3.907l0,-104.365c0,-2.079 1.619,-3.789 3.68,-3.897l0,-0.033l23.218,0l-0,0.043c1.991,0.184 3.561,1.851 3.561,3.887Z" style="fill:#dd995e;fill-rule:nonzero;"/><path d="M90.186,72.575c0,1.861 1.521,3.387 3.388,3.387c1.877,0 3.388,-1.526 3.388,-3.387c0,-1.873 -1.511,-3.389 -3.388,-3.389c-1.867,0 -3.388,1.516 -3.388,3.389Z" style="fill:#400000;fill-rule:nonzero;"/><path d="M90.181,165.434c-0,1.873 1.515,3.388 3.387,3.388c1.878,0 3.394,-1.515 3.394,-3.388c0,-1.872 -1.516,-3.388 -3.394,-3.388c-1.872,0 -3.387,1.516 -3.387,3.388Z" style="fill:#400000;fill-rule:nonzero;"/><path d="M41.705,72.824l0,111.628c0,2.09 1.628,3.777 3.685,3.908l-0,0.022l23.224,0l-0,-0.033c1.991,-0.184 3.55,-1.851 3.55,-3.897l0,-111.628l-30.459,0Z" style="fill:#400000;fill-rule:nonzero;"/><path d="M72.11,56.187l0,122.095c0,2.057 -1.57,3.723 -3.562,3.887l0,0.031l-23.211,0l-0,-0.01c-2.062,-0.131 -3.691,-1.818 -3.691,-3.908l-0,-122.095c-0,-2.1 1.629,-3.788 3.691,-3.919l-0,-0.021l23.211,0l0,0.033c1.992,0.195 3.562,1.851 3.562,3.907Z" style="fill:#dd995e;fill-rule:nonzero;"/><path d="M53.546,61.61c-0,1.873 1.516,3.388 3.389,3.388c1.877,0 3.387,-1.515 3.387,-3.388c-0,-1.87 -1.51,-3.398 -3.387,-3.398c-1.873,0 -3.389,1.528 -3.389,3.398Z" style="fill:#400000;fill-rule:nonzero;"/><path d="M53.546,172.221c-0,1.873 1.516,3.387 3.389,3.387c1.877,0 3.387,-1.514 3.387,-3.387c-0,-1.873 -1.51,-3.399 -3.387,-3.399c-1.873,0 -3.389,1.526 -3.389,3.399Z" style="fill:#400000;fill-rule:nonzero;"/><path d="M114.822,84.016l-0,88.985c-0,2.099 1.635,3.777 3.691,3.906l0,0.033l23.217,0l0,-0.043c1.992,-0.195 3.556,-1.851 3.556,-3.896l0,-88.985l-30.464,0Z" style="fill:#400000;fill-rule:nonzero;"/><path d="M145.22,75.39l0,91.441c0,2.045 -1.564,3.701 -3.55,3.897l-0,0.042l-23.217,0l0,-0.032c-2.057,-0.13 -3.692,-1.818 -3.692,-3.907l-0,-91.441c-0,-2.1 1.635,-3.8 3.692,-3.919l0,-0.032l23.217,0l-0,0.042c1.986,0.195 3.55,1.852 3.55,3.909Z" style="fill:#dd995e;fill-rule:nonzero;"/><path d="M126.663,80.812c-0,1.872 1.52,3.399 3.393,3.399c1.873,0 3.389,-1.527 3.389,-3.399c0,-1.872 -1.516,-3.399 -3.389,-3.399c-1.873,0 -3.393,1.527 -3.393,3.399Z" style="fill:#400000;fill-rule:nonzero;"/><path d="M126.663,160.759c-0,1.872 1.515,3.398 3.393,3.398c1.873,0 3.389,-1.526 3.389,-3.398c0,-1.874 -1.516,-3.399 -3.389,-3.399c-1.878,0 -3.393,1.525 -3.393,3.399Z" style="fill:#400000;fill-rule:nonzero;"/><path d="M151.017,93.389l-0,71.504c-0,2.089 1.629,3.788 3.685,3.908l-0,0.021l23.212,0l0,-0.032c2.003,-0.195 3.562,-1.851 3.562,-3.897l-0,-71.504l-30.459,0Z" style="fill:#400000;fill-rule:nonzero;"/><path d="M181.411,84.752l0,73.961c0,2.055 -1.57,3.711 -3.562,3.907l-0,0.022l-23.211,0l0,-0.011c-2.056,-0.119 -3.691,-1.829 -3.691,-3.918l-0,-73.961c-0,-2.1 1.635,-3.8 3.691,-3.908l0,-0.042l23.211,0l-0,0.053c1.992,0.173 3.562,1.84 3.562,3.897Z" style="fill:#dd995e;fill-rule:nonzero;"/><path d="M162.847,90.175c-0,1.873 1.528,3.388 3.4,3.388c1.872,0 3.387,-1.515 3.387,-3.388c0,-1.873 -1.515,-3.399 -3.387,-3.399c-1.872,0 -3.4,1.526 -3.4,3.399Z" style="fill:#400000;fill-rule:nonzero;"/><path d="M162.847,152.662c-0,1.872 1.516,3.388 3.389,3.388c1.883,0 3.398,-1.516 3.398,-3.388c0,-1.884 -1.515,-3.409 -3.398,-3.409c-1.873,0 -3.389,1.525 -3.389,3.409Z" style="fill:#400000;fill-rule:nonzero;"/><rect x="0" y="71.439" width="33.176" height="100.782" style="fill:#7a1b0c;fill-rule:nonzero;"/><rect x="0" y="76.72" width="33.176" height="95.501" style="fill:#630300;"/><path d="M56.659,151.381c-1.261,-5.903 -2.285,-12.02 -3.113,-18.192l-0,-71.579c-0,1.78 1.369,3.236 3.113,3.377l-0,86.394Zm-3.113,-89.771l-0,-9.363l3.113,0l-0,5.976c-1.744,0.141 -3.113,1.61 -3.113,3.387Z" style="fill:#c67d38;fill-rule:nonzero;"/><path d="M56.659,64.987c-1.744,-0.141 -3.113,-1.597 -3.113,-3.377c-0,-1.777 1.369,-3.246 3.113,-3.387l-0,6.764Z" style="fill:#380000;fill-rule:nonzero;"/><path d="M65.474,179.187c-1.112,-2.389 -2.145,-4.901 -3.105,-7.516l0,-119.424l3.105,0l-0,126.94Z" style="fill:#c67d38;fill-rule:nonzero;"/><path d="M91.734,150.693c-1.286,-5.696 -2.306,-11.645 -3.111,-17.657l-0,-39.038c1.067,-0.11 2.12,-0.397 3.111,-0.858l0,57.553Zm-0.276,-75.476c-0.043,-0.019 -0.087,-0.037 -0.131,-0.055c-0.87,-0.358 -1.781,-0.585 -2.704,-0.682l-0,-11.268l3.111,0l0,6.518c-0.931,0.603 -1.548,1.652 -1.548,2.845c0,1.064 0.497,2.019 1.272,2.642Z" style="fill:#c67d38;fill-rule:nonzero;"/><path d="M91.734,75.34c-0.092,-0.043 -0.183,-0.084 -0.276,-0.123c-0.775,-0.623 -1.272,-1.578 -1.272,-2.642c0,-1.193 0.617,-2.242 1.548,-2.845l0,5.61Z" style="fill:#380000;fill-rule:nonzero;"/><path d="M98.526,171.934c-0.701,-1.561 -1.365,-3.178 -1.993,-4.847c0.273,-0.489 0.429,-1.052 0.429,-1.653c0,-1.197 -0.62,-2.249 -1.558,-2.852l-0,-72.403c1.336,-1.752 2.004,-3.847 2.004,-5.941c-0,-1.771 -0.478,-3.543 -1.433,-5.107l2.551,-2.581l0,95.384Z" style="fill:#c67d38;fill-rule:nonzero;"/><path d="M96.533,167.087c-0.39,-1.035 -0.766,-2.089 -1.129,-3.161l-0,-1.344c0.938,0.603 1.558,1.655 1.558,2.852c0,0.601 -0.156,1.164 -0.429,1.653Z" style="fill:#380000;fill-rule:nonzero;"/><path d="M96.689,71.238c-0.268,-0.626 -0.718,-1.154 -1.285,-1.518l-0,-6.508l3.122,0l0,6.167l-1.837,1.859Z" style="fill:#c67d38;fill-rule:nonzero;"/><path d="M95.404,72.539l-0,-2.819c0.567,0.364 1.017,0.892 1.285,1.518l-1.285,1.301Z" style="fill:#380000;fill-rule:nonzero;"/><path d="M104.847,175.436l-3.102,0l-0,-102.144l3.102,-3.138l-0,105.282Zm-3.102,-109.316l-0,-2.908l2.874,0l-2.874,2.908Z" style="fill:#c67d38;fill-rule:nonzero;"/><path d="M122.019,113.615c-1.078,-18.657 -0.437,-35.273 -0.07,-42.176l0.07,0l0,42.176Z" style="fill:#c67d38;fill-rule:nonzero;"/><path d="M128.086,155.448c-1.247,-4.602 -2.272,-9.459 -3.112,-14.43l-0,-69.579l3.112,0l-0,6.607c-0.861,0.617 -1.423,1.627 -1.423,2.766c-0,1.138 0.562,2.149 1.423,2.766l-0,71.87Z" style="fill:#c67d38;fill-rule:nonzero;"/><path d="M128.086,83.578c-0.861,-0.617 -1.423,-1.628 -1.423,-2.766c-0,-1.139 0.562,-2.149 1.423,-2.766l-0,5.532Z" style="fill:#380000;fill-rule:nonzero;"/><path d="M134.868,170.77l-1.221,0c-0.667,-1.373 -1.299,-2.801 -1.898,-4.28l-0,-2.788c1.014,-0.588 1.696,-1.688 1.696,-2.943c0,-1.256 -0.682,-2.356 -1.696,-2.944l-0,-74.059c1.014,-0.588 1.696,-1.689 1.696,-2.944c0,-1.256 -0.682,-2.356 -1.696,-2.944l-0,-6.429l3.119,0l0,99.331Z" style="fill:#c67d38;fill-rule:nonzero;"/><path d="M131.749,83.756l-0,-5.888c1.014,0.588 1.696,1.688 1.696,2.944c0,1.255 -0.682,2.356 -1.696,2.944Z" style="fill:#380000;fill-rule:nonzero;"/><path d="M131.749,163.702l-0,-5.887c1.014,0.588 1.696,1.688 1.696,2.944c0,1.255 -0.682,2.355 -1.696,2.943Z" style="fill:#380000;fill-rule:nonzero;"/><path d="M141.199,170.77l-3.106,0l-0,-79.477l0.877,0.874l2.229,-2.257l0,80.86Zm-3.106,-84.914l-0,-14.417l3.106,0l0,11.273l-3.106,3.144Z" style="fill:#c67d38;fill-rule:nonzero;"/><path d="M158.139,136.04c-3.458,-22.522 -2.541,-47.171 -2.11,-55.238l-0.99,0l3.1,0l0,55.238Z" style="fill:#c67d38;fill-rule:nonzero;"/><path d="M164.201,159.664c-1.186,-2.898 -2.216,-6.032 -3.107,-9.319l-0,-69.543l3.107,0l-0,6.661c-0.822,0.622 -1.354,1.606 -1.354,2.712c-0,1.105 0.532,2.086 1.354,2.705l-0,57.055c-0.823,0.622 -1.354,1.612 -1.354,2.727c-0,1.108 0.531,2.092 1.354,2.71l-0,4.292Z" style="fill:#c67d38;fill-rule:nonzero;"/><path d="M164.201,92.88c-0.822,-0.619 -1.354,-1.6 -1.354,-2.705c-0,-1.106 0.532,-2.09 1.354,-2.712l-0,5.417Z" style="fill:#380000;fill-rule:nonzero;"/><path d="M164.201,155.372c-0.823,-0.618 -1.354,-1.602 -1.354,-2.71c-0,-1.115 0.531,-2.105 1.354,-2.727l-0,5.437Z" style="fill:#380000;fill-rule:nonzero;"/><path d="M170.988,162.642l-3.108,0l0,-7.013c1.048,-0.577 1.754,-1.689 1.754,-2.967c0,-1.286 -0.706,-2.405 -1.754,-2.986l0,-56.531c1.046,-0.577 1.754,-1.69 1.754,-2.97c0,-1.28 -0.708,-2.398 -1.754,-2.978l0,-6.395l3.108,0l0,81.84Z" style="fill:#c67d38;fill-rule:nonzero;"/><path d="M167.88,93.145l0,-5.948c1.046,0.58 1.754,1.698 1.754,2.978c0,1.28 -0.708,2.393 -1.754,2.97Z" style="fill:#380000;fill-rule:nonzero;"/><path d="M167.88,155.629l0,-5.953c1.048,0.581 1.754,1.7 1.754,2.986c0,1.278 -0.706,2.39 -1.754,2.967Z" style="fill:#380000;fill-rule:nonzero;"/><rect x="174.203" y="80.802" width="3.111" height="81.84" style="fill:#c67d38;fill-rule:nonzero;"/><path d="M214.695,15.5l-75.725,76.667l-3.583,-3.572l75.747,-76.666c1.098,-1.094 2.462,-1.625 3.506,-1.452c0.412,0.055 0.764,0.217 1.034,0.499c0.979,0.974 0.547,3.019 -0.979,4.524Z" style="fill:#fcc9a6;fill-rule:nonzero;"/><path d="M138.97,92.167l-3.583,-3.572l75.747,-76.666c0.961,-0.958 2.126,-1.484 3.102,-1.484c0.139,0 0.274,0.011 0.404,0.032c-4.497,4.071 -14.406,13.715 -19.656,24.754l-56.014,56.936Z" style="fill:#f9a375;fill-rule:nonzero;"/><path d="M140.063,101.627c-2.078,2.078 -4.849,3.019 -7.577,2.857c-2.295,-0.151 -4.551,-1.101 -6.311,-2.857c-3.831,-3.832 -3.831,-10.045 -0,-13.876c2.88,-2.891 7.134,-3.615 10.684,-2.144c1.175,0.476 2.258,1.191 3.204,2.144c3.832,3.831 3.832,10.044 -0,13.876Z" style="fill:#450100;fill-rule:nonzero;"/><path d="M140.063,101.627c-2.078,2.078 -4.849,3.019 -7.577,2.857c-1.163,-0.487 -2.251,-1.202 -3.198,-2.143c-3.837,-3.842 -3.837,-10.041 -0,-13.876c2.084,-2.078 4.854,-3.031 7.571,-2.858c1.175,0.476 2.258,1.191 3.204,2.144c3.832,3.831 3.832,10.044 -0,13.876Z" style="fill:#7a1b0c;fill-rule:nonzero;"/><path d="M138.738,102.298c-0.926,0.93 -2.182,1.375 -3.395,1.277c-1.033,-0.055 -2.034,-0.487 -2.824,-1.277c-1.716,-1.721 -1.716,-4.503 0,-6.213c1.287,-1.299 3.193,-1.623 4.783,-0.963c0.526,0.227 1.018,0.541 1.436,0.963c1.72,1.71 1.72,4.492 0,6.213Z" style="fill:#a93023;fill-rule:nonzero;"/><path d="M169.169,5.065l-75.742,76.645l-3.566,-3.561l75.736,-76.656c1.104,-1.104 2.463,-1.634 3.518,-1.461c0.394,0.043 0.758,0.217 1.028,0.498c0.986,0.975 0.546,3.02 -0.974,4.535Z" style="fill:#fcc9a6;fill-rule:nonzero;"/><path d="M95.971,79.125c-0.399,-0.652 -0.88,-1.267 -1.444,-1.831c-0.666,-0.655 -1.406,-1.211 -2.193,-1.648l73.263,-74.153c0.966,-0.966 2.129,-1.493 3.111,-1.493c0.14,0 0.275,0.011 0.407,0.032c-4.508,4.071 -14.407,13.725 -19.667,24.744l-53.477,54.349Z" style="fill:#f9a375;fill-rule:nonzero;"/><path d="M94.527,91.182c-2.078,2.077 -4.856,3.03 -7.572,2.846c-2.3,-0.14 -4.551,-1.094 -6.305,-2.846c-3.842,-3.843 -3.842,-10.046 -0,-13.888c2.879,-2.879 7.122,-3.594 10.677,-2.132c1.165,0.475 2.257,1.204 3.2,2.132c3.841,3.842 3.841,10.045 0,13.888Z" style="fill:#450100;fill-rule:nonzero;"/><path d="M94.527,91.182c-2.078,2.077 -4.856,3.03 -7.572,2.846c-1.164,-0.465 -2.256,-1.19 -3.195,-2.143c-3.836,-3.821 -3.836,-10.034 0,-13.876c2.074,-2.068 4.851,-3.02 7.567,-2.847c1.165,0.475 2.257,1.204 3.2,2.132c3.841,3.842 3.841,10.045 0,13.888Z" style="fill:#7a1b0c;fill-rule:nonzero;"/><path d="M93.211,91.863c-0.936,0.921 -2.18,1.353 -3.393,1.277c-1.033,-0.075 -2.046,-0.487 -2.83,-1.277c-1.721,-1.731 -1.721,-4.512 0,-6.234c1.292,-1.299 3.198,-1.613 4.789,-0.95c0.519,0.214 1.007,0.527 1.434,0.95c1.716,1.722 1.716,4.503 -0,6.234Z" style="fill:#a93023;fill-rule:nonzero;"/><path d="M32.331,172.222l-32.331,0l0,-54.998c6.56,19.657 16.691,39.811 32.331,54.998Z" style="fill:#7a1b0c;fill-rule:nonzero;"/><path d="M66.953,182.2l-1.479,0l-0,-3.013c0.479,1.028 0.971,2.032 1.479,3.013Zm-4.584,0l-5.71,0l-0,-6.603c0.091,0.008 0.183,0.011 0.276,0.011c1.877,0 3.387,-1.514 3.387,-3.387c-0,-1.873 -1.51,-3.399 -3.387,-3.399c-0.093,0 -0.185,0.004 -0.276,0.011l-0,-17.452c1.53,7.167 3.41,14.026 5.71,20.29l0,10.529Zm-8.823,0l-4.697,0l-0,-129.953l2.155,0c-0.648,11.961 -1.969,47.3 2.542,80.942l-0,49.011Zm-7.804,0l-0.405,0l-0,-0.01c-2.062,-0.131 -3.691,-1.818 -3.691,-3.908l-0,-122.095c-0,-2.1 1.629,-3.788 3.691,-3.919l-0,-0.021l0.405,0l0,129.953Z" style="fill:#c56b37;fill-rule:nonzero;"/><path d="M56.935,175.608c-0.093,0 -0.185,-0.003 -0.276,-0.011l-0,-6.764c0.091,-0.007 0.183,-0.011 0.276,-0.011c1.877,0 3.387,1.526 3.387,3.399c-0,1.873 -1.51,3.387 -3.387,3.387Z" style="fill:#380000;fill-rule:nonzero;"/><rect x="45.742" y="52.247" width="3.107" height="129.953" style="fill:#b25b30;fill-rule:nonzero;"/><path d="M56.659,182.2l-3.113,0l-0,-9.979c-0,1.78 1.369,3.236 3.113,3.376l-0,6.603Zm-3.113,-9.979l-0,-39.032c0.828,6.172 1.852,12.289 3.113,18.192l-0,17.452c-1.744,0.141 -3.113,1.608 -3.113,3.388Z" style="fill:#b25b30;fill-rule:nonzero;"/><path d="M56.659,175.597c-1.744,-0.14 -3.113,-1.596 -3.113,-3.376c-0,-1.78 1.369,-3.247 3.113,-3.388l-0,6.764Z" style="fill:#320000;fill-rule:nonzero;"/><path d="M65.474,182.2l-3.105,0l0,-10.529c0.96,2.615 1.993,5.127 3.105,7.516l-0,3.013Z" style="fill:#b25b30;fill-rule:nonzero;"/><path d="M100.214,175.436l-18.693,0l-0,-0.022c-1.703,-0.115 -3.065,-1.463 -3.166,-3.185c0.323,1.744 1.797,3.071 3.615,3.185l0,0.022l18.244,0Z" style="fill:#380000;fill-rule:nonzero;"/><path d="M100.214,175.436l-1.688,0l0,-3.502c0.54,1.203 1.103,2.371 1.688,3.502Zm-4.81,0l-3.67,0l0,-7.152c0.528,0.341 1.158,0.538 1.834,0.538c0.677,0 1.307,-0.197 1.836,-0.536l-0,7.15Zm-6.781,0l-2.951,0l-0,-81.572c0.075,0.015 0.149,0.028 0.224,0.041c0.202,11.928 0.926,25.685 2.727,39.131l-0,42.4Zm-6.057,0l-0.596,0l0,-0.022c-1.818,-0.114 -3.292,-1.441 -3.615,-3.185c-0.003,-0.067 -0.005,-0.135 -0.005,-0.203l0,-84.457c0.475,1.317 1.242,2.555 2.3,3.613c0.588,0.588 1.231,1.086 1.916,1.493l0,82.761Zm9.168,-12.852l0,-11.891c0.907,4.017 1.946,7.911 3.134,11.61c-0.4,-0.166 -0.839,-0.257 -1.3,-0.257c-0.676,0 -1.306,0.197 -1.834,0.538Z" style="fill:#c56b37;fill-rule:nonzero;"/><path d="M93.568,168.822c-0.676,0 -1.306,-0.197 -1.834,-0.538l0,-5.7c0.528,-0.341 1.158,-0.538 1.834,-0.538c0.461,0 0.9,0.091 1.3,0.257c0.176,0.545 0.354,1.086 0.536,1.623l-0,4.36c-0.529,0.339 -1.159,0.536 -1.836,0.536Z" style="fill:#380000;fill-rule:nonzero;"/><path d="M85.672,175.436l-3.106,0l0,-82.761c0.973,0.58 2.024,0.977 3.106,1.189l-0,81.572Z" style="fill:#b25b30;fill-rule:nonzero;"/><path d="M91.734,175.436l-3.111,0l-0,-42.4c0.805,6.012 1.825,11.961 3.111,17.657l0,11.891c-0.935,0.603 -1.553,1.654 -1.553,2.85c-0,1.197 0.618,2.247 1.553,2.85l0,7.152Z" style="fill:#b25b30;fill-rule:nonzero;"/><path d="M91.734,168.284c-0.935,-0.603 -1.553,-1.653 -1.553,-2.85c-0,-1.196 0.618,-2.247 1.553,-2.85l0,5.7Z" style="fill:#320000;fill-rule:nonzero;"/><path d="M98.526,175.436l-3.122,0l-0,-7.15c0.468,-0.301 0.857,-0.713 1.129,-1.199c0.628,1.669 1.292,3.286 1.993,4.847l0,3.502Z" style="fill:#b25b30;fill-rule:nonzero;"/><path d="M95.404,168.286l-0,-4.36c0.363,1.072 0.739,2.126 1.129,3.161c-0.272,0.486 -0.661,0.898 -1.129,1.199Z" style="fill:#320000;fill-rule:nonzero;"/><path d="M78.35,66.453c0.02,-1.801 1.414,-3.242 3.171,-3.339l-0,-0.021l4.909,0c-0.002,0.04 -0.004,0.078 -0.006,0.119l-4.454,0l0,0.033c-1.828,0.095 -3.309,1.452 -3.62,3.208Z" style="fill:#dd995f;fill-rule:nonzero;"/><path d="M78.35,80.906l0,-14.453c0.311,-1.756 1.792,-3.113 3.62,-3.208l0,-0.033l4.454,0c-0.141,2.63 -0.318,6.527 -0.442,11.344c-0.103,0.017 -0.206,0.036 -0.31,0.056l-0,-11.4l-3.106,0l0,12.59c-0.685,0.407 -1.329,0.904 -1.916,1.492c-1.058,1.058 -1.825,2.295 -2.3,3.612Z" style="fill:#c56b37;fill-rule:nonzero;"/><path d="M82.566,75.802l0,-12.59l3.106,0l-0,11.4c-1.081,0.214 -2.134,0.611 -3.106,1.19Z" style="fill:#b25b30;fill-rule:nonzero;"/><path d="M85.896,93.905c-0.075,-0.013 -0.149,-0.026 -0.224,-0.041c-1.082,-0.212 -2.133,-0.609 -3.106,-1.189c-0.685,-0.407 -1.328,-0.905 -1.916,-1.493c-1.058,-1.058 -1.825,-2.296 -2.3,-3.613l0,-6.663c0.475,-1.317 1.242,-2.554 2.3,-3.612c0.587,-0.588 1.231,-1.085 1.916,-1.492c0.972,-0.579 2.025,-0.976 3.106,-1.19c0.104,-0.02 0.207,-0.039 0.31,-0.056c-0.015,0.591 -0.029,1.195 -0.042,1.812c-0.782,0.433 -1.516,0.98 -2.18,1.641c-3.836,3.842 -3.836,10.055 0,13.876c0.646,0.656 1.365,1.204 2.129,1.633c0.002,0.128 0.004,0.259 0.007,0.387Z" style="fill:#3c0000;fill-rule:nonzero;"/><path d="M85.889,93.518c-0.764,-0.429 -1.483,-0.977 -2.129,-1.633c-3.836,-3.821 -3.836,-10.034 0,-13.876c0.664,-0.661 1.398,-1.208 2.18,-1.641c-0.074,3.396 -0.118,7.192 -0.106,11.284c-0.186,0.73 -0.182,1.498 0.012,2.228c0.009,1.192 0.023,2.404 0.043,3.638Z" style="fill:#6d1102;fill-rule:nonzero;"/><path d="M85.846,89.88c-0.194,-0.73 -0.198,-1.498 -0.012,-2.228c0.002,0.732 0.006,1.477 0.012,2.228Z" style="fill:#972418;fill-rule:nonzero;"/><path d="M114.822,169.92c-0.074,-0.262 -0.114,-0.54 -0.114,-0.827l0,-5.899l0.053,-0.004l-0,3.641c-0,0.236 0.021,0.466 0.061,0.689l-0,2.4Zm-0.061,-85.92l-0.053,-0.004l0,-9.613c0,-1.635 1.26,-2.944 2.846,-3.021l-0,-0.032l4.4,0c-0.001,0.036 -0.003,0.072 -0.005,0.109l-3.496,0l0,0.032c-2.057,0.119 -3.692,1.819 -3.692,3.919l-0,8.61Z" style="fill:#dd995f;fill-rule:nonzero;"/><path d="M114.761,95.096l-0.053,-0.004l0,-11.096l0.053,0.004l-0,11.096Z" style="fill:#6d1102;fill-rule:nonzero;"/><path d="M114.708,163.194l0,-68.102l0.053,0.004l-0,68.094l-0.053,0.004Z" style="fill:#430600;fill-rule:nonzero;"/><path d="M134.331,172.134l-16.777,0l-0,-0.022c-1.305,-0.08 -2.389,-0.974 -2.732,-2.192l-0,-2.4c0.313,1.761 1.806,3.103 3.631,3.218l0,0.032l15.194,0c0.225,0.461 0.452,0.915 0.684,1.364Z" style="fill:#380000;fill-rule:nonzero;"/><path d="M131.749,170.77l-3.663,0l-0,-7.244c0.555,0.397 1.235,0.631 1.97,0.631c0.261,0 0.515,-0.03 0.759,-0.086c0.301,0.819 0.614,1.628 0.934,2.419l-0,4.28Zm-6.775,0l-2.955,0l0,-57.155c0.517,8.947 1.428,18.363 2.955,27.403l-0,29.752Zm-6.066,0l-0.455,0l0,-0.032c-1.825,-0.115 -3.318,-1.457 -3.631,-3.218c-0.04,-0.223 -0.061,-0.453 -0.061,-0.689l-0,-91.441c-0,-2.1 1.635,-3.8 3.692,-3.919l0,-0.032l3.496,0l-3.041,0l-0,99.331Zm9.178,-12.779l-0,-2.543c0.201,0.738 0.406,1.468 0.618,2.193c-0.219,0.095 -0.426,0.213 -0.618,0.35Z" style="fill:#c56b37;fill-rule:nonzero;"/><path d="M130.056,164.157c-0.735,0 -1.415,-0.234 -1.97,-0.631l-0,-5.535c0.192,-0.137 0.399,-0.255 0.618,-0.35c0.647,2.215 1.349,4.365 2.111,6.43c-0.244,0.056 -0.498,0.086 -0.759,0.086Z" style="fill:#380000;fill-rule:nonzero;"/><path d="M122.019,170.77l-3.111,0l-0,-99.331l3.041,0c-0.367,6.903 -1.008,23.519 0.07,42.176l0,57.155Z" style="fill:#b25b30;fill-rule:nonzero;"/><path d="M128.086,170.77l-3.112,0l-0,-29.752c0.84,4.971 1.865,9.828 3.112,14.43l-0,2.543c-0.862,0.617 -1.423,1.628 -1.423,2.768c-0,1.139 0.561,2.15 1.423,2.767l-0,7.244Z" style="fill:#b25b30;fill-rule:nonzero;"/><path d="M128.086,163.526c-0.862,-0.617 -1.423,-1.628 -1.423,-2.767c-0,-1.14 0.561,-2.151 1.423,-2.768l-0,5.535Z" style="fill:#320000;fill-rule:nonzero;"/><path d="M133.647,170.77l-1.898,0l-0,-4.28c0.599,1.479 1.231,2.907 1.898,4.28Z" style="fill:#b25b30;fill-rule:nonzero;"/><path d="M165.515,162.642l-1.314,0l-0,-2.978c0.418,1.023 0.855,2.015 1.314,2.978Zm-4.421,0l-2.955,0l0,-26.602c0.758,4.936 1.726,9.77 2.955,14.305l-0,12.297Zm-6.055,0l-0.401,0l0,-0.011c-2.056,-0.119 -3.691,-1.829 -3.691,-3.918l-0,-73.961c-0,-2.1 1.635,-3.8 3.691,-3.908l0,-0.042l0.401,0l0,81.84Z" style="fill:#c56b37;fill-rule:nonzero;"/><path d="M158.139,162.642l-3.1,0l0,-81.84l0.99,0c-0.431,8.067 -1.348,32.716 2.11,55.238l0,26.602Z" style="fill:#b25b30;fill-rule:nonzero;"/><path d="M164.201,162.642l-3.107,0l-0,-12.297c0.891,3.287 1.921,6.421 3.107,9.319l-0,2.978Z" style="fill:#b25b30;fill-rule:nonzero;"/></g></g></g></svg>